<svg xmlns="http://www.w3.org/2000/svg" width="32" height="32" viewBox="0 0 32 32">
  <g id="archieve" transform="translate(-1206 -591)">
    <circle id="Ellipse_22" data-name="Ellipse 22" cx="16" cy="16" r="16" transform="translate(1206 591)" fill="#a0882d"/>
    <g id="cardboard-box" transform="translate(1212 538.75)">
      <path id="Path_154" data-name="Path 154" d="M19.414,60.25H.586A.586.586,0,0,0,0,60.836v3.53a.586.586,0,0,0,.586.586h.591v10a.586.586,0,0,0,.586.586H18.237a.586.586,0,0,0,.586-.586v-10h.591A.586.586,0,0,0,20,64.366v-3.53A.586.586,0,0,0,19.414,60.25ZM17.651,74.371H2.349V64.952h15.3ZM18.828,63.78H1.172V61.422H18.828Z" fill="#fff"/>
      <path id="Path_155" data-name="Path 155" d="M182.865,215.105h2.824a2.115,2.115,0,0,0,0-4.23h-2.824a2.115,2.115,0,0,0,0,4.23Zm0-2.824h2.824a.709.709,0,0,1,0,1.418h-2.824a.709.709,0,0,1,0-1.418Z" transform="translate(-174.277 -145.094)" fill="#fff"/>
    </g>
  </g>
</svg>
