<svg xmlns="http://www.w3.org/2000/svg" width="34" height="34" viewBox="0 0 34 34">
  <g id="Group_1000" data-name="Group 1000" transform="translate(-973 -104)">
    <g id="Ellipse_6" data-name="Ellipse 6" transform="translate(973 104)" fill="#f1f1f1" stroke="#d4d4d4" stroke-width="1">
      <circle cx="17" cy="17" r="17" stroke="none"/>
      <circle cx="17" cy="17" r="16.5" fill="none"/>
    </g>
    <g id="bell_1_" data-name="bell (1)" transform="translate(983.963 113.262)">
      <path id="Path_108" data-name="Path 108" d="M13.921,10.4a4.12,4.12,0,0,1-1.463-3.153V5.536A4.31,4.31,0,0,0,8.767,1.28V.615a.615.615,0,0,0-1.23,0V1.28A4.309,4.309,0,0,0,3.845,5.536V7.251a4.125,4.125,0,0,1-1.469,3.158,1.076,1.076,0,0,0,.7,1.894h10.15a1.076,1.076,0,0,0,.695-1.9Z" transform="translate(-2 0)" fill="#818181"/>
      <path id="Path_109" data-name="Path 109" d="M10.586,22.845A2.311,2.311,0,0,0,12.846,21H8.326A2.311,2.311,0,0,0,10.586,22.845Z" transform="translate(-4.435 -8.082)" fill="#818181"/>
    </g>
  </g>
</svg>
