<svg xmlns="http://www.w3.org/2000/svg" width="43.898" height="48.71" viewBox="0 0 43.898 48.71">
  <g id="building" transform="translate(-6 -3)">
    <path id="Path_1044" data-name="Path 1044" d="M9,7H43.353V44.962H9Z" transform="translate(-0.288 -0.385)" fill="#e0e0e2" stroke="#000" stroke-width="1"/>
    <path id="Path_1045" data-name="Path 1045" d="M26,11h5.423v7.231H26Z" transform="translate(-3.489 -0.769)" fill="#2488ff"/>
    <path id="Path_1046" data-name="Path 1046" d="M39,11h5.423v7.231H39Z" transform="translate(-5.757 -0.769)" fill="#2488ff"/>
    <path id="Path_1047" data-name="Path 1047" d="M39,23h5.423v7.231H39Z" transform="translate(-5.757 -3.531)" fill="#0070c0"/>
    <path id="Path_1048" data-name="Path 1048" d="M43.975,3V6.615H6V3Z" transform="translate(0 0)" fill="#34434e"/>
    <path id="Path_1049" data-name="Path 1049" d="M33.038,42.519v5.423H24V42.519a4.519,4.519,0,0,1,9.038,0Z" transform="translate(-3.275 -6.36)" fill="#e1c42b"/>
    <path id="Path_1050" data-name="Path 1050" d="M28.971,38.045c-.151-.014-.3-.045-.452-.045A4.519,4.519,0,0,0,24,42.519v5.423h.9V42.519a4.507,4.507,0,0,1,4.067-4.474Z" transform="translate(-3.125 -6.36)" fill="#957856"/>
    <path id="Path_1051" data-name="Path 1051" d="M26,23h5.423v7.231H26Z" transform="translate(-3.489 -3.531)" fill="#0070c0"/>
    <path id="Path_1052" data-name="Path 1052" d="M13,23h5.423v7.231H13Z" transform="translate(-0.673 -3.531)" fill="#2488ff"/>
    <path id="Path_1054" data-name="Path 1054" d="M24,18h9.038v1.808H24Z" transform="translate(-3.275 -2.519)" fill="#003f8a"/>
    <path id="Path_1055" data-name="Path 1055" d="M37,18h9.038v1.808H37Z" transform="translate(-5.639 -2.519)" fill="#003f8a"/>
    <path id="Path_1056" data-name="Path 1056" d="M11,30h9.038v1.808H11Z" transform="translate(-0.481 -4.534)" fill="#003f8a"/>
    <path id="Path_1057" data-name="Path 1057" d="M24,30h9.038v1.808H24Z" transform="translate(-3.275 -4.534)" fill="#003f8a"/>
    <path id="Path_1058" data-name="Path 1058" d="M37,30h7.231v1.808H37Z" transform="translate(-5.519 -4.534)" fill="#003f8a"/>
    <path id="Path_1059" data-name="Path 1059" d="M9,7H43.353v.9H9Z" transform="translate(-0.288 -0.385)" fill="#2d2d30"/>
    <path id="Path_1060" data-name="Path 1060" d="M13,11h5.423v7.231H13Z" transform="translate(-0.673 -0.769)" fill="#2488ff"/>
    <g id="Group_995" data-name="Group 995" transform="translate(12.327 10.231)">
      <path id="Path_1061" data-name="Path 1061" d="M13,11v5.67L17.8,11Z" transform="translate(-13 -11)" fill="#0070c0"/>
      <path id="Path_1062" data-name="Path 1062" d="M26,11v5.67L30.8,11Z" transform="translate(-14.25 -11)" fill="#0070c0"/>
      <path id="Path_1063" data-name="Path 1063" d="M39,11v5.67L43.8,11Z" transform="translate(-15.5 -11)" fill="#0070c0"/>
      <path id="Path_1064" data-name="Path 1064" d="M39,23v5.67L43.8,23Z" transform="translate(-15.5 -12.154)" fill="#006df0"/>
      <path id="Path_1065" data-name="Path 1065" d="M26,23v5.67L30.8,23Z" transform="translate(-14.25 -12.154)" fill="#006df0"/>
      <path id="Path_1066" data-name="Path 1066" d="M13,23v5.67L17.8,23Z" transform="translate(-13 -12.154)" fill="#0070c0"/>
    </g>
    <path id="Path_1067" data-name="Path 1067" d="M11,18h9.038v1.808H11Z" transform="translate(-0.481 -2.519)" fill="#003f8a"/>
    <g id="Group_996" data-name="Group 996">
      <ellipse id="Ellipse_80" data-name="Ellipse 80" cx="6.5" cy="2" rx="6.5" ry="2" transform="translate(33.898 47.21)" fill="#e1c42b" stroke="#000" stroke-width="1"/>
      <path id="Path_1068" data-name="Path 1068" d="M56.077,40.038c0,4.992-9.038,15.365-9.038,15.365S38,45.03,38,40.038a9.038,9.038,0,1,1,18.077,0Z" transform="translate(-6.679 -6.694)" fill="#e1c42b" stroke="#000" stroke-width="1"/>
      <circle id="Ellipse_81" data-name="Ellipse 81" cx="3.5" cy="3.5" r="3.5" transform="translate(36.898 31.449)" fill="#e58e13" stroke="#000" stroke-width="1"/>
    </g>
  </g>
</svg>
