<svg width="34" height="27" viewBox="0 0 34 27" fill="none" xmlns="http://www.w3.org/2000/svg">
<path d="M17.677 0.224C17.2312 0.224 16.8036 0.401105 16.4884 0.716353C16.1731 1.0316 15.996 1.45917 15.996 1.905V8.053H19.358V1.905C19.358 1.45917 19.1809 1.0316 18.8656 0.716353C18.5504 0.401105 18.1228 0.224 17.677 0.224V0.224Z" fill="#DFC136"/>
<path d="M26.01 10.325L27.448 21.252H25.207L24.099 10.325C23.685 6.238 21.008 3.076 17.754 3.025C19.7785 3.04375 21.7282 3.79245 23.245 5.13354C24.7617 6.47464 25.7435 8.31803 26.01 10.325Z" fill="#FEDC3D"/>
<path d="M17.677 1.485C17.5656 1.485 17.4588 1.52925 17.38 1.60802C17.3012 1.68678 17.257 1.79361 17.257 1.905V3.586H18.098V1.905C18.098 1.84976 18.0871 1.79506 18.0659 1.74404C18.0448 1.69302 18.0137 1.64667 17.9746 1.60766C17.9355 1.56865 17.8891 1.53773 17.838 1.51668C17.787 1.49564 17.7322 1.48487 17.677 1.485V1.485Z" fill="#BFA52E"/>
<path d="M24.099 10.324L25.207 21.251H7.906L9.344 10.324C9.61233 8.30395 10.6052 6.45013 12.138 5.10733C13.6709 3.76454 15.6392 3.02419 17.677 3.024H17.754C21.008 3.075 23.685 6.237 24.099 10.324Z" fill="#FFE777"/>
<path d="M27.226 19.556H25.54L27.226 22.92H28.907V21.237C28.9057 20.7916 28.7282 20.3648 28.4132 20.0498C28.0982 19.7348 27.6714 19.5573 27.226 19.556V19.556Z" fill="#BFA52E"/>
<path d="M19.169 21.237L17.741 25.719C18.714 25.7088 19.6676 25.4452 20.5077 24.9542C21.3478 24.4632 22.0455 23.7617 22.532 22.919L19.169 21.237Z" fill="#FEDC3D"/>
<path d="M12.823 22.919L16.836 20.678L20.849 22.919C20.226 24.568 19.069 25.686 17.74 25.719H17.677C16.6933 25.7197 15.7267 25.4613 14.8746 24.9698C14.0225 24.4783 13.3149 23.7709 12.823 22.919Z" fill="#FFE777"/>
<path d="M27.225 21.237V22.92H6.448V21.237C6.44932 20.7909 6.6274 20.3635 6.94323 20.0484C7.25905 19.7333 7.68688 19.5563 8.133 19.556H25.544C25.9894 19.5573 26.4162 19.7348 26.7312 20.0498C27.0462 20.3648 27.2237 20.7916 27.225 21.237V21.237Z" fill="#DFC136"/>
<path d="M20.406 9.624C20.638 9.624 20.826 9.43596 20.826 9.204C20.826 8.97204 20.638 8.784 20.406 8.784C20.174 8.784 19.986 8.97204 19.986 9.204C19.986 9.43596 20.174 9.624 20.406 9.624Z" fill="#FEDC3D"/>
<path d="M22.648 10.745C22.88 10.745 23.068 10.557 23.068 10.325C23.068 10.093 22.88 9.905 22.648 9.905C22.416 9.905 22.228 10.093 22.228 10.325C22.228 10.557 22.416 10.745 22.648 10.745Z" fill="#FEDC3D"/>
<path d="M12.706 16.348C12.938 16.348 13.126 16.16 13.126 15.928C13.126 15.696 12.938 15.508 12.706 15.508C12.474 15.508 12.286 15.696 12.286 15.928C12.286 16.16 12.474 16.348 12.706 16.348Z" fill="#FEDC3D"/>
<line x1="1.4702" y1="24.8355" x2="33.1425" y2="2.76925" stroke="#930000" stroke-width="3"/>
</svg>
