<svg xmlns="http://www.w3.org/2000/svg" width="20.375" height="20.39" viewBox="0 0 20.375 20.39">
  <g id="consent" transform="translate(-0.188)">
    <path id="Path_123" data-name="Path 123" d="M19.727,4.522a1.675,1.675,0,0,0-2.285.612L15.959,7.7V5.576a.4.4,0,1,0-.8,0V9.084L10.788,16.66a.394.394,0,0,0-.051.157l-.3,2.778H.984V.8H15.162V1.991a.4.4,0,0,0,.8,0V.4a.4.4,0,0,0-.4-.4H.586a.4.4,0,0,0-.4.4V19.992a.4.4,0,0,0,.4.4H15.56a.4.4,0,0,0,.4-.4v-5.6L20.34,6.806a1.675,1.675,0,0,0-.613-2.285ZM11.464,17.509l1.148.663-1.324.967Zm3.7,2.084H12.016l1.56-1.139a.4.4,0,0,0,.11-.122l1.477-2.558Zm-1.967-2-1.518-.876,5.829-10.1,1.517.876ZM19.65,6.408l-.228.4L17.9,5.927l.228-.4a.876.876,0,1,1,1.517.876Z" fill="#34434e"/>
    <path id="Path_124" data-name="Path 124" d="M376.586,85a.4.4,0,1,0,.282.117A.4.4,0,0,0,376.586,85Z" transform="translate(-361.026 -81.615)" fill="#34434e"/>
    <path id="Path_125" data-name="Path 125" d="M95.631,106H87.586a.4.4,0,0,0,0,.8h8.045a.4.4,0,1,0,0-.8Z" transform="translate(-83.535 -101.779)" fill="#34434e"/>
    <path id="Path_126" data-name="Path 126" d="M95.631,162H87.586a.4.4,0,1,0,0,.8h8.045a.4.4,0,1,0,0-.8Z" transform="translate(-83.535 -155.548)" fill="#34434e"/>
    <path id="Path_127" data-name="Path 127" d="M218.293,218h-2.957a.4.4,0,1,0,0,.8h2.957a.4.4,0,0,0,0-.8Z" transform="translate(-206.198 -209.318)" fill="#34434e"/>
    <path id="Path_128" data-name="Path 128" d="M96.029,274.4a.4.4,0,0,0-.4-.4H87.586a.4.4,0,0,0,0,.8h8.045A.4.4,0,0,0,96.029,274.4Z" transform="translate(-83.535 -263.088)" fill="#34434e"/>
    <path id="Path_129" data-name="Path 129" d="M186.974,330.4a.4.4,0,0,0-.4-.4h-2.489a.4.4,0,1,0,0,.8h2.489A.4.4,0,0,0,186.974,330.4Z" transform="translate(-176.192 -316.858)" fill="#34434e"/>
    <path id="Path_130" data-name="Path 130" d="M87.586,386.8h3.5a.4.4,0,0,0,0-.8h-3.5a.4.4,0,0,0,0,.8Z" transform="translate(-83.535 -370.628)" fill="#34434e"/>
    <path id="Path_131" data-name="Path 131" d="M87.586,218.8h2.655a.4.4,0,0,0,0-.8H87.586a.4.4,0,0,0,0,.8Z" transform="translate(-83.535 -209.318)" fill="#34434e"/>
    <path id="Path_132" data-name="Path 132" d="M87.586,330.8h2.051a.4.4,0,1,0,0-.8H87.586a.4.4,0,1,0,0,.8Z" transform="translate(-83.535 -316.858)" fill="#34434e"/>
  </g>
</svg>
