<svg id="document" xmlns="http://www.w3.org/2000/svg" width="17.948" height="22.549" viewBox="0 0 17.948 22.549">
  <g id="XMLID_25_">
    <g id="Group_343" data-name="Group 343" transform="translate(0.46 0.46)">
      <path id="Path_616" data-name="Path 616" d="M344.142,14.142H340V10Z" transform="translate(-327.115 -10)" fill="#afb6bb"/>
      <path id="Path_617" data-name="Path 617" d="M77.027,14.142V31.629H60V10H72.885v4.142Z" transform="translate(-60 -10)" fill="#fff"/>
    </g>
    <g id="Group_344" data-name="Group 344">
      <path id="Path_618" data-name="Path 618" d="M67.946,4.6a.459.459,0,0,0-.134-.325L63.671.135A.459.459,0,0,0,63.346,0H50.46A.46.46,0,0,0,50,.46V22.089a.46.46,0,0,0,.46.46H67.487a.46.46,0,0,0,.46-.46V4.6ZM63.806,1.571l2.571,2.571H63.806ZM50.92,21.629V.92H62.885V4.6a.46.46,0,0,0,.46.46h3.682V21.629Z" transform="translate(-50)" fill="#ffe777"/>
      <rect id="Rectangle_250" data-name="Rectangle 250" width="11.994" height="0.875" transform="translate(3.677 7.403)" fill="#ffe777"/>
      <rect id="Rectangle_251" data-name="Rectangle 251" width="13.395" height="0.963" transform="translate(2.276 10.118)" fill="#ffe777"/>
      <rect id="Rectangle_252" data-name="Rectangle 252" width="13.395" height="0.875" transform="translate(2.276 12.919)" fill="#ffe777"/>
      <rect id="Rectangle_253" data-name="Rectangle 253" width="13.395" height="0.963" transform="translate(2.276 15.633)" fill="#ffe777"/>
      <rect id="Rectangle_254" data-name="Rectangle 254" width="10.593" height="0.875" transform="translate(2.276 18.435)" fill="#ffe777"/>
      <rect id="Rectangle_255" data-name="Rectangle 255" width="1.663" height="0.875" transform="translate(14.008 18.435)" fill="#ffe777"/>
      <rect id="Rectangle_256" data-name="Rectangle 256" width="2.802" height="0.963" transform="translate(2.276 2.063)" fill="#ffe777"/>
      <rect id="Rectangle_257" data-name="Rectangle 257" width="5.516" height="0.963" transform="translate(2.276 3.639)" fill="#ffe777"/>
    </g>
  </g>
</svg>
