<svg xmlns="http://www.w3.org/2000/svg" width="46.541" height="48.003" viewBox="0 0 46.541 48.003">
  <g id="earning" transform="translate(-7.797 0.001)">
    <g id="Group_991" data-name="Group 991" transform="translate(8.5 0.708)">
      <g id="Group_975" data-name="Group 975" transform="translate(9.299)">
        <g id="Group_974" data-name="Group 974">
          <g id="Group_973" data-name="Group 973">
            <g id="Group_970" data-name="Group 970">
              <g id="Group_969" data-name="Group 969">
                <path id="Path_1032" data-name="Path 1032" d="M133.161,15.749s4.6-5.97,3.277-7.682c-.451-.584-.835.209-1.767.209-1.1,0-1.1-.717-2.191-.717s-1.1.717-2.191.717-1.1-.717-2.19-.717-1.1.717-2.19.717c-.933,0-1.316-.8-1.77-.219-1.323,1.7,3.209,7.692,3.209,7.692C107.331,28.909,113.785,46.8,125.6,46.8h9.373C146.831,46.8,153.245,28.952,133.161,15.749Z" transform="translate(-114.473 -7.559)" fill="#e1c42b"/>
              </g>
            </g>
            <g id="Group_971" data-name="Group 971" transform="translate(12.089)">
              <path id="Path_1033" data-name="Path 1033" d="M250.014,15.749s4.6-5.97,3.277-7.682c-.451-.584-.835.209-1.767.209-1.1,0-1.1-.717-2.191-.717s-1.1.717-2.191.717c-.054,0-.1,0-.152-.006-.44,1.886-2.423,4.825-3.558,6.4.447.656.769,1.081.769,1.081q-.4.263-.786.529C262.54,29.424,256.141,46.8,244.444,46.8h7.385c11.854,0,18.269-17.853-1.815-31.056Z" transform="translate(-243.415 -7.559)" fill="#e58e13"/>
            </g>
            <g id="Group_972" data-name="Group 972" transform="translate(10.333 6.955)">
              <path id="Path_1034" data-name="Path 1034" d="M233.894,85.1a16,16,0,0,1-7.986,0,1.705,1.705,0,0,1-1.123-2.232l.011-.032a1.573,1.573,0,0,1,1.857-1.049,13,13,0,0,0,6.5,0,1.573,1.573,0,0,1,1.857,1.049l.011.032A1.705,1.705,0,0,1,233.894,85.1Z" transform="translate(-224.683 -81.738)" fill="#ffe07d"/>
            </g>
          </g>
        </g>
      </g>
      <g id="Group_990" data-name="Group 990" transform="translate(0 26.633)">
        <g id="Group_989" data-name="Group 989">
          <g id="Group_988" data-name="Group 988">
            <g id="Group_987" data-name="Group 987">
              <g id="Group_986" data-name="Group 986">
                <g id="Group_985" data-name="Group 985">
                  <g id="Group_984" data-name="Group 984">
                    <g id="Group_983" data-name="Group 983">
                      <g id="Group_982" data-name="Group 982">
                        <g id="Group_981" data-name="Group 981">
                          <g id="Group_980" data-name="Group 980" transform="translate(3.712 2.464)">
                            <g id="Group_979" data-name="Group 979">
                              <g id="Group_976" data-name="Group 976">
                                <path id="Path_1035" data-name="Path 1035" d="M54.883,331.116,65.062,334.9a7.746,7.746,0,0,0,2.7.487h10.49a7.746,7.746,0,0,0,4.146-1.2l13.135-8.323a2.305,2.305,0,0,0,.375-3.021,2.342,2.342,0,0,0-3.192-.617L79.93,327.859l.015-2.075a3.714,3.714,0,0,0-3.175-3.309l-7.787-.9a10.274,10.274,0,0,1-4.26-1.772,13.957,13.957,0,0,0-7.047-1.91H54.883v13.22Z" transform="translate(-54.883 -317.896)" fill="#ffddce"/>
                              </g>
                              <g id="Group_977" data-name="Group 977">
                                <path id="Path_1036" data-name="Path 1036" d="M54.883,331.116,65.062,334.9a7.746,7.746,0,0,0,2.7.487h10.49a7.746,7.746,0,0,0,4.146-1.2l13.135-8.323a2.305,2.305,0,0,0,.375-3.021,2.342,2.342,0,0,0-3.192-.617L79.93,327.859l.015-2.075a3.714,3.714,0,0,0-3.175-3.309l-7.787-.9a10.274,10.274,0,0,1-4.26-1.772,13.957,13.957,0,0,0-7.047-1.91H54.883v13.22Z" transform="translate(-54.883 -317.896)" fill="#ffddce"/>
                              </g>
                              <path id="Path_1037" data-name="Path 1037" d="M95.91,361.328a2.342,2.342,0,0,0-3.192-.617L89.2,362.26l.306.485a2.305,2.305,0,0,1-.375,3.021l-7.653,4.85a7.744,7.744,0,0,1-3.224.7H67.765a7.746,7.746,0,0,1-2.7-.486l-10.179-3.789V369.6l10.179,3.789a7.746,7.746,0,0,0,2.7.486h10.49a7.746,7.746,0,0,0,4.146-1.2l13.135-8.323A2.305,2.305,0,0,0,95.91,361.328Z" transform="translate(-54.884 -356.379)" fill="#ffcbbe"/>
                              <g id="Group_978" data-name="Group 978" transform="translate(24.107 5.751)">
                                <path id="Path_1038" data-name="Path 1038" d="M312,379.236v.05l.033-.015Z" transform="translate(-312.004 -379.236)" fill="#f5dbcc"/>
                              </g>
                            </g>
                          </g>
                          <path id="Path_1039" data-name="Path 1039" d="M21.2,309.331a1.337,1.337,0,0,1-1.337,1.337H16.632a1.337,1.337,0,0,1-1.337-1.337V292.957a1.337,1.337,0,0,1,1.337-1.337H19.86a1.337,1.337,0,0,1,1.337,1.337Z" transform="translate(-15.295 -291.62)" fill="#ff8029"/>
                        </g>
                      </g>
                    </g>
                  </g>
                </g>
              </g>
            </g>
          </g>
        </g>
      </g>
    </g>
    <g id="Group_992" data-name="Group 992" transform="translate(7.797 -0.001)">
      <path id="Path_1040" data-name="Path 1040" d="M53.819,34.357a3.019,3.019,0,0,0-4.065-.861l-.875.385a14.461,14.461,0,0,0,.864-9.311,22.462,22.462,0,0,0-5.66-10.235.7.7,0,1,0-1.036.95,21.083,21.083,0,0,1,5.324,9.589,12.607,12.607,0,0,1-1.65,9.957l-8.751,3.853.007-.988a.686.686,0,0,0,0-.075A4.406,4.406,0,0,0,34.2,33.687l-.018,0-7.778-.9c-2.991-.426-3.761-2.218-7.812-3.24A15.136,15.136,0,0,1,19.7,22.11a26.789,26.789,0,0,1,8.729-10.755c1.557,1.1,8.5,1.241,10.056-.183.8.6,1.556,1.228,2.264,1.858a.7.7,0,1,0,.935-1.05c-.776-.691-1.611-1.373-2.486-2.033a2.5,2.5,0,0,0-.839-2.494C40.564,4.116,41.2,1.931,40.32.786a1.229,1.229,0,0,0-1.686-.26A1.128,1.128,0,0,1,37.286.478a2.527,2.527,0,0,0-2.96,0,1.133,1.133,0,0,1-1.421,0,2.527,2.527,0,0,0-2.96,0A1.119,1.119,0,0,1,28.6.523a1.227,1.227,0,0,0-1.688.251C26.045,1.887,26.623,4,28.676,7.228a2.29,2.29,0,0,0-.357.239A4.747,4.747,0,0,0,24.23,5.922a5.152,5.152,0,0,1-3.5-.827.7.7,0,1,0-.783,1.168,6.547,6.547,0,0,0,4.437,1.056,3.435,3.435,0,0,1,3.14,1.373q-.013.045-.024.09a12.066,12.066,0,0,0-2.229.243A6.6,6.6,0,0,0,20.7,11.955a.7.7,0,1,0,1.214.71c1.282-2.191,4.411-2.459,5.654-2.476.005.015.012.031.017.046A27.779,27.779,0,0,0,18.4,21.584a16.687,16.687,0,0,0-1.254,7.676A14.63,14.63,0,0,0,15.1,29.1v-.425a2.042,2.042,0,0,0-2.04-2.04H9.837a2.043,2.043,0,0,0-2.04,2.04V45.051a2.042,2.042,0,0,0,2.04,2.04h3.227a2.043,2.043,0,0,0,2.04-2.04v-.2l7.04,2.62A8.423,8.423,0,0,0,25.092,48h10.49A8.436,8.436,0,0,0,40.1,46.69C54.1,37.819,53.249,38.37,53.329,38.3a3.015,3.015,0,0,0,.49-3.942ZM37.17,10.34a15.238,15.238,0,0,1-7.642,0c-1.1-.279-.784-2.247.4-1.949a13.71,13.71,0,0,0,6.838,0C37.933,8.1,38.291,10.056,37.17,10.34ZM27.956,1.774l.016.008a2.494,2.494,0,0,0,2.742-.128c1.2-.784,1.328.473,2.9.473a2.442,2.442,0,0,0,1.48-.473,1.134,1.134,0,0,1,1.421,0,2.508,2.508,0,0,0,2.754.126c.145.521-.183,2.076-2.267,5.18-1.035-.018-2.538,1-6.791.053-2.08-3.144-2.4-4.714-2.257-5.239ZM52.434,37.213,39.352,45.5A7.032,7.032,0,0,1,35.582,46.6H25.092a7.02,7.02,0,0,1-2.457-.442l-7.531-2.8V35.78a.7.7,0,1,0-1.406,0v9.272a.635.635,0,0,1-.634.634H9.837a.635.635,0,0,1-.634-.634V28.677a.635.635,0,0,1,.634-.634h3.227a.635.635,0,0,1,.634.634v3.815a.7.7,0,1,0,1.406,0V30.509c5.816.045,7.123,3.11,11.108,3.673l.018,0,7.778.9a3,3,0,0,1,2.562,2.646l-.01,1.337H29.307a.7.7,0,0,0,0,1.406h7.951a.728.728,0,0,0,.281-.059l12.79-5.631c.92-.409,1.758-.467,2.327.369A1.606,1.606,0,0,1,52.434,37.213Z" transform="translate(-7.797 0.001)"/>
      <path id="Path_1041" data-name="Path 1041" d="M243.859,172.666a.7.7,0,0,0,.7-.7V170.8a4.119,4.119,0,0,0,3.376-3.408,3.606,3.606,0,0,0-2.484-4.125c-.322-.114-.618-.223-.892-.328v-4.483a2.891,2.891,0,0,1,1.367.6.7.7,0,0,0,.949-1.037,4.357,4.357,0,0,0-2.317-.983v-1a.7.7,0,1,0-1.406,0v1.057a5.181,5.181,0,0,0-.522.127,3.4,3.4,0,0,0-2.327,2.669,2.973,2.973,0,0,0,.966,2.931,8.518,8.518,0,0,0,1.882,1.063v5.56a3.734,3.734,0,0,1-2.187-.758.7.7,0,0,0-.77,1.177,5.149,5.149,0,0,0,2.956.987v1.116A.7.7,0,0,0,243.859,172.666Zm-1.717-10.954a1.585,1.585,0,0,1-.452-1.564,2.011,2.011,0,0,1,1.35-1.583l.116-.032v3.8A5.93,5.93,0,0,1,242.142,161.712Zm2.843,2.879a2.213,2.213,0,0,1,1.566,2.566,2.738,2.738,0,0,1-1.989,2.2v-4.923Z" transform="translate(-218.122 -140.769)"/>
    </g>
  </g>
</svg>
