<svg xmlns="http://www.w3.org/2000/svg" width="20.018" height="25.873" viewBox="0 0 20.018 25.873">
  <g id="lab-active" transform="translate(-57.929)">
    <path id="Path_119" data-name="Path 119" d="M72.4,1.91V0H63.48V1.91H57.929V25.873H77.947V1.91ZM65,1.516h5.885v2.3H65ZM76.431,24.357H59.445V3.426H63.48v1.91H72.4V3.426h4.035Z" transform="translate(0)" fill="#fff"/>
    <path id="Path_120" data-name="Path 120" d="M133.021,415.752H145.45v1.516H133.021Z" transform="translate(-71.297 -394.743)" fill="#fff"/>
    <path id="Path_121" data-name="Path 121" d="M133.021,349.5H145.45v1.516H133.021Z" transform="translate(-71.297 -331.842)" fill="#fff"/>
    <path id="Path_122" data-name="Path 122" d="M136.918,142.523l-2.4-1.387-2.4,1.385-1.642-.948v-1.2h-1.516v1.2l-2.4,1.385v2.771l-1.036.6.758,1.313,1.036-.6,2.4,1.385,2.4-1.385,1.642.948v1.2h1.516v-1.2l2.4-1.385v-2.767l1.036-.6-.758-1.313Zm-8.844,3.207v-1.9l1.642-.948,1.642.948v1.9l-1.642.948Zm8.083,0-1.642.948-1.642-.948v-1.9l1.642-.948,1.642.948v1.9Z" transform="translate(-64.177 -133.283)" fill="#fff"/>
  </g>
</svg>
