<svg xmlns="http://www.w3.org/2000/svg" width="20.66" height="17.969" viewBox="0 0 20.66 17.969">
  <g id="arrow" transform="translate(0.615 -31.234)">
    <g id="Group_1528" data-name="Group 1528" transform="translate(0 31.842)">
      <path id="Path_1621" data-name="Path 1621" d="M18.353,38.844a1.4,1.4,0,0,0-.242-.018H4.336l.3-.14a2.794,2.794,0,0,0,.789-.559l3.863-3.863a1.446,1.446,0,0,0,.2-1.851,1.4,1.4,0,0,0-2.1-.182L.41,39.218a1.4,1.4,0,0,0,0,1.976h0L7.4,48.181a1.4,1.4,0,0,0,2.1-.14,1.446,1.446,0,0,0-.2-1.851l-3.856-3.87a2.794,2.794,0,0,0-.7-.51l-.419-.189h13.72a1.446,1.446,0,0,0,1.474-1.174A1.4,1.4,0,0,0,18.353,38.844Z" transform="translate(0 -31.842)" fill="#34434e" stroke="#fff" stroke-width="1"/>
    </g>
  </g>
</svg>
