<svg xmlns="http://www.w3.org/2000/svg" width="500" height="372.608" viewBox="0 0 500 372.608">
  <g id="Group_1701" data-name="Group 1701" transform="translate(0 -54.953)">
    <g id="Background_Complete" data-name="Background Complete">
      <g id="Group_1672" data-name="Group 1672">
        <rect id="Rectangle_581" data-name="Rectangle 581" width="500" height="0.25" transform="translate(0 382.398)" fill="#ebebeb"/>
        <rect id="Rectangle_582" data-name="Rectangle 582" width="33.122" height="0.25" transform="translate(416.779 398.494)" fill="#ebebeb"/>
        <rect id="Rectangle_583" data-name="Rectangle 583" width="8.693" height="0.25" transform="translate(322.527 401.208)" fill="#ebebeb"/>
        <rect id="Rectangle_584" data-name="Rectangle 584" width="19.192" height="0.25" transform="translate(396.586 389.208)" fill="#ebebeb"/>
        <rect id="Rectangle_585" data-name="Rectangle 585" width="43.193" height="0.25" transform="translate(52.459 390.888)" fill="#ebebeb"/>
        <rect id="Rectangle_586" data-name="Rectangle 586" width="6.333" height="0.25" transform="translate(104.556 390.888)" fill="#ebebeb"/>
        <rect id="Rectangle_587" data-name="Rectangle 587" width="93.676" height="0.25" transform="translate(131.471 395.111)" fill="#ebebeb"/>
        <path id="Path_2019" data-name="Path 2019" d="M237.014,337.8H43.915a5.715,5.715,0,0,1-5.708-5.708V60.66a5.714,5.714,0,0,1,5.708-5.707h193.1a5.714,5.714,0,0,1,5.707,5.707V332.092A5.715,5.715,0,0,1,237.014,337.8ZM43.915,55.2a5.463,5.463,0,0,0-5.458,5.457V332.092a5.464,5.464,0,0,0,5.458,5.458h193.1a5.463,5.463,0,0,0,5.457-5.458V60.66a5.463,5.463,0,0,0-5.457-5.457Z" fill="#ebebeb"/>
        <path id="Path_2020" data-name="Path 2020" d="M453.31,337.8h-193.1a5.714,5.714,0,0,1-5.707-5.708V60.66a5.713,5.713,0,0,1,5.707-5.707h193.1a5.714,5.714,0,0,1,5.709,5.707V332.092A5.715,5.715,0,0,1,453.31,337.8ZM260.212,55.2a5.463,5.463,0,0,0-5.457,5.457V332.092a5.463,5.463,0,0,0,5.457,5.458h193.1a5.464,5.464,0,0,0,5.459-5.458V60.66A5.464,5.464,0,0,0,453.31,55.2Z" fill="#ebebeb"/>
      </g>
      <g id="Group_1673" data-name="Group 1673">
        <rect id="Rectangle_588" data-name="Rectangle 588" width="137.781" height="90.227" transform="translate(427.472 174.059) rotate(180)" fill="#e6e6e6"/>
        <rect id="Rectangle_589" data-name="Rectangle 589" width="140.02" height="90.227" transform="translate(425.507 174.059) rotate(180)" fill="#f0f0f0"/>
        <rect id="Rectangle_590" data-name="Rectangle 590" width="137.781" height="17.708" transform="translate(427.472 191.766) rotate(180)" fill="#e6e6e6"/>
        <rect id="Rectangle_591" data-name="Rectangle 591" width="140.02" height="17.708" transform="translate(418.504 191.766) rotate(180)" fill="#f0f0f0"/>
        <rect id="Rectangle_592" data-name="Rectangle 592" width="78.456" height="128.249" transform="translate(419.622 89.717) rotate(90)" fill="#fafafa"/>
        <path id="Path_2021" data-name="Path 2021" d="M390.7,168.174,374.322,89.718H348.761l16.381,78.456Z" fill="#fff"/>
        <path id="Path_2022" data-name="Path 2022" d="M416.9,162.315a.42.42,0,0,0,.42-.42V93.546a.42.42,0,0,0-.841,0V161.9A.421.421,0,0,0,416.9,162.315Z" fill="#f0f0f0"/>
        <path id="Path_2023" data-name="Path 2023" d="M359.65,168.174,343.27,89.718H333.3l16.381,78.456Z" fill="#fff"/>
        <rect id="Rectangle_593" data-name="Rectangle 593" width="78.456" height="0.747" transform="translate(292.12 89.717) rotate(90)" fill="#e6e6e6"/>
        <path id="Path_2024" data-name="Path 2024" d="M284.095,98.591H421.876L422.417,92H284.636Z" fill="#ebebeb" opacity="0.6"/>
        <path id="Path_2025" data-name="Path 2025" d="M284.095,109.393H421.876l.542-6.586H284.636Z" fill="#ebebeb" opacity="0.6"/>
        <path id="Path_2026" data-name="Path 2026" d="M284.095,120.2H421.876l.542-6.586H284.636Z" fill="#ebebeb" opacity="0.6"/>
        <path id="Path_2027" data-name="Path 2027" d="M284.095,131H421.876l.542-6.586H284.636Z" fill="#ebebeb" opacity="0.6"/>
        <path id="Path_2028" data-name="Path 2028" d="M284.095,141.8H421.876l.542-6.586H284.636Z" fill="#ebebeb" opacity="0.6"/>
        <path id="Path_2029" data-name="Path 2029" d="M284.095,152.6H421.876l.542-6.586H284.636Z" fill="#ebebeb" opacity="0.6"/>
      </g>
      <g id="Group_1676" data-name="Group 1676">
        <g id="Group_1675" data-name="Group 1675">
          <g id="Group_1674" data-name="Group 1674">
            <rect id="Rectangle_594" data-name="Rectangle 594" width="28.889" height="5.696" transform="translate(378.799 316.781)" fill="#e6e6e6"/>
            <rect id="Rectangle_595" data-name="Rectangle 595" width="5.333" height="131.065" transform="translate(329.641 382.398) rotate(180)" fill="#e6e6e6"/>
            <rect id="Rectangle_596" data-name="Rectangle 596" width="72.963" height="5.696" transform="translate(378.799 322.477) rotate(180)" fill="#f5f5f5"/>
            <rect id="Rectangle_597" data-name="Rectangle 597" width="28.889" height="5.696" transform="translate(378.799 347.948)" fill="#e6e6e6"/>
            <rect id="Rectangle_598" data-name="Rectangle 598" width="72.963" height="5.696" transform="translate(378.799 353.644) rotate(180)" fill="#f5f5f5"/>
            <rect id="Rectangle_599" data-name="Rectangle 599" width="28.889" height="5.696" transform="translate(378.799 254.448)" fill="#e6e6e6"/>
            <rect id="Rectangle_600" data-name="Rectangle 600" width="72.963" height="5.696" transform="translate(378.799 260.144) rotate(180)" fill="#f5f5f5"/>
            <rect id="Rectangle_601" data-name="Rectangle 601" width="28.889" height="5.696" transform="translate(378.799 285.615)" fill="#e6e6e6"/>
            <rect id="Rectangle_602" data-name="Rectangle 602" width="72.963" height="5.696" transform="translate(378.799 291.31) rotate(180)" fill="#f5f5f5"/>
          </g>
        </g>
        <rect id="Rectangle_603" data-name="Rectangle 603" width="5.333" height="131.065" transform="translate(402.604 382.398) rotate(180)" fill="#e6e6e6"/>
        <rect id="Rectangle_604" data-name="Rectangle 604" width="5.333" height="131.065" transform="translate(378.799 382.398) rotate(180)" fill="#f5f5f5"/>
        <rect id="Rectangle_605" data-name="Rectangle 605" width="5.333" height="131.065" transform="translate(311.169 382.398) rotate(180)" fill="#f5f5f5"/>
      </g>
      <g id="Group_1678" data-name="Group 1678">
        <g id="Group_1677" data-name="Group 1677">
          <rect id="Rectangle_606" data-name="Rectangle 606" width="54.578" height="105.892" transform="translate(119.952 382.399) rotate(180)" fill="#e6e6e6"/>
          <path id="Path_2030" data-name="Path 2030" d="M79.948,382.4H65.374V367.781H95.228Z" fill="#fafafa"/>
          <rect id="Rectangle_607" data-name="Rectangle 607" width="54.578" height="105.892" transform="translate(268.761 382.399) rotate(180)" fill="#e6e6e6"/>
          <rect id="Rectangle_608" data-name="Rectangle 608" width="161.529" height="100.861" transform="translate(226.903 377.368) rotate(180)" fill="#fafafa"/>
          <path id="Path_2031" data-name="Path 2031" d="M212.329,382.4H226.9V367.781H197.048Z" fill="#fafafa"/>
          <rect id="Rectangle_609" data-name="Rectangle 609" width="138.917" height="25.241" transform="translate(215.597 339.332) rotate(180)" fill="#f0f0f0"/>
          <rect id="Rectangle_610" data-name="Rectangle 610" width="138.917" height="25.241" transform="translate(215.597 369.967) rotate(180)" fill="#f0f0f0"/>
          <path id="Rectangle_611" data-name="Rectangle 611" d="M4.576,0H90.685a4.576,4.576,0,0,1,4.576,4.576v.308a0,0,0,0,1,0,0H0a0,0,0,0,1,0,0V4.576A4.576,4.576,0,0,1,4.576,0Z" transform="translate(193.769 316.79) rotate(180)" fill="#fafafa"/>
          <rect id="Rectangle_612" data-name="Rectangle 612" width="138.917" height="25.241" transform="translate(215.597 308.696) rotate(180)" fill="#f0f0f0"/>
          <path id="Rectangle_613" data-name="Rectangle 613" d="M4.576,0H90.685a4.576,4.576,0,0,1,4.576,4.576v.308a0,0,0,0,1,0,0H0a0,0,0,0,1,0,0V4.576A4.576,4.576,0,0,1,4.576,0Z" transform="translate(193.769 286.154) rotate(180)" fill="#fafafa"/>
          <path id="Rectangle_614" data-name="Rectangle 614" d="M4.576,0H90.685a4.576,4.576,0,0,1,4.576,4.576v.308a0,0,0,0,1,0,0H0a0,0,0,0,1,0,0V4.576A4.576,4.576,0,0,1,4.576,0Z" transform="translate(193.769 347.425) rotate(180)" fill="#fafafa"/>
        </g>
      </g>
      <g id="Group_1679" data-name="Group 1679">
        <rect id="Rectangle_615" data-name="Rectangle 615" width="137.781" height="90.227" transform="translate(211.849 174.059) rotate(180)" fill="#e6e6e6"/>
        <rect id="Rectangle_616" data-name="Rectangle 616" width="140.02" height="90.227" transform="translate(209.885 174.059) rotate(180)" fill="#f0f0f0"/>
        <rect id="Rectangle_617" data-name="Rectangle 617" width="137.781" height="17.708" transform="translate(211.849 191.766) rotate(180)" fill="#e6e6e6"/>
        <rect id="Rectangle_618" data-name="Rectangle 618" width="140.02" height="17.708" transform="translate(202.881 191.766) rotate(180)" fill="#f0f0f0"/>
        <rect id="Rectangle_619" data-name="Rectangle 619" width="78.456" height="128.249" transform="translate(203.999 89.717) rotate(90)" fill="#fafafa"/>
        <path id="Path_2032" data-name="Path 2032" d="M175.08,168.174,158.7,89.718H133.138l16.381,78.456Z" fill="#fff"/>
        <path id="Path_2033" data-name="Path 2033" d="M201.274,162.315a.42.42,0,0,0,.421-.42V93.546a.421.421,0,0,0-.841,0V161.9A.42.42,0,0,0,201.274,162.315Z" fill="#f0f0f0"/>
        <path id="Path_2034" data-name="Path 2034" d="M144.028,168.174,127.647,89.718h-9.965l16.381,78.456Z" fill="#fff"/>
        <rect id="Rectangle_620" data-name="Rectangle 620" width="78.456" height="0.747" transform="translate(76.497 89.717) rotate(90)" fill="#e6e6e6"/>
        <path id="Path_2035" data-name="Path 2035" d="M68.472,98.591H206.253L206.795,92H69.014Z" fill="#ebebeb" opacity="0.6"/>
        <path id="Path_2036" data-name="Path 2036" d="M68.472,102.307H206.253l.542-6.586H69.014Z" fill="#ebebeb" opacity="0.6"/>
        <path id="Path_2037" data-name="Path 2037" d="M68.472,106.022H206.253l.542-6.586H69.014Z" fill="#ebebeb" opacity="0.6"/>
        <path id="Path_2038" data-name="Path 2038" d="M68.472,109.738H206.253l.542-6.586H69.014Z" fill="#ebebeb" opacity="0.6"/>
        <path id="Path_2039" data-name="Path 2039" d="M68.472,113.453H206.253l.542-6.586H69.014Z" fill="#ebebeb" opacity="0.6"/>
        <path id="Path_2040" data-name="Path 2040" d="M68.472,117.168H206.253l.542-6.586H69.014Z" fill="#ebebeb" opacity="0.6"/>
      </g>
      <g id="Group_1680" data-name="Group 1680">
        <rect id="Rectangle_621" data-name="Rectangle 621" width="4.763" height="53.092" transform="translate(100.777 273.271) rotate(180)" fill="#f5f5f5"/>
        <rect id="Rectangle_622" data-name="Rectangle 622" width="1.345" height="53.092" transform="translate(97.972 273.234) rotate(180)" fill="#fafafa"/>
        <rect id="Rectangle_623" data-name="Rectangle 623" width="0.527" height="53.092" transform="translate(99.063 273.234) rotate(180)" fill="#fafafa"/>
        <path id="Rectangle_624" data-name="Rectangle 624" d="M0,0H35.264a0,0,0,0,1,0,0V0a4.443,4.443,0,0,1-4.443,4.443H4.443A4.443,4.443,0,0,1,0,0V0A0,0,0,0,1,0,0Z" transform="translate(116.027 276.507) rotate(180)" fill="#f0f0f0"/>
        <path id="Path_2041" data-name="Path 2041" d="M89.835,253.138h0a1.373,1.373,0,0,0,1.37-1.37v-34.81a1.374,1.374,0,0,0-1.37-1.37h0a1.375,1.375,0,0,0-1.37,1.37v34.81A1.374,1.374,0,0,0,89.835,253.138Z" fill="#f0f0f0"/>
        <path id="Path_2042" data-name="Path 2042" d="M77.074,232.8h42.643L114.811,203H81.979Z" fill="#e0e0e0"/>
      </g>
    </g>
    <g id="Shadow">
      <ellipse id="_Path_" data-name="&lt;Path&gt;" cx="193.889" cy="11.323" rx="193.889" ry="11.323" transform="translate(56.111 404.915)" fill="#f5f5f5"/>
    </g>
    <g id="Window_No_Data" data-name="Window No Data">
      <g id="Group_1691" data-name="Group 1691">
        <g id="Group_1683" data-name="Group 1683">
          <rect id="Rectangle_625" data-name="Rectangle 625" width="1" height="18.489" transform="matrix(0.997, -0.072, 0.072, 0.997, 103.12, 202.431)" fill="#407bff"/>
          <rect id="Rectangle_626" data-name="Rectangle 626" width="1" height="6.955" transform="translate(105.133 230.396) rotate(-4.121)" fill="#407bff"/>
          <path id="Path_2043" data-name="Path 2043" d="M337.711,315.161H123.553a9.648,9.648,0,0,1-9.441-8.807L103.59,160.225a8.107,8.107,0,0,1,8.172-8.807H325.92a9.647,9.647,0,0,1,9.441,8.807l10.523,146.129A8.108,8.108,0,0,1,337.711,315.161Z" fill="#407bff"/>
          <g id="Group_1682" data-name="Group 1682">
            <g id="Group_1681" data-name="Group 1681">
              <path id="Path_2044" data-name="Path 2044" d="M338.532,315.161H124.374a9.648,9.648,0,0,1-9.441-8.807L104.411,160.225a8.107,8.107,0,0,1,8.172-8.807H326.741a9.648,9.648,0,0,1,9.441,8.807L346.7,306.354A8.108,8.108,0,0,1,338.532,315.161Z" fill="#407bff"/>
              <path id="Path_2045" data-name="Path 2045" d="M338.532,315.161H124.374a9.648,9.648,0,0,1-9.441-8.807L104.411,160.225a8.107,8.107,0,0,1,8.172-8.807H326.741a9.648,9.648,0,0,1,9.441,8.807L346.7,306.354A8.108,8.108,0,0,1,338.532,315.161Z" fill="#fff" opacity="0.5"/>
            </g>
            <path id="Path_2046" data-name="Path 2046" d="M327.058,155.821H112.9q-.363,0-.717.029c-5.475.451-4.356,8.778,1.169,8.778H327.875c5.525,0,5.444-8.327-.1-8.778Q327.421,155.821,327.058,155.821Z" fill="#407bff"/>
            <path id="Path_2047" data-name="Path 2047" d="M118.478,160.224a1.854,1.854,0,0,1-1.874,2.02,2.2,2.2,0,0,1-2.164-2.02,1.853,1.853,0,0,1,1.874-2.018A2.2,2.2,0,0,1,118.478,160.224Z" fill="#fafafa"/>
            <path id="Path_2048" data-name="Path 2048" d="M125.346,160.224a1.854,1.854,0,0,1-1.874,2.02,2.2,2.2,0,0,1-2.164-2.02,1.852,1.852,0,0,1,1.873-2.018A2.2,2.2,0,0,1,125.346,160.224Z" fill="#fafafa"/>
            <path id="Path_2049" data-name="Path 2049" d="M132.214,160.224a1.854,1.854,0,0,1-1.874,2.02,2.2,2.2,0,0,1-2.164-2.02,1.852,1.852,0,0,1,1.873-2.018A2.205,2.205,0,0,1,132.214,160.224Z" fill="#fafafa"/>
          </g>
          <path id="Path_2050" data-name="Path 2050" d="M332.854,300.577h-204.9a3.487,3.487,0,0,1-3.422-3.193l-8.654-120.173a2.932,2.932,0,0,1,2.963-3.193h204.9a3.488,3.488,0,0,1,3.423,3.193l8.653,120.173A2.931,2.931,0,0,1,332.854,300.577Z" fill="#fff"/>
        </g>
        <g id="Group_1690" data-name="Group 1690">
          <g id="Group_1688" data-name="Group 1688">
            <g id="Group_1686" data-name="Group 1686">
              <g id="Group_1684" data-name="Group 1684">
                <path id="Path_2051" data-name="Path 2051" d="M246.53,254.8l-3.335-46.319L233.087,202.4h-27.8l3.773,52.4Z" fill="#fff"/>
                <path id="Path_2052" data-name="Path 2052" d="M246.53,255.283H209.057a.486.486,0,0,1-.484-.45l-3.773-52.4a.485.485,0,0,1,.483-.519h27.8a.485.485,0,0,1,.25.069l10.107,6.084a.486.486,0,0,1,.234.38l3.335,46.319a.485.485,0,0,1-.483.52Zm-37.022-.969h36.5l-3.28-45.549-9.776-5.885H205.8Z" fill="#407bff"/>
              </g>
              <g id="Group_1685" data-name="Group 1685">
                <path id="Path_2053" data-name="Path 2053" d="M243.195,208.479,233.087,202.4l3.711,8.059Z" fill="#ebebeb"/>
                <path id="Path_2054" data-name="Path 2054" d="M236.8,210.939a.484.484,0,0,1-.44-.282l-3.711-8.059a.485.485,0,0,1,.69-.618l10.107,6.084a.484.484,0,0,1-.107.878l-6.4,1.976A.5.5,0,0,1,236.8,210.939Zm-2.613-7.317,2.876,6.245,4.956-1.531Z" fill="#407bff"/>
              </g>
            </g>
            <g id="Group_1687" data-name="Group 1687">
              <path id="Path_2055" data-name="Path 2055" d="M220.969,226.005a1.943,1.943,0,0,1-1.964,2.117,2.311,2.311,0,0,1-2.27-2.117,1.943,1.943,0,0,1,1.965-2.116A2.311,2.311,0,0,1,220.969,226.005Z" fill="#407bff"/>
              <path id="Path_2056" data-name="Path 2056" d="M234.705,226.005a1.944,1.944,0,0,1-1.965,2.117,2.311,2.311,0,0,1-2.269-2.117,1.943,1.943,0,0,1,1.964-2.116A2.311,2.311,0,0,1,234.705,226.005Z" fill="#407bff"/>
              <path id="Path_2057" data-name="Path 2057" d="M238.58,239.735a.485.485,0,0,1-.483-.45c-.245-3.4-5.584-6.172-11.9-6.172-4.185,0-7.943,1.244-9.806,3.247a3.737,3.737,0,0,0-1.14,2.856.485.485,0,0,1-.967.069,4.73,4.73,0,0,1,1.4-3.585c2.041-2.194,6.071-3.557,10.516-3.557,6.929,0,12.581,3.107,12.867,7.073a.485.485,0,0,1-.449.518Z" fill="#407bff"/>
            </g>
            <path id="Path_2058" data-name="Path 2058" d="M213.167,221.717a.486.486,0,0,1-.355-.815l2.123-2.288a.485.485,0,0,1,.711.659l-2.123,2.288A.483.483,0,0,1,213.167,221.717Z" fill="#407bff"/>
            <path id="Path_2059" data-name="Path 2059" d="M237.584,221.717a.483.483,0,0,1-.33-.131L234.8,219.3a.484.484,0,1,1,.661-.708l2.453,2.288a.484.484,0,0,1-.331.839Z" fill="#407bff"/>
          </g>
          <g id="Group_1689" data-name="Group 1689">
            <path id="Path_2060" data-name="Path 2060" d="M202.257,265.153h2.26l3.262,4.333-.313-4.333h2.282l.564,7.832H208.03l-3.242-4.3.309,4.3h-2.276Z" fill="#407bff"/>
            <path id="Path_2061" data-name="Path 2061" d="M211.334,269.074a3.423,3.423,0,0,1,3.753-4.055,4.369,4.369,0,0,1,3.089,1.05,4.254,4.254,0,0,1,1.269,2.941,4.648,4.648,0,0,1-.3,2.252,2.968,2.968,0,0,1-1.237,1.368,4.208,4.208,0,0,1-2.142.489,5.221,5.221,0,0,1-2.224-.422,3.668,3.668,0,0,1-1.5-1.336A4.689,4.689,0,0,1,211.334,269.074Zm2.421.011a2.781,2.781,0,0,0,.564,1.7,1.6,1.6,0,0,0,1.236.519,1.384,1.384,0,0,0,1.171-.508,2.772,2.772,0,0,0,.3-1.822,2.578,2.578,0,0,0-.563-1.616,1.641,1.641,0,0,0-1.247-.51,1.362,1.362,0,0,0-1.138.518A2.513,2.513,0,0,0,213.755,269.085Z" fill="#407bff"/>
            <path id="Path_2062" data-name="Path 2062" d="M224.152,265.153h3.6a4.473,4.473,0,0,1,1.739.288,3.107,3.107,0,0,1,1.141.828,3.739,3.739,0,0,1,.71,1.256,5.987,5.987,0,0,1,.3,1.517,5.131,5.131,0,0,1-.146,1.948,2.916,2.916,0,0,1-.71,1.159,2.36,2.36,0,0,1-1.045.623,5.457,5.457,0,0,1-1.427.213h-3.6Zm2.548,1.773.309,4.28h.593a2.411,2.411,0,0,0,1.067-.168,1.032,1.032,0,0,0,.46-.588,3.591,3.591,0,0,0,.083-1.36,2.792,2.792,0,0,0-.528-1.7,1.835,1.835,0,0,0-1.38-.46Z" fill="#407bff"/>
            <path id="Path_2063" data-name="Path 2063" d="M237.448,271.692H234.7l-.289,1.293H231.94l2.38-7.832h2.64l3.507,7.832h-2.534ZM236.824,270l-1.068-2.816L235.1,270Z" fill="#407bff"/>
            <path id="Path_2064" data-name="Path 2064" d="M239.369,265.153h7.357l.139,1.934H244.4l.425,5.9H242.4l-.424-5.9h-2.469Z" fill="#407bff"/>
            <path id="Path_2065" data-name="Path 2065" d="M252.365,271.692h-2.747l-.289,1.293h-2.472l2.38-7.832h2.64l3.508,7.832H252.85ZM251.741,270l-1.067-2.816L250.021,270Z" fill="#407bff"/>
          </g>
        </g>
      </g>
    </g>
    <g id="Character">
      <g id="Group_1700" data-name="Group 1700">
        <path id="Path_2066" data-name="Path 2066" d="M353.688,173.08c.894-.448,1.959-1.027,2.944-1.568,1-.551,2-1.126,2.984-1.724,1.959-1.206,3.933-2.4,5.808-3.722a77.046,77.046,0,0,0,10.512-8.653c.418-.382.773-.806,1.16-1.209l.57-.613.286-.305.143-.154c.037-.04.029-.031.01-.008l-.031.049c-.143.266-.024.186.031-.072a5.46,5.46,0,0,0,.141-1.091,30.015,30.015,0,0,0-.729-6.318c-.89-4.486-2.238-9.1-3.571-13.618l3.886-1.7a81.974,81.974,0,0,1,6.112,13.6,31.872,31.872,0,0,1,1.719,7.893,12.218,12.218,0,0,1-.083,2.511,7.607,7.607,0,0,1-1.223,3.283l-.166.231-.129.168-.154.188-.308.374-.618.75c-.417.493-.812,1.015-1.255,1.477a71.148,71.148,0,0,1-11.38,10.152c-2.037,1.489-4.12,2.9-6.283,4.19q-1.615.978-3.277,1.885c-1.123.625-2.191,1.168-3.467,1.766Z" fill="#ffb573"/>
        <path id="Path_2067" data-name="Path 2067" d="M344.794,408.179a10.1,10.1,0,0,0,2.211-.3.2.2,0,0,0,.064-.358c-.287-.189-2.831-1.831-3.8-1.39a.675.675,0,0,0-.4.558,1.128,1.128,0,0,0,.329,1.054A2.4,2.4,0,0,0,344.794,408.179Zm1.65-.584c-1.458.291-2.555.241-2.979-.146a.745.745,0,0,1-.2-.706.281.281,0,0,1,.165-.251C343.94,406.26,345.407,406.968,346.444,407.6Z" fill="#407bff"/>
        <path id="Path_2068" data-name="Path 2068" d="M346.96,407.884a.2.2,0,0,0,.2-.2c0-.1-.011-2.514-.922-3.32a1.033,1.033,0,0,0-.84-.265.691.691,0,0,0-.667.553c-.189.944,1.334,2.752,2.133,3.2A.2.2,0,0,0,346.96,407.884Zm-1.425-3.4a.643.643,0,0,1,.438.174,4.532,4.532,0,0,1,.776,2.638c-.8-.636-1.746-1.994-1.631-2.569.019-.094.073-.206.326-.237A.707.707,0,0,1,345.535,404.488Z" fill="#407bff"/>
        <path id="Path_2069" data-name="Path 2069" d="M346.223,148.067c-.974,4.97-3.028,15.037.45,18.354,0,0-1.359,5.042-10.594,5.042-10.156,0-4.854-5.042-4.854-5.042,5.543-1.323,5.4-5.436,4.434-9.3Z" fill="#ffb573"/>
        <path id="Path_2070" data-name="Path 2070" d="M329.284,168.424c-1.594.216-.238-3.913.41-4.341,1.5-.989,20.851-2.39,20.725-.041-.08,1.011-.555,2.984-1.4,3.654S343.2,166.342,329.284,168.424Z" fill="#263238"/>
        <path id="Path_2071" data-name="Path 2071" d="M332.437,167.034c-1.266.428-1.146-3.733-.714-4.234,1-1.158,16.663-5.183,17.129-2.906.179.984.265,2.948-.272,3.71S343.439,163.1,332.437,167.034Z" fill="#263238"/>
        <path id="Path_2072" data-name="Path 2072" d="M326.61,139.108a.4.4,0,0,1-.331-.145,3.158,3.158,0,0,0-2.589-1.228.4.4,0,1,1-.086-.789,3.937,3.937,0,0,1,3.29,1.514.4.4,0,0,1-.284.648Z" fill="#263238"/>
        <path id="Path_2073" data-name="Path 2073" d="M324.672,144a18.054,18.054,0,0,1-1.974,4.527,2.906,2.906,0,0,0,2.441.214Z" fill="#ff5652"/>
        <path id="Path_2074" data-name="Path 2074" d="M325.16,142.787c.066.672-.236,1.252-.676,1.295s-.849-.467-.915-1.139.236-1.253.676-1.3S325.094,142.114,325.16,142.787Z" fill="#263238"/>
        <path id="Path_2075" data-name="Path 2075" d="M324.443,141.665l-1.661-.306S323.735,142.539,324.443,141.665Z" fill="#263238"/>
        <path id="Path_2076" data-name="Path 2076" d="M356.7,407.685h-8.376l.657-19.4h8.376Z" fill="#ffb573"/>
        <path id="Path_2077" data-name="Path 2077" d="M347.661,406.715h9.41a.664.664,0,0,1,.669.573l1.072,7.445a1.347,1.347,0,0,1-1.343,1.49c-3.281-.057-4.862-.249-9-.249-2.546,0-6.266.264-9.782.264-3.439,0-3.7-3.477-2.239-3.791,6.564-1.412,7.6-3.359,9.813-5.217A2.19,2.19,0,0,1,347.661,406.715Z" fill="#263238"/>
        <g id="Group_1692" data-name="Group 1692" opacity="0.2">
          <path id="Path_2078" data-name="Path 2078" d="M357.359,388.293h-8.38l-.335,10h8.38Z"/>
        </g>
        <path id="Path_2079" data-name="Path 2079" d="M323.373,178.044a164.358,164.358,0,0,1-15.049-6.754,90.787,90.787,0,0,1-14.4-8.774,33.1,33.1,0,0,1-3.421-3.07c-.279-.3-.558-.578-.832-.922a13.233,13.233,0,0,1-.879-1.131,7.967,7.967,0,0,1-1.338-3.609,8.125,8.125,0,0,1,.491-3.62,10.95,10.95,0,0,1,1.407-2.608,18.656,18.656,0,0,1,3.389-3.52,41.894,41.894,0,0,1,7.3-4.666c1.24-.659,2.5-1.252,3.784-1.8s2.541-1.071,3.906-1.54l1.775,3.853c-4.361,2.749-8.88,5.77-12.2,9.159a13.708,13.708,0,0,0-1.958,2.49c-.475.787-.469,1.377-.388,1.331.041,0,.024-.018.14.1l.4.428c.149.178.361.362.549.545a25.634,25.634,0,0,0,2.7,2.169,64.3,64.3,0,0,0,6.433,3.97c2.255,1.252,4.573,2.45,6.935,3.586,4.713,2.257,9.6,4.429,14.392,6.413Z" fill="#ffb573"/>
        <path id="Path_2080" data-name="Path 2080" d="M311.969,137.154l1.385-3-6.3-2.187s-1.961,5.9.377,8.627h0A6.042,6.042,0,0,0,311.969,137.154Z" fill="#ffb573"/>
        <path id="Path_2081" data-name="Path 2081" d="M313.354,127.656l-5.033-1.451-1.263,5.758,6.3,2.186Z" fill="#ffb573"/>
        <path id="Path_2082" data-name="Path 2082" d="M378.35,134.441l.733-7.02-6.488,1.525s-.1,6.58,3.337,7.629Z" fill="#ffb573"/>
        <path id="Path_2083" data-name="Path 2083" d="M375.958,122.507l-4.227,1.974.865,4.465,6.488-1.525Z" fill="#ffb573"/>
        <path id="Path_2084" data-name="Path 2084" d="M347.541,138.255c.305,8.307.611,11.817-3.143,16.466-5.646,6.992-15.917,5.55-18.7-2.5-2.5-7.245-2.582-19.613,5.178-23.694A11.339,11.339,0,0,1,347.541,138.255Z" fill="#ffb573"/>
        <g id="Group_1693" data-name="Group 1693">
          <path id="Path_2085" data-name="Path 2085" d="M343.921,154.705c8.156-3.524,13.52-10.955,11.255-22.574-2.166-11.116-9.671-12.214-12.771-9.908s-10.827-1.131-15.464,2.771c-8.034,6.761-.438,14.05,3.518,18.369C332.823,148.221,335.919,158.163,343.921,154.705Z" fill="#263238"/>
          <path id="Path_2086" data-name="Path 2086" d="M340.535,130.136a8.287,8.287,0,1,0,1.824-11.916A8.531,8.531,0,0,0,340.535,130.136Z" fill="#407bff"/>
          <path id="Path_2087" data-name="Path 2087" d="M342.652,123c-1.177-6.7,5.161-11.863,13.636-9.367s3.992,10.009,2.254,16.009,2.823,11.714,4.73,7.145-1.3-5.98-1.3-5.98,9,2.333.639,12.478-15.928-1.058-13.882-7.668C350.385,130.276,343.765,129.333,342.652,123Z" fill="#263238"/>
          <path id="Path_2088" data-name="Path 2088" d="M334.182,125.533c-3.869-2.019-10.421-3.651-14.15,2.623-1.763,2.967-1.08,6.989-1.08,6.989l11.389.758Z" fill="#263238"/>
          <path id="Path_2089" data-name="Path 2089" d="M317.612,133.177H317.6a.25.25,0,0,1-.234-.265c.011-.17.286-4.193,2.714-6.717,5.869-6.1,12.75-1.04,14.719.656a.25.25,0,0,1-.326.379c-1.885-1.623-8.467-6.47-14.032-.688-2.3,2.389-2.573,6.361-2.576,6.4A.25.25,0,0,1,317.612,133.177Z" fill="#263238"/>
        </g>
        <path id="Path_2090" data-name="Path 2090" d="M331.852,143.033a6.914,6.914,0,0,1-1.655,4.277c-1.382,1.616-2.966.821-3.329-.971-.327-1.613,0-4.4,1.744-5.374C330.333,140,331.867,141.183,331.852,143.033Z" fill="#ffb573"/>
        <g id="Group_1694" data-name="Group 1694">
          <path id="Path_2091" data-name="Path 2091" d="M330.053,219.122s.534,58.144,5.578,90.545c4.074,26.17,11.613,86.688,11.613,86.688h11.423s1.116-58.424-.952-84.308c-5.233-65.5,8.271-77.742-2.626-92.925Z" fill="#263238"/>
          <path id="Path_2092" data-name="Path 2092" d="M330.053,219.122s.534,58.144,5.578,90.545c4.074,26.17,11.613,86.688,11.613,86.688h11.423s1.116-58.424-.952-84.308c-5.233-65.5,8.271-77.742-2.626-92.925Z" fill="#fff" opacity="0.1"/>
        </g>
        <path id="Path_2093" data-name="Path 2093" d="M336.057,245.5c4.01,17.55.81,45.19-1.38,57.36-2.32-18.48-3.49-42.43-4.07-59.98C332.677,239.52,334.637,239.3,336.057,245.5Z" opacity="0.3"/>
        <path id="Path_2094" data-name="Path 2094" d="M345.681,396.582H360.23l.764-5.1-15.4-.521Z" fill="#407bff"/>
        <g id="Group_1695" data-name="Group 1695">
          <path id="Path_2095" data-name="Path 2095" d="M349.833,170.042c1.369-2.721,8.725-4.434,12.746-4.427l3.01,13.365s-8.011,11.89-11.343,10.629C350.31,188.122,346.9,175.872,349.833,170.042Z" fill="#407bff"/>
          <path id="Path_2096" data-name="Path 2096" d="M349.833,170.042c1.369-2.721,8.725-4.434,12.746-4.427l3.01,13.365s-8.011,11.89-11.343,10.629C350.31,188.122,346.9,175.872,349.833,170.042Z" opacity="0.4"/>
        </g>
        <path id="Path_2097" data-name="Path 2097" d="M341.353,393.313a.2.2,0,0,0-.2-.3c-.42.063-4.122.651-4.622,1.708a.639.639,0,0,0,.038.625,1.1,1.1,0,0,0,.858.57c1.213.125,2.965-1.558,3.9-2.572A.23.23,0,0,0,341.353,393.313Zm-4.441,1.537c.343-.561,2.256-1.078,3.718-1.347-1.32,1.342-2.481,2.088-3.161,2.018a.713.713,0,0,1-.559-.379.25.25,0,0,1-.02-.252C336.9,394.877,336.9,394.863,336.912,394.85Z" fill="#407bff"/>
        <path id="Path_2098" data-name="Path 2098" d="M341.353,393.313a.205.205,0,0,0,.018-.04.2.2,0,0,0-.037-.193c-.063-.073-1.546-1.782-2.913-1.871a1.436,1.436,0,0,0-1.09.369c-.411.368-.376.688-.273.892.433.858,3.093,1.156,4.166.934A.2.2,0,0,0,341.353,393.313Zm-3.915-1.259a.809.809,0,0,1,.158-.18,1.034,1.034,0,0,1,.8-.269,4.587,4.587,0,0,1,2.383,1.461c-1.185.1-3.106-.26-3.366-.775A.22.22,0,0,1,337.438,392.054Z" fill="#407bff"/>
        <path id="Path_2099" data-name="Path 2099" d="M350.083,389.765l-7.661,3.4-3.414-7.1-4.461-9.3-.523-1.082,7.652-3.408.592,1.218,4.325,9.01Z" fill="#ffb573"/>
        <path id="Path_2100" data-name="Path 2100" d="M346.593,382.5l-7.585,3.567-4.461-9.3,7.721-3.272Z" opacity="0.2"/>
        <g id="Group_1696" data-name="Group 1696">
          <path id="Path_2101" data-name="Path 2101" d="M321.069,219.122S296.6,279.956,303.229,308.6c5.995,25.89,32.5,74.921,32.5,74.921l10.25-5.145s-16.388-59.188-18.166-72.047c-3.459-25.018,18.776-60.333,18.776-87.211Z" fill="#263238"/>
          <path id="Path_2102" data-name="Path 2102" d="M321.069,219.122S296.6,279.956,303.229,308.6c5.995,25.89,32.5,74.921,32.5,74.921l10.25-5.145s-16.388-59.188-18.166-72.047c-3.459-25.018,18.776-60.333,18.776-87.211Z" fill="#fff" opacity="0.1"/>
        </g>
        <path id="Path_2103" data-name="Path 2103" d="M341.055,392.1l7.609-5.538a.663.663,0,0,1,.877.07l5.248,5.388a1.347,1.347,0,0,1-.209,1.995c-2.686,1.885-4.078,2.66-7.424,5.1-2.058,1.5-6.16,4.811-9,6.88-2.78,2.023-5.04-.632-4.041-1.748,4.476-5,5.419-8.1,6.114-10.9A2.187,2.187,0,0,1,341.055,392.1Z" fill="#263238"/>
        <path id="Path_2104" data-name="Path 2104" d="M335.073,385.694l13.23-6.051-1.7-5.392-14.168,6.462Z" fill="#407bff"/>
        <g id="Group_1697" data-name="Group 1697">
          <path id="Path_2105" data-name="Path 2105" d="M327.564,169.36c-1.1-2.841-10.657-5.957-15.453-7.045L310,178.083s7.831,11.256,11.269,10.324C325.335,187.308,329.916,175.447,327.564,169.36Z" fill="#407bff"/>
          <path id="Path_2106" data-name="Path 2106" d="M327.564,169.36c-1.1-2.841-10.657-5.957-15.453-7.045L310,178.083s7.831,11.256,11.269,10.324C325.335,187.308,329.916,175.447,327.564,169.36Z" opacity="0.4"/>
        </g>
        <g id="Group_1698" data-name="Group 1698">
          <path id="Path_2107" data-name="Path 2107" d="M317.066,168.567s-3.99,1.4,4,50.555h34.02c-.571-13.846-.587-22.384,6.03-50.8a100.309,100.309,0,0,0-14.446-1.9,108.243,108.243,0,0,0-15.448,0C324.591,167.027,317.066,168.567,317.066,168.567Z" fill="#407bff"/>
          <path id="Path_2108" data-name="Path 2108" d="M317.066,168.567s-3.99,1.4,4,50.555h34.02c-.571-13.846-.587-22.384,6.03-50.8a100.309,100.309,0,0,0-14.446-1.9,108.243,108.243,0,0,0-15.448,0C324.591,167.027,317.066,168.567,317.066,168.567Z" opacity="0.4"/>
        </g>
        <g id="Group_1699" data-name="Group 1699">
          <path id="Path_2109" data-name="Path 2109" d="M355.6,217.125l1.534,3.046c.119.236-.161.477-.554.477H320.9c-.306,0-.56-.151-.58-.343l-.307-3.045c-.021-.212.245-.39.58-.39h34.45A.618.618,0,0,1,355.6,217.125Z" fill="#407bff"/>
          <path id="Path_2110" data-name="Path 2110" d="M355.6,217.125l1.534,3.046c.119.236-.161.477-.554.477H320.9c-.306,0-.56-.151-.58-.343l-.307-3.045c-.021-.212.245-.39.58-.39h34.45A.618.618,0,0,1,355.6,217.125Z" fill="#fff" opacity="0.3"/>
        </g>
        <path id="Path_2111" data-name="Path 2111" d="M350.971,220.977h.923c.184,0,.324-.094.311-.21l-.433-3.956c-.012-.116-.173-.211-.357-.211h-.922c-.184,0-.324.1-.312.211l.433,3.956C350.627,220.883,350.788,220.977,350.971,220.977Z" fill="#263238"/>
        <path id="Path_2112" data-name="Path 2112" d="M328.608,220.977h.922c.184,0,.324-.094.311-.21l-.433-3.956c-.012-.116-.173-.211-.357-.211h-.922c-.184,0-.324.1-.311.211l.432,3.956C328.263,220.883,328.424,220.977,328.608,220.977Z" fill="#263238"/>
      </g>
    </g>
  </g>
</svg>
