<svg xmlns="http://www.w3.org/2000/svg" width="442.97" height="419.74" viewBox="0 0 442.97 419.74">
  <g id="Mobile_Marketing-pana---" data-name="Mobile Marketing-pana---" transform="translate(-27.5 -49.84)">
    <g id="freepik--Floor--inject-85">
      <path id="Path_739" data-name="Path 739" d="M470.47,469.32c0,.15-99.17.26-221.47.26s-221.5-.11-221.5-.26,99.15-.26,221.5-.26S470.47,469.18,470.47,469.32Z" fill="#263238"/>
    </g>
    <g id="freepik--Megaphone--inject-85">
      <path id="Path_753" data-name="Path 753" d="M266,377.3l3.54-11.89c.62-2.58,1.44-5.62,2.54-9.09,1-3.12,3.54-6.4,5.86-8.76,3.61-3.67,5.33-3.69,7.75-5.64.22-.14.47-.35.68-.46a3.81,3.81,0,0,0,1.18-1c2.09-2.26.08-5.77-4.17-5.43-3.19.25-8.41,1.16-16.89,9.91-.11.14-.22.25-.32.38-4.45,5.79-8.63-10.73-9.39-16.88a6.43,6.43,0,0,0-8.71-5l-20.66,9.66a9.67,9.67,0,0,0-6,.2,6.16,6.16,0,0,0-3.94,7.29L225.86,374l-24.61,81.9H254.3Z" fill="#ffbe9d"/>
      <path id="Path_754" data-name="Path 754" d="M306.8,302.08l-16.4,32.14-8.2-2.28L241,365.47a8.34,8.34,0,0,1-11.59-1l-15.7-18.23s31.65-13.63,37.5-24.91-.91-13.85-.91-13.85l14.89-16.92Z" fill="#b8e1bb"/>
      <path id="Path_755" data-name="Path 755" d="M285.53,236.44s-24-5.31-57.79-37.79S178.09,123,174,123.24s-22.19-8.17-56.53,66.52-20.81,92-14,91.9,53.22-13.07,82.2-9.78,66.23,18.4,66.23,18.4Z" fill="#b8e1bb"/>
      <path id="Path_756" data-name="Path 756" d="M336.52,277.15l-8.19,15.57-3.67,7a20.32,20.32,0,0,1-26.49,9l-51.45-17.93,30-68.4,51.4,27.39a20.32,20.32,0,0,1,8.4,27.37Z" fill="#b8e1bb"/>
      <g id="Group_444" data-name="Group 444" opacity="0.4">
        <path id="Path_757" data-name="Path 757" d="M336.52,277.15l-8.19,15.57-3.67,7a20.32,20.32,0,0,1-26.49,9l-51.45-17.93,30-68.4,51.4,27.39a20.32,20.32,0,0,1,8.4,27.37Z"/>
      </g>
      <path id="Path_758" data-name="Path 758" d="M120.21,191.12c-18.27,40.46-25.88,76.52-17,80.53s30.91-25.53,49.18-66,25.88-76.51,17-80.53S138.48,150.66,120.21,191.12Z" fill="#b8e1bb"/>
      <g id="Group_445" data-name="Group 445" opacity="0.5">
        <path id="Path_759" data-name="Path 759" d="M120.21,191.12c-18.27,40.46-25.88,76.52-17,80.53s30.91-25.53,49.18-66,25.88-76.51,17-80.53S138.48,150.66,120.21,191.12Z"/>
      </g>
      <path id="Path_760" data-name="Path 760" d="M340.94,299.65l-13.95-4.38,8.63-16.4,10.46,6.5Z" fill="#b8e1bb"/>
      <g id="Group_446" data-name="Group 446" opacity="0.6">
        <path id="Path_761" data-name="Path 761" d="M335.62,278.87l-8.63,16.4,2.87.9,7.01-16.53Z"/>
      </g>
      <path id="Path_762" data-name="Path 762" d="M326,282.65c-.2.45-7.16-2.25-15.54-6s-15-7.23-14.81-7.68,7.16,2.26,15.55,6.05S326.21,282.2,326,282.65Z" fill="#b8e1bb"/>
      <path id="Path_763" data-name="Path 763" d="M330.3,272.88c-.22.44-6.52-2.21-14.07-5.93s-13.49-7.09-13.27-7.54,6.51,2.21,14.06,5.93S330.52,272.43,330.3,272.88Z" fill="#b8e1bb"/>
      <path id="Path_764" data-name="Path 764" d="M320.6,292.9c-.07.24-1.73-.14-4.37-1-1.32-.41-2.89-.93-4.62-1.52s-3.5-1.53-5.41-2.4c-7.63-3.54-13.46-7-13.27-7.42s6.46,2.29,14,5.8c1.9.86,3.66,1.8,5.32,2.49s3.15,1.3,4.4,1.86C319.15,291.86,320.67,292.66,320.6,292.9Z" fill="#b8e1bb"/>
      <path id="Path_765" data-name="Path 765" d="M157.46,182.13s-20.86-12.94-32.27,15.25,10.53,32.82,10.53,32.82a187.63,187.63,0,0,0,21.74-48.07Z" fill="#b8e1bb"/>
      <g id="Group_447" data-name="Group 447" opacity="0.5">
        <path id="Path_766" data-name="Path 766" d="M179.65,148.53c.13,0-.17,1.94-.81,5.39s-1.6,8.44-2.94,14.58l-2.9,9.87q-.79,2.65-1.63,5.49l-.85,2.87c-.31,1-.72,1.91-1.08,2.88l-4.71,12.16c-.41,1.06-.83,2.12-1.24,3.19s-1,2.09-1.47,3.15l-3.1,6.4-3.11,6.39c-.53,1-1,2.12-1.57,3.1s-1.17,2-1.74,2.95l-6.65,11.23c-.54.88-1,1.79-1.6,2.63l-1.73,2.45-3.32,4.68-6,8.37c-4,4.83-7.34,8.64-9.64,11.29a32.769,32.769,0,0,1-3.73,4,32.313,32.313,0,0,1,3.2-4.42c2.22-2.83,5.35-6.79,9.19-11.66l5.75-8.43,3.22-4.69c.56-.8,1.12-1.62,1.69-2.45s1-1.74,1.55-2.63L151,226.1l1.71-2.94c.59-1,1-2,1.55-3.08l3.08-6.35c1-2.15,2.07-4.26,3.09-6.35.48-1,1.06-2.06,1.46-3.12l1.25-3.16,4.78-12c.37-1,.79-1.89,1.11-2.85s.59-1.9.88-2.84l1.7-5.43,3.07-9.75,3.47-14.4a32.277,32.277,0,0,1,1.5-5.3Z"/>
      </g>
      <g id="Group_448" data-name="Group 448" opacity="0.4">
        <path id="Path_767" data-name="Path 767" d="M218.69,344c1.91,3.46,3.85,7,6.66,9.73S232,358.4,236,358s7.65-3.66,7.69-7.6c1.88,1.41,4.77.65,6.33-1.12a11.043,11.043,0,0,0,2.25-6.57c2.56,1.51,6.12.32,7.83-2.11a10.14,10.14,0,0,0,1-8.56,30.17,30.17,0,0,0-4.11-7.87c2,.16,4.06.3,5.82-.59s3-3.23,1.93-4.91a4.83,4.83,0,0,0-2.87-1.83c-3.09-1-5.25-1.74-8.47-1.37-.74,0,1.29,8.48-18.88,20.06C222.55,342.38,218.69,344,218.69,344Z"/>
      </g>
      <path id="Path_768" data-name="Path 768" d="M264.11,356.2c0,.09-1.35-.17-3.53-.11a20,20,0,0,0-14.82,7.11c-1.41,1.66-2,2.87-2.13,2.82a3.08,3.08,0,0,1,.39-.88,17.508,17.508,0,0,1,1.45-2.18,19,19,0,0,1,15.11-7.24,15.232,15.232,0,0,1,2.6.24,2.732,2.732,0,0,1,.93.24Z" fill="#eb996e"/>
      <path id="Path_769" data-name="Path 769" d="M220,338.59c3.25,3.12,5.47,6.57,8.88,9.71,1.55,1.43,4,4.13,6,4.49s3.4.09,4.22-1.85c.67-1.57-.53-3.72-1.35-5-2.17-3.41-4.25-6.07-5.87-8.72-.77-1.24.22-1.5.58-.92,1.56,1.62,3.9,3,5.3,4.79,1.92,2.41,2.26,5.62,7.28,4.6a4.38,4.38,0,0,0,1.86-.77c1.89-1.45,2-4,1.18-6a16.321,16.321,0,0,0-2.8-4.22c2.14,2.41,4.47,5,7.87,5.22a4.67,4.67,0,0,0,4.75-2.57c1-2.28-.43-4.49-1.88-6.27a65.68,65.68,0,0,0-8.53-8.72,6.53,6.53,0,0,0-4.14-1.53c-1.76,0-4,.32-5,1.84a6.85,6.85,0,0,0-1.37,5.23s-4.4-2.23-7.94.1a11.26,11.26,0,0,0-4.42,6.36Z" fill="#ffbe9d"/>
      <path id="Path_770" data-name="Path 770" d="M243.45,319.87a5.28,5.28,0,0,1-.62-6c.75-1.47,1.69-2.9,2.65-3.22,4.19-1.41,22.51,1.76,22.34,5.82s-1.51,6-11.44,4.57c-1.75-.25-4.49-.59-4.49-.59l-2.4,3.6Z" fill="#ffbe9d"/>
      <path id="Path_771" data-name="Path 771" d="M246.73,336.89a23.89,23.89,0,0,0-10.09-9.15,5.82,5.82,0,0,1,1.94.68,17.41,17.41,0,0,1,7.28,6.6,5.59,5.59,0,0,1,.87,1.87Z" fill="#eb996e"/>
      <path id="Path_772" data-name="Path 772" d="M249.81,324.4c-.09.08-1.3-.9-2.95-1.91a21.456,21.456,0,0,0-2.14-1.19c-.57-.26-.95-.33-.94-.41s.43-.12,1.06.07a9.7,9.7,0,0,1,2.3,1.09C248.83,323.08,249.94,324.29,249.81,324.4Z" fill="#eb996e"/>
      <path id="Path_773" data-name="Path 773" d="M252.89,320.62a7.83,7.83,0,0,1-3.53-.4A6.521,6.521,0,0,1,247.1,319c-.5-.43-.71-.78-.66-.83a15,15,0,0,0,3.07,1.52,26.313,26.313,0,0,1,3.38.93Z" fill="#eb996e"/>
      <path id="Path_774" data-name="Path 774" d="M235.09,341.92a13,13,0,0,1-1.67-2.17,19.429,19.429,0,0,0-4.27-4.86,8.59,8.59,0,0,0-6.06-1.6,10.282,10.282,0,0,0-2.55.81,2.633,2.633,0,0,1,.59-.46,5.58,5.58,0,0,1,1.9-.72,8.54,8.54,0,0,1,6.42,1.55,17.32,17.32,0,0,1,4.28,5.07A16.282,16.282,0,0,1,235.09,341.92Z" fill="#eb996e"/>
      <path id="Path_775" data-name="Path 775" d="M249.1,382.42a55.988,55.988,0,0,1-7.48,1.07,54.224,54.224,0,0,1-7.55.56,56.34,56.34,0,0,1,7.49-1.07,56.006,56.006,0,0,1,7.54-.56Z" fill="#eb996e"/>
    </g>
    <g id="freepik--Stars--inject-85">
      <path id="Path_776" data-name="Path 776" d="M406.63,49.84l1.13,2.07,2.06,1.13-2.06,1.13-1.13,2.06-1.13-2.06-2.06-1.13,2.06-1.13Z" fill="#b8e1bb"/>
      <path id="Path_777" data-name="Path 777" d="M430.24,101.01l1.13,2.07,2.06,1.13-2.06,1.13-1.13,2.06-1.13-2.06-2.07-1.13,2.07-1.13Z" fill="#b8e1bb"/>
      <path id="Path_778" data-name="Path 778" d="M51.9,237.53l1.13,2.07,2.07,1.13-2.07,1.12-1.13,2.07-1.13-2.07-2.06-1.12,2.06-1.13Z" fill="#b8e1bb"/>
      <path id="Path_779" data-name="Path 779" d="M375.66,62.56l2.61,4.77,4.77,2.61-4.77,2.6-2.61,4.77-2.6-4.77-4.77-2.6,4.77-2.61Z" fill="#b8e1bb"/>
      <path id="Path_780" data-name="Path 780" d="M73.06,205.1l2.6,4.75,4.76,2.6-4.76,2.61-2.6,4.75-2.6-4.75-4.76-2.61,4.76-2.6Z" fill="#b8e1bb"/>
      <path id="Path_781" data-name="Path 781" d="M436.66,318.56l2.6,4.76,4.75,2.6-4.75,2.6-2.6,4.76-2.6-4.76-4.76-2.6,4.76-2.6Z" fill="#b8e1bb"/>
    </g>
  </g>
</svg>
