<svg xmlns="http://www.w3.org/2000/svg" xmlns:xlink="http://www.w3.org/1999/xlink" width="24" height="24" viewBox="0 0 24 24">
  <defs>
    <clipPath id="clip-path">
      <rect id="Rectangle_287" data-name="Rectangle 287" width="24" height="24" transform="translate(549.933 132.933)" fill="#fff" stroke="#707070" stroke-width="1"/>
    </clipPath>
  </defs>
  <g id="Mask_Group_63" data-name="Mask Group 63" transform="translate(-549.933 -132.933)" clip-path="url(#clip-path)">
    <g id="line_8_" transform="translate(549.99 136.544)">
      <path id="Path_672" data-name="Path 672" d="M20.458,21.847l-.239-1.474L3.178,23.146,1.459,15.178,0,15.493l2.017,9.354Z" transform="translate(0 -8.069)"/>
      <path id="Path_673" data-name="Path 673" d="M4.25,16.921h20.9V5.059H4.25ZM5.743,6.551H23.657v8.877H5.743Z" transform="translate(-1.264 -5.059)"/>
      <path id="Path_674" data-name="Path 674" d="M18.431,11.557V10.195a.708.708,0,0,1,.405.558l.855-.115a1.471,1.471,0,0,0-.405-.834,1.437,1.437,0,0,0-.855-.378V9.08h-.49v.345a1.363,1.363,0,0,0-1.281,1.408,1.508,1.508,0,0,0,.309.959,1.853,1.853,0,0,0,.972.591v1.459a.93.93,0,0,1-.331-.293,1.167,1.167,0,0,1-.2-.481l-.882.1a1.875,1.875,0,0,0,.466,1.062,1.546,1.546,0,0,0,.949.45v.634h.49v-.652a1.611,1.611,0,0,0,1.029-.529,1.578,1.578,0,0,0,.37-1.063,1.414,1.414,0,0,0-.294-.925A2.16,2.16,0,0,0,18.431,11.557Zm-.49-.166a.752.752,0,0,1-.327-.257.6.6,0,0,1-.109-.343.623.623,0,0,1,.119-.37.632.632,0,0,1,.317-.237Zm.9,2.259a.682.682,0,0,1-.412.242V12.532a.849.849,0,0,1,.437.26.631.631,0,0,1,.134.4A.691.691,0,0,1,18.843,13.649Z" transform="translate(-4.916 -6.255)"/>
    </g>
  </g>
</svg>
