<svg xmlns="http://www.w3.org/2000/svg" width="44" height="44" viewBox="0 0 44 44">
  <g id="r-appoint" transform="translate(-1086 -527)">
    <g id="Group_1043" data-name="Group 1043" transform="translate(-8 16)">
      <g id="Ellipse_97" data-name="Ellipse 97" transform="translate(1094 511)" fill="none" stroke="#ff8029" stroke-width="1" stroke-dasharray="5">
        <circle cx="22" cy="22" r="22" stroke="none"/>
        <circle cx="22" cy="22" r="21.5" fill="none"/>
      </g>
      <circle id="Ellipse_94" data-name="Ellipse 94" cx="17.5" cy="17.5" r="17.5" transform="translate(1099 516)" fill="#ff8029"/>
      <g id="notification" transform="translate(1104 521)">
        <path id="Path_1074" data-name="Path 1074" d="M21.9,19.764,20.667,18.53V14.667a4.337,4.337,0,0,0-2-3.647V3.333A.333.333,0,0,0,18.334,3H16.667V2.333A.333.333,0,0,0,16.334,2h-2A.333.333,0,0,0,14,2.333V3H6.667V2.333A.333.333,0,0,0,6.333,2h-2A.333.333,0,0,0,4,2.333V3H2.333A.333.333,0,0,0,2,3.333V17.667A.333.333,0,0,0,2.333,18H12v.53l-1.237,1.233a.333.333,0,0,0-.07.363.329.329,0,0,0,.307.207h3.363a2,2,0,0,0,3.94,0h3.363a.329.329,0,0,0,.307-.207.333.333,0,0,0-.07-.363Zm-7.237-17.1H16V4a.667.667,0,1,1-1.333,0Zm-10,0H6V4A.667.667,0,0,1,4.667,4Zm-2,1H4V4A1.333,1.333,0,0,0,6.667,4V3.667H14V4a1.333,1.333,0,1,0,2.667,0V3.667H18V6H2.667Zm0,13.667V6.667H18v3.667a1.667,1.667,0,1,0-3.333,0v.333a4.344,4.344,0,0,0-2.667,4v2.667Zm14.667-7v.12a4.227,4.227,0,0,0-2,0v-.12a1,1,0,1,1,2,0Zm-1,11a1.333,1.333,0,0,1-1.287-1H17.62A1.333,1.333,0,0,1,16.334,21.334ZM11.8,19.667l.767-.763a.344.344,0,0,0,.1-.237v-4a3.667,3.667,0,1,1,7.333,0v4a.344.344,0,0,0,.1.237l.767.763Z" fill="#fff"/>
        <path id="Path_1075" data-name="Path 1075" d="M10.1,18H8.3a.3.3,0,0,0-.3.3v1.8a.3.3,0,0,0,.3.3h1.8a.3.3,0,0,0,.3-.3V18.3A.3.3,0,0,0,10.1,18Zm-.3,1.8H8.6V18.6H9.8Z" transform="translate(-4.2 -10.584)" fill="#fff"/>
        <path id="Path_1076" data-name="Path 1076" d="M19.2,18a1.2,1.2,0,1,0,1.2,1.2A1.2,1.2,0,0,0,19.2,18Zm0,1.8a.6.6,0,1,1,.6-.6A.6.6,0,0,1,19.2,19.8Z" transform="translate(-10.584 -10.584)" fill="#fff"/>
        <path id="Path_1077" data-name="Path 1077" d="M30.431,19.169a1.2,1.2,0,1,0-1.2,1.2A1.2,1.2,0,0,0,30.431,19.169Zm-1.8,0a.6.6,0,1,1,.6.6A.6.6,0,0,1,28.631,19.169Z" transform="translate(-17.22 -10.564)" fill="#fff"/>
        <path id="Path_1078" data-name="Path 1078" d="M19.2,28a1.2,1.2,0,1,0,1.2,1.2A1.2,1.2,0,0,0,19.2,28Zm0,1.8a.6.6,0,1,1,.6-.6A.6.6,0,0,1,19.2,29.8Z" transform="translate(-10.584 -17.2)" fill="#fff"/>
        <path id="Path_1079" data-name="Path 1079" d="M10.1,28H8.3a.3.3,0,0,0-.3.3v1.8a.3.3,0,0,0,.3.3h1.8a.3.3,0,0,0,.3-.3V28.3A.3.3,0,0,0,10.1,28Zm-.3,1.8H8.6V28.6H9.8Z" transform="translate(-4.2 -17.2)" fill="#fff"/>
        <path id="Path_1080" data-name="Path 1080" d="M19.2,38a1.2,1.2,0,1,0,1.2,1.2A1.2,1.2,0,0,0,19.2,38Zm0,1.8a.6.6,0,1,1,.6-.6A.6.6,0,0,1,19.2,39.8Z" transform="translate(-10.584 -23.815)" fill="#fff"/>
        <path id="Path_1081" data-name="Path 1081" d="M10.1,38H8.3a.3.3,0,0,0-.3.3v1.8a.3.3,0,0,0,.3.3h1.8a.3.3,0,0,0,.3-.3V38.3A.3.3,0,0,0,10.1,38Zm-.3,1.8H8.6V38.6H9.8Z" transform="translate(-4.2 -23.815)" fill="#fff"/>
      </g>
    </g>
    <g id="Group_1073" data-name="Group 1073" transform="translate(641 260)">
      <g id="Ellipse_6" data-name="Ellipse 6" transform="translate(450 272)" fill="#f1f1f1" stroke="#ff8029" stroke-width="1">
        <circle cx="17.5" cy="17.5" r="17.5" stroke="none"/>
        <circle cx="17.5" cy="17.5" r="17" fill="none"/>
      </g>
      <g id="monthly-calendar" transform="translate(458.496 279.474)">
        <g id="Group_1071" data-name="Group 1071">
          <g id="Group_1070" data-name="Group 1070" transform="translate(0)">
            <path id="Path_1092" data-name="Path 1092" d="M29.416,2.327H27.955v-1A1.329,1.329,0,0,0,26.626,0h-.053a1.329,1.329,0,0,0-1.329,1.329v1H18.387v-1A1.329,1.329,0,0,0,17.058,0H17a1.329,1.329,0,0,0-1.329,1.329v1H14.214a1.329,1.329,0,0,0-1.329,1.329V17.9a1.329,1.329,0,0,0,1.329,1.329h15.2A1.329,1.329,0,0,0,30.745,17.9V3.656A1.329,1.329,0,0,0,29.416,2.327Zm-.9,14.8h-13.4V6.34h13.4Z" transform="translate(-12.885)" fill="#ff8029"/>
            <path id="Path_1093" data-name="Path 1093" d="M85.349,162.373h2.312a.213.213,0,0,0,.213-.213v-2.312a.213.213,0,0,0-.213-.213H85.349a.213.213,0,0,0-.213.213v2.312A.213.213,0,0,0,85.349,162.373Z" transform="translate(-81.295 -151.15)" fill="#ff8029"/>
            <path id="Path_1094" data-name="Path 1094" d="M155.349,162.373h2.312a.213.213,0,0,0,.213-.213v-2.312a.213.213,0,0,0-.213-.213h-2.312a.213.213,0,0,0-.213.213v2.312A.213.213,0,0,0,155.349,162.373Z" transform="translate(-147.575 -151.15)" fill="#ff8029"/>
            <path id="Path_1095" data-name="Path 1095" d="M225.349,162.373h2.312a.213.213,0,0,0,.213-.213v-2.312a.213.213,0,0,0-.213-.213h-2.312a.213.213,0,0,0-.213.213v2.312A.213.213,0,0,0,225.349,162.373Z" transform="translate(-213.854 -151.15)" fill="#ff8029"/>
            <path id="Path_1096" data-name="Path 1096" d="M85.349,232.373h2.312a.213.213,0,0,0,.213-.213v-2.312a.213.213,0,0,0-.213-.213H85.349a.213.213,0,0,0-.213.213v2.312A.213.213,0,0,0,85.349,232.373Z" transform="translate(-81.295 -217.43)" fill="#ff8029"/>
            <path id="Path_1097" data-name="Path 1097" d="M155.349,232.373h2.312a.213.213,0,0,0,.213-.213v-2.312a.213.213,0,0,0-.213-.213h-2.312a.213.213,0,0,0-.213.213v2.312A.213.213,0,0,0,155.349,232.373Z" transform="translate(-147.575 -217.43)" fill="#ff8029"/>
            <path id="Path_1098" data-name="Path 1098" d="M225.349,232.373h2.312a.213.213,0,0,0,.213-.213v-2.312a.213.213,0,0,0-.213-.213h-2.312a.213.213,0,0,0-.213.213v2.312A.213.213,0,0,0,225.349,232.373Z" transform="translate(-213.854 -217.43)" fill="#ff8029"/>
          </g>
        </g>
      </g>
    </g>
  </g>
</svg>
