<svg xmlns="http://www.w3.org/2000/svg" width="44" height="44" viewBox="0 0 44 44">
  <g id="r-medi" transform="translate(-1086 -619)">
    <g id="Group_1044" data-name="Group 1044" transform="translate(-8 21)">
      <circle id="Ellipse_95" data-name="Ellipse 95" cx="17.5" cy="17.5" r="17.5" transform="translate(1099 603)" fill="#0070c0"/>
      <g id="reminder" transform="translate(1064.25 609)">
        <g id="Group_1025" data-name="Group 1025" transform="translate(49.196 19.82)">
          <g id="Group_1024" data-name="Group 1024" transform="translate(0)">
            <path id="Path_1082" data-name="Path 1082" d="M193.339,461.478h-.184a.322.322,0,1,0,0,.644h.184a.322.322,0,1,0,0-.644Z" transform="translate(-192.833 -461.478)" fill="#fff"/>
          </g>
        </g>
        <g id="Group_1027" data-name="Group 1027" transform="translate(42.75 2.351)">
          <g id="Group_1026" data-name="Group 1026" transform="translate(0)">
            <path id="Path_1083" data-name="Path 1083" d="M56.148,61.734a.322.322,0,0,0-.322.322v8.63h-8.9a.322.322,0,0,0,0,.644h8.883A2.733,2.733,0,0,1,53.1,73.738H46.123a2.733,2.733,0,0,1-2.709-2.407h2.2a.322.322,0,1,0,0-.644H43.394V58.439H52.6a.322.322,0,1,0,0-.644H43.414a2.733,2.733,0,0,1,2.709-2.407h4.89a.322.322,0,1,0,0-.644h-4.89a3.377,3.377,0,0,0-3.373,3.373V71.009a3.377,3.377,0,0,0,3.373,3.373H53.1a3.377,3.377,0,0,0,3.373-3.373V62.057A.322.322,0,0,0,56.148,61.734Z" transform="translate(-42.75 -54.744)" fill="#fff"/>
          </g>
        </g>
        <g id="Group_1029" data-name="Group 1029" transform="translate(47.975 3.877)">
          <g id="Group_1028" data-name="Group 1028" transform="translate(0)">
            <path id="Path_1084" data-name="Path 1084" d="M167.355,90.267h-2.626a.322.322,0,1,0,0,.644h2.626a.322.322,0,1,0,0-.644Z" transform="translate(-164.407 -90.267)" fill="#fff"/>
          </g>
        </g>
        <g id="Group_1031" data-name="Group 1031" transform="translate(58.273 0.719)">
          <g id="Group_1030" data-name="Group 1030" transform="translate(0)">
            <path id="Path_1085" data-name="Path 1085" d="M404.723,16.807a.322.322,0,0,0-.4.5,2.576,2.576,0,0,1,.973,2.02v.027a.322.322,0,0,0,.644,0V19.33A3.217,3.217,0,0,0,404.723,16.807Z" transform="translate(-404.199 -16.737)" fill="#fff"/>
          </g>
        </g>
        <g id="Group_1033" data-name="Group 1033" transform="translate(58.932 0)">
          <g id="Group_1032" data-name="Group 1032">
            <path id="Path_1086" data-name="Path 1086" d="M420.042.066a.322.322,0,1,0-.389.514,3.4,3.4,0,0,1,1.364,2.734V3.6a.322.322,0,1,0,.644,0V3.314A4.041,4.041,0,0,0,420.042.066Z" transform="translate(-419.526 -0.001)" fill="#fff"/>
          </g>
        </g>
        <g id="Group_1035" data-name="Group 1035" transform="translate(53.011 0.719)">
          <g id="Group_1034" data-name="Group 1034" transform="translate(0)">
            <path id="Path_1087" data-name="Path 1087" d="M283.324,16.857a.322.322,0,0,0-.453-.05,3.217,3.217,0,0,0-1.214,2.523v.027a.322.322,0,0,0,.644,0V19.33a2.576,2.576,0,0,1,.973-2.02A.322.322,0,0,0,283.324,16.857Z" transform="translate(-281.657 -16.736)" fill="#fff"/>
          </g>
        </g>
        <g id="Group_1037" data-name="Group 1037" transform="translate(51.954 0)">
          <g id="Group_1036" data-name="Group 1036" transform="translate(0 0)">
            <path id="Path_1088" data-name="Path 1088" d="M259.138.128a.322.322,0,0,0-.451-.063,4.041,4.041,0,0,0-1.619,3.247V3.6a.322.322,0,0,0,.644,0V3.313A3.4,3.4,0,0,1,259.076.579.322.322,0,0,0,259.138.128Z" transform="translate(-257.068 0)" fill="#fff"/>
          </g>
        </g>
        <g id="Group_1039" data-name="Group 1039" transform="translate(53.053 0.283)">
          <g id="Group_1038" data-name="Group 1038" transform="translate(0)">
            <path id="Path_1089" data-name="Path 1089" d="M288.923,12.412a.42.42,0,0,1-.419-.419V9.646a2.424,2.424,0,0,0-2.075-2.4V6.912a.322.322,0,0,0-.644,0v.333A2.4,2.4,0,0,0,283.71,9.62v2.373a.42.42,0,0,1-.419.419.642.642,0,0,0-.642.642v.354a.642.642,0,0,0,.642.642h1.632a1.308,1.308,0,0,0,2.535,0h1.465a.642.642,0,0,0,.642-.642v-.354A.642.642,0,0,0,288.923,12.412ZM286.19,14.39a.664.664,0,0,1-.58-.341h1.159A.664.664,0,0,1,286.19,14.39Zm1-.985h-1.986l-.033,0h-1.879l0-.351a1.065,1.065,0,0,0,1.064-1.063V9.62a1.752,1.752,0,0,1,1.751-1.752h.021a1.772,1.772,0,0,1,1.732,1.779v2.346a1.06,1.06,0,0,0,1.056,1.061h0l0,.352Z" transform="translate(-282.649 -6.59)" fill="#fff"/>
          </g>
        </g>
        <g id="Group_1041" data-name="Group 1041" transform="translate(46.321 8.882)">
          <g id="Group_1040" data-name="Group 1040" transform="translate(0)">
            <path id="Path_1090" data-name="Path 1090" d="M132.162,212.733H131.8l.023-.022a2.274,2.274,0,0,0,0-3.215l-2.03-2.03a2.274,2.274,0,1,0-3.215,3.215l1.015,1.015,1.015,1.015.023.022h-2.4a.322.322,0,0,0,0,.644h5.933a.322.322,0,0,0,0-.644Zm-5.134-2.507a1.629,1.629,0,1,1,2.3-2.3l.787.787-2.3,2.3Zm3.182,2.507a1.618,1.618,0,0,1-1.152-.477l-.787-.787,2.3-2.3.787.787.056.059a1.629,1.629,0,0,1-1.208,2.723Z" transform="translate(-125.907 -206.8)" fill="#fff"/>
          </g>
        </g>
      </g>
      <g id="Ellipse_98" data-name="Ellipse 98" transform="translate(1094 598)" fill="none" stroke="#0070c0" stroke-width="1" stroke-dasharray="5">
        <circle cx="22" cy="22" r="22" stroke="none"/>
        <circle cx="22" cy="22" r="21.5" fill="none"/>
      </g>
    </g>
    <g id="Group_1072" data-name="Group 1072" transform="translate(641 273)">
      <g id="Ellipse_6" data-name="Ellipse 6" transform="translate(450 351)" fill="#f1f1f1" stroke="#0070c0" stroke-width="1">
        <circle cx="17.5" cy="17.5" r="17.5" stroke="none"/>
        <circle cx="17.5" cy="17.5" r="17" fill="none"/>
      </g>
      <g id="first-aid-kit" transform="translate(458.513 359.513)">
        <path id="_x3C_Compound_Path_x3E__5_" d="M15.786,3.647H14.127V2.626A2.632,2.632,0,0,0,11.5,0H6.909A2.634,2.634,0,0,0,4.283,2.626V3.647H2.626A2.482,2.482,0,0,0,0,6.089v9.7A2.632,2.632,0,0,0,2.626,18.41h13.16a2.632,2.632,0,0,0,2.624-2.625v-9.7A2.482,2.482,0,0,0,15.786,3.647ZM5.69,2.626A1.258,1.258,0,0,1,6.909,1.406H11.5A1.259,1.259,0,0,1,12.72,2.626V3.647H5.69Zm7.734,10.16H10.611V15.6H7.8V12.786H4.987V9.27H7.8V6.459h2.812V9.27h2.813v3.515Z" fill="#0070c0"/>
      </g>
    </g>
  </g>
</svg>
