<svg xmlns="http://www.w3.org/2000/svg" width="34" height="34" viewBox="0 0 34 34">
  <g id="lock" transform="translate(-489 -176)">
    <rect id="Rectangle_290" data-name="Rectangle 290" width="34" height="34" transform="translate(489 176)" fill="none"/>
    <g id="password-svgrepo-com" transform="translate(499.299 182.435)">
      <path id="Path_588" data-name="Path 588" d="M17.337,7.488H17V5.022a5.022,5.022,0,0,0-10.044,0V7.488H6.616A1.791,1.791,0,0,0,4.826,9.277v9.7a1.791,1.791,0,0,0,1.789,1.789H17.337a1.791,1.791,0,0,0,1.789-1.789v-9.7A1.791,1.791,0,0,0,17.337,7.488ZM8.488,5.022a3.488,3.488,0,0,1,6.977,0V7.488H8.488Zm9.1,13.954a.259.259,0,0,1-.256.256H6.616a.259.259,0,0,1-.256-.256v-9.7a.259.259,0,0,1,.256-.256H17.337a.259.259,0,0,1,.256.256Z" transform="translate(-4.826)"/>
      <path id="Path_589" data-name="Path 589" d="M15.122,17.753a.767.767,0,0,0-.767.767v2.936a.767.767,0,0,0,1.534,0V18.52A.767.767,0,0,0,15.122,17.753Z" transform="translate(-7.972 -5.861)"/>
    </g>
  </g>
</svg>
