<svg xmlns="http://www.w3.org/2000/svg" width="20.66" height="17.969" viewBox="0 0 20.66 17.969">
  <g id="arrow" transform="translate(0.518 0.607)">
    <g id="Group_1528" data-name="Group 1528" transform="translate(0 0)">
      <path id="Path_1621" data-name="Path 1621" d="M1.173,38.844a1.4,1.4,0,0,1,.242-.018H15.191l-.3-.14a2.794,2.794,0,0,1-.789-.559l-3.863-3.863a1.446,1.446,0,0,1-.2-1.851,1.4,1.4,0,0,1,2.1-.182l6.986,6.986a1.4,1.4,0,0,1,0,1.976h0l-6.986,6.986a1.4,1.4,0,0,1-2.1-.14,1.446,1.446,0,0,1,.2-1.851l3.856-3.87a2.794,2.794,0,0,1,.7-.51l.419-.189H1.492A1.446,1.446,0,0,1,.018,40.447,1.4,1.4,0,0,1,1.173,38.844Z" transform="translate(0 -31.842)" fill="#34434e" stroke="#fff" stroke-width="1"/>
    </g>
  </g>
</svg>
