<svg xmlns="http://www.w3.org/2000/svg" xmlns:xlink="http://www.w3.org/1999/xlink" width="34" height="34" viewBox="0 0 34 34">
  <defs>
    <clipPath id="clip-path">
      <rect id="Rectangle_29" data-name="Rectangle 29" width="20" height="20" fill="#fff" stroke="#707070" stroke-width="1"/>
    </clipPath>
  </defs>
  <g id="setting" transform="translate(-391 -133)">
    <rect id="Rectangle_284" data-name="Rectangle 284" width="34" height="34" transform="translate(391 133)" fill="none"/>
    <g id="Group_114" data-name="Group 114" transform="translate(-176 -51)">
      <g id="setting-2" data-name="setting" transform="translate(574 191)" clip-path="url(#clip-path)">
        <g id="settings" transform="translate(0.638 0.638)">
          <circle id="Ellipse_4" data-name="Ellipse 4" cx="2.553" cy="2.553" r="2.553" transform="translate(6.809 6.809)" fill="none" stroke="#000" stroke-linecap="round" stroke-linejoin="round" stroke-width="1.532"/>
          <path id="Path_11" data-name="Path 11" d="M16.681,12.936a1.4,1.4,0,0,0,.281,1.549l.051.051A1.7,1.7,0,1,1,14.6,16.945l-.051-.051a1.416,1.416,0,0,0-2.4,1v.145a1.7,1.7,0,0,1-3.4,0v-.077a1.4,1.4,0,0,0-.919-1.285,1.4,1.4,0,0,0-1.549.281l-.051.051A1.7,1.7,0,1,1,3.821,14.6l.051-.051a1.416,1.416,0,0,0-1-2.4H2.723a1.7,1.7,0,1,1,0-3.4H2.8A1.4,1.4,0,0,0,4.085,7.83,1.4,1.4,0,0,0,3.8,6.281L3.753,6.23A1.7,1.7,0,1,1,6.162,3.821l.051.051a1.4,1.4,0,0,0,1.549.281H7.83a1.4,1.4,0,0,0,.851-1.285V2.723a1.7,1.7,0,0,1,3.4,0V2.8a1.416,1.416,0,0,0,2.4,1l.051-.051a1.7,1.7,0,1,1,2.409,2.409l-.051.051a1.4,1.4,0,0,0-.281,1.549V7.83a1.4,1.4,0,0,0,1.285.851h.145a1.7,1.7,0,0,1,0,3.4h-.077A1.4,1.4,0,0,0,16.681,12.936Z" transform="translate(-1.021 -1.021)" fill="none" stroke="#000" stroke-linecap="round" stroke-linejoin="round" stroke-width="1.532"/>
        </g>
      </g>
    </g>
  </g>
</svg>
