<svg xmlns="http://www.w3.org/2000/svg" width="20" height="20" viewBox="0 0 20 20">
  <g id="share" transform="translate(0 0)">
    <path id="Path_142" data-name="Path 142" d="M18.242,16.484a1.749,1.749,0,0,0-1.11.4l-1.9-1.152V11.467l1.9-1.151a1.757,1.757,0,1,0-.614-1l-1.289.78v-4.8a.591.591,0,0,0-.171-.414h0L10.37.169A.588.588,0,0,0,9.959,0H.586A.586.586,0,0,0,0,.586V19.414A.586.586,0,0,0,.586,20H14.648a.586.586,0,0,0,.586-.586V17.1l1.288.781a1.758,1.758,0,1,0,1.72-1.4Zm0-8.12a.586.586,0,1,1-.586.586A.587.587,0,0,1,18.242,8.364Zm-4.18,6.653-1.756-1.065a1.763,1.763,0,0,0,0-.715l1.755-1.062Zm-2.891-1.424a.586.586,0,1,1-.586-.586A.587.587,0,0,1,11.172,13.594Zm2.066-8.887H10.548l0-2.7Zm.825,14.121H1.172V1.172h8.2l0,4.122a.586.586,0,0,0,.586.585h4.1v4.927L11.7,12.235a1.758,1.758,0,1,0,0,2.719l2.364,1.434Zm4.18,0a.586.586,0,1,1,.586-.586A.587.587,0,0,1,18.242,18.828Z" fill="#34434e"/>
    <path id="Path_143" data-name="Path 143" d="M65.251,180h-4.69a.586.586,0,0,0,0,1.172h4.69a.586.586,0,0,0,0-1.172Z" transform="translate(-57.632 -172.969)" fill="#34434e"/>
    <path id="Path_144" data-name="Path 144" d="M65.2,241h-4.69a.586.586,0,0,0,0,1.172H65.2a.586.586,0,0,0,0-1.172Z" transform="translate(-57.584 -231.586)" fill="#34434e"/>
    <path id="Path_145" data-name="Path 145" d="M65.247,301H60.561a.586.586,0,0,0,0,1.172h4.687a.586.586,0,0,0,0-1.172Z" transform="translate(-57.632 -289.242)" fill="#34434e"/>
    <path id="Path_146" data-name="Path 146" d="M65.247,360H60.561a.586.586,0,0,0,0,1.172h4.687a.586.586,0,0,0,0-1.172Z" transform="translate(-57.632 -345.938)" fill="#34434e"/>
    <path id="Path_147" data-name="Path 147" d="M65.247,419H60.561a.586.586,0,0,0,0,1.172h4.687a.586.586,0,0,0,0-1.172Z" transform="translate(-57.632 -402.633)" fill="#34434e"/>
  </g>
</svg>
