<svg xmlns="http://www.w3.org/2000/svg" width="26" height="26" id="travelp"><path d="M13 0C5.826 0 0 5.826 0 13s5.826 13 13 13 13-5.826 13-13S20.174 0 13 0zm0 1.002c6.633 0 12 5.365 12 11.998 0 6.633-5.367 12-12 12S1 19.633 1 13 6.367 1.002 13 1.002zm4.898 5.205c-.511 0-1.025.2-1.414.588l-2.283 2.281-5.736-1.021a.5.5 0 0 0-.442.138L6.61 9.607a.5.5 0 0 0 .194.829l4.517 1.525-2.28 2.293-.917-.193a.5.5 0 0 0-.457.136l-1.414 1.414a.5.5 0 0 0 .16.815l2.3.967.968 2.3a.5.5 0 0 0 .814.16l1.416-1.414a.5.5 0 0 0 .137-.455l-.188-.908 2.295-2.295 1.537 4.51a.5.5 0 0 0 .827.191l1.414-1.414a.5.5 0 0 0 .138-.441l-1.015-5.746 2.258-2.258a.5.5 0 0 0 .001 0 2.001 2.001 0 0 0-1.416-3.416zm0 1c.256 0 .508.096.707.295a.987.987 0 0 1-.001 1.414l-2.44 2.441a.5.5 0 0 0-.139.442l1.016 5.746-.662.662-1.537-4.51a.5.5 0 0 0-.826-.191L10.96 16.56a.5.5 0 0 0-.137.455l.188.906-.7.7-.757-1.804a.5.5 0 0 0-.268-.267l-1.803-.758.698-.697.916.193a.5.5 0 0 0 .457-.137l3.04-3.054a.5.5 0 0 0-.193-.828L7.887 9.744l.66-.66 5.736 1.021a.5.5 0 0 0 .442-.138l2.466-2.465a.99.99 0 0 1 .707-.295z" color="#000" font-family="sans-serif" font-weight="400" overflow="visible" style="line-height:normal;text-indent:0;text-align:start;text-decoration-line:none;text-decoration-style:solid;text-decoration-color:#000;text-transform:none;block-progression:tb;isolation:auto;mix-blend-mode:normal"/></svg>