<svg xmlns="http://www.w3.org/2000/svg" width="22.5" height="32.503" viewBox="0 0 22.5 32.503">
  <path id="travel" d="M24,9H20V4a1,1,0,0,0,1-1,3,3,0,0,0-3-3H14a3,3,0,0,0-3,3,1,1,0,0,0,1,1V9H8a3,3,0,0,0-3,3V26a3,3,0,0,0,3,3h.277a1.949,1.949,0,0,0-.207,1.518A2,2,0,1,0,11.723,29h8.555a1.949,1.949,0,0,0-.207,1.518A2,2,0,1,0,23.723,29H24a3,3,0,0,0,3-3V12A3,3,0,0,0,24,9ZM14,1h4a2,2,0,0,1,2,2H19a1,1,0,0,0-1-1H14a1,1,0,0,0-1,1H12A2,2,0,0,1,14,1Zm5,3V9H13V4a1,1,0,0,0,1-1h4A1,1,0,0,0,19,4ZM10,31a1,1,0,1,1,1-1A1,1,0,0,1,10,31Zm12,0a1,1,0,1,1,1-1A1,1,0,0,1,22,31Zm4-5a2,2,0,0,1-2,2H8a2,2,0,0,1-2-2V16h8v1a1,1,0,0,0,1,1h2a1,1,0,0,0,1-1V16h8ZM15,17V14h2v3Zm11-2H18V14a1,1,0,0,0-1-1H15a1,1,0,0,0-1,1v1H6V12a2,2,0,0,1,2-2H24a2,2,0,0,1,2,2Z" transform="translate(-4.75 0.25)" fill="#111918" stroke="#000" stroke-width="0.5"/>
</svg>
