<svg xmlns="http://www.w3.org/2000/svg" width="214.236" height="170.052" viewBox="0 0 214.236 170.052"><defs><style>.a,.g{fill:#494e56;}.a{font-size:15px;font-family="Arial";font-weight:600;}.b{fill:#ffeb9c;}.c{fill:#fff8f3;}.d{fill:#e7c235;}.e{fill:#fff;}.f,.l,.o{fill:none;stroke-linecap:round;stroke-linejoin:round;}.f{stroke:#fff;stroke-width:2.793px;}.h{fill:#100c25;}.i{fill:#f2c8aa;}.j{fill:#f8959d;}.k{fill:#aca9d6;}.l,.o{stroke:#100c25;}.l{stroke-width:0.775px;}.m{fill:#262b60;}.n{fill:#e57885;}.o{stroke-width:0.772px;}.p{fill:#ffdec2;}</style></defs><g transform="translate(-80 -331)"><text class="a" transform="translate(129 347)"><tspan x="0" y="0">Study Calendar</tspan></text><g transform="translate(-7.396 9)"><g transform="translate(37.779 308.305)"><g transform="translate(49.617 54.297)"><path class="b" d="M247.333,334.929c-1.69.2-10.432,3.588-11.85,4.081v0l-.061.022-.167.06c-8.447,3.134-12.326,2.546-15.647,1.485-8.969-2.864-19.555-25.83-34.081-23.443-6.161,1.013-5.85,13.024-9.714,15.825l.006-.012c-.027.024-.054.044-.081.067-.554.4-1.094.815-1.6,1.239-7.556,5.128-15.082-1.557-17.243-3.071-.159-.12-.324-1.071-.485-1.189-.087-.067-.135-.107-.135-.107v.008c-9.466-6.937-31.168-14.229-45.684-12.5-24.941,2.964-28.334,32.639-28.334,32.639H268.626C265.715,343.073,261.266,333.273,247.333,334.929Z" transform="translate(-71.655 -231.668)"/><g transform="translate(0 0)"><path class="c" d="M676.772,256.649l-13.144.018a1.022,1.022,0,0,1-1.024-1.022h0a1.023,1.023,0,0,1,1.021-1.024l13.143-.018a1.023,1.023,0,0,1,1.024,1.022h0A1.023,1.023,0,0,1,676.772,256.649Z" transform="translate(-463.557 -189.56)"/><path class="b" d="M170.894,82.831,145.4,82.85a1.023,1.023,0,0,1-1.024-1.022h0A1.023,1.023,0,0,1,145.4,80.8l25.493-.019a1.023,1.023,0,0,1,1.024,1.022h0A1.023,1.023,0,0,1,170.894,82.831Z" transform="translate(-113.606 -72.184)"/><path class="c" d="M1.533,0h.1A1.533,1.533,0,0,1,3.165,1.533v0A1.533,1.533,0,0,1,1.632,3.066h-.1A1.533,1.533,0,0,1,0,1.533v0A1.533,1.533,0,0,1,1.533,0Z" transform="translate(193.678 25.468) rotate(-0.079)"/><path class="c" d="M1.533,0h.1A1.533,1.533,0,0,1,3.165,1.533v0A1.533,1.533,0,0,1,1.632,3.066h-.1A1.533,1.533,0,0,1,0,1.533v0A1.533,1.533,0,0,1,1.533,0Z" transform="translate(0 77.754) rotate(-0.079)"/><circle class="b" cx="11.603" cy="11.603" r="11.603" transform="translate(148.352)"/><g transform="translate(5.138 28.211)"><g transform="translate(173.494 18.609)"><path class="d" d="M610.092,202.517H601.75a2.017,2.017,0,0,1-2.016-2.016h0a2.016,2.016,0,0,1,2.016-2.016h8.342a2.016,2.016,0,0,1,2.017,2.016h0A2.017,2.017,0,0,1,610.092,202.517Z" transform="translate(-599.734 -198.484)"/><g transform="translate(3.459 1.493)"><path class="e" d="M611.417,203.64a.516.516,0,1,1-.518-.514A.516.516,0,0,1,611.417,203.64Z" transform="translate(-610.385 -203.112)"/><path class="e" d="M618.232,203.618a.516.516,0,1,1-.517-.514A.516.516,0,0,1,618.232,203.618Z" transform="translate(-614.987 -203.097)"/><path class="e" d="M625.046,203.6a.516.516,0,1,1-.518-.514A.516.516,0,0,1,625.046,203.6Z" transform="translate(-619.588 -203.083)"/></g></g><g transform="translate(0 0)"><g transform="translate(7.252 7.436)"><rect class="e" width="22.407" height="20.1" rx="5.847"/><path class="e" d="M122.275,215.146l5.759,5.433a.45.45,0,0,0,.759-.328v-6.745Z" transform="translate(-111.072 -197.455)"/></g><circle class="d" cx="5.258" cy="5.258" r="5.258" transform="translate(0 7.436) rotate(-45)"/><path class="f" d="M81.136,161.691l1.968,1.438,2.342-2.974" transform="translate(-76.04 -153.992)"/><path class="g" d="M116.173,182.259l-.779-.136a4.033,4.033,0,0,0-.4-.97l.454-.647a.6.6,0,0,0-.067-.767l-.466-.466a.6.6,0,0,0-.766-.055l-.647.454a4.021,4.021,0,0,0-.97-.4l-.134-.8a.6.6,0,0,0-.578-.5h-.672a.6.6,0,0,0-.59.5l-.136.776a4.02,4.02,0,0,0-.97.4l-.645-.434a.6.6,0,0,0-.766.067l-.466.466a.6.6,0,0,0-.067.766l.454.647a4.028,4.028,0,0,0-.4.97l-.776.136a.6.6,0,0,0-.5.59v.659a.6.6,0,0,0,.5.59l.776.136a4.015,4.015,0,0,0,.4.97l-.454.647a.6.6,0,0,0,.067.766l.466.466a.6.6,0,0,0,.766.067l.647-.454a4.03,4.03,0,0,0,.97.4l.136.776a.6.6,0,0,0,.59.5h.67a.6.6,0,0,0,.59-.5l.136-.776a4.021,4.021,0,0,0,.97-.4l.633.444a.6.6,0,0,0,.766-.067l.466-.466a.6.6,0,0,0,.067-.766l-.454-.652a4.033,4.033,0,0,0,.4-.97l.779-.136a.6.6,0,0,0,.5-.59v-.66A.6.6,0,0,0,116.173,182.259Zm-4.7,2.7a1.781,1.781,0,1,1,1.781-1.781v.01A1.781,1.781,0,0,1,111.475,184.957Z" transform="translate(-93.022 -166.027)"/></g></g></g></g><g transform="translate(60.885 74.413)"><g transform="translate(45.393 0)"><g transform="translate(0 8.631)"><g transform="translate(5.726 0.02)"><path class="g" d="M241.742,271.832a3.648,3.648,0,0,0,3.648,3.648H317.7a3.648,3.648,0,0,0,3.648-3.648V206.564h-79.61Z" transform="translate(-241.742 -185.887)"/><path class="g" d="M317.735,142.886H245.421a3.648,3.648,0,0,0-3.648,3.648v17.05h79.611v-17.05A3.648,3.648,0,0,0,317.735,142.886Z" transform="translate(-241.763 -142.886)"/></g><path class="e" d="M224.108,271.832a3.648,3.648,0,0,0,3.648,3.648H300.07a3.648,3.648,0,0,0,3.648-3.648V206.564H224.108Z" transform="translate(-224.108 -185.867)"/><path class="d" d="M300.07,142.824H227.756a3.648,3.648,0,0,0-3.648,3.648v17.049h79.611V146.472A3.648,3.648,0,0,0,300.07,142.824Z" transform="translate(-224.108 -142.824)"/></g><g transform="translate(15.363)"><circle class="h" cx="4.189" cy="4.189" r="4.189" transform="translate(2.563 15.293)"/><path class="e" d="M277.286,133.484h0a2.178,2.178,0,0,1-2.179-2.178V122.2a2.237,2.237,0,0,1,1.744-2.222,2.182,2.182,0,0,1,2.613,2.137v2.764h3.688v-2.557a6.006,6.006,0,0,0-5.465-6.06,5.873,5.873,0,0,0-6.268,5.853v9a5.868,5.868,0,0,0,6.273,6.043c2.322-.16,2.13-3.674-.2-3.674Z" transform="translate(-271.419 -116.245)"/><g transform="translate(33.401)"><circle class="h" cx="4.189" cy="4.189" r="4.189" transform="translate(2.563 15.293)"/><path class="e" d="M380.148,133.484h0a2.178,2.178,0,0,1-2.178-2.178V122.2a2.236,2.236,0,0,1,1.744-2.222,2.182,2.182,0,0,1,2.613,2.137v2.764h3.688v-2.557a6.006,6.006,0,0,0-5.465-6.06,5.873,5.873,0,0,0-6.268,5.853v9a5.868,5.868,0,0,0,6.272,6.043c2.322-.16,2.13-3.674-.2-3.674Z" transform="translate(-374.282 -116.245)"/></g></g><g transform="translate(11.96 39.201)"><rect class="b" width="11.908" height="11.908"/><rect class="b" width="11.908" height="11.908" transform="translate(0 17.531)"/><rect class="b" width="11.908" height="11.908" transform="translate(0 35.062)"/><g transform="translate(20.204)"><rect class="d" width="11.908" height="11.908"/><rect class="b" width="11.908" height="11.908" transform="translate(0 17.531)"/><rect class="b" width="11.908" height="11.908" transform="translate(0 35.062)"/></g><g transform="translate(40.408)"><rect class="d" width="11.908" height="11.908"/><rect class="d" width="11.908" height="11.908" transform="translate(0 17.531)"/><rect class="b" width="11.908" height="11.908" transform="translate(0 35.062)"/></g></g></g><g transform="translate(0 33.608)"><g transform="translate(30.534 5.829)"><rect class="d" width="8.038" height="5.293" transform="translate(3.406 1.855)"/><rect class="g" width="14.849" height="3.228"/></g><circle class="g" cx="26.773" cy="26.773" r="26.773" transform="translate(0 37.863) rotate(-45)"/><circle class="e" cx="21.989" cy="21.989" r="21.989" transform="matrix(0.227, -0.974, 0.974, 0.227, 11.464, 54.298)"/><g transform="translate(18.273 18.188)"><g transform="translate(5.698 5.807)"><path class="i" d="M159.61,295.662a.551.551,0,0,1-.391-.162l-.919-.918a.553.553,0,0,1,.783-.782l.918.918a.553.553,0,0,1-.391.944Z" transform="translate(-158.138 -293.638)"/><path class="i" d="M239.615,375.667a.551.551,0,0,1-.391-.162l-.918-.919a.553.553,0,0,1,.782-.782l.918.919a.553.553,0,0,1-.391.944Z" transform="translate(-212.164 -347.663)"/><path class="i" d="M158.691,375.667a.553.553,0,0,1-.391-.944l.919-.919a.553.553,0,0,1,.782.782l-.918.919A.551.551,0,0,1,158.691,375.667Z" transform="translate(-158.138 -347.663)"/><path class="i" d="M238.7,295.662a.553.553,0,0,1-.391-.944l.918-.918a.553.553,0,0,1,.782.782l-.918.918A.552.552,0,0,1,238.7,295.662Z" transform="translate(-212.164 -293.638)"/></g><g transform="translate(18.416)"><circle class="h" cx="1.266" cy="1.266" r="1.266"/><circle class="h" cx="1.266" cy="1.266" r="1.266" transform="translate(0 36.831)"/></g><g transform="translate(0 18.416)"><path class="h" d="M141.857,332.468a1.266,1.266,0,1,1-1.266,1.266A1.266,1.266,0,0,1,141.857,332.468Z" transform="translate(-140.591 -332.468)"/><path class="h" d="M255.282,332.468a1.266,1.266,0,1,1-1.266,1.266A1.266,1.266,0,0,1,255.282,332.468Z" transform="translate(-217.185 -332.468)"/></g><path class="d" d="M205.781,301.076l-9.037,10.593a1.42,1.42,0,1,0,2.367,1.427L206.1,301.3A.194.194,0,0,0,205.781,301.076Z" transform="translate(-178.233 -292.806)"/></g></g></g><g transform="translate(174.857 93.742)"><g transform="translate(19.709 31.683)"><g transform="translate(0 1.567)"><g transform="translate(0 23.314)"><path class="j" d="M522.508,364.472l3.3-13.292-7.9-1.214-3.878,14.506Z" transform="translate(-508.176 -349.966)"/><g transform="translate(0 14.506)"><path class="e" d="M510.932,394.639h-8.479l-1.25,1.994s-4.487.264-4.311,5.631h13.682Z" transform="translate(-496.6 -394.639)"/><rect class="k" width="14.449" height="1.547" transform="translate(14.449 7.625) rotate(180)"/><path class="l" d="M510.179,400.665s2.621-.4,3.49.938" transform="translate(-505.576 -398.671)"/></g></g><g transform="translate(4.566)"><g transform="translate(1.137)"><path class="g" d="M535.244,278.169l-11.212,33.482-10.466-.247,8.88-33.152Z" transform="translate(-513.566 -278.169)"/></g><g transform="translate(0 30.014)"><path class="m" d="M523.636,370.6,522.5,374.75l-12.439.048,1.066-4.2Z" transform="translate(-510.064 -370.599)"/></g></g></g><g transform="translate(15.421)"><g transform="translate(16.574 8.962)"><path class="j" d="M608.5,309.44,594.536,311l4.066,7.8,12.946-1.418Z" transform="translate(-594.536 -306.68)"/><g transform="translate(13.967)"><path class="e" d="M637.549,304.627l3.044,7.938,2.3.486s1.795,4.121,6.772,2.106l-4.717-12.844Z" transform="translate(-637.549 -301.868)"/><rect class="k" width="14.449" height="1.547" transform="matrix(0.345, 0.939, -0.939, 0.345, 7.239, 0)"/><path class="l" d="M652.924,327.591a3.669,3.669,0,0,1,0-3.746" transform="translate(-647.576 -316.408)"/></g></g><path class="g" d="M569.324,284.463l-11.217.7-3.052-11.824-11.56.513,2.744,10.761,1.412,5.57a8.253,8.253,0,0,0,9.172,6.142l15.878-1.955Z" transform="translate(-543.494 -273.342)"/><g transform="translate(21.978 10.415)"><path class="m" d="M611.179,305.785l4.287-.367,4.25,11.346-4.309.447Z" transform="translate(-611.179 -305.418)"/></g></g></g><g transform="translate(29.475 0)"><path class="h" d="M533.726,192.685s-1.658,1.8.833,3.57Z" transform="translate(-530.877 -187.193)"/><path class="n" d="M535.484,200.715a1.627,1.627,0,0,1-1.206,1.951,1.609,1.609,0,0,1-1.9-1.262,1.627,1.627,0,0,1,1.205-1.951A1.61,1.61,0,0,1,535.484,200.715Z" transform="translate(-530.304 -191.738)"/><path class="j" d="M546.375,209.612l.576,3.884a1.918,1.918,0,0,0,2.419,1.765h0c1.108-.176,2.248-.9,2.021-2.09L550.2,207.1Z" transform="translate(-539.784 -196.928)"/><path class="h" d="M546.669,213.69a7.919,7.919,0,0,0,3.6-4.661c.294-1.139-4.1,1.281-4.1,1.281Z" transform="translate(-539.645 -198.023)"/><path class="j" d="M539.194,192.55h0a4.145,4.145,0,0,1-4.657-3.06l-.695-3.9a4.346,4.346,0,0,1,3.253-5.074h0a4.664,4.664,0,0,1,5.491,3.284l.5,3.043A4.933,4.933,0,0,1,539.194,192.55Z" transform="translate(-531.27 -178.908)"/><g transform="translate(2.808 5.901)"><path class="h" d="M545.773,193.951s-1.233,0-1.21.355c0,0,.022.239.76.223s1.309-.087,1.357-.318S546.167,193.919,545.773,193.951Z" transform="translate(-541.368 -193.944)"/><path class="h" d="M535.673,195.423s-1.041.24-.94.581c0,0-.086.263.63.083s1.059-.323,1.053-.559S536.051,195.3,535.673,195.423Z" transform="translate(-534.726 -194.887)"/><path class="l" d="M545.528,207.162a1.026,1.026,0,0,1-1.072.581" transform="translate(-541.297 -202.87)"/><path class="h" d="M537.905,201.166a.37.37,0,1,1-.428-.3A.37.37,0,0,1,537.905,201.166Z" transform="translate(-536.378 -198.614)"/><path class="h" d="M548.453,199.722a.37.37,0,1,1-.452-.262A.37.37,0,0,1,548.453,199.722Z" transform="translate(-543.504 -197.66)"/><path class="o" d="M541.589,203.69l-.065.7a.149.149,0,0,0,.066.185l.344.107" transform="translate(-539.31 -200.525)"/></g><path class="h" d="M543.371,184.816s-2.12-1.366-1.644-3.309l-6.431,1.169.283-4,6.529-.659a2.053,2.053,0,0,1,2.607,1.952l.176,3.933Z" transform="translate(-532.303 -177.255)"/><path class="h" d="M531.205,177.236a2.717,2.717,0,1,1-3.663-1.159A2.716,2.716,0,0,1,531.205,177.236Z" transform="translate(-526.077 -175.771)"/><path class="h" d="M541.753,177.638a1.82,1.82,0,1,1-2.454-.777A1.82,1.82,0,0,1,541.753,177.638Z" transform="translate(-534.343 -176.368)"/><g transform="translate(10.731 6.272)"><path class="j" d="M562.24,196.372a1.612,1.612,0,0,1-1.194,1.932,1.594,1.594,0,0,1-1.884-1.249,1.612,1.612,0,0,1,1.194-1.932A1.594,1.594,0,0,1,562.24,196.372Z" transform="translate(-559.123 -195.087)"/><path class="o" d="M562.568,199.119s-.25-1.153.856-1.208" transform="translate(-561.433 -196.994)"/></g></g><g transform="translate(0 13.688)"><g transform="translate(0 0)"><g transform="translate(6.836 6.271)"><path class="j" d="M465.994,238.733c-.35-.376-.976-.948-1.452-.83a.877.877,0,0,0-.558,1.368l.285.47c-.636.243-1.949.305-4.352-2.122a1.212,1.212,0,0,0-1.484-.216.746.746,0,0,0-.226.977c.008.017.02.032.029.048a1.1,1.1,0,0,0-.963.1.746.746,0,0,0-.226.977,1.029,1.029,0,0,0,.083.138.958.958,0,0,0-.453.157.746.746,0,0,0-.226.977,1.1,1.1,0,0,0,.206.286c.032.032.063.06.095.092-.014.009-.031.014-.044.024a.746.746,0,0,0-.226.977,1.1,1.1,0,0,0,.206.285,14.129,14.129,0,0,0,1.966,1.674h0l.031.02a9.356,9.356,0,0,0,.906.552c1.389.807,4.36.131,6.915.542l1.995-3.764Z" transform="translate(-456.359 -237.236)"/></g><rect class="p" width="12.029" height="12.029" transform="translate(15.843 4.823) rotate(113.638)"/><path class="j" d="M479.1,236.563l-1.943-2.264a.791.791,0,0,0-1.2,0h0a.791.791,0,0,0-.107.874l.979,1.929a5.374,5.374,0,0,0,1.157,4.9Z" transform="translate(-462.626 -228.795)"/><path class="b" d="M499.693,247.961l-13.409-4.233-2.334,6.89,12.835,4.411a3.825,3.825,0,0,0,5.361-2.672h0A3.825,3.825,0,0,0,499.693,247.961Z" transform="translate(-468.154 -235.349)"/><g transform="translate(25.948 3.623)"><path class="b" d="M525,230.744l-8.832,7.883a4.139,4.139,0,0,0,.334,5.635h0a4.277,4.277,0,0,0,5.953-.132l9.388-7.284a4.587,4.587,0,0,0,.469-5.78h0A4.587,4.587,0,0,0,525,230.744Z" transform="translate(-515.215 -229.08)"/></g></g><g transform="translate(32.604 1.257)"><path class="b" d="M546.147,221.83s5.569,6.215,5.732,21.648a32.116,32.116,0,0,1-16.165-.253l2.552-18.432S541.706,221.412,546.147,221.83Z" transform="translate(-535.714 -221.794)"/><line class="l" x1="1.654" y2="12.59" transform="translate(0.581 4.824)"/></g><g transform="translate(37.664 1.94)"><g transform="translate(0.946 5.726)"><g transform="translate(0 13.255)"><path class="j" d="M555.4,287.6s-1.811-.343-.966-2.29,3.013-3.992,6.748-2.377Z" transform="translate(-554.209 -282.354)"/><g transform="translate(1.037 0.114)"><path class="j" d="M565.022,288.641a4.044,4.044,0,1,0-5.465,1.684A4.044,4.044,0,0,0,565.022,288.641Z" transform="translate(-557.403 -282.705)"/></g></g><g transform="translate(3.761)"><path class="b" d="M573.8,243.065l-8,11.561,5.894,4.264,8-10.96a3.825,3.825,0,0,0-.969-5.911h0A3.826,3.826,0,0,0,573.8,243.065Z" transform="translate(-565.792 -241.534)"/></g></g><path class="b" d="M554.828,232.95l10.977,4.433a4.139,4.139,0,0,0,4.905-2.793h0a4.277,4.277,0,0,0-2.753-5.28l-10.686-5.2a4.587,4.587,0,0,0-5.391,2.137h0A4.587,4.587,0,0,0,554.828,232.95Z" transform="translate(-551.297 -223.899)"/><path class="l" d="M560.837,260.555l5.092-7.237-7.475-3" transform="translate(-556.13 -241.736)"/></g></g></g></g></g></g></svg>