<svg xmlns="http://www.w3.org/2000/svg" width="127.759" height="168.102" viewBox="0 0 127.759 168.102"><defs><style>.a,.f{fill:#494e56;}.a{font-size:15px;font-family:Arial;font-weight:600;}.b{fill:#e0e0e0;}.c{fill:#ebebeb;}.d{fill:#fafafa;}.e{fill:#f5f5f5;}.g{fill:#263238;}.h{fill:#ffbe9d;}.i{fill:#eb996e;}.j{fill:#ff725e;}.k{fill:#455a64;}.l{fill:#fff;}.m{fill:#e7c235;}.n,.p{opacity:0.3;}.o{opacity:0.6;}.p{isolation:isolate;}</style></defs><g transform="translate(-364 -298)"><text class="a" transform="translate(379 314)"><tspan x="0" y="0">Notifications</tspan></text><g transform="translate(333.835 309.285)"><g transform="translate(37.345 32.068)"><g transform="translate(0)"><g transform="translate(0.85)"><rect class="b" width="25.571" height="42.327"/></g><rect class="c" width="25.571" height="42.327"/><g transform="translate(1.089 0.858)"><rect class="d" width="23.393" height="40.611"/></g><g transform="translate(5.542 6.135)"><g transform="translate(0)"><rect class="c" width="14.385" height="30.056"/></g><g transform="translate(0 8.332)"><path class="b" d="M74.2,100.755a6.366,6.366,0,0,1,5.272-5.941c1.326-.187,2.734.076,3.973-.432,2.211-.907,2.915-3.845,5.14-4.716l.1,21.724H74.2Z" transform="translate(-74.204 -89.667)"/></g></g></g><g transform="translate(94.386 1.578)"><g transform="translate(1.668 0.008)"><rect class="b" width="24.524" height="25.564"/></g><g transform="translate(0.008 0.008)"><rect class="d" width="24.524" height="25.564"/></g><path class="b" d="M406.28,70.63H381.741V45.051H406.28Zm-24.523-.015h24.508V45.066H381.756Z" transform="translate(-381.741 -45.051)"/><g transform="translate(3.304 3.444)"><rect class="d" width="17.93" height="18.691"/></g><g transform="translate(0.031 22.258)"><path class="b" d="M385.123,122.1a2.932,2.932,0,0,1-.443.515c-.286.3-.689.711-1.14,1.156s-.866.84-1.171,1.121a2.852,2.852,0,0,1-.518.432,2.873,2.873,0,0,1,.44-.512c.286-.3.69-.712,1.142-1.158s.868-.842,1.173-1.123A2.808,2.808,0,0,1,385.123,122.1Z" transform="translate(-381.85 -122.098)"/></g><g transform="translate(21.233 22.213)"><path class="b" d="M455.242,121.942a2.922,2.922,0,0,1,.514.442c.3.286.711.689,1.156,1.14s.84.866,1.121,1.171a2.851,2.851,0,0,1,.432.518,2.861,2.861,0,0,1-.512-.44c-.3-.287-.712-.69-1.158-1.142s-.842-.868-1.123-1.174A2.846,2.846,0,0,1,455.242,121.942Z" transform="translate(-455.241 -121.941)"/></g><g transform="translate(21.185 0.27)"><path class="b" d="M455.074,49.21a2.919,2.919,0,0,1,.442-.515c.287-.3.689-.711,1.14-1.156s.866-.84,1.171-1.121a2.869,2.869,0,0,1,.518-.432,2.843,2.843,0,0,1-.44.512c-.286.3-.69.712-1.142,1.158s-.868.842-1.174,1.123A2.8,2.8,0,0,1,455.074,49.21Z" transform="translate(-455.073 -45.987)"/></g><g transform="translate(0.032 0.267)"><path class="b" d="M385.074,49.249a2.933,2.933,0,0,1-.515-.443c-.3-.286-.711-.689-1.155-1.14s-.84-.866-1.121-1.171a2.852,2.852,0,0,1-.432-.518,2.872,2.872,0,0,1,.512.44c.3.286.712.69,1.158,1.143s.842.868,1.123,1.173A2.788,2.788,0,0,1,385.074,49.249Z" transform="translate(-381.85 -45.976)"/></g><g transform="translate(3.225 3.365)"><path class="b" d="M410.865,75.468a.81.81,0,0,1,0-.091c0-.064,0-.15,0-.261,0-.234,0-.571-.008-1.009,0-.885-.01-2.174-.018-3.809-.008-3.273-.021-7.937-.035-13.521l.069.069-17.88.01h0l.079-.079c0,6.86-.008,13.278-.011,18.691l-.068-.068,12.947.035,3.637.018.962.008.249,0a.827.827,0,0,1,.087,0,.544.544,0,0,1-.079,0l-.241,0-.949.008-3.621.018-12.991.035h-.068v-.068c0-5.413-.007-11.831-.011-18.691V56.7h.081l17.88.01h.069v.069c-.014,5.6-.027,10.281-.035,13.565-.008,1.629-.014,2.912-.018,3.794,0,.432-.006.764-.008,1,0,.108,0,.191,0,.253A.65.65,0,0,1,410.865,75.468Z" transform="translate(-392.904 -56.698)"/></g><g transform="translate(9.278 9.798)"><rect class="c" width="5.983" height="5.983"/></g></g><g transform="translate(77.038 96.442)"><g transform="translate(5.413 14.028)"><path class="e" d="M341.517,432.9a2.8,2.8,0,0,1-.77-3.433,3.059,3.059,0,0,1,1.622-1.143,6.577,6.577,0,0,0,1.779-.921c.964-.82,1.23-2.183,1.871-3.278a4.1,4.1,0,0,1,3.556-2.132,4.49,4.49,0,0,1,3.671,2.976,13.308,13.308,0,0,1,.662,4.93,3.378,3.378,0,0,1-.712,2.586,3.331,3.331,0,0,1-2.412.556l-9.069-.278" transform="translate(-340.425 -421.986)"/></g><path class="b" d="M345.54,373.426H321.689l4.3,25.618a2.86,2.86,0,0,0,2.036,2.281c.027.009.056.015.084.023.071.018.139.042.212.055a2.971,2.971,0,0,0,.485.056l0,.025.116-.018h10.631a3,3,0,0,0,.584-.058,2.872,2.872,0,0,0,2.413-2.5l2.071-17.651.093-.7H344.7l.82-6.991Zm-4.5,16.341h-2.448l.247-7.435h2.836Zm.873-7.435h2.343l-.872,7.435h-2.106Zm-6.993,15.677-.149-6.459H338.3l-.215,6.459Zm-3.811-6.459h3.425l.148,6.459h-3.071Zm.265,6.459H328.5c-.273-1.744-.628-4.01-1.013-6.459h3.382Zm-.4-8.242-.578-7.435h3.929l.171,7.435Zm3.759,0-.171-7.435H338.6l-.247,7.435Zm-.212-9.218-.159-6.885h4.531l-.228,6.885Zm-.237,0h-4.027l-.535-6.885h4.4Zm-4.264,0h-4.26c-.151-.951-.294-1.851-.423-2.661-.444-2.784-.612-3.831-.7-4.224h4.852Zm.139,1.783.578,7.435h-3.523l-.358-2.281c-.276-1.755-.553-3.509-.813-5.153Zm-3.185,7.435h-2.3l-1.247-7.435H325.8C326.163,384.63,326.566,387.187,326.971,389.767Zm.28,1.783c.351,2.235.7,4.439,1.012,6.459h-2.211l-1.083-6.459Zm11.068,6.459.215-6.459h2.354l-.552,6.459Zm.58-17.46.229-6.885h3.288l-.588,6.885ZM324.4,373.664c.095.5.53,3.207,1.113,6.885h-2.394l-1.155-6.885Zm18.012,24.345h-1.843l.552-6.459h2.049Zm2.049-17.46h-2.4l.588-6.885h2.62Z" transform="translate(-321.689 -373.426)"/></g></g><g transform="translate(78.736 29.013)"><g transform="translate(0 0)"><path class="f" d="M238.226,125.522l-32.79-.019a7.142,7.142,0,0,1-7.138-7.144l.016-82.2a7.143,7.143,0,0,1,7.147-7.141l32.79.019a7.143,7.143,0,0,1,7.138,7.144l-.016,82.2A7.143,7.143,0,0,1,238.226,125.522Z" transform="translate(-198.298 -29.013)"/><g transform="translate(2.173 2.907)"><path class="d" d="M243.564,39.1l-6.358,0a1.579,1.579,0,0,0-1.544,1.613v1.153a1.579,1.579,0,0,1-1.544,1.613l-12.392-.007a1.581,1.581,0,0,1-1.544-1.615V40.7a1.581,1.581,0,0,0-1.544-1.615H216.4l-5.564,0a5,5,0,0,0-5.005,5l-.016,80.237a5,5,0,0,0,5,5l32.724.019a5,5,0,0,0,5.005-5l.016-80.238A5,5,0,0,0,243.564,39.1Z" transform="translate(-205.819 -39.077)"/></g><g transform="translate(33.87 4.714)"><g transform="translate(0 0.089)"><g transform="translate(0 0.726)"><rect class="g" width="0.363" height="0.509"/></g><g transform="translate(0.591 0.499)"><rect class="g" width="0.363" height="0.736"/></g><g transform="translate(1.183 0.329)"><rect class="g" width="0.363" height="0.907"/></g><g transform="translate(1.774)"><rect class="g" width="0.363" height="1.236"/></g></g><g transform="translate(5.548 0.182)"><path class="g" d="M336.7,47.128h-1.824a.131.131,0,0,1-.131-.131v-.907a.13.13,0,0,1,.13-.131H336.7a.034.034,0,0,1,.024.01.033.033,0,0,1,.01.024v.3h.2a.034.034,0,0,1,.034.034v.437a.034.034,0,0,1-.034.034h-.2v.3A.033.033,0,0,1,336.7,47.128Zm-.034-1.1h-1.792a.063.063,0,0,0-.063.064V47a.064.064,0,0,0,.064.064h1.791v-.3a.033.033,0,0,1,.034-.033h.2v-.37h-.2a.034.034,0,0,1-.034-.034Z" transform="translate(-334.742 -45.96)"/><g transform="translate(0.216 0.216)"><path class="g" d="M335.489,47.444v-.737h1.557v.737Z" transform="translate(-335.489 -46.707)"/></g></g><g transform="translate(2.744)"><g transform="translate(0.866 1.147)"><path class="g" d="M328.3,49.434a.133.133,0,1,0-.133.133A.134.134,0,0,0,328.3,49.434Z" transform="translate(-328.036 -49.301)"/></g><g transform="translate(0.545 0.771)"><path class="g" d="M326.924,48.186l.17.17a.4.4,0,0,1,.569,0l.17-.17a.643.643,0,0,0-.909,0Z" transform="translate(-326.924 -47.998)"/></g><g transform="translate(0.277 0.392)"><path class="g" d="M326.719,46.685a1.019,1.019,0,0,0-.723.3l.17.17a.78.78,0,0,1,1.1,0l.17-.17A1.019,1.019,0,0,0,326.719,46.685Z" transform="translate(-325.996 -46.685)"/></g><path class="g" d="M325.038,45.744l.17.17a1.171,1.171,0,0,1,1.659,0l.17-.17a1.411,1.411,0,0,0-2,0Z" transform="translate(-325.038 -45.329)"/></g></g><g transform="translate(23.258 11.634)"><g transform="translate(0 1.275)"><rect class="g" width="2.75" height="2.044" rx="0.946"/></g><g transform="translate(0.318)"><path class="g" d="M280.195,70.692h-.289v-.341a1.057,1.057,0,1,1,2.114,0v.218h-.289v-.218a.768.768,0,1,0-1.536,0Z" transform="translate(-279.906 -69.283)"/></g></g><g transform="translate(2.517 22.008)"><path class="c" d="M207.01,146.706a14.732,14.732,0,0,1,7.563-12.7c3.189-1.725,6.882-2.183,10.415-2.994s7.2-2.151,9.381-5.044c2.953-3.908,2.389-9.463,4.519-13.874a12.482,12.482,0,0,1,10.593-6.9v67.167a4.085,4.085,0,0,1-4.085,4.085h-34.3a4.085,4.085,0,0,1-4.085-4.085Z" transform="translate(-207.01 -105.194)"/></g><g transform="translate(9.742 24.56)"><path class="g" d="M232.019,118c0-2.491,1.307-3.977,3.117-3.977s3.128,1.486,3.128,3.977-1.318,3.977-3.128,3.977S232.019,120.494,232.019,118Zm5.418,0c0-2.089-.938-3.239-2.3-3.239s-2.3,1.15-2.3,3.239.938,3.239,2.3,3.239S237.437,120.092,237.437,118Z" transform="translate(-232.019 -114.027)"/><path class="g" d="M262.676,117.937c0,2.659-1.452,4.044-3.574,4.044a3.587,3.587,0,0,1-1.854-.424l.324-.648a2.741,2.741,0,0,0,1.519.369c1.687,0,2.77-1.084,2.77-3.206,0-.179-.011-.4-.033-.637a2.5,2.5,0,0,1-2.391,1.34,2.368,2.368,0,0,1-2.636-2.346,2.436,2.436,0,0,1,2.67-2.4C261.548,114.027,262.676,115.468,262.676,117.937Zm-1.106-1.553c0-.86-.715-1.675-2.066-1.675a1.711,1.711,0,0,0-1.91,1.7c0,1.028.76,1.687,1.966,1.687A1.81,1.81,0,0,0,261.57,116.384Z" transform="translate(-249.641 -114.027)"/><path class="g" d="M281.2,121.435a.592.592,0,0,1,.592-.6.6.6,0,0,1,.6.6.61.61,0,0,1-.6.614A.6.6,0,0,1,281.2,121.435Zm0,4.759a.591.591,0,0,1,.592-.6.6.6,0,0,1,.6.6.61.61,0,0,1-.6.614A.6.6,0,0,1,281.2,126.194Z" transform="translate(-266.989 -118.866)"/><path class="g" d="M293.759,121.2v.715h-5.485v-.57l3.25-3.184c.883-.871,1.05-1.4,1.05-1.932,0-.9-.637-1.463-1.832-1.463a2.655,2.655,0,0,0-2.133.871l-.569-.492a3.513,3.513,0,0,1,2.77-1.117c1.586,0,2.591.8,2.591,2.111a3.217,3.217,0,0,1-1.285,2.446l-2.658,2.614Z" transform="translate(-271.856 -114.027)"/><path class="g" d="M311.159,118c0-2.491,1.307-3.977,3.117-3.977S317.4,115.513,317.4,118s-1.318,3.977-3.128,3.977S311.159,120.494,311.159,118Zm5.418,0c0-2.089-.938-3.239-2.3-3.239s-2.3,1.15-2.3,3.239.938,3.239,2.3,3.239S316.577,120.092,316.577,118Z" transform="translate(-288.296 -114.027)"/></g><g transform="translate(3.501 10.718)"><circle class="b" cx="5.645" cy="5.645" r="5.645" transform="matrix(0.21, -0.978, 0.978, 0.21, 0, 11.037)"/></g></g></g><g transform="translate(30.165 67.831)"><g transform="translate(0)"><g transform="translate(8.018)"><g transform="translate(0 1.968)"><path class="g" d="M78.064,191.737a8.31,8.31,0,0,0-1.364-.625,1.47,1.47,0,0,1-.935-1.087c-.062-.738.754-1.3.8-2.034.067-1.041-1.341-1.61-1.548-2.633-.171-.849.55-1.65.519-2.516s-.779-1.511-1.121-2.3c-.8-1.843.672-4.22-.439-5.892a8.259,8.259,0,0,0-1.129-1.155,1.9,1.9,0,0,1-.666-1.419l-2.087-.948c-.7-1.068-2.284-1.109-3.476-.654a31.278,31.278,0,0,1-3.478,1.582c-.6.148-.515-.743-1.121-.619a3.155,3.155,0,0,0-2.006,1.87c-.244.83-.413,1.748-.708,2.562-.326.9-1.29,1.527-1.38,2.479-.105,1.111,1.043,2.016,1.045,3.132,0,1.2-1.323,2.273-.9,3.4.242.643.983.987,1.24,1.622.356.879-.352,1.841-.287,2.787a3.363,3.363,0,0,0,1.592,2.2,33.471,33.471,0,0,0,9.374,5.151,11.067,11.067,0,0,0,4.55.747,5.072,5.072,0,0,0,3.9-2.2A2.646,2.646,0,0,0,78.064,191.737Z" transform="translate(-57.92 -170.195)"/></g><g transform="translate(1.903)"><path class="g" d="M76.784,166.708a4.405,4.405,0,0,0-7.409-2.021,9.539,9.539,0,0,1-1.324,1.357,4.577,4.577,0,0,1-1.346.544,4.814,4.814,0,0,0-1.865,2.832l-.333,3.136c.027.735.971,1.148,1.666.909a3.12,3.12,0,0,0,1.524-1.526,5.113,5.113,0,0,1,1.314-1.748c1-.7,2.349-.46,3.543-.216s2.576.419,3.508-.367A2.89,2.89,0,0,0,76.784,166.708Z" transform="translate(-64.507 -163.383)"/><g transform="translate(1.99 3.465)"><path class="h" d="M82.338,179.714c-.133-2.042-1.492-4.544-3.526-4.324l-6.349,1.62a1.2,1.2,0,0,0-1.068,1.217l.714,15.317-.044.01s2.583,5.475,6.781,4.155c.833-.262.077-2.326.242-3.263l.043.005c0-.111,0-.215,0-.321a10.025,10.025,0,0,0,.025-2.1h0c.012-1.237.01-1.744.011-1.732s2.608-.439,3.141-3.843A36.351,36.351,0,0,0,82.338,179.714Z" transform="translate(-71.395 -175.376)"/><g transform="translate(3.216 3.939)"><g transform="translate(0 1.387)"><g transform="translate(5.403)"><g transform="translate(0.928 1.241)"><path class="g" d="M105.314,198.5a.436.436,0,0,1-.42.441.417.417,0,0,1-.451-.392.437.437,0,0,1,.419-.442A.418.418,0,0,1,105.314,198.5Z" transform="translate(-104.443 -198.107)"/></g><path class="g" d="M102.956,194.268c-.054.057-.385-.187-.855-.185s-.814.238-.865.181c-.025-.025.03-.128.18-.238a1.2,1.2,0,0,1,.692-.215,1.148,1.148,0,0,1,.681.218C102.934,194.139,102.983,194.242,102.956,194.268Z" transform="translate(-101.231 -193.811)"/></g><g transform="translate(0.786 0.098)"><g transform="translate(1.105 1.289)"><path class="g" d="M89.946,199.007a.437.437,0,0,1-.42.441.417.417,0,0,1-.451-.393.436.436,0,0,1,.419-.441A.418.418,0,0,1,89.946,199.007Z" transform="translate(-89.075 -198.613)"/></g><path class="g" d="M86.975,194.607c-.054.057-.386-.187-.855-.184s-.813.238-.864.18c-.025-.025.029-.128.18-.238a1.2,1.2,0,0,1,.692-.215,1.148,1.148,0,0,1,.681.218C86.952,194.478,87,194.581,86.975,194.607Z" transform="translate(-85.25 -194.15)"/></g><g transform="translate(3.995 0.121)"><path class="g" d="M96.587,198.143a3.124,3.124,0,0,1,.763-.139c.12-.013.233-.037.253-.119a.61.61,0,0,0-.081-.355l-.356-.913a15.677,15.677,0,0,1-.8-2.387,15.731,15.731,0,0,1,.992,2.317q.179.481.342.918a.692.692,0,0,1,.063.471.3.3,0,0,1-.2.176.8.8,0,0,1-.2.029A3.053,3.053,0,0,1,96.587,198.143Z" transform="translate(-96.358 -194.23)"/></g><g transform="translate(0 8.386)"><path class="i" d="M87.089,224.045a8.656,8.656,0,0,1-4.561-1.206s1.111,2.336,4.516,2.01Z" transform="translate(-82.528 -222.839)"/></g><g transform="translate(2.627 4.849)"><path class="i" d="M93.024,210.914a.846.846,0,0,0-.759-.313.772.772,0,0,0-.533.287.491.491,0,0,0-.036.56.568.568,0,0,0,.616.154,1.781,1.781,0,0,0,.6-.36.524.524,0,0,0,.134-.139.157.157,0,0,0,0-.175" transform="translate(-91.623 -210.596)"/></g><g transform="translate(2.767 4.362)"><path class="g" d="M92.181,208.911c.076,0,.079.505.516.866s.98.3.984.375c.007.032-.121.1-.35.106a1.269,1.269,0,0,1-.821-.284,1.106,1.106,0,0,1-.4-.726C92.089,209.035,92.146,208.908,92.181,208.911Z" transform="translate(-92.105 -208.911)"/></g></g><g transform="translate(0.578 0.769)"><path class="g" d="M86.672,192.021c-.046.128-.515.068-1.066.136s-1,.219-1.069.1c-.033-.055.044-.175.224-.3a1.869,1.869,0,0,1,1.627-.183C86.59,191.861,86.692,191.961,86.672,192.021Z" transform="translate(-84.529 -191.671)"/></g><g transform="translate(5.353)"><path class="g" d="M102.658,189.5c-.082.107-.406,0-.8-.007s-.718.073-.794-.038c-.034-.054.018-.161.162-.263a1.151,1.151,0,0,1,1.281.037C102.649,189.333,102.694,189.443,102.658,189.5Z" transform="translate(-101.058 -189.01)"/></g></g></g><g transform="translate(0.192 2.239)"><path class="g" d="M74.276,171.5l-.288-.369a21.8,21.8,0,0,0-5.726,1.461,4.783,4.783,0,0,0-1.974,1.265,5.371,5.371,0,0,0-.877,3.087c-.3,4.13-.545,8.383.755,12.314a2.188,2.188,0,0,1,1.506-.841,6.305,6.305,0,0,0,1.718-.42,2.335,2.335,0,0,0,1.162-1.49,2.806,2.806,0,0,0-.211-1.9c-.315-.655-.879-1.286-.741-2,.144-.747,1-1.175,1.2-1.908.348-1.268-1.432-2.406-1.072-3.671a1.779,1.779,0,0,1,.975-1.024c.434-.216.911-.337,1.351-.542A3.987,3.987,0,0,0,74.276,171.5Z" transform="translate(-65.172 -171.132)"/></g></g></g><g transform="translate(4.706 19.375)"><g transform="translate(21.791 4.817)"><g transform="translate(5.92 4.363)"><path class="h" d="M146.358,262.228l-3.981,6.195a1.6,1.6,0,0,0,1.4.694c.957-.04,2.275-2.432,2.432-2.917s-.057-.95.087-1.272a3.915,3.915,0,0,0,.086-1.208C146.36,263.771,147.242,262.591,146.358,262.228Z" transform="translate(-142.377 -262.228)"/></g><g transform="translate(4.821)"><path class="g" d="M138.572,257.68l2.074-8.2a.932.932,0,0,1,.442-.581l3.014-1.718a.413.413,0,0,1,.539.117h0a.413.413,0,0,1,.066.344l-2.2,8.632Z" transform="translate(-138.572 -247.126)"/></g><g transform="translate(0 5.666)"><path class="j" d="M125.659,277.982l4.817-8.894-1.813-2.35-6.778,5.144,1.775,4.888Z" transform="translate(-121.885 -266.738)"/></g><g transform="translate(7.713 3.413)"><path class="i" d="M149.52,265.471a2.093,2.093,0,0,0,.092-.366,2.74,2.74,0,0,0-.1-1.027l-.006-.021.011-.019a.55.55,0,0,0,.056-.456.876.876,0,0,0-.336-.419l-.053-.037.036-.054.545-.814a1.176,1.176,0,0,0,.127-.21.3.3,0,0,0-.016-.214,1.013,1.013,0,0,0-.338-.382l-.068-.05.055-.062c.148-.169.312-.336.478-.506a10.891,10.891,0,0,0,.794-.916,2.967,2.967,0,0,0,.294-.472.727.727,0,0,0,.072-.236c.006-.076-.03-.117-.073-.126l-.017,0h0a.507.507,0,0,0-.272.042,2.6,2.6,0,0,0-.276.126c-.177.093-.34.193-.492.29-.3.2-.562.38-.774.533l-.492.361a.9.9,0,0,1-.182.12.792.792,0,0,1,.155-.154c.106-.094.265-.228.471-.391s.459-.357.761-.562c.151-.1.315-.207.5-.307a2.656,2.656,0,0,1,.289-.137.6.6,0,0,1,.362-.048l-.017,0a.24.24,0,0,1,.2.266.837.837,0,0,1-.082.288,3.029,3.029,0,0,1-.306.5,10.47,10.47,0,0,1-.8.932c-.166.17-.331.338-.477.5l-.013-.112a1.14,1.14,0,0,1,.389.449.445.445,0,0,1,.018.315,1.141,1.141,0,0,1-.144.241l-.56.813-.017-.091a.986.986,0,0,1,.376.491.656.656,0,0,1-.079.544l.005-.04a2.577,2.577,0,0,1,.057,1.064,1.031,1.031,0,0,1-.091.275C149.543,265.446,149.524,265.474,149.52,265.471Z" transform="translate(-148.584 -258.94)"/></g><g transform="translate(6.481 0.17)"><path class="k" d="M148.727,247.715a1.176,1.176,0,0,1-.248.175c-.165.1-.405.251-.7.429l-1.055.619-.626.361a3.071,3.071,0,0,0-.629.412,1.3,1.3,0,0,0-.317.651l-.182.7-.316,1.181c-.092.336-.169.607-.226.793a1.179,1.179,0,0,1-.1.286,1.189,1.189,0,0,1,.046-.3c.039-.191.1-.466.18-.8l.285-1.189.174-.7a1.419,1.419,0,0,1,.354-.722,3.106,3.106,0,0,1,.664-.434l.629-.352,1.069-.591c.306-.166.554-.3.728-.387A1.176,1.176,0,0,1,148.727,247.715Z" transform="translate(-144.318 -247.714)"/></g><g transform="translate(8.831 2.697)"><path class="l" d="M152.515,256.739c-.075.178-.083.345-.019.372s.177-.1.252-.274.083-.345.019-.372S152.589,256.561,152.515,256.739Z" transform="translate(-152.452 -256.461)"/></g></g><g transform="translate(0.314)"><g transform="translate(15.371 2.819)"><path class="m" d="M100.749,240.209h0a8.386,8.386,0,0,1,4.742,4.321l6.466,13.754,5.569,2.259-4.9,1.413-4.368-3.2Z" transform="translate(-100.749 -240.209)"/></g><g transform="translate(6.502)"><path class="d" d="M90.793,255.017l-2.346,1.809-11.7-12.04L70.05,232.7l.774-2.248L76,232.606l1.853,2.738.413-3.475.332.471.54,1.464s5.08,4.226,6.176,7.577c.915,2.8.628,8.576,1.186,10.146Z" transform="translate(-70.05 -230.451)"/></g><g transform="translate(0 0.908)"><path class="m" d="M52.791,234.777c-.078.235-5,2.214-5.239,3.938s3.54,15.059,3.54,15.059l5.983,5.286H72.441l-4.874-9.126a23.173,23.173,0,0,0-3.944-5.361c-1.442-1.461-3.188-3.27-4.087-4.349-.974-1.17-5.1-6.631-5.1-6.631Z" transform="translate(-47.541 -233.593)"/></g><g transform="translate(8.332 2.387)"><path class="g" d="M76.383,238.964a6.039,6.039,0,0,1,.871.391c.529.259,1.255.625,2.053,1.038l.905.473-.1.068a6.564,6.564,0,0,1,.1-1.611,2.232,2.232,0,0,1,.169-.609,5.825,5.825,0,0,1-.081.623,7.864,7.864,0,0,0-.043,1.587l.01.127-.114-.058-.909-.466c-.8-.413-1.516-.794-2.033-1.077A5.99,5.99,0,0,1,76.383,238.964Z" transform="translate(-76.383 -238.714)"/></g><g transform="translate(14.174 4.733)"><path class="g" d="M102.609,256.9a2.717,2.717,0,0,1-.246-.391l-.627-1.089c-.527-.92-1.259-2.189-2.087-3.578s-1.6-2.637-2.156-3.538l-.659-1.069a2.691,2.691,0,0,1-.227-.4,2.7,2.7,0,0,1,.276.37c.17.244.409.6.7,1.044.582.887,1.365,2.127,2.2,3.518s1.547,2.669,2.051,3.6c.252.467.452.847.585,1.112A2.712,2.712,0,0,1,102.609,256.9Z" transform="translate(-96.607 -246.835)"/></g><g class="n" transform="translate(17.477 17.925)"><path d="M108.372,298.667a7.643,7.643,0,0,0,2.7.133,2.6,2.6,0,0,0,2.041-1.591,1.681,1.681,0,0,1,.333-.77c.343-.317.891-.122,1.357-.165a1.706,1.706,0,0,0,1.237-.866,5.054,5.054,0,0,0,.517-1.472,2.252,2.252,0,0,0,.091-.764.763.763,0,0,0-.4-.623c-.352-.159-.749.072-1.062.3a79.988,79.988,0,0,0-7.145,6.047" transform="translate(-108.04 -292.497)"/></g></g><g transform="translate(21.503 8.271)"><path class="h" d="M123.248,264.726a8.9,8.9,0,0,1,1.351-2.3c.47-.281,2.806-1.642,2.806-1.642l-.3,1.112,2.283-1.586c.281-.189,1.912-1.671,2.2-1.092.208.416-1.123,1.514-1.3,1.758-.446.61-.3.554-.3.554s.484.291.241.722a9.721,9.721,0,0,1-.652.96s.636.227.265,1.052a2.2,2.2,0,0,1,.064,1.061,5.811,5.811,0,0,1-1.219,1.788l-5.558,2.647-2.241-3.8Z" transform="translate(-120.888 -259.082)"/></g><g transform="translate(0 3.928)"><path class="m" d="M57.374,250.235l3.564,7.609,7.9-3.434s3.281,1.914,2.826,4.005l-7.121,5.85a6.378,6.378,0,0,1-4.823,1.4h0a6.377,6.377,0,0,1-4.555-2.828L50.014,255l-2.882-4.711a4.4,4.4,0,0,1,.121-4.876,3.568,3.568,0,0,1,1.018-.955C49.557,243.67,53.381,243.331,57.374,250.235Z" transform="translate(-46.455 -244.049)"/></g><g transform="translate(26.054 10.551)"><path class="i" d="M139.037,266.977a14.12,14.12,0,0,1-2.4,1.479,14.12,14.12,0,0,1,2.4-1.479Z" transform="translate(-136.641 -266.974)"/></g><g transform="translate(28.502 10.483)"><path class="i" d="M147.289,266.739a16.531,16.531,0,0,1-2.174,2.14,16.581,16.581,0,0,1,2.174-2.14Z" transform="translate(-145.114 -266.738)"/></g><g transform="translate(29.296 12.197)"><path class="i" d="M148.947,272.672a4.977,4.977,0,0,1-1.08,1.269,4.974,4.974,0,0,1,1.08-1.269Z" transform="translate(-147.864 -272.67)"/></g><g transform="translate(29.898 13.351)"><path class="i" d="M150.532,276.669c.03.026-.093.214-.249.438s-.291.4-.326.385.048-.234.21-.465S150.5,276.644,150.532,276.669Z" transform="translate(-149.949 -276.666)"/></g><g transform="translate(5.128 4.893)"><path class="g" d="M75.956,267.393s.011-.013.036-.035l.114-.095.448-.361,1.708-1.353,6.094-4.778-.025.049a3.04,3.04,0,0,0-.224-1.165,4.846,4.846,0,0,0-.656-1.071,8.354,8.354,0,0,0-2.021-1.737l.066,0-4.092,1.78-3.811,1.654-.064.028-.031-.062c-1.05-2.064-2.016-4.006-3-5.693-.487-.846-.971-1.631-1.426-2.359s-.872-1.407-1.3-1.991a7.369,7.369,0,0,0-2.462-2.283c-.171-.1-.329-.178-.467-.244s-.254-.121-.35-.161l-.216-.1a.373.373,0,0,1-.072-.037,6.628,6.628,0,0,1,1.13.493,6.506,6.506,0,0,1,1.206.824,8.5,8.5,0,0,1,1.308,1.448c.433.584.855,1.261,1.316,1.987s.95,1.51,1.441,2.355c.993,1.687,1.968,3.63,3.02,5.691l-.1-.034,3.81-1.657,4.094-1.777.036-.015.031.019a8.469,8.469,0,0,1,2.057,1.775,4.98,4.98,0,0,1,.673,1.108,3.174,3.174,0,0,1,.23,1.223v.03l-.025.019L78.31,265.61l-1.731,1.324-.46.345-.12.087A.174.174,0,0,1,75.956,267.393Z" transform="translate(-64.207 -247.387)"/></g><g transform="translate(13.998 17.561)"><path class="g" d="M94.914,293.794c-.041-.018.177-.561.3-1.264s.115-1.288.16-1.29a3.9,3.9,0,0,1-.462,2.555Z" transform="translate(-94.909 -291.239)"/></g></g><g transform="translate(0 29.346)"><g transform="translate(57.308 32.497)"><path class="m" d="M233.429,377.454l4.139,5.186s6.661-2.466,7.519-1.582l-9.766,8.387-6.781-7.815Z" transform="translate(-228.54 -377.454)"/><g class="o" transform="translate(5.563 7.146)"><path class="l" d="M247.878,402.4a.526.526,0,0,0,.115.692.505.505,0,0,0,.687-.108.555.555,0,0,0-.126-.732.524.524,0,0,0-.7.192" transform="translate(-247.796 -402.192)"/></g><g class="o" transform="translate(6.128 3.391)"><path class="l" d="M250.407,397.791l-.653-.814,9.608-7.737s.6-.184.811.164Z" transform="translate(-249.754 -389.191)"/></g><g transform="translate(8.602 4.992)"><path class="g" d="M258.859,394.741c.04.049-.18.275-.283.63s-.056.662-.116.681-.226-.318-.093-.745S258.832,394.688,258.859,394.741Z" transform="translate(-258.317 -394.732)"/></g><g transform="translate(10.238 4.539)"><path class="g" d="M264.273,393.171c.051.037-.086.3-.075.636s.148.594.1.633-.311-.2-.317-.629S264.233,393.126,264.273,393.171Z" transform="translate(-263.979 -393.166)"/></g><g transform="translate(11.721 4.13)"><path class="g" d="M269.558,392.89c-.035.047-.306-.134-.407-.5s.032-.662.086-.639.036.281.125.58S269.6,392.844,269.558,392.89Z" transform="translate(-269.112 -391.749)"/></g><g transform="translate(7.086 3.9)"><path class="g" d="M254.053,390.978c.017.061-.258.183-.512.432s-.391.515-.451.5,0-.363.3-.653S254.044,390.92,254.053,390.978Z" transform="translate(-253.07 -390.956)"/></g><g class="n" transform="translate(0.909 1.028)"><path d="M236.485,381.013l.739.923-4.837,4.078-.7-.8Z" transform="translate(-231.687 -381.013)"/></g><g transform="translate(5.18 2.791)"><path class="g" d="M248.5,387.216c.017.019-.146.211-.491.418a2.91,2.91,0,0,1-.646.282,3.092,3.092,0,0,1-.409.092.8.8,0,0,1-.246.012.274.274,0,0,1-.24-.235.345.345,0,0,1,.115-.288.853.853,0,0,1,.205-.132,2.328,2.328,0,0,1,.393-.157,2.275,2.275,0,0,1,.705-.091,1.077,1.077,0,0,1,.629.15c-.008.034-.247-.02-.626,0a2.568,2.568,0,0,0-.647.129,2.367,2.367,0,0,0-.355.155c-.127.061-.215.136-.2.205.005.026.01.034.058.046a.646.646,0,0,0,.181-.009,3.342,3.342,0,0,0,.385-.074,3.566,3.566,0,0,0,.628-.225A4.49,4.49,0,0,1,248.5,387.216Z" transform="translate(-246.47 -387.115)"/></g><g transform="translate(6.129 1.072)"><path class="g" d="M250.839,383.108c-.011.022-.252-.068-.535-.362a2.1,2.1,0,0,1-.393-.593,2.125,2.125,0,0,1-.13-.4.533.533,0,0,1,.1-.515.3.3,0,0,1,.321-.039.882.882,0,0,1,.2.136,1.438,1.438,0,0,1,.283.329,1.482,1.482,0,0,1,.225.685.831.831,0,0,1-.141.632,5.372,5.372,0,0,0-.012-.614,1.489,1.489,0,0,0-.24-.592,1.34,1.34,0,0,0-.252-.275c-.1-.091-.215-.141-.245-.1a.368.368,0,0,0-.034.307,2.14,2.14,0,0,0,.106.369,2.324,2.324,0,0,0,.324.57C250.655,382.943,250.859,383.078,250.839,383.108Z" transform="translate(-249.757 -381.166)"/></g></g><g transform="translate(51.12 48.451)"><path class="m" d="M213.7,432.711l-.257,6.784s6.809,2.54,6.884,3.8l-13.172-.026-.033-10.587Z" transform="translate(-207.119 -432.68)"/><g class="o" transform="translate(1.865 6.214)"><path class="l" d="M213.958,454.213a.538.538,0,0,0-.373.613.517.517,0,0,0,.6.375.568.568,0,0,0,.392-.651.537.537,0,0,0-.672-.321" transform="translate(-213.574 -454.191)"/></g><g class="o" transform="translate(0.033 9.52)"><path class="l" d="M207.233,466.7l.038-1.067,12.615.424s.586.256.519.669Z" transform="translate(-207.233 -465.634)"/></g><g transform="translate(5.333 6.689)"><path class="g" d="M226.78,455.893c0,.064-.324.093-.641.3s-.486.476-.545.451.038-.4.426-.64S226.795,455.834,226.78,455.893Z" transform="translate(-225.578 -455.833)"/></g><g transform="translate(7.04 7.296)"><path class="g" d="M232.364,457.963c.014.062-.264.171-.483.443s-.283.559-.347.556-.1-.367.174-.7S232.363,457.9,232.364,457.963Z" transform="translate(-231.489 -457.937)"/></g><g transform="translate(8.62 7.869)"><path class="g" d="M237.033,461.027c-.058.014-.147-.308.019-.66s.467-.492.494-.438-.159.242-.291.532S237.1,461.021,237.033,461.027Z" transform="translate(-236.956 -459.918)"/></g><g transform="translate(5.052 4.963)"><path class="g" d="M225.977,450.094c-.027.058-.322-.031-.686-.007s-.647.138-.681.083.239-.284.668-.306S226.009,450.043,225.977,450.094Z" transform="translate(-224.607 -449.861)"/></g><g class="n" transform="translate(0.002 1.375)"><path d="M213.649,437.438l-.044,1.209-6.474-.072-.006-1.09Z" transform="translate(-207.125 -437.438)"/></g><g transform="translate(4.447 2.762)"><path class="g" d="M224.513,443.3a1.237,1.237,0,0,1-.66,0,2.968,2.968,0,0,1-.69-.213,3.1,3.1,0,0,1-.378-.2.808.808,0,0,1-.2-.155.281.281,0,0,1-.029-.342.354.354,0,0,1,.282-.146.861.861,0,0,1,.247.035,2.37,2.37,0,0,1,.41.142,2.333,2.333,0,0,1,.608.4c.3.284.409.524.387.536s-.177-.18-.488-.415a2.641,2.641,0,0,0-.588-.333,2.492,2.492,0,0,0-.378-.117c-.14-.037-.258-.038-.294.024-.013.024-.015.033.014.074a.672.672,0,0,0,.146.114,3.448,3.448,0,0,0,.348.2,3.638,3.638,0,0,0,.637.246A4.55,4.55,0,0,1,224.513,443.3Z" transform="translate(-222.512 -442.24)"/></g><g transform="translate(6.189 1.826)"><path class="g" d="M228.719,441.093a1.05,1.05,0,0,1-.173-.637,2.129,2.129,0,0,1,.26-1.122.545.545,0,0,1,.421-.332.308.308,0,0,1,.275.185.891.891,0,0,1,.067.242,1.468,1.468,0,0,1,0,.444,1.514,1.514,0,0,1-.283.681c-.258.341-.527.417-.532.4-.021-.032.2-.156.4-.484a1.517,1.517,0,0,0,.21-.619,1.357,1.357,0,0,0-.011-.381c-.02-.14-.073-.253-.125-.239-.066,0-.177.1-.231.215a2.188,2.188,0,0,0-.164.357,2.361,2.361,0,0,0-.129.658C228.685,440.843,228.753,441.084,228.719,441.093Z" transform="translate(-228.543 -439.001)"/></g></g><g transform="translate(23.42 10.923)"><g transform="translate(27.599 5.481)"><path class="g" d="M206.768,321.748,219.8,339.071l-6.1,5.237-6.277-8.208Z" transform="translate(-206.768 -321.748)"/></g><path class="g" d="M111.233,309.085s20.971-6.388,22.892-6.308,5.567,7.017,5.567,7.017l-5.887-.213c-1.511,3.706-4.3,7.521-7.444,11.366l-12.039-.56Z" transform="translate(-111.233 -302.776)"/><g transform="translate(7.471 1.259)"><path class="g" d="M146.766,307.137c.012.04-2.144.716-4.814,1.509s-4.846,1.4-4.857,1.365,2.143-.716,4.814-1.509S146.754,307.1,146.766,307.137Z" transform="translate(-137.095 -307.136)"/></g><g transform="translate(14.75 6.693)"><path class="g" d="M169.558,325.943h5.888a6.925,6.925,0,0,1,6.532,4.626h0a10.7,10.7,0,0,1,.594,4.067l-.458,23.953h-7.927l-.142-7.655-1-14.553-6.862.29-3.888-.242Z" transform="translate(-162.292 -325.943)"/></g><g transform="translate(14.75 6.573)"><path class="k" d="M169.732,325.53a3.375,3.375,0,0,1-.111.506,13.432,13.432,0,0,1-.416,1.351,13.763,13.763,0,0,1-.874,1.908,15.532,15.532,0,0,1-1.434,2.133,38.326,38.326,0,0,1-3.2,3.385l-1.017.977a3.465,3.465,0,0,1-.386.346,3.393,3.393,0,0,1,.344-.387c.228-.243.565-.588.984-1.012.831-.852,2.02-1.994,3.16-3.4a15.444,15.444,0,0,0,2.326-3.985c.209-.555.369-1.009.459-1.329A3.443,3.443,0,0,1,169.732,325.53Z" transform="translate(-162.291 -325.53)"/></g><g transform="translate(22.096 6.603)"><path class="k" d="M195.015,325.884c0,.023-.41-.015-1.07-.051s-1.571-.065-2.578-.044-1.919.079-2.578.124a8.7,8.7,0,0,1-1.07.055,1.059,1.059,0,0,1,.283-.06c.183-.029.449-.064.778-.1.659-.072,1.572-.149,2.584-.168a22.5,22.5,0,0,1,2.589.088c.33.031.6.066.779.1A1.086,1.086,0,0,1,195.015,325.884Z" transform="translate(-187.719 -325.633)"/></g><g transform="translate(25.371 15.312)"><path class="g" d="M200.3,375.431a1.007,1.007,0,0,1-.021-.2c-.008-.146-.019-.337-.032-.573-.023-.515-.055-1.231-.094-2.108-.078-1.78-.186-4.239-.356-6.951s-.373-5.166-.519-6.942c-.071-.875-.129-1.589-.171-2.1-.017-.236-.03-.426-.04-.573a1,1,0,0,1,0-.2.985.985,0,0,1,.034.2c.018.146.04.335.068.57.053.513.128,1.226.218,2.1.173,1.774.391,4.227.563,6.942s.261,5.175.312,6.957c.019.878.035,1.594.047,2.11,0,.237,0,.428,0,.574A1.014,1.014,0,0,1,200.3,375.431Z" transform="translate(-199.056 -355.781)"/></g><g transform="translate(34.748 14.463)"><path class="k" d="M231.808,352.839c.042,0,.014,5.489-.062,12.258s-.172,12.257-.213,12.257-.014-5.488.063-12.258S231.767,352.839,231.808,352.839Z" transform="translate(-231.513 -352.839)"/></g><g transform="translate(25.405 13.563)"><path class="g" d="M202.344,349.729a8.575,8.575,0,0,0-3.168,1.944,1.6,1.6,0,0,1,.346-.436,5.525,5.525,0,0,1,2.276-1.4A1.6,1.6,0,0,1,202.344,349.729Z" transform="translate(-199.174 -349.724)"/></g><g class="n" transform="translate(14.75 6.945)"><path d="M162.292,337.053A6.881,6.881,0,0,0,167.016,336a6.341,6.341,0,0,0,2.773-3.768c.175-.69.228-1.405.4-2.1a3.163,3.163,0,0,1,1.072-1.813c.671-.5,2.322-.818,2.814-1.486a22.952,22.952,0,0,0-2.614.162,15.648,15.648,0,0,1-1.89.136,17.993,17.993,0,0,1-.691,2.043,40.691,40.691,0,0,1-6.59,7.87" transform="translate(-162.292 -326.816)"/></g></g><g transform="translate(5.488 45.061)"><path class="f" d="M49.161,420.945l2.228,14.58H53.6L52.512,421Z" transform="translate(-49.161 -420.945)"/></g><g transform="translate(44.715 45.061)"><path class="f" d="M184.949,421v14.524h2.334l.869-14.58Z" transform="translate(-184.949 -420.945)"/></g><path class="f" d="M35.257,264.965s-3.123.124-4.079,1.434c-1.686,2.309-.738,4.31-.832,4.993s5.306,38.634,5.306,38.634h2.223l40.208.371,1.929-4.692-.928-12.686-10.75.048s-4.4-12.636-8.251-13.481c-2.606-.572-8.728-.369-12.41-.179a5.143,5.143,0,0,1-4.587-2.341Z" transform="translate(-30.165 -264.965)"/><g transform="translate(2.142 0.878)"><path class="f" d="M76.165,310.7s-.221.029-.649.049-1.058.032-1.873.039c-1.63.022-4,.03-6.945.027-5.9,0-14.113-.051-23.4-.132h-.06l-.012-.058-.513-2.443-.507-2.53c-2.019-10.291-3.2-19.719-3.838-26.556-.32-3.42-.511-6.192-.633-8.109-.052-.955-.093-1.7-.121-2.208-.012-.249-.021-.44-.027-.575s0-.2,0-.2.009.066.019.195l.042.574c.035.509.085,1.251.15,2.206.139,1.915.347,4.686.68,8.1.663,6.833,1.862,16.253,3.879,26.538l.506,2.529.511,2.441-.072-.059,23.4.181,6.944.018,1.872-.013c.213,0,.374-.016.484-.018S76.165,310.7,76.165,310.7Z" transform="translate(-37.58 -268.005)"/></g><g transform="translate(38.355 27.953)"><path class="f" d="M164.882,379.135a.841.841,0,0,1,.017-.181l.076-.512c.036-.222.079-.493.114-.811s.092-.676.12-1.077.077-.837.094-1.309c.032-.471.033-.975.04-1.506a32.153,32.153,0,0,0-.2-3.443,33.6,33.6,0,0,0-.595-3.4c-.243-1.033-.5-1.953-.754-2.717-.115-.385-.245-.724-.348-1.026s-.2-.56-.28-.769l-.179-.486a.809.809,0,0,1-.053-.173.847.847,0,0,1,.081.162l.206.476c.089.207.2.461.305.762s.247.638.369,1.022c.263.762.537,1.682.788,2.718a31.567,31.567,0,0,1,.609,3.413,30.286,30.286,0,0,1,.19,3.461c-.011.533-.017,1.039-.054,1.512-.022.474-.07.913-.113,1.313s-.1.761-.143,1.078-.095.588-.14.809-.077.376-.1.508A.794.794,0,0,1,164.882,379.135Z" transform="translate(-162.933 -361.727)"/></g><g transform="translate(10.841 14.207)"><path class="f" d="M67.691,318.108a1.111,1.111,0,0,1,.162-.137l.485-.37.354-.265c.135-.088.287-.175.448-.274a10.646,10.646,0,0,1,1.117-.625l.671-.326c.232-.115.489-.2.747-.306s.525-.217.809-.307l.874-.276a25.053,25.053,0,0,1,3.992-.83,29.091,29.091,0,0,1,4.07-.247c.627-.011,1.222.04,1.779.06.555.051,1.074.087,1.544.154a20.018,20.018,0,0,1,2.208.405l.588.163a1.085,1.085,0,0,1,.2.067,1.15,1.15,0,0,1-.21-.038l-.593-.135c-.517-.109-1.269-.248-2.207-.357-.468-.059-.985-.089-1.538-.135-.555-.015-1.147-.061-1.772-.046a30.206,30.206,0,0,0-4.05.257,25.881,25.881,0,0,0-3.972.814l-.871.269c-.283.086-.545.2-.806.3s-.514.185-.746.3l-.67.315a11.189,11.189,0,0,0-1.121.6c-.162.094-.316.178-.452.262l-.359.253-.5.346A1.136,1.136,0,0,1,67.691,318.108Z" transform="translate(-67.69 -314.143)"/></g><g transform="translate(3.799 20.226)"><path class="l" d="M74.251,334.978a.456.456,0,0,1-.027.1c-.022.062-.05.155-.1.274a3.837,3.837,0,0,1-.593.946,4.835,4.835,0,0,1-1.389,1.091,6.605,6.605,0,0,1-1.024.424,6.7,6.7,0,0,1-1.217.249,10.057,10.057,0,0,1-2.833-.16c-1.006-.18-2.057-.47-3.167-.737a14.022,14.022,0,0,0-3.531-.467,6.714,6.714,0,0,0-1.85.284,5.8,5.8,0,0,0-1.714.869A10.064,10.064,0,0,0,54.3,340.7c-.66,1.05-1.184,2.133-1.741,3.135a15.647,15.647,0,0,1-1.808,2.709,6.689,6.689,0,0,1-2.223,1.756,5.688,5.688,0,0,1-2.276.536,4.23,4.23,0,0,1-1.734-.324,3.761,3.761,0,0,1-.569-.307c-.149-.114-.275-.211-.369-.3l-.2-.211a.466.466,0,0,1-.064-.075.51.51,0,0,1,.075.065l.209.2c.1.082.224.173.374.282a3.87,3.87,0,0,0,.567.291,4.233,4.233,0,0,0,1.71.294,5.636,5.636,0,0,0,2.232-.549,6.609,6.609,0,0,0,2.174-1.741,15.672,15.672,0,0,0,1.781-2.694c.552-1,1.074-2.086,1.738-3.146a10.165,10.165,0,0,1,2.546-2.9,5.925,5.925,0,0,1,1.758-.89,6.842,6.842,0,0,1,1.891-.288,14.062,14.062,0,0,1,3.566.479c1.113.272,2.16.565,3.157.749a10.038,10.038,0,0,0,2.8.177,6.144,6.144,0,0,0,2.213-.642,4.863,4.863,0,0,0,1.384-1.055A4.18,4.18,0,0,0,74.251,334.978Z" transform="translate(-43.314 -334.978)"/></g><g transform="translate(4.787 35.941)"><path class="l" d="M91.378,392.142s-.043.013-.127.031l-.373.075a5.427,5.427,0,0,0-.589.183,2.93,2.93,0,0,0-.361.157,3.359,3.359,0,0,0-.4.2,9.989,9.989,0,0,0-1.841,1.391c-.67.6-1.386,1.348-2.265,2.079a8.287,8.287,0,0,1-1.484,1.009,6.323,6.323,0,0,1-.88.382l-.478.128a4.362,4.362,0,0,1-.5.086A6.08,6.08,0,0,1,80,397.76a8.685,8.685,0,0,1-2.072-.77,18.044,18.044,0,0,1-3.835-2.766,32.4,32.4,0,0,0-3.9-3.216,9.771,9.771,0,0,0-2.279-1.137,6.536,6.536,0,0,0-2.432-.337,7.216,7.216,0,0,0-2.31.554,14.205,14.205,0,0,0-2.036,1.066c-1.277.789-2.439,1.633-3.621,2.276a14.641,14.641,0,0,1-3.479,1.342,14.846,14.846,0,0,1-5.368.324,11.689,11.689,0,0,1-1.939-.392s.044,0,.128.022l.373.08c.327.07.814.159,1.445.232a15.073,15.073,0,0,0,5.335-.369,14.628,14.628,0,0,0,3.445-1.348c1.17-.643,2.326-1.488,3.608-2.285a14.3,14.3,0,0,1,2.054-1.081,7.337,7.337,0,0,1,2.356-.568,6.674,6.674,0,0,1,2.488.342,9.9,9.9,0,0,1,2.315,1.153,32.278,32.278,0,0,1,3.914,3.233,18,18,0,0,0,3.8,2.751,8.565,8.565,0,0,0,2.038.765,5.962,5.962,0,0,0,2.038.111,4.151,4.151,0,0,0,.484-.082l.467-.123a6.237,6.237,0,0,0,.863-.37,8.215,8.215,0,0,0,1.47-.988c.877-.72,1.6-1.458,2.276-2.059a9.843,9.843,0,0,1,1.869-1.38,3.434,3.434,0,0,1,.406-.2,2.9,2.9,0,0,1,.367-.152,5.008,5.008,0,0,1,.6-.17l.378-.061C91.335,392.145,91.378,392.142,91.378,392.142Z" transform="translate(-46.735 -389.376)"/></g><g transform="translate(1.785 7.151)"><path class="l" d="M43.785,289.72a1.5,1.5,0,0,1-.079.365,5.031,5.031,0,0,1-.386.944,5.563,5.563,0,0,1-5.637,2.944,5.04,5.04,0,0,1-.995-.222,1.514,1.514,0,0,1-.345-.144,10.126,10.126,0,0,0,1.351.26,5.666,5.666,0,0,0,5.532-2.889A10.137,10.137,0,0,0,43.785,289.72Z" transform="translate(-36.344 -289.719)"/></g></g></g></g><g transform="translate(73.099 66.293)"><g transform="translate(0.076 0.075)"><rect class="l" width="58.626" height="18.795" rx="6.943"/></g><path class="g" d="M235.481,176.93a3.645,3.645,0,0,0,.387-.046,2,2,0,0,0,.993-.528,1.968,1.968,0,0,0,.462-.692,2.372,2.372,0,0,0,.141-.994c0-.738,0-1.588-.007-2.546,0-1.916-.008-4.259-.013-6.98q0-2.041-.006-4.358a4.677,4.677,0,0,0-.07-1.154,1.953,1.953,0,0,0-1.712-1.438c-.408-.017-.838,0-1.264-.008l-53.523.022a1.929,1.929,0,0,0-1.921,1.713c-.026.306-.007.642-.013.961q0,1.936,0,3.845,0,3.818,0,7.517,0,.924,0,1.84c0,.3,0,.612,0,.911a1.923,1.923,0,0,0,1.583,1.829,5.75,5.75,0,0,0,.881.033h.891l6.956,0,24.062.016,16.222.024,4.41.014,1.147.008c.258,0,.391.008.391.008s-.132.005-.391.008l-1.147.008-4.41.014-16.222.024L189.248,177l-6.956,0H181.4a5.8,5.8,0,0,1-.907-.035,2.069,2.069,0,0,1-1.7-1.966c-.008-.309,0-.61,0-.916q0-.916,0-1.84,0-3.7,0-7.517,0-1.909,0-3.845c.006-.326-.014-.638.014-.977a2.081,2.081,0,0,1,2.07-1.846l53.523.022c.43,0,.847-.008,1.273.011a2.054,2.054,0,0,1,1.8,1.516,2.167,2.167,0,0,1,.071.6q0,.293,0,.583,0,2.314-.006,4.358c-.005,2.72-.01,5.063-.013,6.98,0,.957,0,1.808-.007,2.546a2.408,2.408,0,0,1-.15,1.009,2.017,2.017,0,0,1-1.488,1.22,1.791,1.791,0,0,1-.291.029C235.514,176.93,235.481,176.93,235.481,176.93Z" transform="translate(-178.784 -158.059)"/><g transform="translate(54.409 2.399)"><g transform="translate(0 0.006)"><path class="g" d="M367.2,167.912a.072.072,0,0,1-.05-.125l1.445-1.384a.072.072,0,1,1,.1.1l-1.445,1.383A.071.071,0,0,1,367.2,167.912Z" transform="translate(-367.124 -166.384)"/></g><g transform="translate(0.007)"><path class="g" d="M368.652,167.9a.072.072,0,0,1-.051-.021l-1.43-1.4a.072.072,0,0,1,.1-.1l1.43,1.4a.072.072,0,0,1-.051.124Z" transform="translate(-367.15 -166.364)"/></g></g><g transform="translate(4.309 4.36)"><path class="m" d="M202.1,181.917l-.59-.835a2.985,2.985,0,0,1-.546-1.72v-1.876a3.062,3.062,0,0,0-2.6-3.025v-.9a.412.412,0,0,0-.412-.412h0a.412.412,0,0,0-.412.412v.882a3.062,3.062,0,0,0-2.7,3.041v1.944a2.986,2.986,0,0,1-.636,1.843l-.506.646Z" transform="translate(-193.701 -173.153)"/><g transform="translate(3.032 9.342)"><path class="m" d="M204.923,206.278a1.328,1.328,0,0,0,1.374-.236,1.288,1.288,0,0,0,.347-.532l-2.447-.017A1.331,1.331,0,0,0,204.923,206.278Z" transform="translate(-204.196 -205.492)"/></g></g><g transform="translate(16.358 6.35)"><path class="g" d="M264.744,180.114c0,.042-6.567.075-14.667.075s-14.668-.034-14.668-.075,6.566-.075,14.668-.075S264.744,180.073,264.744,180.114Z" transform="translate(-235.409 -180.039)"/></g><g transform="translate(16.358 9.9)"><path class="b" d="M271.656,192.4c0,.042-8.115.075-18.123.075s-18.124-.034-18.124-.075,8.113-.075,18.124-.075S271.656,192.362,271.656,192.4Z" transform="translate(-235.409 -192.328)"/></g><g transform="translate(16.358 12.026)"><path class="b" d="M271.656,199.762c0,.041-8.115.075-18.123.075s-18.124-.034-18.124-.075,8.113-.075,18.124-.075S271.656,199.721,271.656,199.762Z" transform="translate(-235.409 -199.687)"/></g><g transform="translate(8.967 21.729)"><g transform="translate(0.076 0.075)"><rect class="d" width="40.281" height="12.914" rx="6.457"/></g><path class="g" d="M248.173,246.265c0-.005.091,0,.264-.027a1.907,1.907,0,0,0,.727-.254,1.984,1.984,0,0,0,.987-1.7q0-.433,0-.921c0-1.3-.008-2.9-.013-4.746q0-1.388-.006-2.963a2.939,2.939,0,0,0-.064-.78,1.952,1.952,0,0,0-1.772-1.464l-36.389.016a1.933,1.933,0,0,0-1.871,1.452,2.243,2.243,0,0,0-.063.633v1.958q0,2.6,0,5.111,0,.628,0,1.251c0,.206-.005.419.009.614a2.1,2.1,0,0,0,.146.575,1.95,1.95,0,0,0,1.881,1.173l4.729,0,16.361.016,11.03.024,3,.014.78.007c.176,0,.265.008.265.008s-.09.005-.265.008l-.78.007-3,.014-11.03.024-16.361.016-4.729,0a2.095,2.095,0,0,1-2.015-1.26,2.245,2.245,0,0,1-.158-.619c-.016-.217-.008-.419-.01-.628q0-.623,0-1.251,0-2.513,0-5.111,0-.649,0-1.3v-.655a2.391,2.391,0,0,1,.067-.67,2.067,2.067,0,0,1,.737-1.125,2.089,2.089,0,0,1,1.28-.44l36.4.029a2.053,2.053,0,0,1,1.86,1.546,3.027,3.027,0,0,1,.064.8q0,1.573-.006,2.963c0,1.849-.009,3.442-.013,4.746q0,.488,0,.922a2.018,2.018,0,0,1-1.024,1.724,1.873,1.873,0,0,1-.74.243A1.634,1.634,0,0,1,248.173,246.265Z" transform="translate(-209.822 -233.276)"/><g transform="translate(37.384 1.65)"><g transform="translate(0 0.004)"><path class="g" d="M339.3,240.095a.072.072,0,0,1-.052-.022.072.072,0,0,1,0-.1l.993-.951a.072.072,0,0,1,.1.1l-.992.951A.072.072,0,0,1,339.3,240.095Z" transform="translate(-339.229 -239)"/></g><g transform="translate(0.005)"><path class="g" d="M340.3,240.089a.073.073,0,0,1-.051-.021l-.982-.959a.072.072,0,1,1,.1-.1l.983.959a.072.072,0,0,1-.051.124Z" transform="translate(-339.246 -238.986)"/></g></g><g transform="translate(2.984 3.02)"><path class="f" d="M225.925,249.75l-.405-.574a2.047,2.047,0,0,1-.376-1.182v-1.289a2.1,2.1,0,0,0-1.784-2.079v-.615a.283.283,0,0,0-.283-.283h0a.283.283,0,0,0-.283.283v.606a2.1,2.1,0,0,0-1.857,2.089v1.336a2.05,2.05,0,0,1-.437,1.266l-.348.444Z" transform="translate(-220.153 -243.729)"/><g transform="translate(2.083 6.419)"><path class="f" d="M227.863,266.488a.913.913,0,0,0,.944-.162.884.884,0,0,0,.238-.366l-1.681-.012A.914.914,0,0,0,227.863,266.488Z" transform="translate(-227.364 -265.948)"/></g></g><g transform="translate(11.263 4.363)"><path class="g" d="M268.964,248.453c0,.042-4.512.075-10.077.075s-10.078-.034-10.078-.075,4.511-.075,10.078-.075S268.964,248.412,268.964,248.453Z" transform="translate(-248.809 -248.378)"/></g><g transform="translate(11.263 6.802)"><path class="b" d="M273.714,256.9c0,.042-5.576.075-12.452.075s-12.453-.034-12.453-.075,5.574-.075,12.453-.075S273.714,256.855,273.714,256.9Z" transform="translate(-248.809 -256.822)"/></g><g transform="translate(11.263 8.263)"><path class="b" d="M273.714,261.953c0,.042-5.576.075-12.452.075s-12.453-.034-12.453-.075,5.574-.075,12.453-.075S273.714,261.912,273.714,261.953Z" transform="translate(-248.809 -261.878)"/></g></g><g transform="translate(9.119 36.652)"><g transform="translate(0.076 0.075)"><rect class="d" width="39.977" height="12.816" rx="6.408"/></g><path class="g" d="M248.395,297.824c0-.005.09,0,.262-.027a1.917,1.917,0,0,0,.722-.25,1.986,1.986,0,0,0,.993-1.679q0-.429,0-.914c0-1.293-.008-2.874-.013-4.709q0-1.377-.006-2.94a2.916,2.916,0,0,0-.064-.774,1.953,1.953,0,0,0-1.752-1.464l-36.1.015a1.938,1.938,0,0,0-1.866,1.433,2.108,2.108,0,0,0-.067.626v1.942q0,2.576,0,5.071,0,.624,0,1.241c0,.2,0,.415.01.609a2.108,2.108,0,0,0,.145.571,1.947,1.947,0,0,0,1.86,1.176l4.693,0,16.234.016,10.944.024,2.976.014.774.007c.175,0,.264.008.264.008s-.089.005-.264.008l-.774.008-2.976.014-10.944.024-16.234.016-4.693,0a2.092,2.092,0,0,1-1.994-1.262,2.258,2.258,0,0,1-.156-.614c-.016-.215-.009-.416-.01-.623q0-.618,0-1.241,0-2.494,0-5.071v-1.942a2.28,2.28,0,0,1,.072-.665,2.089,2.089,0,0,1,2.011-1.544l36.113.029a2.055,2.055,0,0,1,1.84,1.546,3,3,0,0,1,.064.8q0,1.561-.006,2.94c0,1.834-.009,3.415-.013,4.709q0,.485-.006.915a2.018,2.018,0,0,1-1.03,1.7,1.884,1.884,0,0,1-.735.239A1.656,1.656,0,0,1,248.395,297.824Z" transform="translate(-210.348 -284.932)"/><g transform="translate(37.102 1.637)"><g transform="translate(0 0.004)"><path class="g" d="M338.849,291.7a.072.072,0,0,1-.05-.124l.985-.944a.072.072,0,1,1,.1.1l-.985.943A.073.073,0,0,1,338.849,291.7Z" transform="translate(-338.777 -290.614)"/></g><g transform="translate(0.005)"><path class="g" d="M339.842,291.7a.073.073,0,0,1-.051-.02l-.975-.952a.072.072,0,0,1,.1-.1l.975.952a.072.072,0,0,1-.05.124Z" transform="translate(-338.794 -290.6)"/></g></g><g transform="translate(2.962 2.998)"><path class="b" d="M226.33,301.285l-.4-.569a2.032,2.032,0,0,1-.373-1.173v-1.28a2.088,2.088,0,0,0-1.77-2.063v-.611a.281.281,0,0,0-.281-.281h0a.281.281,0,0,0-.281.281v.6a2.087,2.087,0,0,0-1.843,2.073v1.325a2.037,2.037,0,0,1-.434,1.257l-.345.44Z" transform="translate(-220.601 -295.309)"/><g transform="translate(2.068 6.37)"><path class="b" d="M228.253,317.9a.906.906,0,0,0,.937-.161.881.881,0,0,0,.237-.363l-1.669-.012A.907.907,0,0,0,228.253,317.9Z" transform="translate(-227.758 -317.36)"/></g></g><g transform="translate(11.178 4.33)"><path class="g" d="M269.044,300c0,.042-4.478.075-10,.075s-10-.034-10-.075,4.477-.075,10-.075S269.044,299.956,269.044,300Z" transform="translate(-249.041 -299.922)"/></g><g transform="translate(11.178 6.751)"><path class="b" d="M273.758,308.376c0,.042-5.534.075-12.358.075s-12.359-.034-12.359-.075,5.532-.075,12.359-.075S273.758,308.335,273.758,308.376Z" transform="translate(-249.041 -308.301)"/></g><g transform="translate(11.178 8.201)"><path class="b" d="M273.758,313.394c0,.042-5.534.075-12.358.075s-12.359-.034-12.359-.075,5.532-.075,12.359-.075S273.758,313.353,273.758,313.394Z" transform="translate(-249.041 -313.319)"/></g></g></g><g transform="translate(121.178 98.055)"><g transform="translate(17.053 1.366)"><path class="k" d="M415.86,272.733a17.506,17.506,0,0,0-6.933,7.153,52.205,52.205,0,0,0-3.764,9.359l-.921,16.5c3.48-5.92,6.273-12.879,7.028-19.705l-2.316-.206a5.541,5.541,0,0,0,3.685-2.7,16.42,16.42,0,0,0,1.673-4.387l-2.825.42A10.47,10.47,0,0,0,415.86,272.733Z" transform="translate(-404.241 -272.733)"/></g><g transform="translate(17.053 1.366)"><path class="j" d="M415.86,272.733a17.506,17.506,0,0,0-6.933,7.153,52.205,52.205,0,0,0-3.764,9.359l-.921,16.5c3.48-5.92,6.273-12.879,7.028-19.705l-2.316-.206a5.541,5.541,0,0,0,3.685-2.7,16.42,16.42,0,0,0,1.673-4.387l-2.825.42A10.47,10.47,0,0,0,415.86,272.733Z" transform="translate(-404.241 -272.733)"/></g><g class="p" transform="translate(17.053 1.366)"><path class="m" d="M415.86,272.733a17.506,17.506,0,0,0-6.933,7.153,52.205,52.205,0,0,0-3.764,9.359l-.921,16.5c3.48-5.92,6.273-12.879,7.028-19.705l-2.316-.206a5.541,5.541,0,0,0,3.685-2.7,16.42,16.42,0,0,0,1.673-4.387l-2.825.42A10.47,10.47,0,0,0,415.86,272.733Z" transform="translate(-404.241 -272.733)"/></g><g transform="translate(9.057)"><path class="m" d="M384.042,306.25s-7.553-9.041-7.466-17.671h3.051s-3.314-2.179-3.052-3.4.35-5.841.35-5.841l2.789.7s-2.092-1.046-2.354-2.7.61-9.328.61-9.328,3.4,3.574,4.446,7.236,3.792,7.933,2.986,19.091S384.042,306.25,384.042,306.25Z" transform="translate(-376.56 -268.005)"/></g><g transform="translate(20.365 9.843)"><path class="m" d="M415.706,331.332s8.183-5.451,10-12.409l-2.453-.668s3.141-1.027,3.2-2.066,1-4.772,1-4.772l-2.4-.05s1.911-.383,2.484-1.658,1.55-7.633,1.55-7.633a17.678,17.678,0,0,0-5.158,4.845c-1.642,2.715-4.784,5.548-6.577,14.7S415.706,331.332,415.706,331.332Z" transform="translate(-415.703 -302.077)"/></g><g transform="translate(12.529 7.882)"><path class="g" d="M388.582,295.29a.424.424,0,0,1,.028.094l.067.278c.058.256.139.615.241,1.073s.228,1.037.36,1.7.292,1.42.446,2.26c.324,1.676.666,3.68,1.018,5.909s.682,4.69.984,7.277.526,5.061.7,7.311.29,4.281.357,5.987c.042.853.062,1.624.082,2.3s.034,1.262.038,1.739.007.837.01,1.1c0,.118,0,.213,0,.286a.049.049,0,1,1-.017,0c0-.073-.008-.167-.014-.285-.01-.262-.023-.63-.04-1.1s-.034-1.061-.065-1.737-.056-1.448-.105-2.3c-.081-1.7-.217-3.731-.391-5.98s-.419-4.718-.715-7.3-.638-5.042-.97-7.273-.674-4.234-.983-5.912c-.146-.84-.3-1.6-.422-2.263s-.237-1.239-.333-1.706l-.212-1.078c-.021-.116-.038-.209-.051-.281A.452.452,0,0,1,388.582,295.29Z" transform="translate(-388.581 -295.29)"/></g><g transform="translate(0 22.686)"><path class="m" d="M360.7,367.628s-6.912-7.843-9.058-12.584l1.62-.692a4.2,4.2,0,0,1-3.288-1.078,12.432,12.432,0,0,1-2.235-2.768l2.134-.361a7.935,7.935,0,0,1-4.664-3.612,13.265,13.265,0,0,1,6.675,3.527,33.223,33.223,0,0,1,4.045,4.686,16,16,0,0,1,1.571,2.583C358.662,359.731,360.7,364.748,360.7,367.628Z" transform="translate(-345.21 -346.534)"/></g><g transform="translate(18.534 14.408)"><path class="g" d="M421.309,317.879a.364.364,0,0,1-.031.08l-.105.228-.419.871c-.37.753-.893,1.849-1.528,3.209-1.27,2.718-2.944,6.512-4.6,10.781s-2.964,8.205-3.853,11.071c-.445,1.433-.794,2.6-1.028,3.4l-.276.926-.076.24a.347.347,0,0,1-.031.08.357.357,0,0,1,.015-.085l.06-.244.247-.935c.215-.811.548-1.98.979-3.418.861-2.876,2.159-6.82,3.811-11.1s3.347-8.064,4.645-10.772c.648-1.354,1.188-2.443,1.575-3.188l.446-.858.12-.221A.331.331,0,0,1,421.309,317.879Z" transform="translate(-409.365 -317.879)"/></g><g transform="translate(11.014 33.735)"><path class="g" d="M388.4,398.185a.519.519,0,0,1-.035-.144l-.069-.416c-.054-.362-.145-.883-.272-1.524s-.3-1.4-.53-2.233-.521-1.737-.87-2.671-.738-1.8-1.112-2.58-.748-1.462-1.078-2.026-.6-1.017-.8-1.324l-.223-.358a.521.521,0,0,1-.069-.131s.038.036.1.113l.248.341c.215.3.507.741.849,1.3s.723,1.243,1.113,2.019.773,1.651,1.129,2.588.636,1.851.863,2.688.388,1.6.5,2.251.188,1.172.222,1.538l.039.42A.517.517,0,0,1,388.4,398.185Z" transform="translate(-383.337 -384.778)"/></g><g transform="translate(10.069 45.297)"><rect class="f" width="15.128" height="3.086"/></g><g transform="translate(11.511 48.382)"><path class="f" d="M385.056,435.483l1.636,10.38h9.141l1.525-10.38Z" transform="translate(-385.056 -435.483)"/></g><g transform="translate(11.487 48.302)"><path class="g" d="M397.754,435.284c0,.045-2.862.081-6.391.081s-6.392-.036-6.392-.081,2.861-.081,6.392-.081S397.754,435.239,397.754,435.284Z" transform="translate(-384.971 -435.203)"/></g></g><g transform="translate(52.976 50.018)"><g transform="translate(0.038 0.048)"><path class="l" d="M112.829,121.591l.314-3.733a8.73,8.73,0,1,1,2.873,1.236l0,0Z" transform="translate(-109.258 -101.888)"/></g><path class="g" d="M112.736,121.474,115.944,119l.033-.025-.037-.02,0,0-.018.05a8.939,8.939,0,0,0,2.081.231,8.74,8.74,0,0,0,2.457-.381,7.827,7.827,0,0,0,1.283-.515c.21-.111.427-.218.64-.339l.622-.41a8.8,8.8,0,0,0,3.483-5.457,8.691,8.691,0,0,0-.073-3.675,8.888,8.888,0,0,0-1.717-3.479,8.6,8.6,0,0,0-3.2-2.473l-.487-.207c-.161-.07-.334-.111-.5-.168s-.331-.116-.5-.147l-.511-.109a3.671,3.671,0,0,0-.513-.079l-.514-.059-.515-.01a4.077,4.077,0,0,0-.511.007,8.892,8.892,0,0,0-3.8,1.091,8.6,8.6,0,0,0-2.813,2.465,8.843,8.843,0,0,0-1.625,6.357,9.415,9.415,0,0,0,.843,2.733,8.672,8.672,0,0,0,1.413,2.044,8.841,8.841,0,0,0,1.58,1.337l-.012-.024-.289,3.735c.016-.183.123-1.348.34-3.731v-.015l-.013-.009a8.831,8.831,0,0,1-1.561-1.338,8.632,8.632,0,0,1-1.393-2.034,9.364,9.364,0,0,1-.827-2.712,8.768,8.768,0,0,1,1.622-6.287,8.513,8.513,0,0,1,2.784-2.432,8.8,8.8,0,0,1,3.755-1.076,4.037,4.037,0,0,1,.505-.007l.508.01.508.058a3.636,3.636,0,0,1,.507.078l.5.108c.17.031.33.1.5.146s.334.1.493.165l.481.2a8.5,8.5,0,0,1,3.16,2.442,8.789,8.789,0,0,1,1.7,3.436,8.6,8.6,0,0,1,.076,3.632,8.718,8.718,0,0,1-3.435,5.407l-.615.407c-.211.12-.425.226-.633.337a7.773,7.773,0,0,1-1.27.515,8.715,8.715,0,0,1-2.435.388,8.94,8.94,0,0,1-2.068-.218l-.018.05h0l0,0,0-.045Z" transform="translate(-109.126 -101.723)"/><g transform="translate(7.471 3.636)"><g transform="translate(0.049)"><path class="m" d="M135.156,114.994l.27,5.072a.823.823,0,0,0,.764.777h0a.822.822,0,0,0,.874-.722l.614-5.089a.645.645,0,0,0-.643-.723l-1.237,0A.645.645,0,0,0,135.156,114.994Z" transform="translate(-135.155 -114.309)"/></g><g transform="translate(0 7.457)"><path class="m" d="M137.4,141.748a1.237,1.237,0,1,1-.784-1.564A1.237,1.237,0,0,1,137.4,141.748Z" transform="translate(-134.986 -140.121)"/></g></g></g></g></g></svg>