<svg xmlns="http://www.w3.org/2000/svg" width="209.474" height="155.137" viewBox="0 0 209.474 155.137" style="font-size:15px;font-family:Arial;font-weight:600;">
  <g id="help" transform="translate(-323 -342)">
    <text id="Help_Communication" data-name="Help &amp; Communication" transform="translate(339 358)" fill="#494e56" font-size="15" font-family="Arial" font-weight="600"><tspan x="0" y="0">Help &amp; Communication</tspan></text>
    <g id="Group_1644" data-name="Group 1644" transform="translate(84.935 201.128)">
      <path id="Path_1885" data-name="Path 1885" d="M261.819,470.364s-23.506-50.056,22.822-50.056c24.478,0,14.394-13.734,31.036-29.628s74.841-28.593,87.228,2.1-18.226,54,11.355,50c35.548-4.8,49.59,27.587,49.59,27.587Z" transform="translate(-16.311 -174.356)" fill="#f6f5f5"/>
      <path id="Path_1886" data-name="Path 1886" d="M1126.876,1141.575c-2.193-1.6-6.676-.521-9.984.637a15.1,15.1,0,0,0-1.818-2.11c7.126-4.591,16.969-14.381,11.752-15.21-4.535-.72-10.655,8.092-13.926,13.457-3.4-2.285-8.6-3.965-16.547-3.382-20.622,1.512-36.733-11.79-48.608-7.354-9.442,3.528-18.095,5.5-26.44,4.829.359-6.1.437-18.066-4.35-19.308-4.86-1.261-.093,12.333,2.557,19.12q-.933-.119-1.861-.285c-1.716-3.383-4.543-7.81-7.647-7.961-2.923-.143.685,3.837,4.236,7.209-10.206-2.143-22.311,6.153-22.512,15.962h127.408a11.8,11.8,0,0,0-1.225-3.319C1122.834,1143.764,1129.259,1143.317,1126.876,1141.575Z" transform="translate(-690.994 -851.918)" fill="#a8d29f"/>
      <g id="Group_1629" data-name="Group 1629" transform="translate(284.591 287.681)">
        <g id="Group_1628" data-name="Group 1628" transform="translate(0)">
          <path id="Path_1944" data-name="Path 1944" d="M0,0H33.58V7.582H0Z" transform="translate(10.354 0)"/>
          <rect id="Rectangle_547" data-name="Rectangle 547" width="33.58" height="7.583" fill="#34434e"/>
        </g>
      </g>
      <g id="Group_1632" data-name="Group 1632" transform="translate(334.026 260.312)">
        <g id="Group_1631" data-name="Group 1631" transform="translate(0 0)">
          <g id="Group_1630" data-name="Group 1630" transform="translate(0 0)">
            <rect id="Rectangle_548" data-name="Rectangle 548" width="25.004" height="34.949" transform="translate(32.714 34.949) rotate(180)" fill="#b1960a"/>
            <rect id="Rectangle_549" data-name="Rectangle 549" width="25.004" height="34.949" transform="translate(25.004 34.949) rotate(180)" fill="#e1c42b"/>
          </g>
        </g>
        <path id="Path_1887" data-name="Path 1887" d="M1692.823,1103.168l7.71,5.248v-5.248Z" transform="translate(-1667.819 -1103.168)" fill="#b1960a"/>
      </g>
      <g id="Group_1635" data-name="Group 1635" transform="translate(238.065 248.594)">
        <path id="Path_1888" data-name="Path 1888" d="M555.39,1186s-4.676,3.477-5.588,3.266,3.417-3.754,3.417-3.754c-1.629-.783-6.693-.292-6.693-.292s-1.687,5.44-2.519,5.011,1.739-4.74,1.739-4.74a8.644,8.644,0,0,0-4.04,1.238c-3.047,2.406.2,6.194.2,6.194a9.26,9.26,0,0,1-2.549,3.578,8.038,8.038,0,0,0-2.939,5.663l.5.045s.791-3.382,2.227-4.981c.056-.058.137-.141.237-.242.234-.217.4-.38.508-.5a7.285,7.285,0,0,1,2.179-1.647.917.917,0,0,1-.02-.24l.02.24c.163,1.914,3.877,3.586,6.162,3.93s1.579-.6.791-1.988-3.279-2.016-3.847-2.657.607-.643,1.984-.014,1.565,2.305,3.773,3.363,5.531-2.607,5.531-2.607c-1.76-.089-4.273-2-4.182-2.585s4.266,1.009,4.98,1.085,2.338-.811,2.589-3.687S555.39,1186,555.39,1186Z" transform="translate(-511.612 -1166.542)" fill="#82b378"/>
        <g id="Group_1633" data-name="Group 1633" transform="translate(0 8.244)">
          <path id="Path_1889" data-name="Path 1889" d="M257.01,1074.765s5.165-2.892,2.755-6.818a10.255,10.255,0,0,0-3.994-3.03s1.1,5.854,0,5.991-.758-6.611-.758-6.611-5.44-2.617-7.575-2.41c0,0,3.374,5.716,2.273,5.578s-4.889-5.922-4.889-5.922-5.578-1.033-6.473,2.272.551,4.958,1.377,5.165,6.129.137,5.991.826S242,1071.6,240,1070.978c0,0,2.2,5.44,5.1,5.165s3.788-2.066,5.578-2.2,3.1.344,2.2.826-3.925.158-5.371,1.387-2.617,1.987.069,2.538,7.506.207,8.47-1.859Z" transform="translate(-238.065 -1061.39)" fill="#a8d29f"/>
          <path id="Path_1890" data-name="Path 1890" d="M289.6,1117.923a10.987,10.987,0,0,1-1.377-5.027c-1.653-5.234-16.114-9.916-16.114-9.916,18.386,7.437,15.15,11.982,15.15,11.982a8.648,8.648,0,0,1,1.754,2.725c.073.18.19.429.362.767h0c.07.153.126.278.165.365.947,2.369.445,6.459.445,6.459l.574.154A9.538,9.538,0,0,0,289.6,1117.923Z" transform="translate(-269.274 -1099.522)" fill="#82b378"/>
        </g>
        <g id="Group_1634" data-name="Group 1634" transform="translate(22.685)">
          <path id="Path_1891" data-name="Path 1891" d="M515.363,979.871s-6.808-3.813-3.631-8.987c0,0,2.542-3.177,5.265-3.994,0,0-1.452,7.716,0,7.9s1-8.714,1-8.714,7.171-3.449,9.985-3.177c0,0-4.448,7.534-3,7.353s6.445-7.807,6.445-7.807,7.353-1.362,8.533,3-.726,6.536-1.815,6.808-8.079.182-7.9,1.089,4.9,2.36,7.534,1.543c0,0-2.9,7.171-6.717,6.808s-4.993-2.723-7.353-2.9-4.085.454-2.9,1.089,5.174.208,7.08,1.829,3.449,2.619-.091,3.345-9.894.272-11.165-2.451Z" transform="translate(-510.887 -962.24)" fill="#a8d29f"/>
          <path id="Path_1892" data-name="Path 1892" d="M546.307,1017.064s-19.063,6.173-21.241,13.072a14.48,14.48,0,0,1-1.816,6.626,12.572,12.572,0,0,0-1.264,9.9l.756-.2s-.661-5.392.587-8.514c.051-.115.125-.28.217-.481h0c.228-.446.381-.774.478-1.011.68-1.394,1.659-3.211,2.312-3.592C526.336,1032.859,522.07,1026.868,546.307,1017.064Z" transform="translate(-520.59 -1012.505)" fill="#82b378"/>
        </g>
        <path id="Path_1893" data-name="Path 1893" d="M414.908,1367.675a13.336,13.336,0,0,0,13.336-13.336H401.572A13.336,13.336,0,0,0,414.908,1367.675Z" transform="translate(-387.976 -1321.736)" fill="#e1c42b"/>
        <path id="Path_1894" data-name="Path 1894" d="M436.11,1367.572a13.345,13.345,0,0,1-14.992-13.234h3.313A13.338,13.338,0,0,0,436.11,1367.572Z" transform="translate(-405.897 -1321.735)" fill="#ffb973"/>
        <path id="Path_1895" data-name="Path 1895" d="M424.751,1503.694H401a1.646,1.646,0,0,0-1.645,1.645H426.4A1.645,1.645,0,0,0,424.751,1503.694Z" transform="translate(-385.945 -1458.672)" fill="#e1c42b"/>
        <path id="Path_1896" data-name="Path 1896" d="M423.507,1354.338h-27a.2.2,0,0,0,0,.409h27a.2.2,0,0,0,0-.409Z" transform="translate(-383.141 -1321.735)" fill="#e1c42b"/>
      </g>
      <g id="Group_1636" data-name="Group 1636" transform="translate(334.63 197.28)">
        <path id="Path_1897" data-name="Path 1897" d="M1712.512,488.435c-.386-.059-1.551,1.018-1.551,1.018h0c-2.487.287-6.124.948-7.432,1.2-.928.179-3.424-.672-5.862-1.649-2.9-1.162-5.717-2.5-5.717-2.5-1.609-.082-3.436,2.853-.173,4.719a24.722,24.722,0,0,0,4.524,1.215h0c2.973.612,6.484,1.144,7.68.957a42.856,42.856,0,0,0,7.657-2.756h0l.006,0,.026-.012a2.861,2.861,0,0,1,1.094-.3,2.445,2.445,0,0,0,1.443-.99C1714.238,489.119,1712.9,488.493,1712.512,488.435Z" transform="translate(-1665.802 -474.743)" fill="#ed975d"/>
        <path id="Path_1898" data-name="Path 1898" d="M1653.9,676.695l-1.369.278s-6.267-7.041-7.234-10c-.517-1.583-3.826-2.268-7.284-3.162-3.009-.778-6.132-1.716-7.623-3.545-3.205-3.93,2.013-8.759,2.013-8.759s5.548,3.3,10.334,6.7c3.345,2.381,6.319,4.814,6.767,6.213C1650.588,667.822,1652.9,674.287,1653.9,676.695Z" transform="translate(-1610.224 -626.027)" fill="#2b478b"/>
        <path id="Path_1899" data-name="Path 1899" d="M1895.657,951.61h.771c.258-.041.448-.115.713-.15a.714.714,0,0,1,.624.15l.007.008h3.272c.082-.117,0-.39-.074-.59a.465.465,0,0,0-.306-.28,3.531,3.531,0,0,1-1.658-.757c-.352-.319-1.7-1.171-1.7-1.171l-.007,0c-.03,0-.171.044-.784.562-.317.267-.858-.378-.858-.378a.768.768,0,0,0-.177.24.814.814,0,0,0-.071.5,3.253,3.253,0,0,1-.234,1.213c-.076.225-.14.384-.14.384S1894.994,951.528,1895.657,951.61Z" transform="translate(-1853.818 -898.62)" fill="#233862"/>
        <path id="Path_1900" data-name="Path 1900" d="M1642.734,658.207l-4.724,5.6c-3.009-.778-6.132-1.716-7.623-3.545-3.205-3.93,2.013-8.759,2.013-8.759S1637.947,654.8,1642.734,658.207Z" transform="translate(-1610.224 -626.027)" fill="#1e3d70"/>
        <path id="Path_1901" data-name="Path 1901" d="M1570.893,673.492s-.381,1.2-1,3.008c-.784,2.285-1.952,5.538-3.219,8.555-.278.663-.562,1.315-.847,1.942a21.9,21.9,0,0,1-3.081,5.323c-1.706,1.818-5.853,13.507-5.853,13.507l-1.033-.286s-1.441-9.981,3.663-15.66a.361.361,0,0,0,.1-.212,0,0,0,0,0,0,0c.068-.841.311-4.605.839-8.42.13-.936.277-1.874.442-2.773.01-.058.021-.114.032-.171.777-4.157,1.52-6.007,2.479-6.937l7.056,2.009Z" transform="translate(-1542.677 -644.238)" fill="#2b478b"/>
        <path id="Path_1902" data-name="Path 1902" d="M1549.636,1072.286h.77c.258-.041.449-.115.713-.15a.714.714,0,0,1,.624.15l.007.008h3.272c.082-.118,0-.39-.074-.59a.465.465,0,0,0-.306-.28,3.532,3.532,0,0,1-1.658-.757c-.352-.319-1.7-1.171-1.7-1.171l-.007,0c-.03,0-.171.044-.785.562-.317.267-.858-.378-.858-.378a.77.77,0,0,0-.177.241.813.813,0,0,0-.07.5,3.256,3.256,0,0,1-.234,1.213c-.076.225-.141.384-.141.384S1548.973,1072.2,1549.636,1072.286Z" transform="translate(-1536.569 -1009.261)" fill="#233862"/>
        <path id="Path_1903" data-name="Path 1903" d="M1413.969,528.636s-1.181,2.888-2.542,5.7c-1.145,2.364-2.417,4.673-3.224,5.165-1.137.695-4.271,2.655-6.3,4.117,0,0-1.586-.012-1.833.292s-.815,1.668-.649,1.806a2.446,2.446,0,0,0,1.734-.24,2.856,2.856,0,0,1,1.01-.517l.027-.008.006,0h0a42.842,42.842,0,0,0,7.517-3.117c1.01-.667,3.248-3.424,5.034-5.878h0a24.711,24.711,0,0,0,2.527-3.944C1418.431,528.433,1415.1,527.492,1413.969,528.636Z" transform="translate(-1399.389 -512.955)" fill="#ffb27d"/>
        <path id="Path_1904" data-name="Path 1904" d="M1574.635,349.479a5.917,5.917,0,0,0-.423-.546,1.327,1.327,0,0,0,.521-.078c.414-.171.6-1.487.541-1.877s-.638-1.519-1.348-1.631-1.444.676-1.444.676c.131-.569,1.332-.9,1.332-.9-2.474.456-2.348,2.106-2.331,2.259-2.265-.807-3.594,3.458-3.594,3.458l5.866,3.457s.015-.942.575-.881C1575.2,353.511,1575.93,351.368,1574.635,349.479Z" transform="translate(-1553.879 -345.124)" fill="#2c3a64"/>
        <path id="Path_1905" data-name="Path 1905" d="M1606.321,453.377a4.043,4.043,0,0,1-3.123-.289c.115-.115.075-.461-.031-.913a6.651,6.651,0,0,0-.817-1.884c-.1-.164-.192-.327-.308-.5l.154-.058,2.615-1.048s.423.759.865,1.452c.375.577.769,1.1.942,1.077C1606.629,451.2,1608.359,452.4,1606.321,453.377Z" transform="translate(-1585.192 -440.074)" fill="#ffb27d"/>
        <path id="Path_1906" data-name="Path 1906" d="M1608.205,451.807c-.067.932-.385,2.615-1.644,3.23a6.647,6.647,0,0,0-.817-1.884Z" transform="translate(-1588.585 -442.936)" fill="#ed975d"/>
        <path id="Path_1907" data-name="Path 1907" d="M1571.913,408.235s3.4-1.342,2.536-3.449-1.014-3.7-3.224-2.932-2.3,1.745-2.18,2.519S1571.005,408.53,1571.913,408.235Z" transform="translate(-1554.908 -396.957)" fill="#ffb27d"/>
        <path id="Path_1908" data-name="Path 1908" d="M1568.558,401.882a3.027,3.027,0,0,0,2.031-.857,4.355,4.355,0,0,1-2.3-1.833,3.644,3.644,0,0,0-3.076.4.883.883,0,0,0-.166.369c-.3-.1-.751-.073-1.012.775-.391,1.274,1,2.665,1,2.665.337-.1-.043-1.231-.1-1.837a2.867,2.867,0,0,1,.331-1.288c.167.216,1.825,2.3,3.85,2.383a8.54,8.54,0,0,1-2.043-1.1A2.613,2.613,0,0,0,1568.558,401.882Z" transform="translate(-1550.282 -394.534)" fill="#2c3a64"/>
        <path id="Path_1909" data-name="Path 1909" d="M1568.454,481.722c-.029-.1-.06-.207-.092-.315a7.991,7.991,0,0,0,.859-2.575,5.168,5.168,0,0,0-.163-2.519,17.226,17.226,0,0,0-3.4-1.412l-.013,0-.042,0a14.462,14.462,0,0,0-3.331.32,1.649,1.649,0,0,1-.8,1.95,2.431,2.431,0,0,1-2.565-.2l-.126.087h0a29.571,29.571,0,0,0-3.556,2.645c-.293.492-1.548,2.928-1.548,2.928s.4,2.045,4.806,2.216a10.185,10.185,0,0,1,.73,2.451c.35,2.776-.056,4.966.352,6.586s7.763.7,9.095.385,1.032-1.734,1.135-3.116A51.683,51.683,0,0,0,1568.454,481.722Z" transform="translate(-1540.843 -464.077)" fill="#699dee"/>
        <path id="Path_1910" data-name="Path 1910" d="M1716.293,515.57a7.989,7.989,0,0,1-.865,2.586,8.71,8.71,0,0,0-1.346-3.221A6.518,6.518,0,0,1,1716.293,515.57Z" transform="translate(-1687.915 -500.815)" fill="#4a82d3"/>
      </g>
      <g id="Group_1640" data-name="Group 1640" transform="translate(294.105 214.402)">
        <path id="Path_1911" data-name="Path 1911" d="M1380.365,715.611a23.2,23.2,0,0,1,1.665-1.857,5.057,5.057,0,0,1,1.663-.471c.074.069.077.17-.083.311s-.772.5-.685.539,1.934-.879,2.2-.57-.151,1.585-.862,2.2-2.836.873-2.969.958C1380.162,717.444,1380.365,715.611,1380.365,715.611Z" transform="translate(-1341.408 -699.784)" fill="#ed975d"/>
        <path id="Path_1912" data-name="Path 1912" d="M1090.393,646.807s1.968,2.335,4.475,1.359a7.591,7.591,0,0,0,.547-2.266c0-.118,0-.233,0-.342.013-1.083.05-1.69.05-1.69h0c-.114-.048-3.832-1.574-3.829-1.447A6.594,6.594,0,0,1,1090.393,646.807Z" transform="translate(-1075.561 -634.815)" fill="#ffb27d"/>
        <path id="Path_1913" data-name="Path 1913" d="M1109.824,650.6a5.815,5.815,0,0,0,3.408,2.44c.013-1.083.05-1.69.05-1.69h0A23.908,23.908,0,0,0,1109.824,650.6Z" transform="translate(-1093.374 -642.294)" fill="#ed975d"/>
        <path id="Path_1914" data-name="Path 1914" d="M1101.4,582.573s-4.181.983-4.754-1.63-1.5-4.247,1.149-4.985,3.384.145,3.787.971S1102.477,582.25,1101.4,582.573Z" transform="translate(-1080.716 -573.632)" fill="#ffb27d"/>
        <path id="Path_1915" data-name="Path 1915" d="M1073.3,559.061c-.057.036-.957.313-2.661-3.081a2.956,2.956,0,0,1,.174-2.7c.624-1.019,2.834-1.819,4.671-2.168s2.278.685,2.71,1.724a5.607,5.607,0,0,0,1.766,1.988c-1.584.885-3.492-.381-4.153-.173s-.894,1.25-.944,1.584-.126.611-.957.313-.376,1.178-.243,1.46C1073.66,558,1073.773,558.756,1073.3,559.061Z" transform="translate(-1057.219 -551.039)" fill="#a9453d"/>
        <g id="Group_1637" data-name="Group 1637" transform="translate(0 32.103)">
          <path id="Path_1916" data-name="Path 1916" d="M917.318,1362.431h-2.532c-.531,0-1.12-.538-1.268-1.524s-1.239-1.524-1.475-2.332.974-1.943.974-1.943l.2-.263.21-.275,2.006.478s.049.484.08,1.1c.022.445.033.96.008,1.411-.059,1.076.3,2.235,1.241,2.445S917.318,1362.431,917.318,1362.431Z" transform="translate(-912.012 -1321.256)" fill="#2c3a64"/>
          <path id="Path_1917" data-name="Path 1917" d="M1108.718,1391.121h-6.712a.6.6,0,0,1-.142-.042c-.448-.231-.308-2-.254-2.543.01-.1.018-.16.018-.16s2.36-1.943,2.685-.455c.01.047.022.092.035.137h0c.41,1.392,2.241,2.025,3.3,2.2A1.163,1.163,0,0,1,1108.718,1391.121Z" transform="translate(-1085.786 -1349.921)" fill="#2c3a64"/>
          <path id="Path_1918" data-name="Path 1918" d="M1061.106,959.021s-.358,4.472-.78,9.847c-.573,7.3-1.261,16.271-1.329,17.97-.118,2.95-.59,7.67-.59,7.67a3.711,3.711,0,0,1-3.363.649,77.2,77.2,0,0,1-2.569-13.866c-.009-.117-.018-.235-.027-.352-.531-7.257-1.357-22.537-1.357-22.537Z" transform="translate(-1039.527 -956.631)" fill="#e1c42b"/>
          <path id="Path_1919" data-name="Path 1919" d="M1061.106,959.021s-.358,4.472-.78,9.847l-7.851,12.423c-.009-.117-.018-.235-.027-.352-.531-7.257-1.357-22.537-1.357-22.537Z" transform="translate(-1039.527 -956.631)" fill="#e1c42b"/>
          <path id="Path_1920" data-name="Path 1920" d="M943.023,940.037s-6.46,16.195-10.708,23.805-5.575,9.735-5.575,9.735-2.434-.974-2.655-1.637c0,0,1.624-14.693,4.469-18.275,1.607-2.024,3.5-8.1,3.584-10.221s.575-6.327.575-6.327Z" transform="translate(-923.081 -937.117)" fill="#e1c42b"/>
        </g>
        <g id="Group_1638" data-name="Group 1638" transform="translate(1.985 12.251)">
          <path id="Path_1921" data-name="Path 1921" d="M939.055,930.992a21.893,21.893,0,0,1-.29,2.333,4.769,4.769,0,0,1-1.034,1.26c-.095-.014-.151-.09-.1-.286s.33-.8.24-.786-1.024,1.721-1.4,1.625-.736-1.308-.515-2.165,1.725-2.2,1.783-2.339C938.227,929.464,939.055,930.992,939.055,930.992Z" transform="translate(-935.89 -910.918)" fill="#ed975d"/>
          <path id="Path_1922" data-name="Path 1922" d="M955.813,718.967c.715.229.83.178.83.178s3.48-6.336,3.833-6.916,7.389-7.106,7.389-7.106l-1.808-6.743s-8,10.364-8.868,11.851c-1.428,2.458-2.265,8.165-2.265,8.165A2.092,2.092,0,0,0,955.813,718.967Z" transform="translate(-953.341 -698.379)" fill="#069bb7"/>
        </g>
        <path id="Path_1923" data-name="Path 1923" d="M1035.418,691.144c-.025,1.385-.106,2.942-.214,4.523-.007.094-.013.188-.02.281-.069.98-.145,1.961-.231,2.919-.035.384-.072.763-.11,1.136l-.006.05c0,.139-.02.291-.035.429-.353,3.586-.723,6.419-.791,6.463a.4.4,0,0,1-.275.07,40.964,40.964,0,0,1-6.043-.4,17.414,17.414,0,0,1-5.376-2.229c-.235-.139-.77-.506-.726-.781.043-.3.122-.738.222-1.286a69.628,69.628,0,0,0,1.155-9.029q.06-1.073.173-2.116a32.142,32.142,0,0,1,.937-5.054c.788-2.836,1.945-5.008,3.4-5.857.19-.106,1.21.543,2.148,1.145a4.139,4.139,0,0,0,2.664.631l.78.863a8.715,8.715,0,0,1,2.226,4.639q.031.23.053.49A30.533,30.533,0,0,1,1035.418,691.144Z" transform="translate(-1012.476 -669.502)" fill="#069bb7"/>
        <path id="Path_1924" data-name="Path 1924" d="M1116.993,759.371c-.025,1.385-.106,2.942-.214,4.523q-.01.141-.02.281a14.465,14.465,0,0,1-6.2-9.515,14.7,14.7,0,0,1,6.36,1.592A30.464,30.464,0,0,1,1116.993,759.371Z" transform="translate(-1094.051 -737.729)" fill="#069bb7"/>
        <g id="Group_1639" data-name="Group 1639" transform="translate(16.031 13.634)">
          <path id="Path_1925" data-name="Path 1925" d="M1128.547,717.361c-.277-.749-.707-.7-.707-.7s-7.987,1.99-8.7,2.076-8.6-3.078-8.6-3.078-3.1-1.393-4.557-.121a3.473,3.473,0,0,0-1.025,3.68,3.515,3.515,0,0,0,2.971,2.618c3.216.41,9.634,1.181,10.979.994,2.994-.417,9.777-4.332,9.777-4.332A2.515,2.515,0,0,0,1128.547,717.361Z" transform="translate(-1104.806 -715.002)" fill="#069bb7"/>
        </g>
      </g>
      <g id="man" transform="translate(373.129 183.872)">
        <g id="Group_1641" data-name="Group 1641" transform="translate(19.37 28.629)">
          <path id="Path_1926" data-name="Path 1926" d="M2293.133,914.06s1.11,1.028.893,1.759-1.218,1.218-1.353,2.111-.677,1.38-1.164,1.38h-2.323s-.359-.629.508-.818,1.192-1.239,1.138-2.213a17.443,17.443,0,0,1,.082-2.273l1.84-.433Z" transform="translate(-2273 -881.527)" fill="#2c3a64"/>
          <path id="Path_1927" data-name="Path 1927" d="M2101.638,944.569a4.281,4.281,0,0,1-1.051.122h-5.252c.018-.156.14-.713,1-.852.97-.158,2.651-.722,3.026-1.963.013-.04.023-.081.032-.122.3-1.326,2.462.406,2.462.406s.006.053.016.143C2101.921,942.791,2102.049,944.364,2101.638,944.569Z" transform="translate(-2095.335 -906.907)" fill="#2c3a64"/>
          <path id="Path_1928" data-name="Path 1928" d="M2110.44,548.273s.329,4.1.715,9.034c.525,6.7,1.157,14.928,1.22,16.487.108,2.707.541,7.037.541,7.037a3.4,3.4,0,0,0,3.085.6,70.813,70.813,0,0,0,2.357-12.721q.012-.161.024-.323c.487-6.658,1.245-20.677,1.245-20.677Z" transform="translate(-2109.184 -546.081)" fill="#35488b"/>
          <path id="Path_1929" data-name="Path 1929" d="M2110.44,548.273s.329,4.1.715,9.034l7.2,11.4q.012-.161.024-.323c.487-6.658,1.245-20.677,1.245-20.677Z" transform="translate(-2109.184 -546.081)" fill="#2c3a64"/>
          <path id="Path_1930" data-name="Path 1930" d="M2128.5,530.855s5.927,14.858,9.824,21.84,5.115,8.931,5.115,8.931,2.233-.893,2.436-1.5c0,0-1.49-13.48-4.1-16.766-1.474-1.857-3.207-7.429-3.288-9.378s-.528-5.805-.528-5.805Z" transform="translate(-2125.742 -528.176)" fill="#35488b"/>
        </g>
        <g id="Group_1642" data-name="Group 1642" transform="translate(0 11.402)">
          <path id="Path_1931" data-name="Path 1931" d="M1866.23,459.628a17.821,17.821,0,0,0-1.878-.349,3.874,3.874,0,0,0-1.23.491c-.013.077.032.139.2.15s.7-.058.668.007-1.585.37-1.6.682.832.892,1.55.931a7.51,7.51,0,0,0,2.25-.806C1867.21,460.645,1866.23,459.628,1866.23,459.628Z" transform="translate(-1862.384 -447.779)" fill="#e1c42b"/>
          <path id="Path_1932" data-name="Path 1932" d="M1898.358,333.248c-.23-.734-.177-.851-.177-.851s6.517-3.524,7.114-3.881,7.331-7.524,7.331-7.524l6.9,1.9s-10.675,8.132-12.2,9.007c-2.528,1.447-8.383,2.266-8.383,2.266A2.143,2.143,0,0,1,1898.358,333.248Z" transform="translate(-1895.2 -320.991)" fill="#e1c42b"/>
        </g>
        <path id="Path_1933" data-name="Path 1933" d="M2035.264,243.722s-2.418,4.255-4.782,4.81a6.461,6.461,0,0,1,.674-2.407c-.236-.278-.443-.533-.622-.762a14.247,14.247,0,0,1-.878-1.229l.8-2.157.544-1.463a7.014,7.014,0,0,0,.851,1.226A5.786,5.786,0,0,0,2035.264,243.722Z" transform="translate(-2015.747 -235.804)" fill="#ffb27d"/>
        <path id="Path_1934" data-name="Path 1934" d="M2031.853,255.246a4.488,4.488,0,0,1-1.319,3.624,14.248,14.248,0,0,1-.878-1.229l.8-2.157A4.583,4.583,0,0,1,2031.853,255.246Z" transform="translate(-2015.747 -249.311)" fill="#ed975d"/>
        <path id="Path_1935" data-name="Path 1935" d="M1988.277,210.986s3.614-1.409,2.7-3.645-1.06-3.925-3.405-3.12-2.443,1.84-2.32,2.66S1987.314,211.294,1988.277,210.986Z" transform="translate(-1975.006 -202.341)" fill="#ffb27d"/>
        <path id="Path_1936" data-name="Path 1936" d="M2054.149,294.377c-1.458,2.1-12.356,4.9-12.226,3.445a15.752,15.752,0,0,0,0-2.861q-.041-.466-.116-.988a22.8,22.8,0,0,0-2.4-7.193c-.11-.213-.224-.427-.343-.644a22.146,22.146,0,0,1-1.511-3.395,10.457,10.457,0,0,1-.678-5.634c0-.007,0-.013.006-.019,2.278-1.053,3.161-5.138,3.161-5.138s7.772,1.4,12.125,11.755C2052.163,283.7,2055.417,292.553,2054.149,294.377Z" transform="translate(-2022.212 -264.624)" fill="#e1c42b"/>
        <path id="Path_1937" data-name="Path 1937" d="M2071.658,391.738q-.041-.466-.116-.989a22.791,22.791,0,0,0-2.4-7.193,10.166,10.166,0,0,1,.981-3.368c1.55-2.323,2.453-2.686,2.453-2.686S2074.9,387.3,2071.658,391.738Z" transform="translate(-2051.949 -361.402)" fill="#e1c42b"/>
        <g id="Group_1643" data-name="Group 1643" transform="translate(2.976 9.36)">
          <path id="Path_1938" data-name="Path 1938" d="M1902.659,520.655a23.224,23.224,0,0,0-2.483.233,5.058,5.058,0,0,0-1.369,1.056c.012.1.09.163.3.119s.861-.324.841-.23-1.858,1.031-1.767,1.429,1.364.823,2.279.615,2.389-1.759,2.537-1.816C1904.253,521.582,1902.659,520.655,1902.659,520.655Z" transform="translate(-1898.177 -502.012)" fill="#e1c42b"/>
          <path id="Path_1939" data-name="Path 1939" d="M1944.683,315.9c-.431-.7-.12-1.013-.12-1.013s6.642-5.2,7.162-5.725,2.932-8.89,2.932-8.89.83-3.385,2.774-3.759a3.559,3.559,0,0,1,3.62,1.491,3.6,3.6,0,0,1,.244,4.051c-1.7,2.857-5.117,8.529-6.115,9.5-2.223,2.157-9.662,5.171-9.662,5.171A2.576,2.576,0,0,1,1944.683,315.9Z" transform="translate(-1940.606 -296.443)" fill="#e1c42b"/>
        </g>
        <path id="Path_1940" data-name="Path 1940" d="M1976.647,184.716c.025-.05.1-.1.278-.158a.751.751,0,0,0-.364-.013.956.956,0,0,0-.811-.672.57.57,0,0,1,.363.335c-.634-.4-1.809-.518-4.741.458-3.865,1.287-1.934,3.531-1.348,3.711s1.664-.975,2.634-1.132,1.495,1.194,1.865,1.306.16-.2.547-.5.609.417.6.925.747.991.747.991l.443-.812a7.194,7.194,0,0,0-.1-4.292Z" transform="translate(-1960.156 -183.872)" fill="#2b478b"/>
      </g>
      <rect id="Rectangle_550" data-name="Rectangle 550" width="34.243" height="44.977" transform="translate(382.894 250.285)" fill="#069bb7"/>
      <path id="Path_1943" data-name="Path 1943" d="M0,0H34.244V44.977H0Z" transform="translate(372.336 250.285)" fill="#01aac9"/>
    </g>
  </g>
</svg>
