<svg xmlns="http://www.w3.org/2000/svg" width="204.597" height="160.151" viewBox="0 0 204.597 160.151"><defs><style>.a,.g,.h,.q{fill:#494e56;}.a{font-size:15px;font-family:Arial;font-weight:600;}.b,.u,.x{fill:none;}.b{stroke:#e4e4e4;stroke-width:4px;stroke-dasharray:32.088 32.088;}.b,.i,.u,.x{stroke-miterlimit:10;}.c{fill:#f6f5f5;}.d{fill:#c4cee6;}.e{fill:#e4e4e4;}.f,.i{fill:#fff;}.g{opacity:0.51;}.h{opacity:0.12;}.i,.u{stroke:#e7c235;}.i{stroke-width:6px;}.j{fill:#e7c235;}.k{fill:#f9b384;}.l,.p{fill:#1f3c88;}.m,.r{fill:#e28b6d;}.n,.o{fill:#102048;}.o,.r,.w{opacity:0.6;}.p{opacity:0.3;}.s,.w{fill:#6f3428;}.t{fill:#fbc343;}.u,.x{stroke-width:8px;}.u{opacity:0.2;}.v{fill:#fc8879;opacity:0.4;}.x{stroke:#102048;}</style></defs><g transform="translate(-135 -340)"><text class="a" transform="translate(181 356)"><tspan x="0" y="0">My Documents</tspan></text><g transform="translate(135 377)"><g transform="translate(9.565 36.607)"><g transform="translate(1.372)"><path class="b" d="M563.281,755.133c9.912,17.737-4.431,52.536-95.391,28.351-45.606-12.126-79.673,15.191-86.693-3.877-16.352-44.413,50.426-95.789,87.561-59.921C502.7,752.472,545.241,722.852,563.281,755.133Z" transform="translate(-378.665 -707.632)"/></g><path class="c" d="M546.786,916.258H361.32c5.8-42.883,45.105-76.054,92.733-76.054S540.982,873.375,546.786,916.258Z" transform="translate(-361.32 -829.715)"/></g><g transform="translate(95.216 0)"><rect class="d" width="81.521" height="111.826" rx="40.76" transform="translate(0 10.947)"/><g transform="translate(3.652 15.454)"><rect class="c" width="67.098" height="97.468" transform="translate(3.715)"/><path class="e" d="M1604.048,440.287c.021,38.007,1.248,83.846-3.021,93.995-18.8,1.832-40.823,2.42-64.077,2.53l8.839-96.23Z" transform="translate(-1533.235 -440.286)"/><path class="f" d="M1554.789,531.262c-29.31,4.691-48.9,4.938-64.786,3.758,2.059-21.917,2.884-58.326,3.714-94.677l35.318.078,31.965,2.11C1561.467,480.26,1561.518,515.111,1554.789,531.262Z" transform="translate(-1490.003 -440.338)"/><g transform="translate(10.468 8.989)"><rect class="g" width="35.307" height="5.378" transform="translate(8.665 0) rotate(1.348)"/><g transform="translate(0 10.492)"><g transform="translate(1.182)"><g transform="translate(17.563 2.746)"><rect class="g" width="31.847" height="2.462" transform="matrix(1, 0.024, -0.024, 1, 0.184, 0)"/><rect class="h" width="21.647" height="2.462" transform="translate(0.058 5.366) rotate(1.348)"/></g><g transform="translate(0)"><rect class="i" width="7.539" height="7.539" transform="matrix(1, 0.024, -0.024, 1, 0.177, 2.478)"/><g transform="translate(1.391)"><path class="f" d="M1654.837,690.956c.233.891.663,4.623,2.531,3.579a5.7,5.7,0,0,0,1.118-1.243l1.739-1.974,3.477-3.948c.3-.337-1.015-1.183-1.387-.76l-3.091,3.509-1.545,1.754c-.357.406-1.184,1.715-1.715,1.831l.865.279c.2.167-.175-1.018-.183-1.05l-.431-1.651c-.119-.455-1.554-1-1.378-.328Z" transform="translate(-1654.822 -686.495)"/></g></g></g><g transform="translate(0.86 13.916)"><g transform="translate(17.563 2.534)"><rect class="g" width="26.225" height="2.462" transform="translate(0.184 0) rotate(1.348)"/><rect class="h" width="31.847" height="2.462" transform="translate(0.058 5.366) rotate(1.348)"/></g><g transform="translate(0)"><rect class="i" width="7.539" height="7.539" transform="matrix(1, 0.024, -0.024, 1, 0.177, 2.265)"/><g transform="translate(1.386)"><path class="f" d="M1650.7,866.834c.233.891.662,4.623,2.531,3.579a5.69,5.69,0,0,0,1.118-1.243l1.738-1.974,3.477-3.948c.3-.337-1.015-1.183-1.387-.76L1655.084,866l-1.545,1.755c-.358.406-1.184,1.715-1.714,1.831l.865.279c.2.167-.175-1.018-.183-1.05l-.431-1.651c-.119-.455-1.554-1-1.378-.327Z" transform="translate(-1650.682 -862.373)"/></g></g></g><g transform="translate(0.537 27.716)"><g transform="translate(17.563 2.436)"><rect class="g" width="31.847" height="2.462" transform="translate(0.184 0) rotate(1.348)"/><rect class="h" width="14.243" height="2.462" transform="translate(0.058 5.366) rotate(1.348)"/></g><g transform="translate(0)"><rect class="i" width="7.539" height="7.539" transform="matrix(1, 0.024, -0.024, 1, 0.177, 2.168)"/><g transform="translate(1.488)"><path class="f" d="M1647.914,1041.255c.233.891.662,4.623,2.531,3.579a5.7,5.7,0,0,0,1.118-1.243l1.738-1.974,3.477-3.948c.3-.337-1.014-1.183-1.387-.76l-3.091,3.509-1.545,1.755c-.357.406-1.184,1.715-1.715,1.831l.865.28c.2.167-.175-1.018-.183-1.051l-.431-1.651c-.119-.455-1.554-1-1.378-.328Z" transform="translate(-1647.899 -1036.794)"/></g></g></g><g transform="translate(0.215 41.329)"><g transform="translate(17.563 2.526)"><rect class="g" width="31.847" height="2.462" transform="translate(0.184 0) rotate(1.348)"/><rect class="h" width="25.158" height="2.462" transform="matrix(1, 0.024, -0.024, 1, 0.058, 5.366)"/></g><g transform="translate(0)"><rect class="i" width="7.539" height="7.539" transform="matrix(1, 0.024, -0.024, 1, 0.177, 2.258)"/><g transform="translate(1.49)"><path class="f" d="M1643.865,1213.31c.233.891.663,4.622,2.531,3.579a5.7,5.7,0,0,0,1.118-1.243l1.739-1.974,3.477-3.948c.3-.337-1.015-1.183-1.387-.76l-3.091,3.509-1.545,1.755c-.357.406-1.184,1.715-1.714,1.831l.865.279c.2.167-.175-1.018-.183-1.051l-.431-1.651c-.119-.455-1.554-1-1.378-.328Z" transform="translate(-1643.85 -1208.849)"/></g></g></g><g transform="translate(0 54.823)"><g transform="translate(17.457 2.632)"><rect class="g" width="12.624" height="2.462" transform="matrix(1, 0.024, -0.024, 1, 0.184, 0)"/><path class="h" d="M1874.838,1481.224l-31.838-.749-.058,2.461c12.318.289,28,.866,31.2.375A2.761,2.761,0,0,0,1874.838,1481.224Z" transform="translate(-1842.942 -1475.109)"/></g><rect class="i" width="7.539" height="7.539" transform="translate(0.177 2.365) rotate(1.348)"/><g transform="translate(1.387)"><path class="f" d="M1639.851,1383.858c.233.891.663,4.623,2.531,3.579a5.689,5.689,0,0,0,1.118-1.243l1.738-1.974,3.477-3.948c.3-.337-1.014-1.183-1.387-.76l-3.091,3.509-1.546,1.755c-.357.406-1.184,1.715-1.714,1.831l.865.279c.2.167-.175-1.018-.183-1.05l-.431-1.651c-.119-.455-1.554-1-1.378-.328Z" transform="translate(-1639.836 -1379.397)"/></g></g></g></g></g><g transform="translate(23.195)"><path class="j" d="M1798.224,256.585v7.523H1768v-7.523a4.342,4.342,0,0,1,1.272-3.073,3.629,3.629,0,0,1,.307-.275,4.314,4.314,0,0,1,2.766-1,5.116,5.116,0,0,0,2.221-.506,5.323,5.323,0,0,0,.836-.5,5.115,5.115,0,0,0,1.855-2.63,5.136,5.136,0,0,1,4.912-3.64h1.886a5.136,5.136,0,0,1,4.912,3.64,5.114,5.114,0,0,0,1.855,2.63,5.325,5.325,0,0,0,.835.5,5.119,5.119,0,0,0,2.222.506,4.351,4.351,0,0,1,4.345,4.345Z" transform="translate(-1765.547 -244.96)"/><path class="e" d="M1772.13,440.28v5.592H1737V440.28h2.453v3.693h30.224V440.28Z" transform="translate(-1737 -424.826)"/><ellipse class="f" cx="2.681" cy="2.548" rx="2.681" ry="2.548" transform="translate(14.884 1.961)"/></g></g><g transform="translate(19.916 21.878)"><g transform="translate(55.623 8.4)"><path class="k" d="M1197.659,637.082c-1.072-.2-2.074-1.994-2.422-2.681a.851.851,0,0,1-.077-.545l.427-2.261s.984.167.908,1.478a.965.965,0,0,0,.069.4l.377.986,1.114-.863-.611-1.725a2.967,2.967,0,0,1-1.24.09c-.867-.277.27-.953.629-1.024s1.15-.359,1.51.252.575.97.575.97a13.531,13.531,0,0,0,.126-4.421c-.012-.138.332-.135.429-.036.289.295.751,1.191.775,3.918,0,0,.048-3.177.593-3.5.449-.27.676,1.286.36,3.923,0,0,.587-2.284,1.006-2.288.708-.007.009,6.1-1.771,7.918Z" transform="translate(-1195.144 -627.631)"/><path class="k" d="M1209.509,735.28q-.048.456-.1.883v0a25.644,25.644,0,0,1-.468,2.693c-.01.038-.016.073-.025.108-.541,2.219-.639,3.3-2.488,3.013l-1.9-2.165-.019-.022-.139-.158.386-1.139.051-.149.285-.829.035-.108.487-1.427.2-.579Z" transform="translate(-1203.634 -726.763)"/></g><g transform="translate(20.297 91.743)"><path class="l" d="M754.533,1731.542l-.484,1.513c-3.32,1.091-5.256,2.34-5.38,3.8h9.6l.77-5.067A7.448,7.448,0,0,1,754.533,1731.542Z" transform="translate(-748.669 -1727.543)"/><path class="k" d="M823.993,1684l-1.2,3.762a7.449,7.449,0,0,0,4.505.245l.5-3.268Z" transform="translate(-816.925 -1683.762)"/><path class="k" d="M993.363,1684.831l.282-3.831-4.51.238-.246,3.532A7.38,7.38,0,0,0,993.363,1684.831Z" transform="translate(-969.882 -1681)"/><path class="l" d="M994.289,1734.18c-.124-1.458-1.82-3.455-5.538-3.93l.114-1.549a7.379,7.379,0,0,1-4.475-.062L984,1734.18Z" transform="translate(-965.383 -1724.87)"/></g><path class="k" d="M935.923,664.191l-5.44.038V656h5.276l0,.5.025,2.608.038,4.187Z" transform="translate(-895.8 -645.356)"/><path class="m" d="M943.928,669.968c-.978,1.029-3.529-.133-4.6-1.266l4.579-1.342Z" transform="translate(-903.941 -655.817)"/><path class="k" d="M913.283,568.2a11.743,11.743,0,0,1-.143,1.852c-.266,1.658-.968,3.092-2.589,3.136-3.829.111-4.921-2.079-5.643-3.871s.449-6.108.449-6.108l4.956-.491,2.722,2.231A20.3,20.3,0,0,1,913.283,568.2Z" transform="translate(-872.033 -559.456)"/><path class="n" d="M877.044,530.3s1.093-.05,1.279-2.87a3.861,3.861,0,0,0,4.512-1.243,2.612,2.612,0,0,0,4.579-.936c.659-1.886-1.16-4.695-3.811-2.993-2.6-1.312-6.538-1.222-7.671,2,0,0-3.942,1.817.232,5.819A4.831,4.831,0,0,0,877.044,530.3Z" transform="translate(-844.015 -521.467)"/><path class="j" d="M982.745,1133.3l-3.007,45.471h-7.068l1.767-44.123,1.081-.5Z" transform="translate(-934.649 -1084.891)"/><path class="j" d="M809.628,1015.376l-4.958,51.693h7.7l7.332-42.936,8.334-2.532.369-9.178L809.839,1012Z" transform="translate(-779.941 -973.189)"/><path class="o" d="M863.106,995.21c4.206,1.51,14.075-.216,16.125-2.319l-1.456-2.912-16.232,2.157Z" transform="translate(-832.314 -952.91)"/><path class="f" d="M908.34,746.334c-.136.057-.275.117-.418.171a28.571,28.571,0,0,1-5.273,1.57,24.224,24.224,0,0,1-3.535.434,20.429,20.429,0,0,1-5.551-.449l2.358-21.983.288-2.681s3.086,3.8,6.488-.4Z" transform="translate(-861.802 -707.055)"/><path class="p" d="M899.114,770.149a20.422,20.422,0,0,1-5.551-.449l2.358-21.983.842-1.217C898.842,751.557,900.972,762.756,899.114,770.149Z" transform="translate(-861.802 -728.695)"/><path class="q" d="M625.845,717c2.344,9.954,3.309,20.2-.145,31.569a12.932,12.932,0,0,1-8.334.105L618.1,728l-17.38,11.947-1.055-6.514C606.35,727.042,617.9,717.391,625.845,717Z" transform="translate(-591.161 -701.529)"/><path class="p" d="M1002.654,801.758a28.56,28.56,0,0,1-5.273,1.57c-1.047-6.007-1.279-15.875-.427-20.328Z" transform="translate(-956.534 -762.307)"/><path class="r" d="M1210.557,763.65c-.01.038-.016.073-.025.108-.541,2.219-.639,3.3-2.488,3.013l-1.9-2.165-.019-.022.247-1.3.05-.149.285-.829.035-.108Z" transform="translate(-1149.631 -743.153)"/><path class="q" d="M1017.884,722.66s-4.668,9.89-7.437,10.128a4.3,4.3,0,0,1-3.956-2.374l1.9,14.454a12.119,12.119,0,0,1-7.491,1.054c-2.51-8.149-3.458-18.687-3.645-30.422,2.032.127,6.056.3,7.5,1.226,2.584,1.661,5.776,7.6,5.776,7.6l3.719-5.064Z" transform="translate(-957.288 -700.148)"/><g transform="translate(0.764 4.062)"><path class="s" d="M538.744,577.317s.283-4.731.764-4.508,1.447,4.337,1.447,4.337l-1.033,1.667Z" transform="translate(-535.82 -572.801)"/><path class="q" d="M597.782,1709.667l.14,1.557a5,5,0,0,1-4.53,5.424l-.4.036a5,5,0,0,1-5.424-4.53l-.14-1.557Z" transform="translate(-580.652 -1619.717)"/><rect class="t" width="10.397" height="75.703" transform="translate(0.001 15.481) rotate(-5.134)"/><rect class="u" width="3.692" height="66.356" transform="translate(3.203 13.669) rotate(-5.134)"/><path class="n" d="M585.6,1574.237l-10.352.93-.272-3.038-.19-2.111-.586-6.488,10.355-.931.582,6.488.19,2.111Z" transform="translate(-568.474 -1484.286)"/><rect class="t" width="10.394" height="2.119" transform="translate(6.315 85.732) rotate(-5.136)"/><path class="q" d="M501.793,630.772l2.876-11.527a2.472,2.472,0,0,0,2.2-.3l5.282,10.9Z" transform="translate(-501.793 -615.29)"/></g><path class="k" d="M887.809,621.092c-.046-.17-.819-.4-.989-.451a1.185,1.185,0,0,0-.807.008c-.935.422-.81,1.76-.326,2.464a2.108,2.108,0,0,0,1.143.839c.17.049,1.777.068,1.707-.191Z" transform="translate(-854.206 -612.733)"/><path class="k" d="M496.318,955.293a1.407,1.407,0,0,0-1.8-.929c-1.178.407-2.2,1.1-2.363,2.271-.145,1.069.39,4.484,2.778,4.922l-.195-1.755s1.462-.341,1.754-.975A7.352,7.352,0,0,0,496.318,955.293Z" transform="translate(-492.136 -920.042)"/><path class="l" d="M1103.349,818.576c.126.747.233,1.5.335,2.247s.19,1.5.287,2.252l.245,2.257c.072.754.141,1.507.188,2.264l-.123.014c-.13-.747-.235-1.5-.34-2.246l-.282-2.253c-.08-.753-.171-1.5-.241-2.258s-.142-1.507-.192-2.263Z" transform="translate(-1054.876 -795.068)"/><path class="l" d="M828.819,816.969c0,.839-.022,1.677-.047,2.516s-.064,1.675-.1,2.513l-.137,2.511c-.056.837-.114,1.673-.195,2.508l-.124-.006c0-.839.019-1.678.042-2.516l.1-2.513c.048-.837.084-1.674.142-2.511s.113-1.673.19-2.509Z" transform="translate(-801.629 -793.583)"/><path class="n" d="M955.956,620.786a.5.5,0,0,1-.275.629c-.219.049-.45-.153-.517-.452a.5.5,0,0,1,.275-.629C955.658,620.285,955.889,620.487,955.956,620.786Z" transform="translate(-918.512 -612.505)"/><path class="n" d="M995.809,614.823c-.013.305-.2.546-.428.536s-.395-.265-.382-.571.2-.546.428-.536S995.822,614.518,995.809,614.823Z" transform="translate(-955.211 -606.911)"/><path class="m" d="M981.61,624.635a7.187,7.187,0,0,1,.161.758.593.593,0,0,0,.153.263,1,1,0,0,0,.3.146.828.828,0,0,1,.375.283.491.491,0,0,1,.038.518.975.975,0,0,1-.309.313c-.109.073-.213.151-.326.22l-.081-.093c.083-.1.174-.2.262-.293a.928.928,0,0,0,.2-.266c.067-.146-.076-.307-.284-.389a1.1,1.1,0,0,1-.386-.219.774.774,0,0,1-.2-.418c-.052-.293.008-.544-.021-.788Z" transform="translate(-942.771 -616.472)"/><path class="n" d="M946.294,607.74a.921.921,0,0,1,.323-.493.984.984,0,0,1,.574-.215,1.061,1.061,0,0,1,1,.561l-.1.077a1.359,1.359,0,0,0-.886-.323,1.034,1.034,0,0,0-.8.446Z" transform="translate(-910.361 -600.26)"/><path class="n" d="M987.579,603.739a.956.956,0,0,1,.248-.4.828.828,0,0,1,.449-.222.788.788,0,0,1,.839.419l-.1.074a1,1,0,0,0-.694-.181.888.888,0,0,0-.331.121,2.19,2.19,0,0,0-.307.253Z" transform="translate(-948.379 -596.647)"/><path class="f" d="M965.452,663.373c.553.865,1.289.959,1.858.049Z" transform="translate(-928.003 -652.145)"/><path class="v" d="M1004.142,629.333a14.574,14.574,0,0,1-.157,2.063.953.953,0,0,1-.661-.908A1.218,1.218,0,0,1,1004.142,629.333Z" transform="translate(-962.877 -620.799)"/><circle class="v" cx="1.021" cy="1.021" r="1.021" transform="translate(35.08 9.233)"/><path class="m" d="M894.536,631.4a5.093,5.093,0,0,0-.571-.376.5.5,0,0,0-.252-.065.563.563,0,0,0-.263.121l-.1-.067a.493.493,0,0,1,.3-.323.588.588,0,0,1,.458.053,1.185,1.185,0,0,1,.529.583Z" transform="translate(-861.602 -622.019)"/><path class="w" d="M526.605,1011.674l-1.469,4.463-.3-3.488A3.044,3.044,0,0,0,526.605,1011.674Z" transform="translate(-522.246 -972.888)"/></g><path class="x" d="M2826.3,1799.034" transform="translate(-2621.699 -1676.074)"/><path class="x" d="M240.425,1799.034" transform="translate(-240.425 -1676.074)"/></g></g></svg>