<svg xmlns="http://www.w3.org/2000/svg" xmlns:xlink="http://www.w3.org/1999/xlink" width="127.662" height="165.233" viewBox="0 0 127.662 165.233">
  <defs>
    <linearGradient id="linear-gradient" x1="-34.704" y1="-0.811" x2="-35.909" y2="1.528" gradientUnits="objectBoundingBox">
      <stop offset="0" stop-color="#4f52ff"/>
      <stop offset="1" stop-color="#4042e2"/>
    </linearGradient>
    <linearGradient id="linear-gradient-2" x1="-26.51" y1="-0.811" x2="-27.716" y2="1.528" xlink:href="#linear-gradient"/>
    <linearGradient id="linear-gradient-3" x1="-18.24" y1="-0.811" x2="-19.446" y2="1.528" xlink:href="#linear-gradient"/>
    <linearGradient id="linear-gradient-4" x1="-10.046" y1="-0.811" x2="-11.252" y2="1.528" xlink:href="#linear-gradient"/>
    <linearGradient id="linear-gradient-5" x1="-3.292" y1="-0.79" x2="-5.436" y2="1.509" gradientUnits="objectBoundingBox">
      <stop offset="0" stop-color="#e1c42b"/>
      <stop offset="1" stop-color="#fe7062"/>
    </linearGradient>
    <linearGradient id="linear-gradient-9" x1="1.03" y1="-1.616" x2="0.06" y2="2.235" gradientUnits="objectBoundingBox">
      <stop offset="0" stop-color="#ff928e"/>
      <stop offset="1" stop-color="#fe7062"/>
    </linearGradient>
    <linearGradient id="linear-gradient-10" x1="1.216" y1="-2.121" x2="0.25" y2="1.4" xlink:href="#linear-gradient-9"/>
    <linearGradient id="linear-gradient-11" x1="1.123" y1="-1.878" x2="0.155" y2="1.797" xlink:href="#linear-gradient-9"/>
    <linearGradient id="linear-gradient-12" x1="0.336" y1="0.26" x2="1.697" y2="1.995" gradientUnits="objectBoundingBox">
      <stop offset="0" stop-color="#09005d"/>
      <stop offset="1" stop-color="#1a0f91"/>
    </linearGradient>
    <linearGradient id="linear-gradient-13" x1="1.722" y1="2.226" x2="-0.709" y2="-1.529" gradientUnits="objectBoundingBox">
      <stop offset="0" stop-color="#febbba"/>
      <stop offset="1" stop-color="#ff928e"/>
    </linearGradient>
    <linearGradient id="linear-gradient-14" x1="1.678" y1="3.031" x2="-1.488" y2="-4.448" xlink:href="#linear-gradient-13"/>
    <linearGradient id="linear-gradient-15" x1="0.721" y1="0.212" x2="0.27" y2="0.899" xlink:href="#linear-gradient-13"/>
    <linearGradient id="linear-gradient-16" x1="0.513" y1="0.631" x2="1.172" y2="-2.738" xlink:href="#linear-gradient-13"/>
    <linearGradient id="linear-gradient-17" x1="-0.177" y1="2.883" x2="0.588" y2="0.434" xlink:href="#linear-gradient-13"/>
    <linearGradient id="linear-gradient-18" x1="0.716" y1="1.11" x2="0.208" y2="-0.407" xlink:href="#linear-gradient-13"/>
    <linearGradient id="linear-gradient-19" x1="0.39" y1="-0.473" x2="0.567" y2="0.954" xlink:href="#linear-gradient-12"/>
    <linearGradient id="linear-gradient-20" x1="1.751" y1="2.976" x2="-0.655" y2="-1.822" xlink:href="#linear-gradient-13"/>
    <linearGradient id="linear-gradient-21" x1="0" y1="0.5" x2="1" y2="0.5" xlink:href="#linear-gradient-12"/>
    <linearGradient id="linear-gradient-22" x1="1.018" y1="-0.604" x2="0.278" y2="0.973" xlink:href="#linear-gradient-12"/>
    <linearGradient id="linear-gradient-23" x1="-5.239" y1="1.411" x2="-30.858" y2="5.48" gradientUnits="objectBoundingBox">
      <stop offset="0" stop-color="#e1473d"/>
      <stop offset="1" stop-color="#e9605a"/>
    </linearGradient>
    <linearGradient id="linear-gradient-24" x1="-0.041" y1="0.788" x2="-8.033" y2="5.041" xlink:href="#linear-gradient-23"/>
    <linearGradient id="linear-gradient-25" x1="0.96" y1="0.067" x2="-3.459" y2="3.952" xlink:href="#linear-gradient-23"/>
  </defs>
  <g id="noti-date" transform="translate(-471 -195)">
    <text id="Notification" transform="translate(490 211)" fill="#494e56" font-size="15" font-family="Arial" font-weight="600"><tspan x="0" y="0">Notification</tspan></text>
    <g id="Group_1554" data-name="Group 1554">
      <path id="Path_1623" data-name="Path 1623" d="M567.049,575.149a48.809,48.809,0,0,1-8.573,6.959c-22.2,14.824-47.58,10.551-55.427,9.091-12.659-2.356-23.345-4.018-32.527-12.313-20.863-18.849-19.848-58.168-3.906-82.525,1.89-2.888,17.808-26.483,43.241-29.808.622-.081,1.086-.128,1.493-.171,3.935-.417,28.316-2.615,48.2,14.041a59.311,59.311,0,0,1,11.672,13.244C586.748,517.649,586.8,554.793,567.049,575.149Z" transform="translate(16.253 -232.672)" fill="#f6f5f5"/>
      <g id="Group_1537" data-name="Group 1537" transform="translate(472.117 240.159)">
        <path id="Path_1624" data-name="Path 1624" d="M483.12,615.145a.724.724,0,0,0-1.377-.033c-2.358,6.722-6.691,25.435,7.841,46.643,18.233,26.609,17.7,40.052,13.626,50.205a35.792,35.792,0,0,0,9.466-22.061C514.874,655.949,486.559,627.135,483.12,615.145Z" transform="translate(-479.258 -614.627)" fill="#acc0f8"/>
        <path id="Path_1625" data-name="Path 1625" d="M580.58,857.852c1.068,3.462,2.2,6.9,3.464,10.295q1.863,5.1,4.033,10.072c1.46,3.307,2.981,6.587,4.64,9.8s3.424,6.36,5.223,9.509c1.78,3.157,3.591,6.328,5.083,9.694a36.758,36.758,0,0,1,3.033,10.634c.105.919.194,1.844.228,2.765.051.921.061,1.844.054,2.767a38.111,38.111,0,0,1-3.7,16.075.7.7,0,0,1-1.278-.574v0c.355-.821.7-1.644,1.008-2.481.161-.416.3-.838.452-1.257.133-.424.284-.844.4-1.271a36.921,36.921,0,0,0,1.158-5.2,40.481,40.481,0,0,0,.148-10.637,35.263,35.263,0,0,0-1.053-5.207,40,40,0,0,0-1.811-5.019c-1.424-3.28-3.19-6.433-4.948-9.6s-3.494-6.374-5.1-9.641q-1.211-2.447-2.333-4.936c-.379-.827-.741-1.662-1.105-2.5s-.708-1.676-1.052-2.518q-2.058-5.054-3.8-10.223c-1.142-3.45-2.193-6.929-3.107-10.443a.188.188,0,0,1,.361-.1Z" transform="translate(-575.61 -846.638)" fill="#acc0f8" style="mix-blend-mode: soft-light;isolation: isolate"/>
      </g>
      <g id="Group_1539" data-name="Group 1539" transform="translate(483.419 233.87)">
        <g id="Group_1538" data-name="Group 1538" transform="translate(0)">
          <path id="Path_1626" data-name="Path 1626" d="M748.785,560.2a1.82,1.82,0,0,0,2.973-.541,55.506,55.506,0,0,0-1.929-47.629c-9.5-18.5-12.886-29.43-14.081-34.5a1.141,1.141,0,0,0-2.16-.186C728.807,488.519,716.28,526.478,748.785,560.2Z" transform="translate(-727.186 -476.654)" fill="#acc0f8"/>
          <path id="Path_1627" data-name="Path 1627" d="M955.767,1058.558a.505.505,0,0,0,.588-.511c-.008-.316-.977-31.886-13.017-58.2a.5.5,0,0,0-.918.42c11.953,26.124,12.918,57.5,12.926,57.809A.5.5,0,0,0,955.767,1058.558Z" transform="translate(-932.565 -975.713)" fill="#acc0f8" style="mix-blend-mode: soft-light;isolation: isolate"/>
        </g>
      </g>
      <g id="Group_1543" data-name="Group 1543" transform="translate(478.958 255.342)">
        <path id="Path_1628" data-name="Path 1628" d="M629.349,1179.882c1.734-17.493,6.074-60.942,7.022-67.292,1.191-7.982,10.972-6.22,10.972-6.22l2.094,80.772H635.8a6.429,6.429,0,0,1-4.809-2.175A6.668,6.668,0,0,1,629.349,1179.882Z" transform="translate(-629.317 -1098.978)" fill="#e1c42b"/>
        <path id="Path_1629" data-name="Path 1629" d="M940.616,1190.268a7.712,7.712,0,0,0,7.547-7.874l-1.391-65.573a6.8,6.8,0,0,0-6.592-6.648l-95.171-2.823a5.01,5.01,0,0,0-5.159,5.024l.228,75.183a4.756,4.756,0,0,0,4.857,4.741Z" transform="translate(-830.253 -1100.07)" fill="#fee279"/>
        <g id="Group_1540" data-name="Group 1540" transform="translate(13.282 11.725)">
          <path id="Path_1630" data-name="Path 1630" d="M1023.894,1277.867a2.24,2.24,0,0,0,2.18-2.588c-1.4-8.929-5.813-39.641-4.4-65.142a2.072,2.072,0,0,0-2-2.189l-95.6-3.05a2.384,2.384,0,0,0-2.459,2.292c-.407,10.721-1.921,54.87.06,70.563a1.888,1.888,0,0,0,1.9,1.65Z" transform="translate(-920.68 -1204.898)" fill="#bdd0fb"/>
          <path id="Path_1631" data-name="Path 1631" d="M1052.283,1313.369a2.156,2.156,0,0,0,2.1-2.49c-1.351-8.593-5.594-38.149-4.233-62.689a1.993,1.993,0,0,0-1.925-2.107l-92-2.935a2.294,2.294,0,0,0-2.366,2.206c-.391,10.317-1.849,52.8.058,67.906a1.818,1.818,0,0,0,1.833,1.588Z" transform="translate(-951.484 -1241.404)" fill="#acc0f8"/>
        </g>
        <path id="Path_1632" data-name="Path 1632" d="M1673.184,1606.129l.14,6.626a1.811,1.811,0,0,1-1.8,1.85l-6.8.038a1.812,1.812,0,0,1-1.821-1.773l-.148-6.966a1.811,1.811,0,0,1,1.891-1.848l6.8.3A1.812,1.812,0,0,1,1673.184,1606.129Z" transform="translate(-1615.648 -1574.134)" fill="#fff" opacity="0.72"/>
        <path id="Path_1633" data-name="Path 1633" d="M2229.65,1635.181l-6.8.039a1.812,1.812,0,0,1-1.821-1.773l-.126-5.925a1.812,1.812,0,0,1,1.876-1.849l6.8.244a1.811,1.811,0,0,1,1.746,1.772l.12,5.642A1.811,1.811,0,0,1,2229.65,1635.181Z" transform="translate(-2148.353 -1594.766)" fill="#fff" opacity="0.72"/>
        <path id="Path_1634" data-name="Path 1634" d="M2241.1,2480.4l6.465-.063a1.977,1.977,0,0,1,2,1.935l.129,6.054a1.977,1.977,0,0,1-1.893,2.017l-6.46.274a1.977,1.977,0,0,1-2.06-1.933l-.133-6.265A1.977,1.977,0,0,1,2241.1,2480.4Z" transform="translate(-2165.757 -2410.467)" fill="#fff" opacity="0.72"/>
        <path id="Path_1635" data-name="Path 1635" d="M2518.041,2485.588l-.126-5.919a1.943,1.943,0,0,1,1.924-1.984l6.533-.063a1.943,1.943,0,0,1,1.962,1.9l.121,5.707a1.943,1.943,0,0,1-1.86,1.982l-6.528.276A1.943,1.943,0,0,1,2518.041,2485.588Z" transform="translate(-2431.823 -2407.879)" fill="#fff" opacity="0.72"/>
        <path id="Path_1636" data-name="Path 1636" d="M2506.077,1919.729l-.1-4.859a2.091,2.091,0,0,1,2.094-2.135l6.239.011a2.091,2.091,0,0,1,2.086,2.047l.1,4.644a2.091,2.091,0,0,1-2.022,2.134l-6.233.2A2.091,2.091,0,0,1,2506.077,1919.729Z" transform="translate(-2420.426 -1868.742)" fill="#fff" opacity="0.72"/>
        <path id="Path_1637" data-name="Path 1637" d="M2511.506,2174.408l-.157-7.432a1.943,1.943,0,0,1,1.879-1.983l6.38-.209a2.091,2.091,0,0,1,2.159,2.046l.159,7.5a1.943,1.943,0,0,1-1.942,1.984h-6.534A1.943,1.943,0,0,1,2511.506,2174.408Z" transform="translate(-2425.555 -2109.302)" fill="#fff" opacity="0.72"/>
        <path id="Path_1638" data-name="Path 1638" d="M1950.605,1625.685l-6.8.038a1.811,1.811,0,0,1-1.821-1.773l-.137-6.453a1.812,1.812,0,0,1,1.876-1.849l6.8.245a1.811,1.811,0,0,1,1.746,1.772l.131,6.171A1.811,1.811,0,0,1,1950.605,1625.685Z" transform="translate(-1882.019 -1585.198)" fill="#fff" opacity="0.72"/>
        <path id="Path_1639" data-name="Path 1639" d="M2232.858,2183l-.147-6.951a1.977,1.977,0,0,1,1.912-2.018l6.462-.212a1.977,1.977,0,0,1,2.041,1.934l.152,7.162a1.977,1.977,0,0,1-1.977,2.019h-6.466A1.977,1.977,0,0,1,2232.858,2183Z" transform="translate(-2159.619 -2117.927)" fill="#fff" opacity="0.72"/>
        <path id="Path_1640" data-name="Path 1640" d="M1949.486,1911.7l7.422.013a1.5,1.5,0,0,1,1.5,1.468l.142,6.684a1.5,1.5,0,0,1-1.45,1.531l-7.416.243a1.5,1.5,0,0,1-1.548-1.467l-.147-6.94A1.5,1.5,0,0,1,1949.486,1911.7Z" transform="translate(-1887.872 -1867.758)" fill="#fff" opacity="0.72"/>
        <path id="Path_1641" data-name="Path 1641" d="M1679.726,1913.07l.135,6.366a1.885,1.885,0,0,1-1.823,1.924l-6.646.217a1.885,1.885,0,0,1-1.946-1.843l-.14-6.6a1.885,1.885,0,0,1,1.888-1.925l6.651.012A1.884,1.884,0,0,1,1679.726,1913.07Z" transform="translate(-1621.898 -1867.292)" fill="#fff" opacity="0.72"/>
        <path id="Path_1642" data-name="Path 1642" d="M2235.94,1921.463l-7.417.243a1.5,1.5,0,0,1-1.548-1.467l-.138-6.5a1.5,1.5,0,0,1,1.5-1.531l7.422.013a1.5,1.5,0,0,1,1.5,1.468l.133,6.245A1.5,1.5,0,0,1,2235.94,1921.463Z" transform="translate(-2154.014 -1868.239)" fill="#fff" opacity="0.72"/>
        <path id="Path_1643" data-name="Path 1643" d="M1955.971,2183.154l6.461-.211a1.977,1.977,0,0,1,2.041,1.934l.143,6.748a1.978,1.978,0,0,1-1.976,2.019h-6.466a1.977,1.977,0,0,1-1.977-1.935l-.139-6.537A1.977,1.977,0,0,1,1955.971,2183.154Z" transform="translate(-1893.669 -2126.633)" fill="#fff" opacity="0.72"/>
        <path id="Path_1644" data-name="Path 1644" d="M1677,2192.128l6.914-.226a1.751,1.751,0,0,1,1.807,1.713l.144,6.793a1.751,1.751,0,0,1-1.75,1.788h-6.919a1.751,1.751,0,0,1-1.751-1.714l-.139-6.568A1.751,1.751,0,0,1,1677,2192.128Z" transform="translate(-1627.621 -2135.183)" fill="#fff" opacity="0.72"/>
        <path id="Path_1645" data-name="Path 1645" d="M2507.906,1643.085l-5.158.029a2.512,2.512,0,0,1-2.525-2.458l-.09-4.256a2.238,2.238,0,0,1,2.318-2.284l5.74.206a2.459,2.459,0,0,1,2.37,2.4l.075,3.554A2.746,2.746,0,0,1,2507.906,1643.085Z" transform="translate(-2414.85 -1602.824)" fill="#fff" opacity="0.72"/>
        <path id="Path_1646" data-name="Path 1646" d="M2796.774,2477.952a2.091,2.091,0,0,1,2.07-2.135l2.247-.022a2.889,2.889,0,0,1,3.134,2.534l.087,4.114a2.882,2.882,0,0,1-2.988,2.663l-2.413.1a1.943,1.943,0,0,1-2.024-1.9Z" transform="translate(-2697.969 -2406.136)" fill="#fff" opacity="0.72"/>
        <path id="Path_1647" data-name="Path 1647" d="M1146.65,2491.193l4.419-.043a1.978,1.978,0,0,1,2,1.937l.164,7.708a1.979,1.979,0,0,1-1.895,2.019l-4.4.186a2.913,2.913,0,0,1-3.257-2.531l-.14-6.61A2.906,2.906,0,0,1,1146.65,2491.193Z" transform="translate(-1120.098 -2420.792)" fill="#fff" opacity="0.72"/>
        <path id="Path_1648" data-name="Path 1648" d="M2794.514,2170.343h-2.193a2.091,2.091,0,0,1-2.091-2.047l-.16-7.555a2.091,2.091,0,0,1,2.022-2.134l2.208-.073a2.907,2.907,0,0,1,3.22,2.532l.14,6.61A2.913,2.913,0,0,1,2794.514,2170.343Z" transform="translate(-2691.57 -2103.336)" fill="#fff" opacity="0.72"/>
        <path id="Path_1649" data-name="Path 1649" d="M2789.1,1921.746l-2.761.09a1.581,1.581,0,0,1-1.633-1.547l-.116-5.457a1.581,1.581,0,0,1,1.583-1.615l2.789.005a2.88,2.88,0,0,1,3.091,2.534l.07,3.326A2.889,2.889,0,0,1,2789.1,1921.746Z" transform="translate(-2686.342 -1869.203)" fill="#fff" opacity="0.72"/>
        <path id="Path_1650" data-name="Path 1650" d="M1127.59,1585.44l4.431.159a1.884,1.884,0,0,1,1.817,1.843l.161,7.614a1.884,1.884,0,0,1-1.873,1.924l-4.563.026a2.886,2.886,0,0,1-3.119-2.534l-.135-6.369A2.939,2.939,0,0,1,1127.59,1585.44Z" transform="translate(-1101.745 -1556.366)" fill="#fff" opacity="0.72"/>
        <path id="Path_1651" data-name="Path 1651" d="M1962.312,2483.1l6.465-.063a1.977,1.977,0,0,1,2,1.935l.137,6.469a1.977,1.977,0,0,1-1.893,2.017l-6.46.273a1.977,1.977,0,0,1-2.06-1.933l-.142-6.679A1.977,1.977,0,0,1,1962.312,2483.1Z" transform="translate(-1899.678 -2413.047)" fill="#fff" opacity="0.72"/>
        <path id="Path_1652" data-name="Path 1652" d="M1134.354,1910.293l4.491.008a1.885,1.885,0,0,1,1.881,1.845l.154,7.243a1.885,1.885,0,0,1-1.823,1.924l-4.51.148a2.906,2.906,0,0,1-3.22-2.532l-.127-5.969A2.914,2.914,0,0,1,1134.354,1910.293Z" transform="translate(-1108.322 -1866.413)" fill="#fff" opacity="0.72"/>
        <path id="Path_1653" data-name="Path 1653" d="M1140.655,2210.294l4.688-.154a1.751,1.751,0,0,1,1.808,1.713l.126,5.965a1.751,1.751,0,0,1-1.75,1.788h-4.71a2.882,2.882,0,0,1-3.1-2.534l-.087-4.114A2.889,2.889,0,0,1,1140.655,2210.294Z" transform="translate(-1114.459 -2152.591)" fill="#fff" opacity="0.72"/>
        <path id="Path_1654" data-name="Path 1654" d="M1407.066,2202.735l.135,6.379a1.75,1.75,0,0,1-1.75,1.788h-6.919a1.751,1.751,0,0,1-1.751-1.714l-.13-6.153a1.751,1.751,0,0,1,1.693-1.787l6.914-.226A1.751,1.751,0,0,1,1407.066,2202.735Z" transform="translate(-1361.672 -2143.888)" fill="#fff" opacity="0.72"/>
        <path id="Path_1655" data-name="Path 1655" d="M1404.739,2488.509l6.461-.062a1.978,1.978,0,0,1,2,1.936l.155,7.294a1.978,1.978,0,0,1-1.894,2.019l-6.457.273a1.978,1.978,0,0,1-2.062-1.935l-.159-7.5A1.979,1.979,0,0,1,1404.739,2488.509Z" transform="translate(-1367.521 -2418.21)" fill="#fff" opacity="0.72"/>
        <path id="Path_1656" data-name="Path 1656" d="M2783.279,1652.084l-2.7.015a1.581,1.581,0,0,1-1.59-1.548l-.113-5.337a1.581,1.581,0,0,1,1.637-1.614l2.865.1a2.855,2.855,0,0,1,2.963,2.532l.067,3.183A2.909,2.909,0,0,1,2783.279,1652.084Z" transform="translate(-2680.883 -1611.876)" fill="#fff" opacity="0.72"/>
        <path id="Path_1657" data-name="Path 1657" d="M1683.528,2485.826l6.353-.062a2.088,2.088,0,0,1,2.108,2.044l.144,6.771a1.979,1.979,0,0,1-1.895,2.019l-6.457.273a1.979,1.979,0,0,1-2.062-1.935l-.15-7.09A1.979,1.979,0,0,1,1683.528,2485.826Z" transform="translate(-1633.601 -2415.651)" fill="#fff" opacity="0.72"/>
        <path id="Path_1658" data-name="Path 1658" d="M1394.152,1595.818l.15,7.085a1.884,1.884,0,0,1-1.873,1.924l-6.65.037a1.884,1.884,0,0,1-1.895-1.844l-.156-7.362a1.885,1.885,0,0,1,1.952-1.923l6.656.239A1.885,1.885,0,0,1,1394.152,1595.818Z" transform="translate(-1349.338 -1564.285)" fill="#fff" opacity="0.72"/>
        <path id="Path_1659" data-name="Path 1659" d="M1400.87,1912.567l.144,6.8a1.885,1.885,0,0,1-1.823,1.924l-6.646.218a1.884,1.884,0,0,1-1.946-1.844l-.149-7.034a1.885,1.885,0,0,1,1.888-1.924l6.651.012A1.885,1.885,0,0,1,1400.87,1912.567Z" transform="translate(-1355.754 -1866.812)" fill="#fff" opacity="0.72"/>
        <path id="Path_1660" data-name="Path 1660" d="M2820.66,1483.873l-.306,2.244a1.474,1.474,0,0,1-1.429,1.274l-.106,0a1.474,1.474,0,0,1-1.5-1.442l-.048-2.3a1.474,1.474,0,0,1,1.635-1.5l.46.051A1.474,1.474,0,0,1,2820.66,1483.873Z" transform="translate(-2717.527 -1457.786)" fill="#fff" opacity="0.72"/>
        <path id="Path_1661" data-name="Path 1661" d="M2592.206,1471.2l-.307,2.244a1.473,1.473,0,0,1-1.429,1.274l-.106,0a1.474,1.474,0,0,1-1.5-1.442l-.049-2.3a1.474,1.474,0,0,1,1.635-1.5l.461.051A1.474,1.474,0,0,1,2592.206,1471.2Z" transform="translate(-2499.487 -1445.694)" fill="#fff" opacity="0.72"/>
        <path id="Path_1662" data-name="Path 1662" d="M2311.122,1475.073l-.306,2.244a1.474,1.474,0,0,1-1.429,1.274l-.106,0a1.473,1.473,0,0,1-1.5-1.442l-.049-2.3a1.474,1.474,0,0,1,1.635-1.5l.461.051A1.474,1.474,0,0,1,2311.122,1475.073Z" transform="translate(-2231.216 -1449.387)" fill="#fff" opacity="0.72"/>
        <path id="Path_1663" data-name="Path 1663" d="M2037.267,1462.808l-.306,2.244a1.474,1.474,0,0,1-1.429,1.274l-.106,0a1.474,1.474,0,0,1-1.5-1.442l-.049-2.3a1.474,1.474,0,0,1,1.635-1.5l.461.051A1.474,1.474,0,0,1,2037.267,1462.808Z" transform="translate(-1969.845 -1437.681)" fill="#fff" opacity="0.72"/>
        <path id="Path_1664" data-name="Path 1664" d="M1755.988,1427.041l-.306,2.244a1.474,1.474,0,0,1-1.429,1.274l-.106,0a1.474,1.474,0,0,1-1.5-1.442l-.049-2.3a1.474,1.474,0,0,1,1.635-1.5l.461.051A1.474,1.474,0,0,1,1755.988,1427.041Z" transform="translate(-1701.388 -1403.545)" fill="#fff" opacity="0.72"/>
        <path id="Path_1665" data-name="Path 1665" d="M1458.018,1433.362l-.306,2.244a1.474,1.474,0,0,1-1.429,1.274l-.106,0a1.473,1.473,0,0,1-1.5-1.442l-.049-2.3a1.474,1.474,0,0,1,1.635-1.5l.461.051A1.474,1.474,0,0,1,1458.018,1433.362Z" transform="translate(-1417.001 -1409.577)" fill="#fff" opacity="0.72"/>
        <path id="Path_1666" data-name="Path 1666" d="M1206.508,1428.095l-.306,2.244a1.473,1.473,0,0,1-1.429,1.274l-.106,0a1.474,1.474,0,0,1-1.5-1.442l-.049-2.3a1.474,1.474,0,0,1,1.635-1.5l.461.051A1.474,1.474,0,0,1,1206.508,1428.095Z" transform="translate(-1176.957 -1404.55)" fill="#fff" opacity="0.72"/>
        <g id="Group_1541" data-name="Group 1541" transform="translate(9.356 19.594)">
          <path id="Path_1667" data-name="Path 1667" d="M834.8,1957.938a.241.241,0,0,0,.241-.24l.293-42.334a.242.242,0,0,0-.24-.243h0a.241.241,0,0,0-.242.24l-.293,42.335a.241.241,0,0,0,.24.243Z" transform="translate(-834.557 -1890.615)" fill="#bdd0fb"/>
          <path id="Path_1668" data-name="Path 1668" d="M842.706,1392.8a.241.241,0,0,0,.241-.24l.1-14.786a.241.241,0,0,0-.24-.243h0a.241.241,0,0,0-.241.24l-.1,14.785a.241.241,0,0,0,.24.243Z" transform="translate(-842.104 -1377.532)" fill="#bdd0fb"/>
        </g>
        <circle id="Ellipse_142" data-name="Ellipse 142" cx="2.579" cy="2.579" r="2.579" transform="translate(97.464 21.787) rotate(-76.718)" fill="url(#linear-gradient)"/>
        <circle id="Ellipse_143" data-name="Ellipse 143" cx="2.579" cy="2.579" r="2.579" transform="translate(75.785 19.671) rotate(-45)" fill="url(#linear-gradient-2)"/>
        <circle id="Ellipse_144" data-name="Ellipse 144" cx="2.579" cy="2.579" r="2.579" transform="matrix(0.973, -0.23, 0.23, 0.973, 54.997, 17.058)" fill="url(#linear-gradient-3)"/>
        <circle id="Ellipse_145" data-name="Ellipse 145" cx="2.579" cy="2.579" r="2.579" transform="translate(33.92 15.976) rotate(-11.599)" fill="url(#linear-gradient-4)"/>
        <g id="Group_1542" data-name="Group 1542" transform="translate(28.257 0)">
          <path id="Path_1669" data-name="Path 1669" d="M1255.926,947.8c4.341.947,3.931,12.367,3.582,17a2.089,2.089,0,0,1-2.085,1.933,1.072,1.072,0,0,1-1.063-1.187c.375-3.5,1.173-13.6-2.023-14.135,0,0-2.292-.406-2.678,4.034h-2.48S1250.469,946.612,1255.926,947.8Z" transform="translate(-1249.179 -947.693)" fill="url(#linear-gradient-5)"/>
          <path id="Path_1670" data-name="Path 1670" d="M1719.552,960.684c4.341.947,3.931,12.371,3.582,17.007a2.091,2.091,0,0,1-2.085,1.935,1.071,1.071,0,0,1-1.063-1.186c.375-3.5,1.173-13.6-2.023-14.143,0,0-2.292-.317-2.678,4.027h-2.48S1714.095,959.493,1719.552,960.684Z" transform="translate(-1691.671 -959.986)" fill="url(#linear-gradient-5)"/>
          <path id="Path_1671" data-name="Path 1671" d="M2183.177,973.626c4.341.947,3.931,12.374,3.582,17.01a2.093,2.093,0,0,1-2.085,1.936,1.069,1.069,0,0,1-1.063-1.185c.375-3.5,1.173-13.609-2.023-14.148,0,0-2.291-.258-2.677,4.108l-2.481-.086S2177.72,972.435,2183.177,973.626Z" transform="translate(-2134.161 -972.338)" fill="url(#linear-gradient-5)"/>
          <path id="Path_1672" data-name="Path 1672" d="M2646.8,988.591c4.341.947,3.932,12.38,3.582,17.016a2.1,2.1,0,0,1-2.085,1.939,1.067,1.067,0,0,1-1.063-1.182c.375-3.5,1.172-13.62-2.023-14.16,0,0-2.292-.334-2.677,4.01h-2.48S2641.345,987.4,2646.8,988.591Z" transform="translate(-2576.652 -986.621)" fill="url(#linear-gradient-5)"/>
        </g>
        <path id="Path_1673" data-name="Path 1673" d="M2502.6,1916.474a2.357,2.357,0,0,1-2.354-2.307l-.1-4.859a2.356,2.356,0,0,1,2.356-2.407h0l6.238.011a2.371,2.371,0,0,1,2.352,2.307l.1,4.644a2.365,2.365,0,0,1-2.279,2.406l-6.234.2Zm-.1-9.041a1.825,1.825,0,0,0-1.824,1.864l.1,4.859a1.825,1.825,0,0,0,1.884,1.785l6.234-.2a1.832,1.832,0,0,0,1.765-1.863l-.1-4.644a1.836,1.836,0,0,0-1.822-1.787l-6.238-.011Z" transform="translate(-2414.859 -1863.175)" fill="url(#linear-gradient-9)"/>
        <path id="Path_1674" data-name="Path 1674" d="M1944.063,1916.343a1.765,1.765,0,0,1-1.763-1.728l-.147-6.94a1.765,1.765,0,0,1,1.765-1.8h0l7.422.013a1.776,1.776,0,0,1,1.762,1.728l.142,6.684a1.772,1.772,0,0,1-1.707,1.8l-7.416.243Zm-.146-9.939a1.233,1.233,0,0,0-1.233,1.259l.147,6.94a1.233,1.233,0,0,0,1.274,1.207l7.416-.242a1.238,1.238,0,0,0,1.193-1.259l-.142-6.684a1.241,1.241,0,0,0-1.231-1.208l-7.422-.013Z" transform="translate(-1882.306 -1862.193)" fill="url(#linear-gradient-10)"/>
        <path id="Path_1675" data-name="Path 1675" d="M2222.906,1916.405a1.765,1.765,0,0,1-1.763-1.728l-.138-6.5a1.765,1.765,0,0,1,1.765-1.8h0l7.422.013a1.776,1.776,0,0,1,1.761,1.728l.133,6.245a1.772,1.772,0,0,1-1.708,1.8l-7.416.243Zm-.136-9.5a1.233,1.233,0,0,0-1.233,1.26l.138,6.5a1.226,1.226,0,0,0,.385.87,1.241,1.241,0,0,0,.889.337l7.416-.243a1.238,1.238,0,0,0,1.193-1.259l-.133-6.245a1.241,1.241,0,0,0-1.231-1.207l-7.421-.013Z" transform="translate(-2148.448 -1862.671)" fill="url(#linear-gradient-11)"/>
      </g>
      <path id="Path_1676" data-name="Path 1676" d="M582.557,2142.345s-5.822,3.226-6.3,8.684-.04,28.115,11.635,33.691,27.129,4.291,33.044,3.682,9.2-4.63,9.928-7.4,1.916-13.079-4.307-16.405-12.759-8.422-19.289-13.383S589.54,2138.155,582.557,2142.345Z" transform="translate(-99.6 -1831.434)" fill="#494e56"/>
      <path id="Path_1677" data-name="Path 1677" d="M1605,2696.174s-1.572.083-1.764,3.316a18.673,18.673,0,0,0,8.566,4.044c.37.058-.516-2.522-.65-2.872C1610.517,2699,1608.521,2697.927,1605,2696.174Z" transform="translate(-1079.881 -2361.127)" fill="#e1c42b"/>
      <path id="Path_1678" data-name="Path 1678" d="M1247.418,2353.7h3.316s10.178-11.24,16.853-12.374c0,0,4.646,5.931-.248,17.014a1.618,1.618,0,0,1-2.316.763,1.327,1.327,0,0,1-.529-.631l.394-9.463s-8.682,7.593-10.191,9.058S1245.518,2358.644,1247.418,2353.7Z" transform="translate(-739.997 -2022.459)" fill="#e1c42b"/>
      <path id="Path_1679" data-name="Path 1679" d="M1791.984,3068.188a12.468,12.468,0,0,0-6.8-2.976l-1.081.661a11.782,11.782,0,0,0,1.949,2.091,13.609,13.609,0,0,0,4.426,1.78C1791.918,3069.936,1792.13,3069.065,1791.984,3068.188Z" transform="translate(-1252.504 -2713.342)" fill="url(#linear-gradient-12)"/>
      <path id="Path_1680" data-name="Path 1680" d="M1611.151,2759.748c-.856.277-1.233,1.49-3.4.688a19.2,19.2,0,0,1-4.468-2.354c-.018.156-.033.32-.044.494a18.657,18.657,0,0,0,8.764,4.432.49.49,0,0,0,.529-.66A12.373,12.373,0,0,0,1611.151,2759.748Z" transform="translate(-1079.881 -2420.213)" fill="url(#linear-gradient-13)"/>
      <path id="Path_1681" data-name="Path 1681" d="M1833.826,3126.843a11.384,11.384,0,0,0-1.047-1.04c.146.877-.066,1.748-1.506,1.556a13.6,13.6,0,0,1-4.426-1.78,9.566,9.566,0,0,0,6.443,2.473A.73.73,0,0,0,1833.826,3126.843Z" transform="translate(-1293.3 -2770.958)" fill="url(#linear-gradient-14)"/>
      <path id="Path_1682" data-name="Path 1682" d="M1116.714,2665.419l15.529.168s8.868,7.337,10.477,18.525c0,0,.267.823-1.336.964a30.783,30.783,0,0,1-8.857-9.693c-4.287-7.592-12.779-4.174-12.779-4.174-2.79-2.012-6.733-2.422-9.7-3.092Z" transform="translate(-609.171 -2331.774)" fill="#e1c42b"/>
      <path id="Path_1683" data-name="Path 1683" d="M1206.976,2391.009s1.672,8.378,9.863,11.692l2.913-.344.688,1.1-6.834.218a18.692,18.692,0,0,1-8.937-8.619C1204.566,2394.844,1202.861,2391.325,1206.976,2391.009Z" transform="translate(-699.067 -2069.873)" fill="url(#linear-gradient-15)"/>
      <path id="Path_1684" data-name="Path 1684" d="M911.156,2235.072a44.742,44.742,0,0,1-2.31-10.188,21.986,21.986,0,0,1,2.26-1.711.629.629,0,0,0,.246-.815,48.4,48.4,0,0,0-4.794-6.595c-1.573-.392-8.027-3.461-12.572,2.756-1.951,2.668.387,10.882,9.237,19.388l1.826.349Z" transform="translate(-402.352 -1901.564)" fill="#ff5858"/>
      <path id="Path_1685" data-name="Path 1685" d="M1064.53,2463.751s5.282,6.254,12.034,7.168c0,0,1.745-1.591,3.043-1.023s3.077,3.075,3.077,3.075h-8.67s-8.2-.289-12.294-5.26C1062.049,2465.971,1063.036,2464.932,1064.53,2463.751Z" transform="translate(-563.05 -2139.299)" fill="url(#linear-gradient-16)"/>
      <path id="Path_1686" data-name="Path 1686" d="M1031.217,2142.616l-1.156,3.854a.423.423,0,0,0,.165.472,4.306,4.306,0,0,0,4.005.4.628.628,0,0,0,.4-.54l.274-3.357Z" transform="translate(-532.818 -1832.803)" fill="url(#linear-gradient-17)"/>
      <g id="Group_1544" data-name="Group 1544" transform="translate(495.271 300.747)">
        <path id="Path_1687" data-name="Path 1687" d="M1044.32,2018.986s-.568,4-2.1,5.224-4.525.3-5.535-2.708l2.012-5.15Z" transform="translate(-1034.425 -2013.042)" fill="url(#linear-gradient-18)"/>
        <path id="Path_1688" data-name="Path 1688" d="M991.221,1950.375a.2.2,0,0,0,.257-.158,5.165,5.165,0,0,1,.474-1.6s-.146-.524,1.325.268,3.681,1.955,4.982,1.262c1.268-.675,2.553-4.074-.8-3.444a.2.2,0,0,1-.235-.207,2.039,2.039,0,0,0-1.316-2.256c-1.218-.386-.564.24-.839.571-.081.1.1-.333-1.628-.081-.594.086-1.356-1.49-2.814-.847-1.2.53-1.388,1.27-1.368,1.731a.2.2,0,0,1-.281.188,1.187,1.187,0,0,0-1.527.453c-.784.982.336,1.833.672,2.057a.2.2,0,0,1,.09.163,6.742,6.742,0,0,0,1.2,3.995.2.2,0,0,0,.332-.057l.86-2.048a.2.2,0,0,1,.244-.112Z" transform="translate(-987.179 -1943.731)" fill="url(#linear-gradient-19)"/>
        <path id="Path_1689" data-name="Path 1689" d="M1042.5,2065.448s-.525-2.138-1.322-1.444.208,2.222,1.121,2.513Z" transform="translate(-1038.44 -2058.389)" fill="url(#linear-gradient-20)"/>
      </g>
      <path id="Path_1690" data-name="Path 1690" d="M1512.046,2377.533l3.893-12.983a1.328,1.328,0,0,1,1.181-.943l5.256-.359a.745.745,0,0,1,.754.99l-4.352,12.4a1.091,1.091,0,0,1-.92.724l-5.176.575Z" transform="translate(-992.849 -2043.376)" fill="url(#linear-gradient-21)"/>
      <path id="Path_1691" data-name="Path 1691" d="M1640.462,2459.133c-.291.587-.793.93-1.121.768s-.359-.77-.069-1.357.792-.93,1.121-.768S1640.752,2458.546,1640.462,2459.133Z" transform="translate(-1114.085 -2133.558)" fill="#91b3fa"/>
      <path id="Path_1692" data-name="Path 1692" d="M1284.751,2653.111h-.026l-11.028-.558a.494.494,0,1,1,.05-.987l11.028.557a.494.494,0,0,1-.025.988Z" transform="translate(-764.917 -2318.551)" fill="url(#linear-gradient-22)"/>
      <path id="Path_1693" data-name="Path 1693" d="M1212.853,2323.728a.087.087,0,0,1-.087-.087,23.411,23.411,0,0,0-.891-5.394.088.088,0,0,1,.168-.049,23.6,23.6,0,0,1,.9,5.443A.087.087,0,0,1,1212.853,2323.728Z" transform="translate(-706.357 -2000.321)" fill="url(#linear-gradient-23)"/>
      <path id="Path_1694" data-name="Path 1694" d="M1053.444,2353.632a.088.088,0,0,1-.069-.033,27.887,27.887,0,0,1-3.265-5.2.087.087,0,0,1,.162-.064,27.694,27.694,0,0,0,3.24,5.154.088.088,0,0,1-.069.142Z" transform="translate(-551.965 -2029.092)" fill="url(#linear-gradient-24)"/>
      <path id="Path_1695" data-name="Path 1695" d="M928.725,2445.88l-.065-.028c-3.49-1.494-5.645-5.661-5.666-5.7a.088.088,0,0,1,.156-.08c.021.041,2.122,4.1,5.515,5.593l.36-.508a.087.087,0,1,1,.143.1Z" transform="translate(-430.639 -2116.652)" fill="url(#linear-gradient-25)"/>
    </g>
  </g>
</svg>
