<svg xmlns="http://www.w3.org/2000/svg" width="178.607" height="164.36" viewBox="0 0 178.607 164.36">
  <g id="Group_1742" data-name="Group 1742" transform="translate(-445 -195)">
    <text id="Notification" transform="translate(490 211)" fill="#494e56" font-size="15" font-family="Arial" font-weight="600"><tspan x="0" y="0">Notification</tspan></text>
    <g id="Group_1741" data-name="Group 1741" transform="translate(261.587 113.375)">
      <path id="Path_2113" data-name="Path 2113" d="M196.119,245.93s-22.087-23.317-8.021-50.735,32.94-13.621,32.037-45.54,43.429-34.646,57.537-25.386,15.351,15.224,44.483,11.546,42.679,23.489,33.105,42.34c-11.182,22.018,22.5,24.151-3.093,67.829Z" transform="translate(0 0)" fill="#f6f5f5"/>
      <g id="Group_1703" data-name="Group 1703" transform="translate(302.802 141.001)" opacity="0.4">
        <path id="Path_2114" data-name="Path 2114" d="M1839.058,430.814a23.142,23.142,0,0,1-.371,4.138,22.977,22.977,0,0,1-43.609,5.162,22.6,22.6,0,0,1-1.17-3.3,23.133,23.133,0,0,1-.27-10.884c0-.018.008-.035.012-.054a23.031,23.031,0,0,1,8.966-13.665q.708-.514,1.457-.974a22.848,22.848,0,0,1,12.015-3.391q.877,0,1.736.065a22.815,22.815,0,0,1,11.377,4.044h0a23.059,23.059,0,0,1,6.3,6.579q.528.834.985,1.713a22.87,22.87,0,0,1,2.57,10.57Z" transform="translate(-1793.117 -407.843)" fill="#ffe975"/>
        <g id="Group_1702" data-name="Group 1702" transform="translate(0.521 3.176)">
          <path id="Path_2115" data-name="Path 2115" d="M1814.792,462.855c-.917,1.452.383,3.973-2.367,3.285s-4.431-.993-4.583.534,2.063,1.528,2.063,3.133-.993,2.135-2.521,1.373-1.967-1.87-3.743-1.183-2.807.229-3.208-1.146a2.007,2.007,0,0,0-.286-.6c0-.018.008-.036.012-.054a23.032,23.032,0,0,1,8.966-13.665q.708-.514,1.457-.974a3.021,3.021,0,0,1,2.3,1.2c1.6,1.987,2.673.993,2.292,3.285s.229,2.6,1.527,2.521,2.827-.077,2.979.917S1815.708,461.4,1814.792,462.855Z" transform="translate(-1800.146 -453.342)" fill="#e1c42b"/>
          <path id="Path_2116" data-name="Path 2116" d="M1978.51,709.316s-2.024.649-2.559-.764.076-1.719-1.719-2.139-1.948-1.642-3.094-1.49-.573.611-1.91,1.6-2.559.535-2.521,2.368,2.024,2.12,2.425,3.323-.286,1.719.573,2.635,2.463.516,1.719,1.776-1.891,2.234-1.318,4.182.172,2.062,1.146,3.438,2.865,1.833,3.151.917-1.318-2.12-.8-3.036,1.375-.286,1.719-1.661,1.738-1.375,1.852-2.33-1.68-2.406-.993-3.017,2.062,1.108,3.132-.42.344-2.75,1.451-4.2S1979.274,708.476,1978.51,709.316Z" transform="translate(-1954.354 -686.054)" fill="#e1c42b"/>
          <path id="Path_2117" data-name="Path 2117" d="M2191.287,596.694a23.165,23.165,0,0,1-.371,4.138,22.85,22.85,0,0,1-3.625,8.812,2.622,2.622,0,0,1-1.837-.049c-2.865-1.146-.745-4.24.4-5.786s-1.776-.859-3.9-2.292.229-5.271-1.948-4.641-4.813,1.432-6.073-.688,1.146-2.463.057-4.239.63-2.807,2.808-2.979,1.89-1.719,4.583-1.948,2.635,3.208,5.615,2.979,2.845.458,2.845.458a1.386,1.386,0,0,1,.622.131A23.013,23.013,0,0,1,2191.287,596.694Z" transform="translate(-2145.867 -576.898)" fill="#e1c42b"/>
          <path id="Path_2118" data-name="Path 2118" d="M2204.072,471.529c-2.477,1.205-3.472-2.073-5.589-1.087-2.135.993-1.761-.917-3.441-2.139s-5.042.993-4.889-.917,2.673-1.375,3.208-2.9,2.979-1.146,2.979-1.146a1.665,1.665,0,0,1,.445-.1s0,0,0,0a23.057,23.057,0,0,1,6.3,6.579Q2203.614,470.649,2204.072,471.529Z" transform="translate(-2161.221 -462.303)" fill="#e1c42b"/>
          <path id="Path_2119" data-name="Path 2119" d="M2020.965,453.3s1.3-1.874-.764-2.426-2.024.171-3.628,0-2.234,1.07-1.031,2.426,2.177,3.958,3.266,2.571S2019.686,453.43,2020.965,453.3Z" transform="translate(-1998.986 -450.658)" fill="#e1c42b"/>
        </g>
      </g>
      <path id="Path_2120" data-name="Path 2120" d="M875.84,642.294v71.5a2.152,2.152,0,0,1-2.017,2.266H770.662a2.152,2.152,0,0,1-2.016-2.266v-71.5a2.152,2.152,0,0,1,2.016-2.266H873.823A2.152,2.152,0,0,1,875.84,642.294Z" transform="translate(-541.827 -481.807)" fill="#fcf3c3"/>
      <g id="Group_1705" data-name="Group 1705" transform="translate(226.819 158.222)">
        <path id="Path_2121" data-name="Path 2121" d="M875.84,642.045v5.4H768.646v-5.4a2.016,2.016,0,0,1,2.016-2.016H873.823A2.016,2.016,0,0,1,875.84,642.045Z" transform="translate(-768.646 -640.029)" fill="#e1c42b"/>
        <g id="Group_1704" data-name="Group 1704" transform="translate(3.279 2.769)">
          <path id="Path_2122" data-name="Path 2122" d="M812.857,678.3a.939.939,0,1,1,.939.939A.939.939,0,0,1,812.857,678.3Z" transform="translate(-812.857 -677.361)" fill="#dfebfd"/>
          <path id="Path_2123" data-name="Path 2123" d="M862.731,678.3a.939.939,0,1,1,.939.939A.939.939,0,0,1,862.731,678.3Z" transform="translate(-859.032 -677.361)" fill="#dfebfd"/>
          <path id="Path_2124" data-name="Path 2124" d="M913.864,678.3a.939.939,0,1,1,.939.939A.939.939,0,0,1,913.864,678.3Z" transform="translate(-906.372 -677.361)" fill="#dfebfd"/>
        </g>
      </g>
      <rect id="Rectangle_627" data-name="Rectangle 627" width="11.306" height="11.306" transform="translate(284.496 211.995)" fill="#ebf3fa" opacity="0.5"/>
      <g id="Group_1706" data-name="Group 1706" transform="translate(285.346 214.26)">
        <path id="Path_2125" data-name="Path 2125" d="M1557.758,1424.9l3.339-6.021,2.455,3.349,1.226-1.34,2.6,4.012Z" transform="translate(-1557.758 -1417.154)" fill="#739af0"/>
        <path id="Path_2126" data-name="Path 2126" d="M1624.238,1396.443a.864.864,0,1,1,.864.864A.864.864,0,0,1,1624.238,1396.443Z" transform="translate(-1619.307 -1395.579)" fill="#739af0"/>
      </g>
      <rect id="Rectangle_628" data-name="Rectangle 628" width="28.188" height="16.339" transform="translate(284.496 191.299)" fill="#ebf3fa" opacity="0.5"/>
      <path id="Path_2127" data-name="Path 2127" d="M1693.448,1139.719v8.371l6.362-4.186Z" transform="translate(-1398.039 -944.436)" fill="#739af0"/>
      <path id="Path_2128" data-name="Path 2128" d="M977.952,838.315a6.762,6.762,0,0,1-1.924,4.735,6.449,6.449,0,0,1-4.624,1.969H895.124a6.92,6.92,0,0,1-7.079-6.7,6.507,6.507,0,0,1,2.08-4.734,7.255,7.255,0,0,1,5-1.969H971.4A6.646,6.646,0,0,1,977.952,838.315Z" transform="translate(-652.371 -659.18)" fill="#ebf3fa"/>
      <path id="Path_2129" data-name="Path 2129" d="M1846.213,838.315a6.762,6.762,0,0,1-1.924,4.735,6.448,6.448,0,0,1-4.624,1.969h-13.8V831.612h13.8A6.646,6.646,0,0,1,1846.213,838.315Z" transform="translate(-1520.632 -659.18)" fill="#ff5858"/>
      <g id="Group_1708" data-name="Group 1708" transform="translate(309.169 174.739)">
        <g id="Group_1707" data-name="Group 1707" transform="translate(4.253 0)">
          <path id="Path_2130" data-name="Path 2130" d="M1939.738,869.56a3.464,3.464,0,0,1-.512-.038,3.417,3.417,0,0,1-1.529-6.125h0a3.417,3.417,0,1,1,2.04,6.163Zm-1.705-5.711a2.854,2.854,0,1,0,3.992.6,2.857,2.857,0,0,0-3.992-.6Z" transform="translate(-1936.316 -862.728)" fill="#fff"/>
        </g>
        <rect id="Rectangle_629" data-name="Rectangle 629" width="0.563" height="4.663" transform="translate(4.981 5.055) rotate(53.492)" fill="#fff"/>
        <path id="Path_2131" data-name="Path 2131" d="M1879.069,953.933h0a.5.5,0,0,1,.1-.7l2.207-1.634a.5.5,0,0,1,.7.1h0a.5.5,0,0,1-.1.7l-2.207,1.634A.5.5,0,0,1,1879.069,953.933Z" transform="translate(-1878.97 -944.914)" fill="#fff"/>
      </g>
      <g id="Group_1711" data-name="Group 1711" transform="translate(245.019 129.762)">
        <g id="Group_1709" data-name="Group 1709" transform="translate(0 0)">
          <path id="Path_2132" data-name="Path 2132" d="M1190.6,740.25a.511.511,0,0,0-.091.546v0a3.394,3.394,0,0,0,1.072,1.177c.065.052.122.1.172.144l.039.035.03.027c.471.435.294.534,1.141,1.416.965,1.005,1.63,1.024,1.82.932.16-.078-.165-.611-.525-1.21l-.053-.087-.143-.241c-.422-.721-.313-1.059-.213-2.132.082-.872,1.358-4.87,1.358-4.87l-1.851-.32s-.558,3.184-1.173,3.674c-.328.261-.7.264-1.012.458l-.066.041A2.429,2.429,0,0,0,1190.6,740.25Z" transform="translate(-1177.386 -700.115)" fill="#ffb27d"/>
          <path id="Path_2133" data-name="Path 2133" d="M1190.6,792.351a.511.511,0,0,0-.091.546v0a3.928,3.928,0,0,0,1.074,1.173c.064.053.12.1.17.147l.039.035.03.027c.471.435.294.534,1.141,1.416.965,1.005,1.63,1.024,1.82.932.16-.078-.165-.611-.525-1.21a4.116,4.116,0,0,1-1.721-1.269c-.56-.715-.94-1.627-1.321-2.186l-.109-.02A2.431,2.431,0,0,0,1190.6,792.351Z" transform="translate(-1177.386 -752.216)" fill="#233862"/>
          <path id="Path_2134" data-name="Path 2134" d="M1375,732.122c.114.571.928.476,1.838.254s.694.042,1.988-.1,1.687-.626,1.727-.818c.035-.171-.6-.231-1.291-.311l-.26-.031a5.6,5.6,0,0,1-2.046-1.008,8.218,8.218,0,0,1-1.661-1.974l-1.776.14s.931,1.416,1.292,2.031a2.146,2.146,0,0,1,.174,1.21A2.281,2.281,0,0,0,1375,732.122Z" transform="translate(-1346.862 -693.138)" fill="#ffb27d"/>
          <path id="Path_2135" data-name="Path 2135" d="M1394.964,770c.91-.222.694.042,1.988-.1s1.687-.625,1.727-.818c.036-.171-.6-.231-1.291-.311l-.006.013a3.651,3.651,0,0,1-1.855.576c-.878.021-1.809-.231-2.415-.221a2.272,2.272,0,0,0,.014.607C1393.24,770.313,1394.054,770.218,1394.964,770Z" transform="translate(-1364.984 -730.758)" fill="#233862"/>
          <path id="Path_2136" data-name="Path 2136" d="M1225.675,593.246l-1.661,4.466-2.169,5.832a3.515,3.515,0,0,1-1.151-.106,4.988,4.988,0,0,1-1.113-.542,63.362,63.362,0,0,1,1.728-9.857,6.4,6.4,0,0,1,.967-2.089C1224.015,588.894,1225.675,593.246,1225.675,593.246Z" transform="translate(-1204.335 -565.619)" fill="#ff5858"/>
          <path id="Path_2137" data-name="Path 2137" d="M1078.587,521.935c-.945-.305-3.411-.006-6.085.477a1.814,1.814,0,0,1-1.873-.846h0l-6.73-.528s-2.223,4.924-1.008,8.063a1.18,1.18,0,0,0,1.176.759h0s4.067.007,5.367.008c3.347,0,7.084-2.3,7.568-2.395.791-.158,1.107,1.424,1.9,3.086s7.434,7.36,7.434,7.36a5.849,5.849,0,0,0,1.443-.148,1.421,1.421,0,0,0,.62-.391S1081.039,522.727,1078.587,521.935Z" transform="translate(-1058.933 -501.403)" fill="#ff5858"/>
          <path id="Path_2138" data-name="Path 2138" d="M1025.37,256.7a2.388,2.388,0,0,0-1.286-.335,3.576,3.576,0,0,1-.621-.038c-2.568-.378-4.117,3.353-4.208,4.48-.167,2.07-1.262,2.385-2.8,3.68-3.091,2.6-2.186,5.618-.5,6.741,1.014.674,2.8,0,2.8,0,.025.018,4.888-2.716,7.285-4.035C1029.635,266.687,1026.813,257.561,1025.37,256.7Z" transform="translate(-1014.382 -256.302)" fill="#233862"/>
          <path id="Path_2139" data-name="Path 2139" d="M1103.256,340.988a3.17,3.17,0,0,1-1.975.06,3.52,3.52,0,0,1-1.3-1.563c.34-.016.714-.313,1-2.266l.145.052,2.437.878s-.177.782-.291,1.527C1103.175,340.3,1103.123,340.9,1103.256,340.988Z" transform="translate(-1093.604 -331.218)" fill="#ffb27d"/>
          <path id="Path_2140" data-name="Path 2140" d="M1117.893,338.8s-.1.422-.239,1.21a2.753,2.753,0,0,1-2.2-2.088Z" transform="translate(-1107.934 -331.867)" fill="#ed975d"/>
          <path id="Path_2141" data-name="Path 2141" d="M1115.211,287s-3.335-.449-3.023-2.521.091-3.526,2.233-3.327,2.436,1.052,2.5,1.769S1116.086,287.059,1115.211,287Z" transform="translate(-1104.889 -279.287)" fill="#ffb27d"/>
          <path id="Path_2142" data-name="Path 2142" d="M1104.86,279.494s-2.135,1.839-3.588,1.987a2.783,2.783,0,0,1-2-.318,5.673,5.673,0,0,0,1.372-1.857,1.022,1.022,0,0,1,.842-.6C1102.521,278.614,1104.487,278.574,1104.86,279.494Z" transform="translate(-1092.95 -277.002)" fill="#233862"/>
          <path id="Path_2143" data-name="Path 2143" d="M1156.64,282.7a5.257,5.257,0,0,1,.939,1.2,4.037,4.037,0,0,1,.109,2.146s1.114-2.163.484-3.215A.889.889,0,0,0,1156.64,282.7Z" transform="translate(-1146.064 -280.373)" fill="#233862"/>
          <path id="Path_2144" data-name="Path 2144" d="M1070.312,373.208c-.1,6.751-.03,5.34-.768,5.98a2.837,2.837,0,0,1-1.337.289c-2.07.137-5.708-.206-5.847-.588-.477-1.324-.14-1.735-.537-3.761-.041-.215-.093-.449-.153-.7-.332-1.392-.655-1.866.524-4.1a17.445,17.445,0,0,1,2.28-3.609c2.819,1.674,3.047.268,3.047.268S1070.363,369.915,1070.312,373.208Z" transform="translate(-1057.854 -358.524)" fill="#afcdfb"/>
          <path id="Path_2145" data-name="Path 2145" d="M1224.014,630.676l-2.169,5.832a3.514,3.514,0,0,1-1.151-.106,4.987,4.987,0,0,1-1.113-.542,63.362,63.362,0,0,1,1.728-9.857Z" transform="translate(-1204.335 -598.583)" fill="#ff5858"/>
          <path id="Path_2146" data-name="Path 2146" d="M1144.388,370.341s2.9.493,3.241,1.742,1.459,8.831,1.459,8.831-.818.8-1.5.117-2.141-7.094-2.141-7.094Z" transform="translate(-1134.72 -361.883)" fill="#afcdfb"/>
          <path id="Path_2147" data-name="Path 2147" d="M1073.949,449.431c-2.07.137-5.708-.206-5.847-.588-.477-1.324-.14-1.735-.537-3.761l1-2.811s-.166,3.131.757,3.954,3.78,1.591,4.228,2.279A2.518,2.518,0,0,1,1073.949,449.431Z" transform="translate(-1063.595 -428.477)" fill="#95b3ef"/>
          <path id="Path_2148" data-name="Path 2148" d="M1121.673,517.115a8.682,8.682,0,0,1,2.372-.273,4.8,4.8,0,0,1,1.235,1.071c.1.23-.734-.175-1.005-.247a2.416,2.416,0,0,0-.867.19,2.883,2.883,0,0,1-1.554.155Z" transform="translate(-1113.69 -497.479)" fill="#ffb27d"/>
          <path id="Path_2149" data-name="Path 2149" d="M1020.662,366.713s-2.742.168-3.692,1.492c-1.337,1.863-3.99,9.8-2.472,10.865,1.71,1.194,7.786.315,7.786.315a2.468,2.468,0,0,0-.079-1.4c-.281-.457-4.852-1.2-5.063-1.408s2.639-4.113,2.639-4.746S1020.662,366.713,1020.662,366.713Z" transform="translate(-1014.043 -358.524)" fill="#afcdfb"/>
          <path id="Path_2150" data-name="Path 2150" d="M1154.981,525.04a3.952,3.952,0,0,0,.568.618.418.418,0,0,0,.231.049l-.288-.519Z" transform="translate(-1144.528 -505.108)" fill="#ffb27d"/>
          <path id="Path_2151" data-name="Path 2151" d="M1153.651,517.376l1.244.6a.222.222,0,0,1-.206.08,2.97,2.97,0,0,1-.54-.148Z" transform="translate(-1143.297 -498.013)" fill="#ffb27d"/>
        </g>
        <g id="Group_1710" data-name="Group 1710" transform="translate(7.982 13.71)">
          <path id="Path_2152" data-name="Path 2152" d="M1134.661,536.517l-12.995,0v.287l12.879,0Z" transform="translate(-1121.667 -529.44)" fill="#233862"/>
          <path id="Path_2153" data-name="Path 2153" d="M1162.637,448.515l9.841,0,2.963-7.36-9.826,0Z" transform="translate(-1159.598 -441.155)" fill="#233862"/>
          <path id="Path_2154" data-name="Path 2154" d="M1249.907,484.952a.341.341,0,0,0-.334-.469.671.671,0,0,0-.6.468.341.341,0,0,0,.334.469A.671.671,0,0,0,1249.907,484.952Z" transform="translate(-1239.511 -481.269)" fill="#fff"/>
        </g>
      </g>
      <path id="Path_2235" data-name="Path 2235" d="M.81,0H18.3a.811.811,0,1,1,0,1.621H.811A.811.811,0,0,1,0,.811H0A.81.81,0,0,1,.81,0Z" transform="translate(238.237 192.827)" fill="#ff5858"/>
      <g id="Group_1713" data-name="Group 1713" transform="translate(238.237 196.596)">
        <path id="Path_2155" data-name="Path 2155" d="M931.915,1189.8h-8.767a.553.553,0,0,1-.553-.553h0a.553.553,0,0,1,.553-.553h8.767a.553.553,0,0,1,.553.553h0A.553.553,0,0,1,931.915,1189.8Z" transform="translate(-922.595 -1186.374)" fill="#739af0"/>
        <g id="Group_1712" data-name="Group 1712" transform="translate(0)">
          <path id="Rectangle_631" data-name="Rectangle 631" d="M.553,0H15.995a.553.553,0,0,1,.553.553v0a.553.553,0,0,1-.553.553H.553A.553.553,0,0,1,0,.553v0A.553.553,0,0,1,.553,0Z" fill="#739af0"/>
          <rect id="Rectangle_632" data-name="Rectangle 632" width="15.452" height="1.106" rx="0.553" transform="translate(18.056)" fill="#739af0"/>
          <path id="Path_2156" data-name="Path 2156" d="M1079.347,1189.8h-8.767a.553.553,0,0,1-.553-.553h0a.553.553,0,0,1,.553-.553h8.767a.553.553,0,0,1,.553.553h0A.553.553,0,0,1,1079.347,1189.8Z" transform="translate(-1059.092 -1186.374)" fill="#739af0"/>
        </g>
      </g>
      <path id="Rectangle_633" data-name="Rectangle 633" d="M.81,0H18.3a.811.811,0,0,1,.811.811v0a.811.811,0,0,1-.811.811H.811A.811.811,0,0,1,0,.811v0A.81.81,0,0,1,.81,0Z" transform="translate(259.873 192.827)" fill="#ff5858"/>
      <path id="Rectangle_634" data-name="Rectangle 634" d="M.811,0H18.3a.811.811,0,0,1,.811.811v0a.81.81,0,0,1-.81.81H.811A.811.811,0,0,1,0,.811v0A.811.811,0,0,1,.811,0Z" transform="translate(238.237 221.852)" fill="#ff5858"/>
      <g id="Group_1715" data-name="Group 1715" transform="translate(238.237 225.621)">
        <path id="Path_2157" data-name="Path 2157" d="M931.915,1581.143h-8.767a.553.553,0,0,1-.553-.553h0a.553.553,0,0,1,.553-.553h8.767a.553.553,0,0,1,.553.553h0A.553.553,0,0,1,931.915,1581.143Z" transform="translate(-922.595 -1577.717)" fill="#739af0"/>
        <g id="Group_1714" data-name="Group 1714" transform="translate(0)">
          <path id="Rectangle_635" data-name="Rectangle 635" d="M.553,0H15.995a.553.553,0,0,1,.553.553v0a.553.553,0,0,1-.553.553H.553A.553.553,0,0,1,0,.553v0A.553.553,0,0,1,.553,0Z" fill="#739af0"/>
          <path id="Rectangle_636" data-name="Rectangle 636" d="M.553,0H14.9a.553.553,0,0,1,.553.553v0a.553.553,0,0,1-.553.553H.553A.553.553,0,0,1,0,.553v0A.553.553,0,0,1,.553,0Z" transform="translate(18.056)" fill="#739af0"/>
          <path id="Path_2158" data-name="Path 2158" d="M1079.347,1581.143h-8.767a.553.553,0,0,1-.553-.553h0a.553.553,0,0,1,.553-.553h8.767a.553.553,0,0,1,.553.553h0A.553.553,0,0,1,1079.347,1581.143Z" transform="translate(-1059.092 -1577.717)" fill="#739af0"/>
        </g>
      </g>
      <path id="Rectangle_637" data-name="Rectangle 637" d="M.811,0H18.3a.811.811,0,0,1,.811.811v0a.81.81,0,0,1-.81.81H.811A.811.811,0,0,1,0,.811v0A.811.811,0,0,1,.811,0Z" transform="translate(259.873 221.852)" fill="#ff5858"/>
      <rect id="Rectangle_638" data-name="Rectangle 638" width="19.107" height="1.621" rx="0.811" transform="translate(238.237 207.339)" fill="#ff5858"/>
      <g id="Group_1717" data-name="Group 1717" transform="translate(238.237 211.108)">
        <path id="Path_2159" data-name="Path 2159" d="M931.915,1385.471h-8.767a.553.553,0,0,1-.553-.553h0a.553.553,0,0,1,.553-.553h8.767a.553.553,0,0,1,.553.553h0A.553.553,0,0,1,931.915,1385.471Z" transform="translate(-922.595 -1382.045)" fill="#739af0"/>
        <g id="Group_1716" data-name="Group 1716" transform="translate(0 0)">
          <path id="Rectangle_639" data-name="Rectangle 639" d="M.553,0H15.995a.553.553,0,0,1,.553.553v0a.553.553,0,0,1-.553.553H.553A.553.553,0,0,1,0,.553v0A.553.553,0,0,1,.553,0Z" fill="#739af0"/>
          <rect id="Rectangle_640" data-name="Rectangle 640" width="15.452" height="1.106" rx="0.553" transform="translate(18.056)" fill="#739af0"/>
          <path id="Path_2160" data-name="Path 2160" d="M1079.347,1385.471h-8.767a.553.553,0,0,1-.553-.553h0a.553.553,0,0,1,.553-.553h8.767a.553.553,0,0,1,.553.553h0A.553.553,0,0,1,1079.347,1385.471Z" transform="translate(-1059.092 -1382.045)" fill="#739af0"/>
        </g>
      </g>
      <rect id="Rectangle_641" data-name="Rectangle 641" width="19.107" height="1.621" rx="0.811" transform="translate(259.873 207.339)" fill="#ff5858"/>
      <g id="Group_1721" data-name="Group 1721" transform="translate(208.205 187.521)">
        <path id="Path_2161" data-name="Path 2161" d="M790.093,1201.628s.2-.451.33-.664.684-.839.778-.7.472,1.094.271,1.361.013.731-.984,1.012Z" transform="translate(-769.888 -1187.995)" fill="#ffb27d"/>
        <path id="Path_2162" data-name="Path 2162" d="M640.662,1180.512s5.105,4.261,7.1,3.867a39.281,39.281,0,0,0,3.946-1.128l.478,1.222s-2.142,2.906-4.376,2.925a12.722,12.722,0,0,1-6.071-1.511Z" transform="translate(-631.54 -1169.724)" fill="#95b3ef"/>
        <path id="Path_2163" data-name="Path 2163" d="M519.942,1776.972s.148,2.391.611,2.425c.062,0,2.346,0,2.346,0l2.916-.017a.946.946,0,0,0-.872-.851,3.953,3.953,0,0,1-2.8-1.874C521.6,1775.474,519.942,1776.972,519.942,1776.972Z" transform="translate(-519.774 -1721.234)" fill="#1c4b8e"/>
        <path id="Path_2164" data-name="Path 2164" d="M517.676,1420.373a6.081,6.081,0,0,0,1.579.3,5.8,5.8,0,0,0,1.474-.21,40.334,40.334,0,0,1,1.085-5.17c.482-1.864,1.169-4.261,2.147-7.239a98.023,98.023,0,0,0,3.6-13.5c0-.024.006-.036.006-.036l-.009,0-8.316-3.651s1.028,11.344-.283,15.7a18.314,18.314,0,0,0-.476,2.086A83.608,83.608,0,0,0,517.676,1420.373Z" transform="translate(-517.676 -1364.469)" fill="#ff5858"/>
        <path id="Path_2165" data-name="Path 2165" d="M537.754,1415.288c.482-1.864,1.169-4.261,2.147-7.239a98.027,98.027,0,0,0,3.6-13.5c0-.014,0-.026,0-.04l-8.316-3.651s1.028,11.344-.284,15.7C534.717,1407.163,537.754,1415.288,537.754,1415.288Z" transform="translate(-533.616 -1364.469)" fill="#ff5858"/>
        <path id="Path_2166" data-name="Path 2166" d="M607.517,1776.972s.148,2.391.611,2.425c.062,0,2.346,0,2.346,0l2.916-.017a.946.946,0,0,0-.872-.851,3.953,3.953,0,0,1-2.8-1.874C609.18,1775.474,607.517,1776.972,607.517,1776.972Z" transform="translate(-600.854 -1721.234)" fill="#1c4b8e"/>
        <path id="Path_2167" data-name="Path 2167" d="M560.716,1394.461a118.406,118.406,0,0,1-1.164,16.376c-1.272,9.026-.841,12.857-.841,12.857a8.655,8.655,0,0,1-1.226.312,5.568,5.568,0,0,1-1.82-.211s-1.82-9.029-1.3-13.546-2.493-15.5-2.493-15.5Z" transform="translate(-549.338 -1367.805)" fill="#ff5858"/>
        <path id="Path_2168" data-name="Path 2168" d="M591.582,1117.171l1.623,1.065,1.479-.418a3.532,3.532,0,0,0,.346-1.773,11.051,11.051,0,0,0-.058-1.181l-2.19-.967-.817-.36c0,.013.064.671.072.767A5.59,5.59,0,0,1,591.582,1117.171Z" transform="translate(-586.101 -1107.717)" fill="#ffb27d"/>
        <path id="Path_2169" data-name="Path 2169" d="M543.657,1174.078c-2.021,1.951-9.667,1.623-10.139-.527s.514-18.3,3.965-19.311c.716-.211,4.545,1.027,4.545,1.027a24.279,24.279,0,0,1,.995,3.573c.076.39.3,4.516.467,8.376.078,1.806.144,3.553.178,4.833A13.981,13.981,0,0,1,543.657,1174.078Z" transform="translate(-532.241 -1145.379)" fill="#afcdfb"/>
        <path id="Path_2170" data-name="Path 2170" d="M599.143,1118.827c.444.751,2,1.409,2.829,1.71a11.052,11.052,0,0,0-.058-1.181l-2.19-.967C599.24,1118.383,598.945,1118.491,599.143,1118.827Z" transform="translate(-593.043 -1112.209)" fill="#fca56b"/>
        <path id="Path_2171" data-name="Path 2171" d="M586.992,1057.128s-3.529,1.1-4.18-1.107-1.546-3.553.679-4.349,2.914-.083,3.311.6S587.893,1056.785,586.992,1057.128Z" transform="translate(-577.295 -1050.115)" fill="#ffb27d"/>
        <path id="Path_2172" data-name="Path 2172" d="M567.5,1037.01s-.225,2.57-.756,2.458-1.116-.35-1.039.425-.517,2.1-1.283,2.1c-1.643-.007-3.429-4.224-2.979-5.023C562.74,1034.661,569.375,1034.2,567.5,1037.01Z" transform="translate(-558.131 -1035.065)" fill="#163560"/>
        <path id="Path_2173" data-name="Path 2173" d="M591.962,1141.767a16.239,16.239,0,0,0-2.929-1.078c-.3.1-.678,1.022-.678,1.022l4.546,1.028A2.258,2.258,0,0,0,591.962,1141.767Z" transform="translate(-583.113 -1132.849)" fill="#95b3ef"/>
        <g id="Group_1719" data-name="Group 1719" transform="translate(9.096 1.627)">
          <path id="Path_2174" data-name="Path 2174" d="M656.144,1306.631l-14.471,13.624c-.284.267-.641.352-.795.189l-.488-.519c-.154-.163-.047-.515.237-.782l14.471-13.624c.284-.267.641-.352.795-.189l.488.519C656.534,1306.012,656.427,1306.364,656.144,1306.631Z" transform="translate(-640.319 -1286.835)" fill="#1f4d84"/>
          <path id="Path_2175" data-name="Path 2175" d="M648.023,1413.111l-6.35,5.979c-.284.267-.641.352-.795.189l-.488-.519c-.154-.163-.047-.515.237-.782l6.35-5.979Z" transform="translate(-640.319 -1385.67)" fill="#739af0"/>
          <path id="Path_2176" data-name="Path 2176" d="M802.691,1071.656a11.342,11.342,0,1,0,18.8-11.4c-.058-.058-.118-.115-.178-.172a11.343,11.343,0,0,0-18.621,11.57Zm3.242-10.468a10.447,10.447,0,1,1,.45,14.767A10.434,10.434,0,0,1,805.933,1061.188Z" transform="translate(-790.193 -1057.005)" fill="#1f4d84"/>
          <g id="Group_1718" data-name="Group 1718" transform="translate(12.901 0.896)" opacity="0.5">
            <path id="Path_2177" data-name="Path 2177" d="M832.323,1086.684a10.447,10.447,0,1,1-.45-14.766A10.4,10.4,0,0,1,832.323,1086.684Z" transform="translate(-814.268 -1069.08)" fill="#b3cff9"/>
          </g>
        </g>
        <path id="Path_2178" data-name="Path 2178" d="M580.318,1229.1c-7.973-5.682-7.31-13.263-7.31-13.263a19,19,0,0,1,7.133,8.43C580.218,1226.069,580.284,1227.817,580.318,1229.1Z" transform="translate(-568.891 -1202.426)" fill="#95b3ef"/>
        <g id="Group_1720" data-name="Group 1720" transform="translate(3.95 9.889)">
          <path id="Path_2179" data-name="Path 2179" d="M765.927,1351.922a2.175,2.175,0,0,0,1.018-.629s.24.016-.039.528c-.023.043-.075.153-.114.231a.049.049,0,0,0,.042.071,5.3,5.3,0,0,1,1.276.027c.086.018.111.224.108.313a.8.8,0,0,1-.168.544,2.784,2.784,0,0,1-1.007.528,3.045,3.045,0,0,1-1.559-.2l-.51-.236.158-.949.128.027C765.462,1352.223,765.714,1351.974,765.927,1351.922Z" transform="translate(-750.581 -1337.728)" fill="#ffb27d"/>
          <path id="Path_2180" data-name="Path 2180" d="M573.575,1168.4s-7.164,1.364,2.108,11.739c1.483,1.659,9.495,3.82,9.495,3.82s.813-.691.4-1.251c0,0-5.516-4.006-6.73-4.642-.546-.286-2.119-6.394-3.009-7.865A4.012,4.012,0,0,0,573.575,1168.4Z" transform="translate(-570.934 -1168.397)" fill="#afcdfb"/>
        </g>
        <path id="Path_2181" data-name="Path 2181" d="M792.711,1198.776a3.643,3.643,0,0,0,.28-.684,3.778,3.778,0,0,1,.462-1.047c.049-.049.209.014.228.223a1.212,1.212,0,0,1-.115.453,5.118,5.118,0,0,0-.152.9C793.3,1198.983,792.711,1198.776,792.711,1198.776Z" transform="translate(-772.312 -1185.017)" fill="#ffb27d"/>
      </g>
      <g id="Group_1722" data-name="Group 1722" transform="translate(316.801 183.882)">
        <path id="Path_2182" data-name="Path 2182" d="M1989.466,989.716l-4.056.944-2.006,3.65-1.531-8.317Z" transform="translate(-1981.873 -985.993)" fill="#233862"/>
        <rect id="Rectangle_642" data-name="Rectangle 642" width="0.741" height="4.29" transform="matrix(0.797, -0.604, 0.604, 0.797, 2.725, 4.314)" fill="#233862"/>
      </g>
      <g id="Group_1736" data-name="Group 1736" transform="translate(301.707 203.835)">
        <g id="Group_1729" data-name="Group 1729" transform="translate(0 5.854)">
          <g id="Group_1724" data-name="Group 1724" transform="translate(0 12.298)">
            <path id="Path_2183" data-name="Path 2183" d="M1787.673,1503.827s1.677-1.969.094-3.211a4.482,4.482,0,0,0-2.1-.635s1.34,2.231.91,2.455-1.314-2.593-1.314-2.593a10.6,10.6,0,0,0-3.469.162s2.25,1.83,1.778,1.94-2.9-1.684-2.9-1.684-2.442.424-2.307,1.914.978,1.948,1.348,1.907,2.532-.874,2.58-.571-1.252,1.3-2.164,1.347c0,0,1.729,1.894,2.872,1.342s1.238-1.421,1.951-1.75,1.322-.329,1.028,0-1.584.661-1.99,1.384-.77,1.211.414,1.029,3.106-1.055,3.188-2.047Z" transform="translate(-1778.36 -1499.768)" fill="#82b378"/>
            <g id="Group_1723" data-name="Group 1723" transform="translate(1.206 2.428)">
              <path id="Path_2184" data-name="Path 2184" d="M1794.621,1532.519s6.635-.277,8.107,1.617a4.8,4.8,0,0,0,1.327,1.85l.157.423s-1.154-1.209-1.566-1.281C1802.647,1535.128,1803.283,1532.775,1794.621,1532.519Z" transform="translate(-1794.621 -1532.505)" fill="#82b378"/>
              <path id="Path_2185" data-name="Path 2185" d="M1917.142,1577.369a4.167,4.167,0,0,1,1.533,2.931l-.258.024a6.738,6.738,0,0,0-1.286-2.7C1916.306,1576.862,1917.142,1577.369,1917.142,1577.369Z" transform="translate(-1907.707 -1573.888)" fill="#82b378"/>
            </g>
          </g>
          <g id="Group_1726" data-name="Group 1726" transform="translate(16.443 4.207)">
            <path id="Path_2186" data-name="Path 2186" d="M2001.829,1397.628s-2.682-1.491-1.439-3.53a5.316,5.316,0,0,1,2.065-1.577s-.562,3.036.01,3.106.382-3.428.382-3.428,2.816-1.366,3.923-1.262c0,0-1.74,2.969-1.169,2.9s2.525-3.078,2.525-3.078,2.89-.545,3.359,1.167-.277,2.571-.706,2.68-3.177.081-3.1.438,1.93.922,2.965.6c0,0-1.133,2.824-2.633,2.686s-1.967-1.065-2.9-1.133-1.606.184-1.141.432,2.035.076,2.787.71,1.36,1.026-.031,1.316-3.891.119-4.394-.95Z" transform="translate(-2000.061 -1390.672)" fill="#a8d29f"/>
            <g id="Group_1725" data-name="Group 1725" transform="translate(0.37 1.789)">
              <path id="Path_2187" data-name="Path 2187" d="M2023.426,1414.8s-7.489,2.451-8.337,5.167a5.7,5.7,0,0,1-.706,2.608l0,.536a7.8,7.8,0,0,1,1.207-2.074S2013.907,1418.685,2023.426,1414.8Z" transform="translate(-2013.691 -1414.799)" fill="#82b378"/>
              <path id="Path_2188" data-name="Path 2188" d="M2005.744,1515.461a4.945,4.945,0,0,0-.485,3.894l.3-.081a7.991,7.991,0,0,1,.305-3.539C2006.462,1514.55,2005.744,1515.461,2005.744,1515.461Z" transform="translate(-2005.052 -1507.686)" fill="#82b378"/>
            </g>
          </g>
          <g id="Group_1728" data-name="Group 1728" transform="translate(0.98)">
            <path id="Path_2189" data-name="Path 2189" d="M1804.535,1343.062s3.523-1.988,1.867-4.665a7.006,7.006,0,0,0-2.736-2.062s.765,4,.013,4.094-.532-4.516-.532-4.516-3.723-1.777-5.182-1.631c0,0,2.318,3.9,1.565,3.807s-3.354-4.036-3.354-4.036-3.814-.694-4.419,1.567.387,3.387.952,3.526,4.189.081,4.1.552-2.537,1.231-3.9.812c0,0,1.518,3.713,3.493,3.519s2.584-1.42,3.807-1.518,2.118.229,1.508.56-2.682.116-3.668.959-1.784,1.364.053,1.734,5.13.125,5.784-1.289Z" transform="translate(-1791.57 -1333.953)" fill="#a8d29f"/>
            <g id="Group_1727" data-name="Group 1727" transform="translate(1.932 2.368)">
              <path id="Path_2190" data-name="Path 2190" d="M1817.621,1365.875s9.892,3.169,11.033,6.742a7.508,7.508,0,0,0,.952,3.432l0,.706s-1.043-2.4-1.609-2.724C1828,1374.03,1830.2,1370.917,1817.621,1365.875Z" transform="translate(-1817.621 -1365.875)" fill="#82b378"/>
              <path id="Path_2191" data-name="Path 2191" d="M1973.3,1497.58a6.519,6.519,0,0,1,.671,5.129l-.393-.1s.371-3.1-.431-4.662S1973.3,1497.58,1973.3,1497.58Z" transform="translate(-1961.32 -1487.406)" fill="#82b378"/>
            </g>
          </g>
        </g>
        <g id="Group_1735" data-name="Group 1735" transform="translate(2.973 0)">
          <g id="Group_1734" data-name="Group 1734">
            <g id="Group_1730" data-name="Group 1730" transform="translate(0 11.65)">
              <path id="Path_2192" data-name="Path 2192" d="M1857.671,1442.484H1821.5c-5.043-5.769-3.711-13.562,2.983-20.134a9.5,9.5,0,0,1,4.2-1.826,46.537,46.537,0,0,1,6.876-.953,25.539,25.539,0,0,0,3.073-2.948c3.575-4.328,6.616-3.956,6.616-3.956,3.644-.709,6.752-.917,9.056.365h0c2.135,1.19,3.58,3.66,4.12,8.2.1.859.173,1.791.209,2.8a77.086,77.086,0,0,0,1.29,9.738h0C1860.547,1437.8,1860.988,1440.853,1857.671,1442.484Z" transform="translate(-1818.442 -1412.101)" fill="#ff5858"/>
            </g>
            <path id="Path_2193" data-name="Path 2193" d="M1975.724,1417.661c-2.211,1.2-2.456,5.172-5.916,6.2s-9.335.931-12.667,4.546c-3.214,3.487-6.76-5.385-5.233-7.88a46.541,46.541,0,0,1,6.876-.953,25.509,25.509,0,0,0,3.073-2.948c3.575-4.328,6.616-3.956,6.616-3.956,3.644-.709,6.752-.917,9.056.365h0C1980.069,1415.656,1977.935,1416.457,1975.724,1417.661Z" transform="translate(-1941.67 -1400.451)" fill="#f4904d"/>
            <g id="Group_1733" data-name="Group 1733" transform="translate(4.162)">
              <path id="Path_2194" data-name="Path 2194" d="M1953.462,1701.446a6.946,6.946,0,0,1,.505,2.317,14.871,14.871,0,0,1-.167,2.388c-.255.544-.711,1.336-.27,1.535a6.548,6.548,0,0,0,2.215-1.883,11,11,0,0,1,.562-2.471,1.059,1.059,0,0,0-.482-1.547c-.538-.26-1.292-1.692-1.292-1.692Z" transform="translate(-1947.502 -1667.082)" fill="#f9ddbf"/>
              <path id="Path_2195" data-name="Path 2195" d="M1939.637,1500.551s-10.583-.653-11.947.75c-1.437,1.479.9,16.026.9,16.026s2.87.083,3.1-.678c0,0-.538-7.043-.09-8.262a6.779,6.779,0,0,0,.164-2.9s5.615.839,7.4.412S1939.637,1500.551,1939.637,1500.551Z" transform="translate(-1923.318 -1482.201)" fill="#233862"/>
              <path id="Path_2196" data-name="Path 2196" d="M2046.9,1397.713c0,.009-1.56,3.64-2.321,4.027s-3.515,3.554-4.106,3.5.61.647.61.647,4.9-2.389,5.176-2.528a10.5,10.5,0,0,0,1.956-3.8C2048.418,1398.329,2046.9,1397.713,2046.9,1397.713Z" transform="translate(-2028.017 -1387.13)" fill="#ffb27d"/>
              <path id="Path_2197" data-name="Path 2197" d="M1878.569,1751.64a6.941,6.941,0,0,1-1.109,2.1c-.506.394-1.122,1.465-1.668,1.716s-1.405.562-1.2,1a6.544,6.544,0,0,0,2.907-.009,10.993,10.993,0,0,1,2.024-1.525,1.058,1.058,0,0,0,.63-1.493,5.453,5.453,0,0,1,.1-2.126Z" transform="translate(-1874.563 -1714.489)" fill="#f9ddbf"/>
              <path id="Path_2198" data-name="Path 2198" d="M2138.8,1264c-.226-.261,5.505.383,6.268,3.311,0,0,4.4-3.47.364-6.394a4.192,4.192,0,0,1-1.742-3.082c-.2-.989-1.6-3.831-4.018-2.419a3.149,3.149,0,0,0-1.805.612C2136.279,1257.4,2134.543,1266.167,2138.8,1264Z" transform="translate(-2116.732 -1255.027)" fill="#163560"/>
              <path id="Path_2199" data-name="Path 2199" d="M1938.691,1509.367s-11.506,1.174-12.517,2.349-4.98,16.449-4.98,16.449a2.471,2.471,0,0,0,2.242.042s3.042-5.182,4.389-6.809,1.849-6.649,2.071-6.7,7.433,1,9.916-.9S1938.691,1509.367,1938.691,1509.367Z" transform="translate(-1917.735 -1490.503)" fill="#2a4e96"/>
              <path id="Path_2200" data-name="Path 2200" d="M2095.358,1358.441a11.987,11.987,0,0,0-6.225-.663,2.382,2.382,0,0,0-1.86,1.187c-.718,1.184-1.054,1.819-1.054,1.819s.069.548,1.051.985c-.267.981.245,2.695-.226,3.36s-3.4,2.315-3.539,3.232c-.265,1.685,5,4.738,6.568,4.411C2094.588,1371.832,2097.651,1359.731,2095.358,1358.441Z" transform="translate(-2067.999 -1350.021)" fill="#f9ddbf"/>
              <path id="Path_2201" data-name="Path 2201" d="M2172.556,1267.507a6.405,6.405,0,0,0,.612-1.938c.051-.623-.477-2.867-2.73-2.324a3.114,3.114,0,0,0-1.241.608c-.465.382-1.112,1.173-.124,3.081l.271.651Z" transform="translate(-2146.75 -1262.558)" fill="#163560"/>
              <g id="Group_1731" data-name="Group 1731" transform="translate(20.546 1.563)">
                <path id="Path_2202" data-name="Path 2202" d="M2179.572,1329.881c-.228.24-.138,1.039.928.979.7-.04,2.2-.906,2.06-1.5a7.425,7.425,0,0,1-.732-2.7l-.127.036-2.137.6s.1.679.156,1.323A2.757,2.757,0,0,1,2179.572,1329.881Z" transform="translate(-2177.402 -1322.902)" fill="#ffb27d"/>
                <path id="Path_2203" data-name="Path 2203" d="M2180.736,1327.734s.1.679.156,1.323a2.584,2.584,0,0,0,1.982-1.924Z" transform="translate(-2178.574 -1323.348)" fill="#f4a269"/>
                <path id="Path_2204" data-name="Path 2204" d="M2157.013,1284.606s2.8-.7,2.331-2.439-.418-2.994-2.223-2.618-1.973,1.131-1.958,1.748S2156.274,1284.745,2157.013,1284.606Z" transform="translate(-2154.896 -1279.231)" fill="#ffb27d"/>
                <path id="Path_2205" data-name="Path 2205" d="M2164.326,1276.713a3.93,3.93,0,0,0,2.711,1.981,1.549,1.549,0,0,1,1.321.8,16.289,16.289,0,0,0-.833-3.147S2164.64,1275.589,2164.326,1276.713Z" transform="translate(-2163.381 -1276.095)" fill="#163560"/>
                <path id="Path_2206" data-name="Path 2206" d="M2152.852,1283.963a4.879,4.879,0,0,0-.8,1.066,3.4,3.4,0,0,0,.492,2.323s-1.3-2.208-.868-3.164A.657.657,0,0,1,2152.852,1283.963Z" transform="translate(-2151.586 -1283.109)" fill="#163560"/>
              </g>
              <path id="Path_2207" data-name="Path 2207" d="M2007.577,1499.373s-.557.59-.625.621a3.842,3.842,0,0,1-1.058.129c-.225.057-.186-.083-.02-.2s.574-.069.407-.111a4.525,4.525,0,0,0-1.406-.118,1.264,1.264,0,0,1-.994-.08,4.409,4.409,0,0,1,1.585-.65c.359.021,1.394-.03,1.394-.03Z" transform="translate(-1994.289 -1480.848)" fill="#ffb27d"/>
              <path id="Path_2208" data-name="Path 2208" d="M2192.191,1383.223s3.471,7.834,2.507,8.984-7.635-.245-7.635-.245l.206-.727s4.911-.3,5.261-.4c.5-.142-2.488-5.636-2.488-5.636Z" transform="translate(-2163.886 -1373.715)" fill="#ffb27d"/>
              <path id="Path_2209" data-name="Path 2209" d="M2212.271,1366.823a3.258,3.258,0,0,1,1.866,1.816c.732,1.448,1,2.151,1,2.151s-3.244,2.516-4.535,1.59S2211.081,1366.793,2212.271,1366.823Z" transform="translate(-2185.26 -1358.531)" fill="#f9ddbf"/>
              <path id="Path_2210" data-name="Path 2210" d="M2168.673,1480.343s-.557-.362-.783-.559a2.736,2.736,0,0,0-1.531-.227c0,.132.761.312.845.444s.547.676.944.675A.565.565,0,0,0,2168.673,1480.343Z" transform="translate(-2144.717 -1462.86)" fill="#ffb27d"/>
              <g id="Group_1732" data-name="Group 1732" transform="translate(19.279 14.758)">
                <path id="Path_2211" data-name="Path 2211" d="M2141.548,1458.462l-1.5-.213a.653.653,0,0,1-.506-.417l-.826-2.922c-.056-.2.079-.334.3-.3l1.5.213a.655.655,0,0,1,.507.417l.826,2.922C2141.907,1458.358,2141.772,1458.493,2141.548,1458.462Z" transform="translate(-2138.395 -1454.558)" fill="#1f4a91"/>
                <path id="Path_2212" data-name="Path 2212" d="M2137.349,1457.865l-1.5-.213a.655.655,0,0,1-.507-.417l-.826-2.922c-.056-.2.079-.334.3-.3l1.5.213a.655.655,0,0,1,.507.417l.826,2.922C2137.708,1457.761,2137.573,1457.9,2137.349,1457.865Z" transform="translate(-2134.507 -1454.006)" fill="#233862"/>
                <path id="Path_2213" data-name="Path 2213" d="M2138.056,1457.506c-.023-.083.033-.139.126-.125a.272.272,0,0,1,.21.173c.023.082-.033.139-.126.126A.272.272,0,0,1,2138.056,1457.506Z" transform="translate(-2137.788 -1457.128)" fill="#1f4a91"/>
              </g>
              <path id="Path_2214" data-name="Path 2214" d="M2161.783,1486.678a10.283,10.283,0,0,1-1.266-.046c-.254-.06-.9-.865-.73-1.067.109-.127.714.1,1,.1s1.037-.417,1.55.435C2162.4,1486.2,2161.783,1486.678,2161.783,1486.678Z" transform="translate(-2138.605 -1468.432)" fill="#ffb27d"/>
            </g>
            <path id="Path_2215" data-name="Path 2215" d="M2043.244,1527.022s-1.09,1.021-5.651,1.168-10.508,5.188-10.563,6.61,9.185,3.585,9.328,3.382,5.859-5.114,5.859-5.114Z" transform="translate(-2011.559 -1506.849)" fill="#ff5858"/>
            <path id="Path_2216" data-name="Path 2216" d="M2144.452,1547.779c-5.074-6.334-15.5,2.3-18.2,2.057-2.48-.224,4.836-8.882,13.91-10.17,3.668-.521,2.79-4.311,2.788-4.428.1.859.173,1.791.209,2.8A77.042,77.042,0,0,0,2144.452,1547.779Z" transform="translate(-2102.973 -1514.455)" fill="#ff1e1e"/>
          </g>
        </g>
      </g>
      <g id="Group_1739" data-name="Group 1739" transform="translate(242.043 178.158)">
        <path id="Path_2223" data-name="Path 2223" d="M973.913,912.246l.289-.344a1.259,1.259,0,0,0,.863.355c.3,0,.484-.137.484-.351,0-.2-.109-.3-.617-.422-.582-.137-.91-.309-.91-.82a.836.836,0,0,1,.934-.793,1.516,1.516,0,0,1,.992.344l-.258.363a1.241,1.241,0,0,0-.742-.281c-.281,0-.445.145-.445.332,0,.211.125.3.648.43.578.141.879.348.879.809,0,.512-.4.816-.976.816A1.684,1.684,0,0,1,973.913,912.246Z" transform="translate(-973.913 -909.793)" fill="#739af0"/>
        <path id="Path_2224" data-name="Path 2224" d="M1007.828,919.951a1.024,1.024,0,0,1,1.008-1.074,1,1,0,0,1,.988,1.109c0,.031,0,.109-.008.133H1008.3a.576.576,0,0,0,.594.523.749.749,0,0,0,.558-.246l.277.246a1.043,1.043,0,0,1-.844.387A1.031,1.031,0,0,1,1007.828,919.951Zm1.527-.144a.535.535,0,0,0-.523-.543.558.558,0,0,0-.535.543Z" transform="translate(-1005.313 -918.131)" fill="#739af0"/>
        <path id="Path_2225" data-name="Path 2225" d="M1040.669,921.128v-.254a.833.833,0,0,1-.668.3.661.661,0,0,1-.734-.644c0-.457.356-.676.836-.676a1.738,1.738,0,0,1,.57.086V919.9c0-.285-.18-.441-.508-.441a1.434,1.434,0,0,0-.59.129l-.129-.379a1.768,1.768,0,0,1,.785-.172.8.8,0,0,1,.906.871v1.223Zm.012-.863a1.348,1.348,0,0,0-.473-.082c-.3,0-.472.121-.472.328s.176.3.4.3c.312,0,.547-.176.547-.434Z" transform="translate(-1034.42 -918.277)" fill="#739af0"/>
        <path id="Path_2226" data-name="Path 2226" d="M1072.075,918.959h.473v.465a.731.731,0,0,1,.73-.5v.5h-.027c-.414,0-.7.27-.7.816v.785h-.473Z" transform="translate(-1064.794 -918.17)" fill="#739af0"/>
        <path id="Path_2227" data-name="Path 2227" d="M1091.35,919.955a1.063,1.063,0,0,1,1.07-1.078,1.03,1.03,0,0,1,.824.355l-.293.316a.694.694,0,0,0-.535-.258.621.621,0,0,0-.594.664.628.628,0,0,0,.617.664.726.726,0,0,0,.535-.258l.285.281a1.081,1.081,0,0,1-1.91-.687Z" transform="translate(-1082.64 -918.131)" fill="#739af0"/>
        <path id="Path_2228" data-name="Path 2228" d="M1122.948,908.818h.472v1.109a.743.743,0,0,1,.645-.363.708.708,0,0,1,.734.793v1.312h-.473V910.5c0-.32-.16-.5-.441-.5a.459.459,0,0,0-.465.512v1.164h-.472Z" transform="translate(-1111.895 -908.818)" fill="#739af0"/>
        <path id="Path_2229" data-name="Path 2229" d="M1155.177,940.047h.519v.535h-.519Z" transform="translate(-1141.733 -937.731)" fill="#739af0"/>
        <path id="Path_2230" data-name="Path 2230" d="M1169.344,940.047h.519v.535h-.519Z" transform="translate(-1154.849 -937.731)" fill="#739af0"/>
        <path id="Path_2231" data-name="Path 2231" d="M1183.51,940.047h.52v.535h-.52Z" transform="translate(-1167.964 -937.731)" fill="#739af0"/>
        <path id="Path_2232" data-name="Path 2232" d="M1197.676,940.047h.52v.535h-.52Z" transform="translate(-1181.08 -937.731)" fill="#739af0"/>
      </g>
      <g id="Group_1740" data-name="Group 1740" transform="translate(285.962 205.658)">
        <path id="Path_2233" data-name="Path 2233" d="M1566.065,1280.112a.506.506,0,1,1,.506.506A.506.506,0,0,1,1566.065,1280.112Z" transform="translate(-1566.065 -1279.606)" fill="#d7e5ff"/>
        <path id="Path_2234" data-name="Path 2234" d="M1595.9,1284.863h-22.881a.136.136,0,0,1-.136-.136h0a.136.136,0,0,1,.136-.136H1595.9a.136.136,0,0,1,.136.136h0A.136.136,0,0,1,1595.9,1284.863Z" transform="translate(-1572.379 -1284.221)" fill="#d7e5ff"/>
      </g>
    </g>
  </g>
</svg>
