<svg xmlns="http://www.w3.org/2000/svg" width="205.367" height="154.95" viewBox="0 0 205.367 154.95"><defs><style>.a,.g{fill:#494e56;}.a{font-size:15px;font-family:Arial;font-weight:600;}.b{fill:#f6f5f5;}.c{fill:#dadada;}.d{fill:#acc0f8;}.e{fill:#d3dfff;}.f{fill:#fff;}.h{fill:#1f3c88;}.i{fill:#fbc343;}.j{fill:#fee279;}.k,.n{fill:#e49b31;}.l{fill:#e7c235;}.m{fill:#ed7545;}.n,.s{opacity:0.4;}.o{fill:#102048;}.p{fill:#f9b384;}.q{fill:#e28b6d;}.r{fill:#3a6bea;}.s{fill:#eb5d60;}.t{fill:#ba5c36;}</style></defs><g transform="translate(-325 -342)"><text class="a" transform="translate(394 358)"><tspan x="0" y="0">My Stipends</tspan></text><g transform="translate(159.994 118.083)"><g transform="translate(165.006 264.917)"><path class="b" d="M502.762,355.942c-14.558-44.75-92.78-46.7-98.787,3.513a29.453,29.453,0,0,1-8.728.292c-22.3-3.413-61.333,39.3-31.379,71.94H531.139C549.237,400.516,536.237,368.622,502.762,355.942Z" transform="translate(-338.684 -317.737)"/><g transform="translate(0 0)"><g transform="translate(113.618)"><path class="c" d="M1668.566,331.143l-.288-.28c18.671-19.2,19.413-29.694,20.536-45.585a194.471,194.471,0,0,1,2.141-19.677,54.925,54.925,0,0,0-21.308,16.924,54.378,54.378,0,0,0-9.168,19.972,64.9,64.9,0,0,0-1.229,23.535l-.4.069a65.315,65.315,0,0,1,1.231-23.684,54.787,54.787,0,0,1,9.235-20.126,55.441,55.441,0,0,1,21.816-17.216l.346-.159-.065.376a192.5,192.5,0,0,0-2.2,20.014C1688.086,301.286,1687.34,311.842,1668.566,331.143Z" transform="translate(-1658.301 -264.917)"/><g transform="translate(6.355 17.081)"><path class="c" d="M1742.221,534.435l-.39-.1c.074-.288,7.509-28.99,16.864-44.922l.347.2C1749.716,505.5,1742.295,534.147,1742.221,534.435Z" transform="translate(-1741.831 -489.413)"/><path class="c" d="M1843.1,526.189l-.4-.014a24.816,24.816,0,0,0-2.84-11.364l.354-.192A25.247,25.247,0,0,1,1843.1,526.189Z" transform="translate(-1832.401 -512.701)"/><path class="c" d="M1822.626,748.916l-.283-.285a23.153,23.153,0,0,1,9.924-5.574l.089.392A22.726,22.726,0,0,0,1822.626,748.916Z" transform="translate(-1816.217 -723.758)"/></g><g transform="translate(22.316 15.365)"><path class="c" d="M1979.393,530.025l-.04-.4c7.28-.721,13.185-5.6,18.053-14.915,4.313-8.253,7.276-18.8,10.141-28.994,1.858-6.611,3.615-12.864,5.666-18.278a47.981,47.981,0,0,0-29.721,22.012l-.359-.183a48.412,48.412,0,0,1,30.357-22.312l.372-.09-.137.358c-2.1,5.479-3.894,11.854-5.79,18.6-2.871,10.217-5.839,20.781-10.172,29.071C1992.827,524.341,1986.818,529.289,1979.393,530.025Z" transform="translate(-1977.241 -466.865)"/><path class="c" d="M1951.966,732.142l-.368-.163c.122-.276,12.36-27.682,22.641-35.651l.246.318c-4.214,3.266-9.442,10.436-15.12,20.733C1955.068,725.172,1952,732.073,1951.966,732.142Z" transform="translate(-1951.598 -678.869)"/><path class="c" d="M2129.369,706.653l-.4-.074c.006-.03.573-3.134,1.079-10.632l.4.027C2129.946,703.5,2129.375,706.622,2129.369,706.653Z" transform="translate(-2115.477 -678.517)"/><path class="c" d="M2041.214,918.973l-.229-.332a42.13,42.13,0,0,1,12.986-5.524l.09.393A41.669,41.669,0,0,0,2041.214,918.973Z" transform="translate(-2034.185 -879.164)"/></g></g><g transform="translate(0 41.039)"><g transform="translate(23.414)"><path class="c" d="M494.809,868.093c-18.081-18.588-18.8-28.755-19.887-44.145a185.259,185.259,0,0,0-2.119-19.272l-.064-.376.346.159c19.779,9.056,27.18,24.557,29.9,35.965a62.912,62.912,0,0,1,1.185,22.81l-.4-.069A62.5,62.5,0,0,0,502.6,840.5c-2.69-11.249-9.967-26.51-29.332-35.518a187.2,187.2,0,0,1,2.059,18.935c1.081,15.3,1.8,25.41,19.774,43.893Z" transform="translate(-472.739 -804.3)"/><g transform="translate(9.259 16.457)"><path class="c" d="M610.625,1063.962c-.071-.277-7.218-27.863-16.2-43.157l.347-.2c9.009,15.344,16.169,42.984,16.241,43.261Z" transform="translate(-594.427 -1020.601)"/><path class="c" d="M676.789,1056.025a24.323,24.323,0,0,1,2.782-11.146l.354.192a23.9,23.9,0,0,0-2.734,10.94Z" transform="translate(-670.52 -1043.032)"/><path class="c" d="M617.424,1270.471a21.875,21.875,0,0,0-9.366-5.263l.09-.392a22.3,22.3,0,0,1,9.56,5.369Z" transform="translate(-607.021 -1246.235)"/></g></g><g transform="translate(0 22.466)"><path class="c" d="M198.062,1147.955c-15.534-1.445-21.752-18.665-27.239-33.858a148.774,148.774,0,0,0-5.638-14.161l-.18-.368.4.083a50.83,50.83,0,0,1,21.946,10.217,34.5,34.5,0,0,1,6.725,7.064l-.339.217c-.082-.128-8.388-12.789-28.013-17.02,1.966,4.109,3.673,8.835,5.476,13.83,5.446,15.08,11.618,32.173,26.9,33.594Z" transform="translate(-165.006 -1099.568)"/><path class="c" d="M358.932,1303.285c-.117-.21-11.85-21.047-21.483-27.158l.216-.34c9.719,6.166,21.5,27.091,21.619,27.3Z" transform="translate(-324.329 -1262.379)"/><path class="c" d="M435.571,1285.445a67.752,67.752,0,0,1-1.145-8.116l.4-.04a67.443,67.443,0,0,0,1.136,8.06Z" transform="translate(-413.927 -1263.767)"/><path class="c" d="M389.111,1445.238a45.166,45.166,0,0,0-12.089-4.3l.078-.4a45.617,45.617,0,0,1,12.209,4.341Z" transform="translate(-360.891 -1414.603)"/></g></g><g transform="translate(165.519 54.194)"><path class="c" d="M2352.391,1036.668l-.095-.391c17.1-4.177,20.328-22.548,23.446-40.315A153.114,153.114,0,0,1,2379.7,977.7c-17.025,3.262-26.669,15.017-31.771,24.337a67.834,67.834,0,0,0-7.094,19.827l-.4-.061a68.244,68.244,0,0,1,7.133-19.949c5.176-9.46,15-21.41,32.386-24.612l.329-.061-.1.319a149.312,149.312,0,0,0-4.043,18.527C2373,1013.926,2369.75,1032.429,2352.391,1036.668Z" transform="translate(-2340.435 -977.186)"/><path class="c" d="M2473.631,1242.8l-.388-.107c.063-.226,6.368-22.646,16.624-31.5l.263.3C2479.967,1220.275,2473.693,1242.579,2473.631,1242.8Z" transform="translate(-2463.138 -1193.392)"/><path class="c" d="M2568.819,1240.841l-.394-.081a50.411,50.411,0,0,0,.607-11.321l.4-.019A50.821,50.821,0,0,1,2568.819,1240.841Z" transform="translate(-2551.078 -1210.229)"/><path class="c" d="M2499.326,1417.1l-.247-.318a53.652,53.652,0,0,1,13.459-7.151l.135.379A53.193,53.193,0,0,0,2499.326,1417.1Z" transform="translate(-2487.009 -1376.725)"/></g></g><g transform="translate(20.715 28.745)"><path class="c" d="M1963.062,645.331a1.308,1.308,0,1,1,1.308-1.308A1.31,1.31,0,0,1,1963.062,645.331Zm0-2.214a.906.906,0,1,0,.906.906A.907.907,0,0,0,1963.062,643.117Z" transform="translate(-1845.762 -642.714)"/><path class="c" d="M537.325,911.187a1.308,1.308,0,1,1,1.308-1.308A1.31,1.31,0,0,1,537.325,911.187Zm0-2.214a.906.906,0,1,0,.906.906A.907.907,0,0,0,537.325,908.973Z" transform="translate(-528.503 -888.342)"/><path class="c" d="M2132.351,1294.324a1.308,1.308,0,1,1,1.308-1.308A1.309,1.309,0,0,1,2132.351,1294.324Zm0-2.214a.906.906,0,1,0,.906.906A.907.907,0,0,0,2132.351,1292.11Z" transform="translate(-2002.171 -1242.329)"/><path class="c" d="M2717.368,1110.91a1.308,1.308,0,1,1,1.308-1.308A1.309,1.309,0,0,1,2717.368,1110.91Zm0-2.214a.906.906,0,1,0,.906.906A.907.907,0,0,0,2717.368,1108.7Z" transform="translate(-2542.676 -1072.87)"/><circle class="c" cx="0.906" cy="0.906" r="0.906" transform="translate(124.947 32.506)"/><circle class="c" cx="0.906" cy="0.906" r="0.906" transform="translate(166.641 65.85)"/><circle class="c" cx="0.906" cy="0.906" r="0.906" transform="matrix(0.001, -1, 1, 0.001, 99.99, 8.452)"/><circle class="c" cx="0.906" cy="0.906" r="0.906" transform="translate(0 68.802)"/></g><path class="c" d="M624.63,349.983a1.217,1.217,0,0,1-.35-.051l-2.5-.748a1.216,1.216,0,0,1-.818-1.516l.853-2.833a12.762,12.762,0,0,1-2.892-2.1l-2.441,1.648a1.224,1.224,0,0,1-1.694-.326l-1.464-2.157a1.216,1.216,0,0,1,.327-1.691l2.412-1.628a12.661,12.661,0,0,1-.953-3.793l-2.862-.328a1.218,1.218,0,0,1-1.073-1.348l.3-2.589a1.221,1.221,0,0,1,1.352-1.071l2.825.324a12.644,12.644,0,0,1,1.637-3.333l-1.951-2.023a1.215,1.215,0,0,1,.034-1.722l1.884-1.806a1.223,1.223,0,0,1,1.725.033l1.934,2.005a12.663,12.663,0,0,1,3.547-1.569l-.18-2.764a1.22,1.22,0,0,1,1.139-1.294l2.608-.17a1.215,1.215,0,0,1,1.3,1.135l.18,2.764a12.669,12.669,0,0,1,3.719,1.1l1.657-2.239a1.224,1.224,0,0,1,1.706-.257l2.1,1.547a1.215,1.215,0,0,1,.257,1.7l-1.672,2.259a12.687,12.687,0,0,1,2.054,3.093l2.759-.687a1.222,1.222,0,0,1,1.479.886l.632,2.528a1.218,1.218,0,0,1-.889,1.476l-2.8.7a12.591,12.591,0,0,1-.453,3.885l2.6,1.3a1.216,1.216,0,0,1,.544,1.634l-1.171,2.329a1.224,1.224,0,0,1-1.638.543l-2.635-1.317a12.732,12.732,0,0,1-2.595,2.458l1.213,2.7a1.217,1.217,0,0,1-.615,1.609l-2.385,1.066a1.223,1.223,0,0,1-1.612-.612l-1.219-2.712a12.843,12.843,0,0,1-3.9.254l-.857,2.847A1.223,1.223,0,0,1,624.63,349.983Zm-5.662-7.767.117.116a12.364,12.364,0,0,0,3.059,2.222l.149.077-.95,3.153a.814.814,0,0,0,.548,1.014l2.5.748a.819.819,0,0,0,1.018-.547l.952-3.164.165.017a12.434,12.434,0,0,0,4.091-.266l.161-.038,1.355,3.014a.82.82,0,0,0,1.081.41l2.385-1.066a.814.814,0,0,0,.412-1.077l-1.35-3,.138-.1a12.336,12.336,0,0,0,2.745-2.6l.1-.131,2.93,1.464a.82.82,0,0,0,1.1-.363l1.171-2.329a.813.813,0,0,0-.364-1.093l-2.9-1.452.047-.161a12.2,12.2,0,0,0,.476-4.078l-.009-.166,3.116-.776a.815.815,0,0,0,.6-.988l-.632-2.528a.818.818,0,0,0-.992-.593l-3.084.768-.069-.153a12.283,12.283,0,0,0-2.166-3.262l-.113-.122,1.869-2.526a.813.813,0,0,0-.172-1.139l-2.1-1.547a.82.82,0,0,0-1.144.172l-1.856,2.507-.151-.073a12.264,12.264,0,0,0-3.908-1.151l-.166-.02-.2-3.1a.819.819,0,0,0-.869-.76l-2.608.17a.818.818,0,0,0-.763.866l.2,3.1-.162.041a12.263,12.263,0,0,0-3.727,1.648l-.14.092-2.165-2.245a.821.821,0,0,0-1.157-.022l-1.885,1.806a.813.813,0,0,0-.023,1.152l2.182,2.262-.1.136a12.26,12.26,0,0,0-1.726,3.515l-.049.16-3.157-.362a.815.815,0,0,0-.906.717l-.3,2.589a.815.815,0,0,0,.719.9l3.19.365.013.165a12.275,12.275,0,0,0,1,3.983l.068.154-2.69,1.816a.813.813,0,0,0-.219,1.131l1.464,2.157a.82.82,0,0,0,1.136.218Zm8.82-1.2a7.3,7.3,0,1,1,4.838-12.788A7.3,7.3,0,0,1,628.271,341h0Q628.028,341.018,627.788,341.017Zm.021-14.2q-.23,0-.461.015a6.9,6.9,0,1,0,.9,13.766h0a6.9,6.9,0,0,0-.435-13.781Z" transform="translate(-577.218 -313.158)"/></g><g transform="translate(213.508 283.644)"><rect class="d" width="67.379" height="95.022" rx="33.69" transform="translate(0 0)"/><rect class="e" width="23.748" height="3.987" transform="translate(21.816 4.181)"/><rect class="c" width="53.937" height="11.962" transform="translate(6.721 14.245)"/><rect class="f" width="49.216" height="8.69" transform="translate(9.082 15.881)"/><g transform="translate(40.935 31.755)"><rect class="g" width="7.648" height="4.831" rx="2.415"/><rect class="g" width="7.648" height="4.831" rx="2.415" transform="translate(12.075)"/></g><g transform="translate(7.091 42.423)"><rect class="g" width="9.257" height="6.307" rx="3.153" transform="translate(44.309)"/><rect class="g" width="9.257" height="6.307" rx="3.153" transform="translate(29.539)"/><rect class="g" width="9.257" height="6.307" rx="3.153" transform="translate(14.77)"/><rect class="h" width="9.257" height="6.307" rx="3.153"/></g><g transform="translate(7.091 53.828)"><rect class="g" width="9.257" height="6.307" rx="3.153" transform="translate(44.309)"/><rect class="e" width="9.257" height="6.307" rx="3.153" transform="translate(29.539)"/><rect class="e" width="9.257" height="6.307" rx="3.153" transform="translate(14.77)"/><rect class="e" width="9.257" height="6.307" rx="3.153"/></g><g transform="translate(7.091 65.234)"><rect class="h" width="9.257" height="6.307" rx="3.153" transform="translate(44.309)"/><rect class="e" width="9.257" height="6.307" rx="3.153" transform="translate(29.539)"/><rect class="e" width="9.257" height="6.307" rx="3.153" transform="translate(14.77)"/><rect class="e" width="9.257" height="6.307" rx="3.153"/></g><g transform="translate(7.091 77.042)"><rect class="i" width="9.257" height="6.307" rx="3.153" transform="translate(44.309)"/><rect class="e" width="9.257" height="6.307" rx="3.153" transform="translate(29.539)"/><rect class="e" width="9.257" height="6.307" rx="3.153" transform="translate(14.77)"/><rect class="e" width="9.257" height="6.307" rx="3.153"/></g><g transform="translate(47.17 17.714)"><path class="g" d="M1422.85,748.347a2.743,2.743,0,0,0,.531-.023,1.831,1.831,0,0,0,1.017-.471,2.133,2.133,0,0,0,.643-1.294h-.022a1.428,1.428,0,0,1-1.145.524,1.409,1.409,0,0,1-1.436-1.489,1.667,1.667,0,0,1,1.661-1.728c.995,0,1.608.808,1.608,2.05a3.073,3.073,0,0,1-.838,2.282,2.433,2.433,0,0,1-1.414.651,3.076,3.076,0,0,1-.606.037Zm.239-2.8a.936.936,0,0,0,.935,1.032,1.088,1.088,0,0,0,.958-.509.431.431,0,0,0,.06-.239c0-.83-.306-1.466-.995-1.466C1423.486,744.366,1423.089,744.86,1423.089,745.549Z" transform="translate(-1422.439 -743.865)"/><path class="g" d="M1473.325,748.347a2.746,2.746,0,0,0,.531-.023,1.833,1.833,0,0,0,1.017-.471,2.134,2.134,0,0,0,.643-1.294h-.022a1.429,1.429,0,0,1-1.145.524,1.409,1.409,0,0,1-1.437-1.489,1.667,1.667,0,0,1,1.661-1.728c.995,0,1.608.808,1.608,2.05a3.073,3.073,0,0,1-.838,2.282,2.433,2.433,0,0,1-1.414.651,3.075,3.075,0,0,1-.606.037Zm.24-2.8a.936.936,0,0,0,.935,1.032,1.088,1.088,0,0,0,.958-.509.43.43,0,0,0,.06-.239c0-.83-.307-1.466-.995-1.466C1473.961,744.366,1473.564,744.86,1473.564,745.549Z" transform="translate(-1469.073 -743.865)"/></g></g><g transform="translate(245.582 319.559)"><g transform="translate(53.011 32.342)"><rect class="j" width="36.762" height="26.966"/><rect class="k" width="9.794" height="0.402" transform="translate(26.968 6.105)"/><rect class="k" width="17.04" height="0.402" transform="translate(19.723 20.865)"/><path class="k" d="M1939.074,1417.939a30.938,30.938,0,0,1-1.417,9.255,11.037,11.037,0,0,1-10.53,7.737h-6.38v-26.761h16.745A30.983,30.983,0,0,1,1939.074,1417.939Z" transform="translate(-1920.748 -1408.168)"/></g><g transform="translate(0 46.246)"><path class="j" d="M3.265,0H30.7A3.265,3.265,0,0,1,33.96,3.265v0A3.265,3.265,0,0,1,30.7,6.529H3.265A3.265,3.265,0,0,1,0,3.265v0A3.265,3.265,0,0,1,3.265,0Z" transform="translate(3.755 6.533)"/><path class="j" d="M1257.977,1592.719v2.878a1.829,1.829,0,0,1-1.827,1.828h-30.305a1.826,1.826,0,0,1-1.827-1.828v-2.878a1.829,1.829,0,0,1,1.827-1.828h30.305A1.831,1.831,0,0,1,1257.977,1592.719Z" transform="translate(-1224.017 -1590.891)"/><path class="k" d="M1387.4,1599.252v2.874a1.826,1.826,0,0,1-1.827,1.828h-21.732a16.591,16.591,0,0,1-2.971-6.529,32.161,32.161,0,0,1-.837-6.533h21.784a1.831,1.831,0,0,1,1.827,1.828v2.878a1.829,1.829,0,0,1-1.827,1.828h3.755A1.826,1.826,0,0,1,1387.4,1599.252Z" transform="translate(-1349.681 -1590.891)"/></g><g transform="translate(13.368 0)"><path class="l" d="M1620.782,984.141l-2.447,7.516-.181.556-1.135,3.49-.008.024-3.659-.081-14.04-.318-1.026-2.939-.173-.491-2.717-7.757C1603.824,987.06,1610.771,980.68,1620.782,984.141Z" transform="translate(-1580.506 -983.081)"/><path class="k" d="M1653.247,1103.063l-1.135,3.49-3.667-.056-14.04-.318-1.026-2.938C1638.205,1103.156,1646.509,1103.043,1653.247,1103.063Z" transform="translate(-1615.6 -1093.932)"/><path class="l" d="M1453.041,1185.81a11.033,11.033,0,0,1-10.53,7.737h-31.8a10.224,10.224,0,0,1-9.854-7.507,32.074,32.074,0,0,1-1.143-7.753c0-.25-.008-.5-.008-.749q0-.442.012-.884a31.812,31.812,0,0,1,12.2-23.944l7.607-6.023,17.409.4,9.569,9.157a21.11,21.11,0,0,1,3.508,4.323,30.98,30.98,0,0,1,3.028,25.24Z" transform="translate(-1399.708 -1134.239)"/><g transform="translate(18.994 21.987)"><path class="f" d="M1655.37,1300.967V1297.6a14.275,14.275,0,0,1-6.024-1.523l1.065-4.146a12.523,12.523,0,0,0,5.883,1.558c2.019,0,3.4-.779,3.4-2.2,0-1.347-1.134-2.2-3.756-3.084-3.791-1.275-6.379-3.047-6.379-6.483,0-3.119,2.2-5.563,5.989-6.307v-3.367h3.471v3.119a12.79,12.79,0,0,1,5.138,1.169l-1.027,4a11.744,11.744,0,0,0-5.1-1.206c-2.3,0-3.047.993-3.047,1.985,0,1.168,1.24,1.913,4.252,3.047,4.215,1.489,5.917,3.436,5.917,6.627,0,3.153-2.233,5.845-6.307,6.555v3.612Z" transform="translate(-1649.346 -1272.054)"/></g><rect class="m" width="28.33" height="4.492" rx="2.246" transform="translate(13.631 11.206)"/><path class="n" d="M1453.138,1427.429a11.033,11.033,0,0,1-10.53,7.737h-31.8a10.224,10.224,0,0,1-9.854-7.508,32.059,32.059,0,0,1-1.143-7.753c5.261,5.016,11.46,11.573,25.95,11.775,17.994.25,25.749-8.184,27.142-23.476A30.939,30.939,0,0,1,1453.138,1427.429Z" transform="translate(-1399.805 -1375.858)"/></g></g><g transform="translate(178.073 313.757)"><g transform="translate(0 30.96)"><path class="o" d="M347.451,1674.722l-3.22-1.208-7.48,6.575H345.6Z" transform="translate(-336.751 -1646.139)"/><path class="p" d="M454.942,1689.386h7.111l-.805,5.1-8.154.268Z" transform="translate(-444.242 -1660.804)"/><path class="g" d="M524.662,1313.73l-.262,1.783-.157,1.075-1.127,7.725-.431,2.951-.382,2.633-1,6.859-.7,4.758a7.284,7.284,0,0,1-7.209,6.231H497.661l.02-.2.511-5.233.072-.737,10.969-2.113,1.473-10.7a22.259,22.259,0,0,1-.233-8.208,19.854,19.854,0,0,1,.636-2.931l4.895-1.4Z" transform="translate(-485.418 -1313.73)"/><path class="o" d="M702.588,1616.357l-.7,4.758a7.284,7.284,0,0,1-7.209,6.231h-.805C701.087,1626.056,699.678,1616.848,702.588,1616.357Z" transform="translate(-666.706 -1593.331)"/><rect class="f" width="2.923" height="0.403" transform="translate(5.095 33.843) rotate(-58.13)"/><path class="o" d="M758.543,1452.822l-.813,5.583c-2.266-.648-5.254-3.887-5.254-3.887Z" transform="translate(-720.845 -1442.239)"/><g transform="translate(25.69 0.352)"><path class="o" d="M921.809,1602.734s-3.824,1.962-10.667.7l5.685-3.774Z" transform="translate(-893.13 -1578.261)"/><path class="p" d="M947.816,1617.244l-6.114.137-.036-1.32-.1-3.619,5.434.4.258,1.4Z" transform="translate(-921.241 -1590.066)"/><path class="q" d="M947.26,1614.241l-5.595,1.819-.1-3.619,5.434.4Z" transform="translate(-921.241 -1590.066)"/><path class="o" d="M956.35,1682.049l-6.742-5.434-.191-1.034-6.117.135.17,6.333Z" transform="translate(-922.84 -1648.401)"/><rect class="f" width="2.848" height="0.403" transform="translate(26.496 31.246) rotate(-31.983)"/><path class="g" d="M674.4,1321.894l21.879-3.474a5.36,5.36,0,0,1,3.018.4h0a5.362,5.362,0,0,1,3.181,4.735l.6,19.276s-6.239-1.308-10.667.7l-.4-13.183c-2.675,1.218-7.309,1.476-12.005,1.006Z" transform="translate(-674.402 -1318.353)"/><path class="r" d="M839.892,1345.279h-.4c0-3.336.081-6.1.152-8.547.173-5.949.268-9.226-1.247-10.612-1.226-1.122-3.677-1.087-7.233-.667-3.811.444-5.33-3.613-5.345-3.654l.378-.137c.057.156,1.425,3.812,4.919,3.391,3.763-.444,6.206-.462,7.552.77,1.651,1.511,1.56,4.656,1.378,10.921C839.972,1339.183,839.892,1341.949,839.892,1345.279Z" transform="translate(-814.296 -1321.409)"/><path class="r" d="M909.507,1600.275l-.143-.376a20.067,20.067,0,0,1,10.787-.51l-.1.391A19.627,19.627,0,0,0,909.507,1600.275Z" transform="translate(-891.487 -1577.526)"/></g><path class="r" d="M524.482,1680.573c-.627-1.254.343-6.448.385-6.669l.4.075c-.276,1.465-.891,5.473-.42,6.414Z" transform="translate(-510.005 -1646.5)"/><path class="o" d="M678.062,1343.729a14.7,14.7,0,0,1-5.031,5.5,6.444,6.444,0,0,1-3.389,1.095,3.954,3.954,0,0,1-3.59-2.057,19.861,19.861,0,0,1,.636-2.931l4.895-1.4,4.939-.157Z" transform="translate(-640.996 -1341.446)"/></g><g transform="translate(30.553 3.628)"><path class="m" d="M772.272,1083.216v4.659h4.562v-4.029Z" transform="translate(-769.688 -1073.423)"/><path class="p" d="M776.834,1053.623h-4.562v2.252l4.562.629Z" transform="translate(-769.688 -1046.082)"/><path class="o" d="M789.949,1059.556a7.4,7.4,0,0,0,3.217,2.244l-.03-2.445Z" transform="translate(-786.02 -1051.377)"/><path class="p" d="M772.483,975.14s2.516,6.776-.738,7.212-3.757-1.04-3.757-1.04l-1.006-3.589,2.247-3.019Z" transform="translate(-764.8 -973.167)"/><circle class="p" cx="0.704" cy="0.704" r="0.704" transform="translate(7.804 5.918) rotate(-88.939)"/><path class="o" d="M742.566,959.7s.168-3.623,3.421-3.22c0,0-2.19-2.812-5.075-1.722a4.133,4.133,0,0,0-2.589,3.513c-.185,2.016.992,4.314,2.636,4.717a31.413,31.413,0,0,1,1.439-2.818Z" transform="translate(-738.305 -954.503)"/><ellipse class="p" cx="0.99" cy="1.157" rx="0.99" ry="1.157" transform="translate(2.756 4.819) rotate(-25.174)"/><circle class="s" cx="0.922" cy="0.922" r="0.922" transform="matrix(0.014, -1, 1, 0.014, 5.644, 6.539)"/><path class="o" d="M785.481,1019.328a.1.1,0,0,1-.1-.1.693.693,0,0,0-.634-.672.1.1,0,0,1-.086-.114.1.1,0,0,1,.114-.086.9.9,0,0,1,.808.871.1.1,0,0,1-.1.1Z" transform="translate(-781.133 -1013.497)"/></g><g transform="translate(20.455 0)"><path class="t" d="M995.787,995.867s3.519.268,5.434,2.516l-4.357,1.073Z" transform="translate(-966.098 -989.092)"/><path class="p" d="M1001.2,911.666a15.8,15.8,0,0,1-1.521,3.067c-.382.656-.68,1.155-.68,1.155l-2.347.684-1.675-2.524-.08-.125s.024-.109.068-.3v0s0-.012.008-.024c.282-1.2,1.28-5.269,1.856-5.406.507-.117.209,2.113.209,2.113s1.252-3.627,1.992-3.478c.592.117-.568,3.595-.568,3.595s.415-.435.833-.3a.742.742,0,0,1,.5.568.58.58,0,0,1,.6-.032c.3.181.27.745.27.745S1001.166,911.163,1001.2,911.666Z" transform="translate(-965.274 -906.819)"/><path class="l" d="M617.2,1122.949l-1.594,6.231-2.471,9.661a8.88,8.88,0,0,1-4.854.785c-1.63-.27-2.769-1.22-2.693-2.9C605.793,1132.2,617.2,1122.949,617.2,1122.949Z" transform="translate(-605.588 -1106.505)"/><path class="t" d="M649.642,1146.21l-1.288,4.462-2.471,9.661a8.879,8.879,0,0,1-4.854.785C644.61,1150.839,649.642,1146.21,649.642,1146.21Z" transform="translate(-638.332 -1127.996)"/><path class="l" d="M687.22,1123.257c-3.321.225-13.786,8.88-16.3,3.3,0,0,.35-20.828,11.1-20.441a4.536,4.536,0,0,1,4.15,3.152,21.172,21.172,0,0,1,.716,3.269,43.463,43.463,0,0,1,.411,5.2C687.341,1119.344,687.32,1121.176,687.22,1123.257Z" transform="translate(-665.947 -1090.944)"/><path class="t" d="M844.927,1195.765c-1.662-1.075-3.4-4.315-3.4-4.315l2.987-.886A43.451,43.451,0,0,1,844.927,1195.765Z" transform="translate(-823.578 -1168.975)"/><path class="q" d="M1000.507,997.006c-.382.656-.68,1.155-.68,1.155l-2.347.684-1.675-2.524-.012-.427v-.028h.008Z" transform="translate(-966.105 -989.092)"/><path class="l" d="M816.834,1004.26s5.163.362,8.282.966l5.333-9.359a12.153,12.153,0,0,0,5.434,2.516l-4.668,11a6.319,6.319,0,0,1-5.451,3.522l-7.994.273Z" transform="translate(-800.761 -989.092)"/><path class="t" d="M782.56,1106.126a.135.135,0,0,1-.028,0c-.1-.018-9.847-1.806-11.508-.337a.151.151,0,0,1-.2-.226c1.771-1.565,11.357.191,11.764.267a.151.151,0,0,1-.027.3Z" transform="translate(-758.204 -1089.841)"/></g></g></g></g></svg>