<svg xmlns="http://www.w3.org/2000/svg" width="137.999" height="164.223" viewBox="0 0 137.999 164.223">
  <g id="noti-content" transform="translate(-809 -312)">
    <text id="Notification" transform="translate(833 328)" fill="#494e56" font-size="15" font-family="Arial" font-weight="600"><tspan x="0" y="0">Notification</tspan></text>
    <g id="Group_1587" data-name="Group 1587" transform="translate(747.529 304.526)">
      <g id="Group_1570" data-name="Group 1570" transform="translate(61.471 49.528)">
        <g id="Group_1569" data-name="Group 1569" transform="translate(0)">
          <g id="Group_1559" data-name="Group 1559" transform="translate(35.719 61.927)">
            <g id="Group_1557" data-name="Group 1557" transform="translate(57.329 10.947)">
              <path id="Path_1698" data-name="Path 1698" d="M339.46,260.853v0c-.19,0-.38,0-.573.017a8.166,8.166,0,0,0-7.311,10.267,40.88,40.88,0,0,1,1.28,10.634v10.441a1.371,1.371,0,0,0,1.371,1.371H367.37V260.853Z" transform="translate(-331.297 -260.853)" fill="#e3eeff"/>
              <path id="Path_1699" data-name="Path 1699" d="M428.56,269.017a8.163,8.163,0,1,0-16.047,2.124,40.866,40.866,0,0,1,1.28,10.634v10.441a1.371,1.371,0,0,0,1.371,1.371H425.63A1.371,1.371,0,0,0,427,292.215V281.161a37.269,37.269,0,0,1,1.264-9.963A8.146,8.146,0,0,0,428.56,269.017Z" transform="translate(-384.323 -260.853)" fill="#f3f8ff"/>
            </g>
            <rect id="Rectangle_513" data-name="Rectangle 513" width="46.469" height="19.874" transform="translate(35.685 23.806)" fill="#e3eeff"/>
            <path id="Rectangle_514" data-name="Rectangle 514" d="M17.916,0H38.622A17.916,17.916,0,0,1,56.538,17.916V28.3a0,0,0,0,1,0,0H0a0,0,0,0,1,0,0V17.916A17.916,17.916,0,0,1,17.916,0Z" transform="translate(11.097)" fill="#cadefc"/>
            <path id="Rectangle_515" data-name="Rectangle 515" d="M17.053,0H39.485A17.053,17.053,0,0,1,56.538,17.053V28.3a0,0,0,0,1,0,0H0a0,0,0,0,1,0,0V17.053A17.053,17.053,0,0,1,17.053,0Z" transform="translate(18.876)" fill="#f3f8ff"/>
            <path id="Rectangle_516" data-name="Rectangle 516" d="M1.209,0H42.422a4.047,4.047,0,0,1,4.047,4.047v0a4.047,4.047,0,0,1-4.047,4.047H1.209A1.209,1.209,0,0,1,0,6.885V1.209A1.209,1.209,0,0,1,1.209,0Z" transform="translate(37.096 21.991)" fill="#cadefc"/>
            <g id="Group_1558" data-name="Group 1558" transform="translate(0 10.947)">
              <path id="Path_1700" data-name="Path 1700" d="M173.214,260.853v0c-.19,0-.38,0-.573.017a8.166,8.166,0,0,0-7.311,10.267,40.88,40.88,0,0,1,1.28,10.634v10.441a1.371,1.371,0,0,0,1.371,1.371h33.143V260.853Z" transform="translate(-165.051 -260.853)" fill="#e3eeff"/>
              <path id="Path_1701" data-name="Path 1701" d="M262.314,269.017a8.163,8.163,0,1,0-16.047,2.124,40.866,40.866,0,0,1,1.28,10.634v10.441a1.371,1.371,0,0,0,1.371,1.371h10.466a1.371,1.371,0,0,0,1.371-1.371V281.161a37.269,37.269,0,0,1,1.264-9.963A8.146,8.146,0,0,0,262.314,269.017Z" transform="translate(-218.077 -260.853)" fill="#f3f8ff"/>
            </g>
            <path id="Path_1702" data-name="Path 1702" d="M272.6,356.769H188.524a.994.994,0,0,1-.993-.993h86.061A.994.994,0,0,1,272.6,356.769Z" transform="translate(-179.779 -312.096)" fill="#cadefc"/>
          </g>
          <g id="Group_1560" data-name="Group 1560" transform="translate(0 81.775)">
            <rect id="Rectangle_517" data-name="Rectangle 517" width="9.218" height="23.342" transform="translate(0 0)" fill="#e3eeff"/>
            <rect id="Rectangle_518" data-name="Rectangle 518" width="45.461" height="1.479" transform="translate(1.77 23.342)" fill="#e3eeff"/>
            <rect id="Rectangle_519" data-name="Rectangle 519" width="39.783" height="23.342" transform="translate(49.001 23.342) rotate(180)" fill="#f3f8ff"/>
            <rect id="Rectangle_520" data-name="Rectangle 520" width="32.534" height="7.655" transform="translate(45.377 10.528) rotate(180)" fill="#e3eeff"/>
            <rect id="Rectangle_521" data-name="Rectangle 521" width="32.534" height="7.655" transform="translate(45.377 20.468) rotate(180)" fill="#e3eeff"/>
            <path id="Path_1703" data-name="Path 1703" d="M141.265,295.068h-8.053a.526.526,0,0,1-.525-.525h0a.526.526,0,0,1,.525-.525h8.053a.526.526,0,0,1,.525.525h0A.526.526,0,0,1,141.265,295.068Z" transform="translate(-108.129 -291.483)" fill="#f3f8ff"/>
            <path id="Path_1704" data-name="Path 1704" d="M141.265,323.893h-8.053a.526.526,0,0,1-.525-.525h0a.526.526,0,0,1,.525-.525h8.053a.526.526,0,0,1,.525.525h0A.526.526,0,0,1,141.265,323.893Z" transform="translate(-108.129 -310.367)" fill="#f3f8ff"/>
          </g>
          <g id="Group_1564" data-name="Group 1564" transform="translate(34.765)">
            <g id="Group_1561" data-name="Group 1561" transform="translate(1.42 1.262)">
              <rect id="Rectangle_522" data-name="Rectangle 522" width="64.869" height="46.594" fill="#d1e3ff"/>
              <rect id="Rectangle_523" data-name="Rectangle 523" width="65.448" height="46.594" transform="translate(0.508)" fill="#f3f8ff"/>
              <rect id="Rectangle_524" data-name="Rectangle 524" width="64.869" height="1.048" transform="translate(0 46.594)" fill="#d1e3ff"/>
              <rect id="Rectangle_525" data-name="Rectangle 525" width="63.07" height="1.048" transform="translate(7.854 46.594)" fill="#f3f8ff"/>
              <rect id="Rectangle_526" data-name="Rectangle 526" width="42.642" height="62.405" transform="translate(64.434 1.976) rotate(90)" fill="#f5fcff"/>
              <path id="Path_1705" data-name="Path 1705" d="M221.539,101.559l8.93-42.642h11.394l-8.93,42.642Z" transform="translate(-202.526 -56.942)" fill="#fff"/>
              <path id="Path_1706" data-name="Path 1706" d="M263.929,101.559l8.93-42.642h5.287l-8.93,42.642Z" transform="translate(-230.298 -56.942)" fill="#fff"/>
              <rect id="Rectangle_527" data-name="Rectangle 527" width="38.447" height="0.193" transform="translate(64.434 1.709) rotate(90)" fill="#d1e3ff"/>
            </g>
            <g id="Group_1562" data-name="Group 1562">
              <path id="Path_1707" data-name="Path 1707" d="M163.093,50.723V67.311h4.39a24.693,24.693,0,0,0,9.678-15.726,1.76,1.76,0,0,0-1.731-2.058H164.288A1.2,1.2,0,0,0,163.093,50.723Z" transform="translate(-162.815 -49.528)" fill="#d1e3ff"/>
              <path id="Path_1708" data-name="Path 1708" d="M163.093,130.236V104.982h4.39s2.523,5.1,5.04,10.962a10.255,10.255,0,0,1-9.429,14.293Z" transform="translate(-162.815 -85.859)" fill="#d1e3ff"/>
              <rect id="Rectangle_528" data-name="Rectangle 528" width="4.978" height="1.339" rx="0.67" transform="translate(0 17.784)" fill="#f3f8ff"/>
            </g>
            <g id="Group_1563" data-name="Group 1563" transform="translate(54.526)">
              <path id="Path_1709" data-name="Path 1709" d="M334.5,50.723V67.311h-4.389a24.691,24.691,0,0,1-9.678-15.726,1.759,1.759,0,0,1,1.73-2.058H333.3A1.2,1.2,0,0,1,334.5,50.723Z" transform="translate(-320.405 -49.528)" fill="#d1e3ff"/>
              <path id="Path_1710" data-name="Path 1710" d="M341.76,130.236V104.982h-4.389s-2.524,5.1-5.04,10.962a10.255,10.255,0,0,0,9.429,14.293Z" transform="translate(-327.667 -85.859)" fill="#d1e3ff"/>
              <rect id="Rectangle_529" data-name="Rectangle 529" width="4.978" height="1.339" rx="0.67" transform="translate(14.371 19.123) rotate(180)" fill="#f3f8ff"/>
            </g>
          </g>
          <g id="Group_1565" data-name="Group 1565" transform="translate(113.342 6.569)">
            <rect id="Rectangle_530" data-name="Rectangle 530" width="21.539" height="32.172" fill="#d1e3ff"/>
            <rect id="Rectangle_531" data-name="Rectangle 531" width="24.104" height="32.172" transform="translate(0.553)" fill="#f3f8ff"/>
            <rect id="Rectangle_532" data-name="Rectangle 532" width="27.2" height="19.132" transform="translate(22.171 2.486) rotate(90)" fill="#fff"/>
            <path id="Path_1711" data-name="Path 1711" d="M421.381,112.877v-1.548a3.67,3.67,0,0,1,3.67-3.67h0v1.548a3.67,3.67,0,0,1-3.67,3.67Z" transform="translate(-410.611 -94.182)" fill="#d1e3ff"/>
            <path id="Path_1712" data-name="Path 1712" d="M421.381,134.137v-1.548a3.67,3.67,0,0,1,3.67-3.67h0v1.548a3.67,3.67,0,0,1-3.67,3.67Z" transform="translate(-410.611 -108.11)" fill="#d1e3ff"/>
            <path id="Path_1713" data-name="Path 1713" d="M421.381,91.618V90.07a3.67,3.67,0,0,1,3.67-3.67h0v1.548a3.67,3.67,0,0,1-3.67,3.67Z" transform="translate(-410.611 -80.254)" fill="#d1e3ff"/>
          </g>
          <g id="Group_1568" data-name="Group 1568" transform="translate(1.266 31.384)">
            <g id="Group_1566" data-name="Group 1566">
              <path id="Path_1714" data-name="Path 1714" d="M102.989,193.434c.871-9.02,1.653-34.218,1.142-38.742l-1.207-.88s.372,16.453-.277,30.274-.094,7.3-.366,9.349Z" transform="translate(-89.474 -149.234)" fill="#d1e3ff"/>
              <path id="Path_1715" data-name="Path 1715" d="M107.557,210.48c2.433-1.91,7.4-3.269,12.467-3.262,1.988,0-6.049,2.223-9.391,4.672a27.8,27.8,0,0,0-6.52,6.881C104.757,215.032,105.124,212.391,107.557,210.48Z" transform="translate(-90.675 -184.224)" fill="#d1e3ff"/>
              <path id="Path_1716" data-name="Path 1716" d="M77.2,217.852c-2.021-1.99-6.685-3.52-11.732-3.693-1.981-.068,5.557,2.429,8.37,4.988a21.556,21.556,0,0,1,5.043,7.087C79.031,222.486,79.223,219.841,77.2,217.852Z" transform="translate(-65.143 -188.77)" fill="#d1e3ff"/>
              <path id="Path_1717" data-name="Path 1717" d="M108.874,172.352c2.06-1.618,6.268-2.768,10.557-2.762,1.684,0-5.122,1.882-7.952,3.956a23.55,23.55,0,0,0-5.521,5.826C106.5,176.207,106.814,173.97,108.874,172.352Z" transform="translate(-91.883 -159.572)" fill="#d1e3ff"/>
              <path id="Path_1718" data-name="Path 1718" d="M83.171,178.594c-1.711-1.685-5.661-2.98-9.934-3.127-1.678-.058,4.706,2.057,7.088,4.224a18.251,18.251,0,0,1,4.27,6C84.72,182.518,84.882,180.279,83.171,178.594Z" transform="translate(-70.264 -163.421)" fill="#d1e3ff"/>
              <path id="Path_1719" data-name="Path 1719" d="M90.934,143.385c-1.217-1.371-4.166-2.541-7.424-2.842-1.279-.118,3.486,1.789,5.19,3.561a13.833,13.833,0,0,1,2.941,4.8C91.907,146.472,92.151,144.756,90.934,143.385Z" transform="translate(-77.035 -140.538)" fill="#d1e3ff"/>
              <path id="Path_1720" data-name="Path 1720" d="M106.424,146.683a8.16,8.16,0,0,1,5.261-2.5c.9-.113-2.479,1.561-3.707,3.092a13.062,13.062,0,0,0-2.153,4.132C105.684,149.33,105.545,147.866,106.424,146.683Z" transform="translate(-91.728 -142.924)" fill="#d1e3ff"/>
            </g>
            <g id="Group_1567" data-name="Group 1567" transform="translate(6.827 39.962)">
              <path id="Path_1721" data-name="Path 1721" d="M93.483,269.613h0a5.029,5.029,0,0,0,5.021-4.741l.445-4.235H88.017l.445,4.235A5.03,5.03,0,0,0,93.483,269.613Z" transform="translate(-86.956 -259.183)" fill="#e3eeff"/>
              <path id="Path_1722" data-name="Path 1722" d="M85.293,259.625H97.64l.354-3.2H84.939Z" transform="translate(-84.939 -256.421)" fill="#e3eeff"/>
            </g>
          </g>
        </g>
      </g>
      <g id="Group_1586" data-name="Group 1586" transform="translate(64.182 62.799)">
        <ellipse id="Ellipse_147" data-name="Ellipse 147" cx="66.861" cy="3.905" rx="66.861" ry="3.905" transform="translate(0 101.089)" fill="#f0f6ff"/>
        <g id="Group_1585" data-name="Group 1585" transform="translate(12.582 0)">
          <g id="Group_1580" data-name="Group 1580" transform="translate(45.924 5.695)">
            <path id="Path_1723" data-name="Path 1723" d="M259.591,363.42l-2.336-.925,1.52-5.656,2.336.925Z" transform="translate(-250.957 -269.832)" fill="#ffc3bd"/>
            <path id="Path_1724" data-name="Path 1724" d="M323.582,372.395H321.07l-1.958-5.818h2.513Z" transform="translate(-291.484 -276.211)" fill="#ffc3bd"/>
            <path id="Path_1725" data-name="Path 1725" d="M314.989,382.605h3.063a.22.22,0,0,1,.214.172l.5,2.233a.37.37,0,0,1-.368.447c-.986-.017-1.7-.075-2.946-.075-.764,0-3.067.08-4.121.08-1.031,0-1.192-1.043-.761-1.137a9.962,9.962,0,0,0,4.015-1.565A.61.61,0,0,1,314.989,382.605Z" transform="translate(-285.738 -286.713)" fill="#14365b"/>
            <path id="Path_1726" data-name="Path 1726" d="M245.413,371.4l2.551,1.01a.219.219,0,0,1,.136.238l-.36,2.259a.365.365,0,0,1-.5.282c-.914-.38-2.223-.96-3.379-1.418-1.352-.535-2.55-.924-4.136-1.552-.959-.379-.841-1.455-.405-1.383,1.986.323,3.495.871,5.46.522A1.164,1.164,0,0,1,245.413,371.4Z" transform="translate(-238.993 -279)" fill="#14365b"/>
            <path id="Path_1727" data-name="Path 1727" d="M276.26,150.451c-.234.188-.417.327-.625.482s-.408.292-.613.434q-.618.423-1.256.814a22.625,22.625,0,0,1-2.679,1.406,15.94,15.94,0,0,1-2.984,1,9.3,9.3,0,0,1-3.426.173,7.5,7.5,0,0,1-.929-.2,3.007,3.007,0,0,1-1.317-.829,5.97,5.97,0,0,1-1.036-1.593,16.711,16.711,0,0,1-1-2.895,34.515,34.515,0,0,1-.928-5.7l1.853-.351c.574,1.734,1.174,3.495,1.843,5.144a17.233,17.233,0,0,0,1.1,2.291,2.942,2.942,0,0,0,.547.7c.051.045.065-.006-.149-.084.119.013.29.051.446.054a6.423,6.423,0,0,0,2.124-.269,14.157,14.157,0,0,0,2.279-.885,25.473,25.473,0,0,0,2.253-1.239c.37-.226.736-.462,1.1-.707l.532-.37c.171-.119.362-.257.5-.357Z" transform="translate(-252.409 -129.857)" fill="#ffc3bd"/>
            <path id="Path_1728" data-name="Path 1728" d="M292.837,155.932c-.61,2.324-8.137,4.927-8.137,4.927l-2.318-5.227s3.057-1.61,5.889-2.89C290.171,151.883,293.5,153.4,292.837,155.932Z" transform="translate(-267.42 -135.958)" fill="#ff5858"/>
            <path id="Path_1729" data-name="Path 1729" d="M259.827,140.136l.063-2.24-2.725.808a2.7,2.7,0,0,0,1.05,1.936Z" transform="translate(-250.898 -126.39)" fill="#ffc3bd"/>
            <path id="Path_1730" data-name="Path 1730" d="M260.02,133.369l-2.619.9-.236,1.467,2.725-.808Z" transform="translate(-250.899 -123.424)" fill="#ffc3bd"/>
            <g id="Group_1574" data-name="Group 1574" transform="translate(5.909 7.986)">
              <path id="Path_1731" data-name="Path 1731" d="M258.844,135.094l2.582-.572a.286.286,0,0,0,.209-.39l-2.247-5.989a.4.4,0,0,0-.447-.245l-2.582.572a.285.285,0,0,0-.209.39l2.247,5.989A.4.4,0,0,0,258.844,135.094Z" transform="translate(-256.13 -127.82)" fill="#0053cc"/>
              <path id="Path_1732" data-name="Path 1732" d="M259.764,134.89l2.583-.572a.285.285,0,0,0,.209-.39l-2.247-5.989a.4.4,0,0,0-.447-.245l-2.582.572a.286.286,0,0,0-.209.39l2.247,5.989A.4.4,0,0,0,259.764,134.89Z" transform="translate(-256.732 -127.686)" fill="#407bff"/>
              <g id="Group_1573" data-name="Group 1573" transform="translate(0.416 0.461)">
                <path id="Path_1733" data-name="Path 1733" d="M257.335,129.738l1.01,2.692.093.248.453,1.209.1.258.363.966,3.237-.717-.088-.238-.1-.251-.872-2.328-.271-.729-.685-1.827-1.071.236-.274.063-1.466.323-.23.049Z" transform="translate(-257.335 -129.023)" fill="#dce9ff"/>
                <g id="Group_1572" data-name="Group 1572" transform="translate(1.833 1.588)">
                  <path id="Path_1734" data-name="Path 1734" d="M262.924,133.854l-.272,2.221a.258.258,0,0,0,.314.282l1.745-.4a.258.258,0,0,0,.142-.413l-1.473-1.82A.257.257,0,0,0,262.924,133.854Z" transform="translate(-262.65 -133.628)" fill="#407bff"/>
                  <g id="Group_1571" data-name="Group 1571" transform="translate(0.48 0.587)">
                    <path id="Path_1735" data-name="Path 1735" d="M265.52,138.917c.036.121-.008.235-.1.256s-.193-.06-.229-.181.008-.235.1-.256S265.484,138.8,265.52,138.917Z" transform="translate(-264.789 -137.559)" fill="#fff"/>
                    <path id="Path_1736" data-name="Path 1736" d="M264.564,136.3l-.149.034a.074.074,0,0,1-.077-.057l-.289-.794c-.016-.043,0-.087.032-.095l.248-.057c.033-.008.07.024.081.069l.19.817C264.61,136.256,264.594,136.292,264.564,136.3Z" transform="translate(-264.043 -135.33)" fill="#fff"/>
                  </g>
                </g>
              </g>
            </g>
            <g id="Group_1575" data-name="Group 1575" transform="translate(7.033 87.009)">
              <path id="Path_1737" data-name="Path 1737" d="M260.172,356.844l-.784,2.915,2.337.925.784-2.915Z" transform="translate(-259.389 -356.844)" fill="#f29994"/>
              <path id="Path_1738" data-name="Path 1738" d="M321.626,366.581h-2.514l1.01,3h2.514Z" transform="translate(-298.517 -363.223)" fill="#f29994"/>
            </g>
            <path id="Path_1739" data-name="Path 1739" d="M308.182,154.774a56.453,56.453,0,0,0-2.478,8.045c-.446,1.91-.788,3.742-1.058,5.407-.633,3.9-.871,6.907-1.1,7.908-1.939-.347-9.244-1.657-13.227-2.373-.275-14.406,3.984-21.351,3.984-21.351a26.294,26.294,0,0,1,3.233-.049c.228.01.458.027.692.048a49.621,49.621,0,0,1,5.624,1.008c.352.081.707.172,1.051.267C306.659,154.169,308.182,154.774,308.182,154.774Z" transform="translate(-272.613 -135.848)" fill="#ff5858"/>
            <path id="Path_1740" data-name="Path 1740" d="M331.113,168.777a10.569,10.569,0,0,0,1.024,5.954c.079-.376.164-.756.253-1.138.336-1.435.728-2.916,1.2-4.4Z" transform="translate(-299.299 -146.622)" fill="#2b6ad8"/>
            <path id="Path_1741" data-name="Path 1741" d="M318.913,136.829c-.679,1.745-1.628,5-.579,6.431a5.712,5.712,0,0,1-4.645.947c-1.55-.313-1.434-1.415-.978-1.956,2.1-.12,2.32-1.626,2.221-3.095Z" transform="translate(-287.094 -125.691)" fill="#ffc3bd"/>
            <path id="Path_1742" data-name="Path 1742" d="M322.073,139.583l-2.356,1.376a5.883,5.883,0,0,1-.006,1.029,2.528,2.528,0,0,0,2.228-1.421A2.757,2.757,0,0,0,322.073,139.583Z" transform="translate(-291.876 -127.495)" fill="#f29994"/>
            <path id="Path_1743" data-name="Path 1743" d="M312.7,117.8c-.551,1.12-.8,4.592.756,4.054s1.474-3.183,1.474-3.183S313.991,115.182,312.7,117.8Z" transform="translate(-287.005 -112.587)" fill="#0f264c"/>
            <path id="Path_1744" data-name="Path 1744" d="M319.143,120.976c-.59,2.423-.812,3.871-2.276,4.906a3.313,3.313,0,0,1-5.168-2.658c-.131-2.3.856-5.872,3.429-6.416A3.4,3.4,0,0,1,319.143,120.976Z" transform="translate(-286.62 -112.522)" fill="#ffc3bd"/>
            <path id="Path_1745" data-name="Path 1745" d="M317.237,112.195c-1.418.859-1.179,3.631.776,4.358s2.382-.7,2.062-.845c.677-.143,3.339-1.335,2.281-3.5-.642-1.313-2.6-1.1-2.6-1.1s2.319-2.274-1.328-4.1c-4.455-2.236-5.128,1.866-5.128,1.866s-2.867-.317-2.625,1.592c.322,2.531,3.01.509,3.01.509S313.856,113.207,317.237,112.195Z" transform="translate(-285.948 -105.719)" fill="#0f264c"/>
            <path id="Path_1746" data-name="Path 1746" d="M318.108,108.646a.129.129,0,0,1-.122-.087,3.606,3.606,0,0,1,.3-3.073c.607-.768,1.716-1.076,3.3-.916a.13.13,0,0,1,.116.142.126.126,0,0,1-.142.116c-1.489-.15-2.523.125-3.073.819a3.413,3.413,0,0,0-.256,2.829.13.13,0,0,1-.08.165A.137.137,0,0,1,318.108,108.646Z" transform="translate(-290.601 -104.529)" fill="#0f264c"/>
            <path id="Path_1747" data-name="Path 1747" d="M330.383,134a2.371,2.371,0,0,1-1.639.769c-.83.032-1.054-.757-.662-1.44.352-.615,1.209-1.373,1.965-1.081A1.065,1.065,0,0,1,330.383,134Z" transform="translate(-297.237 -122.647)" fill="#ffc3bd"/>
            <path id="Path_1748" data-name="Path 1748" d="M257.469,265.6l3.956,1.564s4.612-15.334,6.183-23a82.074,82.074,0,0,1,2.622-8.977c1.469-4.319,3.229-8.971,4.652-12.609,1.5-3.832,2.619-6.537,2.619-6.537l-8.7-1.56s-7.555,20.138-8.639,27.73C259.037,250.095,257.469,265.6,257.469,265.6Z" transform="translate(-251.098 -176.559)" fill="#e1c42b"/>
            <path id="Path_1749" data-name="Path 1749" d="M294.474,246.655c1.469-4.319,3.229-8.971,4.652-12.609l-.7-2.057C295.975,234.336,294.524,242.267,294.474,246.655Z" transform="translate(-275.342 -188.035)" fill="#e1c42b"/>
            <path id="Path_1750" data-name="Path 1750" d="M301.785,216.913s-1.372,21.488-1.1,28.845c.3,8.056,6.161,25.185,6.161,25.185h4.6s-2.98-15.409-3.581-23.246c-.684-8.927,2.456-29.252,2.456-29.252Z" transform="translate(-279.386 -178.158)" fill="#e1c42b"/>
            <path id="Path_1751" data-name="Path 1751" d="M315.8,370.607h5.419v-1.619l-6.057-.105Z" transform="translate(-288.898 -277.722)" fill="#e1c42b"/>
            <path id="Path_1752" data-name="Path 1752" d="M255.923,358.961l4.714,1.866.6-1.523L256,357.138Z" transform="translate(-250.085 -270.028)" fill="#e1c42b"/>
            <path id="Path_1753" data-name="Path 1753" d="M321.262,128.325c-.036.2-.17.342-.3.319s-.207-.2-.171-.4.171-.342.3-.319S321.3,128.125,321.262,128.325Z" transform="translate(-292.577 -119.853)" fill="#0f264c"/>
            <path id="Path_1754" data-name="Path 1754" d="M314.724,127.152c-.036.2-.17.342-.3.319s-.207-.2-.171-.4.171-.342.3-.319S314.76,126.952,314.724,127.152Z" transform="translate(-288.294 -119.084)" fill="#0f264c"/>
            <path id="Path_1755" data-name="Path 1755" d="M315.273,128.584a7.25,7.25,0,0,1-1.259,1.535,1.167,1.167,0,0,0,.921.35Z" transform="translate(-288.144 -120.289)" fill="#ed847e"/>
            <path id="Path_1756" data-name="Path 1756" d="M319.592,136.94a.059.059,0,0,1-.012-.118c.336-.068.356-.136.356-.136a.06.06,0,0,1-.016-.017s-.152-.219-.927-.253a.059.059,0,0,1,0-.119h0c.781.034.981.25,1.018.3a.12.12,0,0,1,.035.113c-.023.1-.166.168-.449.225Z" transform="translate(-291.369 -125.343)" fill="#0f264c"/>
            <path id="Path_1757" data-name="Path 1757" d="M322.891,125.772a.118.118,0,0,1-.106-.065.943.943,0,0,0-.681-.526.119.119,0,0,1-.1-.131.114.114,0,0,1,.131-.105,1.181,1.181,0,0,1,.867.655.119.119,0,0,1-.106.173Z" transform="translate(-293.375 -117.904)" fill="#0f264c"/>
            <path id="Path_1758" data-name="Path 1758" d="M313.014,123.843a.119.119,0,0,1-.1-.189,1.181,1.181,0,0,1,.96-.508.119.119,0,0,1,.112.125.11.11,0,0,1-.124.112h0a.954.954,0,0,0-.756.411A.121.121,0,0,1,313.014,123.843Z" transform="translate(-287.41 -116.725)" fill="#0f264c"/>
            <path id="Path_1759" data-name="Path 1759" d="M320.252,382.67a.762.762,0,0,1-.484-.128.359.359,0,0,1-.123-.315.189.189,0,0,1,.1-.168c.28-.141,1.089.355,1.18.412a.059.059,0,0,1,.027.06.058.058,0,0,1-.045.048A2.931,2.931,0,0,1,320.252,382.67Zm-.373-.52a.167.167,0,0,0-.077.015.073.073,0,0,0-.038.07.243.243,0,0,0,.081.216,1.207,1.207,0,0,0,.892.046A2.407,2.407,0,0,0,319.878,382.15Z" transform="translate(-291.832 -286.339)" fill="#407bff"/>
            <path id="Path_1760" data-name="Path 1760" d="M321.863,381.46a.056.056,0,0,1-.028-.007c-.26-.141-.763-.692-.709-.972a.194.194,0,0,1,.189-.156.319.319,0,0,1,.253.076c.292.239.352.964.354.995a.058.058,0,0,1-.027.055A.057.057,0,0,1,321.863,381.46Zm-.507-1.019-.027,0c-.078.01-.084.045-.087.06-.031.165.289.581.547.778a1.431,1.431,0,0,0-.3-.787A.209.209,0,0,0,321.357,380.441Z" transform="translate(-292.8 -285.217)" fill="#407bff"/>
            <path id="Path_1761" data-name="Path 1761" d="M254.063,371.249h-.01c-.406-.074-1.112-.247-1.278-.575a.333.333,0,0,1,0-.31.189.189,0,0,1,.15-.111l.028,0c.357,0,1.071.807,1.153.9a.06.06,0,0,1-.045.1Zm-1.1-.881h-.017a.07.07,0,0,0-.058.045.217.217,0,0,0,0,.2c.093.184.469.359,1.018.477C253.6,370.769,253.157,370.368,252.959,370.368Z" transform="translate(-247.998 -278.618)" fill="#407bff"/>
            <path id="Path_1762" data-name="Path 1762" d="M255.594,370.643a.06.06,0,0,1-.042-.018c-.232-.238-.59-.964-.443-1.212.035-.058.11-.117.267-.073a.434.434,0,0,1,.269.217,1.7,1.7,0,0,1,.007,1.044.059.059,0,0,1-.043.041Zm-.319-1.2a.065.065,0,0,0-.065.031c-.088.149.134.7.353.982a1.4,1.4,0,0,0-.023-.842.318.318,0,0,0-.2-.16A.255.255,0,0,0,255.275,369.443Z" transform="translate(-249.528 -278.012)" fill="#407bff"/>
            <g id="Group_1576" data-name="Group 1576" transform="translate(31.456 18.662)">
              <path id="Path_1763" data-name="Path 1763" d="M336.811,162.811c.334.39.619.74.907,1.12s.567.75.842,1.131c.545.766,1.065,1.551,1.553,2.363s.944,1.652,1.364,2.521l.308.658.281.679c.1.223.177.461.261.7l.125.352.031.088.047.147c.036.113.058.215.08.319a5.164,5.164,0,0,1-.034,1.957,11.522,11.522,0,0,1-.4,1.518,21.866,21.866,0,0,1-1.129,2.662,35.668,35.668,0,0,1-2.884,4.775l-1.638-.935c.675-1.629,1.331-3.3,1.894-4.941a24.08,24.08,0,0,0,.706-2.431,8.148,8.148,0,0,0,.184-1.123,2.061,2.061,0,0,0-.033-.736s-.007-.014-.009-.007.007.019-.008-.013l-.031-.069-.126-.278c-.084-.185-.162-.37-.261-.553l-.28-.553-.3-.551q-.623-1.1-1.332-2.174c-.477-.714-.968-1.425-1.478-2.124s-1.051-1.4-1.549-2.044Z" transform="translate(-332.627 -161.374)" fill="#ffc3bd"/>
              <path id="Path_1764" data-name="Path 1764" d="M333.647,158.7c2.375.359,5.532,5.721,5.532,5.721l-4.463,4.859a46.344,46.344,0,0,1-3.877-5.912C329.286,160.365,330.769,158.267,333.647,158.7Z" transform="translate(-330.212 -158.645)" fill="#ff5858"/>
              <path id="Path_1765" data-name="Path 1765" d="M338.67,219.571l-2.2,1.295,2.634,1.834s1.626-1.518.918-2.469Z" transform="translate(-334.314 -198.561)" fill="#ffc3bd"/>
              <path id="Path_1766" data-name="Path 1766" d="M334.213,225.275l2.248,1.413,1.166-1.529-2.634-1.833Z" transform="translate(-332.833 -201.022)" fill="#ffc3bd"/>
            </g>
            <g id="Group_1579" data-name="Group 1579" transform="translate(5.737 5.661)">
              <g id="Group_1577" data-name="Group 1577" transform="translate(3.181)">
                <path id="Path_1767" data-name="Path 1767" d="M266.406,126.5h-.345a1.208,1.208,0,0,0-1.207-1.207v-.345A1.553,1.553,0,0,1,266.406,126.5Z" transform="translate(-264.854 -123.566)" fill="#407bff"/>
                <path id="Path_1768" data-name="Path 1768" d="M267.1,125.186h-.345a1.9,1.9,0,0,0-1.9-1.9v-.345A2.244,2.244,0,0,1,267.1,125.186Z" transform="translate(-264.854 -122.255)" fill="#407bff"/>
                <path id="Path_1769" data-name="Path 1769" d="M267.785,123.876h-.345a2.589,2.589,0,0,0-2.586-2.586v-.345A2.934,2.934,0,0,1,267.785,123.876Z" transform="translate(-264.854 -120.945)" fill="#407bff"/>
              </g>
              <g id="Group_1578" data-name="Group 1578" transform="translate(0 9.445)">
                <path id="Path_1770" data-name="Path 1770" d="M261.182,149.885a1.553,1.553,0,0,1-1.552-1.552h.345a1.208,1.208,0,0,0,1.207,1.207Z" transform="translate(-258.251 -148.333)" fill="#407bff"/>
                <path id="Path_1771" data-name="Path 1771" d="M259.871,150.574a2.244,2.244,0,0,1-2.241-2.241h.345a1.9,1.9,0,0,0,1.9,1.9Z" transform="translate(-256.94 -148.333)" fill="#407bff"/>
                <path id="Path_1772" data-name="Path 1772" d="M258.561,151.264a2.934,2.934,0,0,1-2.931-2.931h.345a2.589,2.589,0,0,0,2.586,2.586Z" transform="translate(-255.63 -148.333)" fill="#407bff"/>
              </g>
            </g>
          </g>
          <g id="Group_1584" data-name="Group 1584">
            <rect id="Rectangle_533" data-name="Rectangle 533" width="0.345" height="6.784" transform="translate(2.877 10.999)" fill="#407bff"/>
            <rect id="Rectangle_534" data-name="Rectangle 534" width="0.345" height="2.177" transform="translate(2.877 19.658)" fill="#407bff"/>
            <rect id="Rectangle_535" data-name="Rectangle 535" width="38.625" height="30.259" rx="13.653" transform="translate(4.084 4.073)" fill="#e1c42b"/>
            <g id="Group_1581" data-name="Group 1581">
              <path id="Path_1773" data-name="Path 1773" d="M110.608,93.146a.342.342,0,0,1-.244-.1L107.7,90.382a.345.345,0,0,1,.488-.488l2.663,2.663a.345.345,0,0,1-.244.589Z" transform="translate(-106.986 -89.18)" fill="#407bff"/>
              <path id="Path_1774" data-name="Path 1774" d="M119.7,91.246a.345.345,0,0,1-.338-.28l-.489-2.544a.345.345,0,1,1,.677-.13l.489,2.544a.344.344,0,0,1-.273.4A.327.327,0,0,1,119.7,91.246Z" transform="translate(-114.366 -88.013)" fill="#407bff"/>
              <path id="Path_1775" data-name="Path 1775" d="M108.708,102.237a.354.354,0,0,1-.066-.006l-2.544-.489a.345.345,0,1,1,.13-.677l2.544.489a.345.345,0,0,1-.064.683Z" transform="translate(-105.819 -96.56)" fill="#407bff"/>
            </g>
            <path id="Path_1776" data-name="Path 1776" d="M227.651,134.779l8.466-2.6-8.466,8.975Z" transform="translate(-185.638 -116.952)" fill="#e1c42b"/>
            <g id="Group_1582" data-name="Group 1582" transform="translate(15.009 9.72)">
              <path id="Path_1777" data-name="Path 1777" d="M166.117,131.086H149.344a3.363,3.363,0,0,1,.99-2.386l.335-.338a2.886,2.886,0,0,0,.848-2.048v-3.9a6.2,6.2,0,0,1,7.942-5.966,4.522,4.522,0,0,0,4.235,6.114c.086,0,.169,0,.252-.007v3.759a2.9,2.9,0,0,0,.848,2.048l.334.338a3.341,3.341,0,0,1,.99,2.386Z" transform="translate(-149.344 -116.199)" fill="#fff"/>
              <path id="Path_1778" data-name="Path 1778" d="M170.683,162a3.321,3.321,0,0,1-3.441,3.168A3.361,3.361,0,0,1,164.053,162Z" transform="translate(-158.981 -146.208)" fill="#fff"/>
            </g>
            <circle id="Ellipse_148" data-name="Ellipse 148" cx="3.386" cy="3.386" r="3.386" transform="matrix(0.737, -0.676, 0.676, 0.737, 24.573, 11.355)" fill="#ff5652"/>
            <g id="Group_1583" data-name="Group 1583" transform="translate(28.11 9.927)">
              <path id="Path_1779" data-name="Path 1779" d="M189.254,116.8v3.407h-.941v-2.233a2.853,2.853,0,0,1-.442.281,3.441,3.441,0,0,1-.536.206V117.7a2.26,2.26,0,0,0,.738-.368,1.5,1.5,0,0,0,.411-.53Z" transform="translate(-187.335 -116.799)" fill="#fff"/>
            </g>
          </g>
        </g>
      </g>
    </g>
  </g>
</svg>
