<svg xmlns="http://www.w3.org/2000/svg" width="200.435" height="154.92" viewBox="0 0 200.435 154.92" style="font-size:15px;font-family:Arial;font-weight:600;">
  <g id="profile" transform="translate(-327 -342)">
    <text id="Profile-2" data-name="Profile" transform="translate(403 358)" fill="#494e56" font-size="15" font-family="Arial" font-weight="600"><tspan x="0" y="0">Profile</tspan></text>
    <g id="Group_1627" data-name="Group 1627" transform="translate(97.88 257.437)">
      <path id="Path_1780" data-name="Path 1780" d="M258.186,224.941c27.377-10.164,55.2-1.178,74.075,18.393s58.477-13.508,79.482,6.031c14.335,13.334,7.769,47.618-11.887,62.467-26.716,20.183-107.963,9.942-125.538,6.507-20.248-3.957-35.051-15.963-41.065-30.535C218.762,252.692,246.088,229.432,258.186,224.941Z" transform="translate(0 -87.951)" fill="#f6f5f5"/>
      <g id="Group_1599" data-name="Group 1599" transform="translate(249.879 126.563)">
        <g id="Group_1594" data-name="Group 1594" transform="translate(57.077)">
          <path id="Path_1781" data-name="Path 1781" d="M1455.152,151.109a22.722,22.722,0,0,0,.142-2.523c0-.45-.015-.9-.041-1.341l-4.17-1.349a18.338,18.338,0,0,0-1.476-5l2.765-3.4a22.528,22.528,0,0,0-2.19-3.184l-4.17,1.361a18.535,18.535,0,0,0-4.128-3.173l.237-4.381a22.312,22.312,0,0,0-3.64-1.29l-2.575,3.553a18.54,18.54,0,0,0-5.206-.136l-2.384-3.685a22.3,22.3,0,0,0-3.7,1.094l.005,4.388a18.5,18.5,0,0,0-4.29,2.951l-4.091-1.579a22.569,22.569,0,0,0-2.356,3.063l2.582,3.544a18.327,18.327,0,0,0-1.74,4.91l-4.235,1.127a22.666,22.666,0,0,0-.142,2.523c0,.45.015.9.041,1.341l4.17,1.349a18.326,18.326,0,0,0,1.476,5l-2.765,3.4a22.513,22.513,0,0,0,2.19,3.184l4.17-1.361a18.527,18.527,0,0,0,4.128,3.173l-.237,4.381a22.3,22.3,0,0,0,3.64,1.29l2.575-3.553a18.541,18.541,0,0,0,5.206.136l2.384,3.685a22.288,22.288,0,0,0,3.7-1.095l-.005-4.388a18.493,18.493,0,0,0,4.29-2.951l4.091,1.579a22.572,22.572,0,0,0,2.356-3.063l-2.582-3.544a18.322,18.322,0,0,0,1.741-4.91Zm-22.333,6.292a8.815,8.815,0,1,1,8.815-8.815A8.815,8.815,0,0,1,1432.819,157.4Z" transform="translate(-1410.344 -126.563)" fill="#e1c42b"/>
          <g id="Group_1591" data-name="Group 1591" transform="translate(34.168 16.736)">
            <path id="Path_1782" data-name="Path 1782" d="M1929.2,395.878a.329.329,0,0,1-.253-.54,14.914,14.914,0,0,0,2.627-14.364.329.329,0,0,1,.623-.215,15.571,15.571,0,0,1-2.744,15A.328.328,0,0,1,1929.2,395.878Z" transform="translate(-1928.874 -380.537)" fill="#fff"/>
          </g>
          <g id="Group_1592" data-name="Group 1592" transform="translate(27.653 7.384)">
            <path id="Path_1783" data-name="Path 1783" d="M1835.567,242.509a.328.328,0,0,1-.226-.09,14.8,14.8,0,0,0-5.125-3.158.329.329,0,0,1,.225-.619,15.457,15.457,0,0,1,5.352,3.3.329.329,0,0,1-.226.569Z" transform="translate(-1829.999 -238.622)" fill="#fff"/>
          </g>
          <g id="Group_1593" data-name="Group 1593" transform="translate(18.726 6.476)">
            <path id="Path_1784" data-name="Path 1784" d="M1694.859,225.962a.33.33,0,0,1-.08-.649,15.608,15.608,0,0,1,3.817-.472.329.329,0,1,1,0,.659,14.948,14.948,0,0,0-3.656.452A.33.33,0,0,1,1694.859,225.962Z" transform="translate(-1694.53 -224.841)" fill="#fff"/>
          </g>
        </g>
        <g id="Group_1598" data-name="Group 1598" transform="translate(0 63.36)">
          <path id="Path_1785" data-name="Path 1785" d="M575.189,1105.1a15.725,15.725,0,0,0,.1-1.748c0-.312-.01-.621-.028-.928l-2.888-.935a12.7,12.7,0,0,0-1.023-3.46l1.915-2.356a15.6,15.6,0,0,0-1.517-2.205l-2.888.943a12.834,12.834,0,0,0-2.859-2.2l.164-3.035a15.449,15.449,0,0,0-2.521-.894l-1.784,2.461a12.84,12.84,0,0,0-3.606-.095l-1.651-2.552a15.439,15.439,0,0,0-2.565.758l0,3.039a12.815,12.815,0,0,0-2.972,2.044l-2.834-1.093a15.635,15.635,0,0,0-1.632,2.122l1.788,2.455a12.693,12.693,0,0,0-1.206,3.4l-2.933.781a15.724,15.724,0,0,0-.1,1.748c0,.312.01.621.028.928l2.888.934a12.689,12.689,0,0,0,1.023,3.46l-1.915,2.356a15.609,15.609,0,0,0,1.517,2.205l2.888-.943a12.835,12.835,0,0,0,2.859,2.2l-.164,3.035a15.449,15.449,0,0,0,2.521.894l1.784-2.461a12.858,12.858,0,0,0,3.606.094l1.651,2.552a15.449,15.449,0,0,0,2.566-.758l0-3.039a12.811,12.811,0,0,0,2.972-2.044l2.834,1.093a15.614,15.614,0,0,0,1.632-2.122l-1.788-2.455a12.7,12.7,0,0,0,1.206-3.4Zm-15.469,4.358a6.106,6.106,0,1,1,6.106-6.106A6.106,6.106,0,0,1,559.72,1109.455Z" transform="translate(-544.153 -1088.095)" fill="#e1c42b"/>
          <g id="Group_1595" data-name="Group 1595" transform="translate(23.565 11.49)">
            <path id="Path_1786" data-name="Path 1786" d="M902.1,1273.3a.329.329,0,0,1-.253-.54,10.228,10.228,0,0,0,1.8-9.851.329.329,0,0,1,.623-.215,10.887,10.887,0,0,1-1.918,10.487A.329.329,0,0,1,902.1,1273.3Z" transform="translate(-901.771 -1262.472)" fill="#fff"/>
          </g>
          <g id="Group_1596" data-name="Group 1596" transform="translate(19.052 5.013)">
            <path id="Path_1787" data-name="Path 1787" d="M837.244,1167.069a.328.328,0,0,1-.226-.09,10.152,10.152,0,0,0-3.515-2.166.329.329,0,1,1,.225-.619,10.806,10.806,0,0,1,3.742,2.305.33.33,0,0,1-.226.569Z" transform="translate(-833.286 -1164.174)" fill="#fff"/>
          </g>
          <g id="Group_1597" data-name="Group 1597" transform="translate(12.869 4.384)">
            <path id="Path_1788" data-name="Path 1788" d="M739.783,1155.609a.329.329,0,0,1-.08-.649,10.91,10.91,0,0,1,2.668-.33.33.33,0,1,1,0,.659,10.256,10.256,0,0,0-2.507.31A.325.325,0,0,1,739.783,1155.609Z" transform="translate(-739.454 -1154.63)" fill="#fff"/>
          </g>
        </g>
        <path id="Path_1789" data-name="Path 1789" d="M1999.062,594.387q0-.255-.014-.508l2.163-1.737a11.523,11.523,0,0,0-.786-2.486l-2.794-.211a9.3,9.3,0,0,0-2.418-2.566l-.009-2.784a11.533,11.533,0,0,0-2.477-.956l-1.91,2.055a9.282,9.282,0,0,0-3.434.269l-2.19-1.734a11.6,11.6,0,0,0-2.316,1.343l.414,2.76a9.267,9.267,0,0,0-1.95,2.846l-2.724.631a11.6,11.6,0,0,0-.4,2.626l2.4,1.387a9.186,9.186,0,0,0,1.026,3.39l-1.2,2.516a11.672,11.672,0,0,0,1.765,1.921l2.573-1.008a9.19,9.19,0,0,0,3.392,1.346l1.213,2.5c.145.005.29.009.435.009a11.678,11.678,0,0,0,2.127-.2l.818-2.644a9.243,9.243,0,0,0,3.192-1.853l2.7.608a11.633,11.633,0,0,0,1.44-2.128l-1.567-2.3A9.23,9.23,0,0,0,1999.062,594.387Zm-9.349,4.074a3.895,3.895,0,1,1,3.895-3.895A3.895,3.895,0,0,1,1989.713,598.461Z" transform="translate(-1883.718 -553.053)" fill="#e1c42b"/>
      </g>
      <g id="Group_1603" data-name="Group 1603" transform="translate(379.784 136.442)">
        <g id="Group_1600" data-name="Group 1600" transform="translate(15.751 0.98)" opacity="0.8">
          <path id="Path_1790" data-name="Path 1790" d="M2760.287,299.4h-3.348a2.347,2.347,0,0,1-2.344-2.344v-3.348a2.347,2.347,0,0,1,2.344-2.344h3.348a2.347,2.347,0,0,1,2.344,2.344v3.348A2.347,2.347,0,0,1,2760.287,299.4Zm-3.348-7.113a1.423,1.423,0,0,0-1.422,1.422v3.348a1.423,1.423,0,0,0,1.422,1.422h3.348a1.423,1.423,0,0,0,1.421-1.422v-3.348a1.423,1.423,0,0,0-1.421-1.422Z" transform="translate(-2754.595 -291.367)" fill="#9ec8ff"/>
        </g>
        <g id="Group_1601" data-name="Group 1601" transform="translate(0 0.98)" opacity="0.8">
          <path id="Path_1791" data-name="Path 1791" d="M2521.251,299.4H2517.9a2.347,2.347,0,0,1-2.344-2.344v-3.348a2.347,2.347,0,0,1,2.344-2.344h3.347a2.347,2.347,0,0,1,2.344,2.344v3.348A2.347,2.347,0,0,1,2521.251,299.4Zm-3.347-7.113a1.423,1.423,0,0,0-1.422,1.422v3.348a1.423,1.423,0,0,0,1.422,1.422h3.347a1.423,1.423,0,0,0,1.422-1.422v-3.348a1.423,1.423,0,0,0-1.422-1.422Z" transform="translate(-2515.56 -291.367)" fill="#9ec8ff"/>
        </g>
        <g id="Group_1602" data-name="Group 1602" transform="translate(1.426)">
          <path id="Path_1792" data-name="Path 1792" d="M2540,283.559h-.019a.4.4,0,0,1-.295-.154l-2.406-3.138a.4.4,0,0,1,.628-.481l2.122,2.768,5.54-5.935a.4.4,0,0,1,.578.539l-5.858,6.277A.4.4,0,0,1,2540,283.559Z" transform="translate(-2537.197 -276.491)" fill="#f37168"/>
        </g>
      </g>
      <path id="Path_1793" data-name="Path 1793" d="M606.314,1700.611c-13.7-.67-60.324.465-74.5.907s-30.636-.584-39.186-2.093-57.966.129-55.723,4.186,22.017,1.815,44.442,3.446,72.859-.2,84.236,0,21.809-.408,36.469-1.223S614.258,1701,606.314,1700.611Z" transform="translate(-192.161 -1468.256)" fill="#f6f5f5"/>
      <g id="Group_1608" data-name="Group 1608" transform="translate(243.57 147.058)">
        <rect id="Rectangle_536" data-name="Rectangle 536" width="28.647" height="46.955" transform="translate(0)" fill="#01aac9"/>
        <rect id="Rectangle_537" data-name="Rectangle 537" width="26.205" height="44.208" transform="translate(1.5 0.957)" fill="#fff"/>
        <g id="Group_1607" data-name="Group 1607" transform="translate(3.019 2.754)">
          <g id="Group_1604" data-name="Group 1604" transform="translate(6.32 2.714)">
            <path id="Path_1794" data-name="Path 1794" d="M590.122,681.432c.986-2.122,2.656-2.8,5.4-2.8,3.264,0,4.959,1.182,5.439,2.9C595.113,681.615,590.122,681.432,590.122,681.432Z" transform="translate(-590.122 -668.216)" fill="#9bd6e8"/>
            <path id="Path_1795" data-name="Path 1795" d="M596.251,520.671c-1.382.388-1.321,1.164-1.782,1.885s-1.461,1.2-1.581,1.681.308,1.481-.2,2.042-.681.841-.48,1.4.641,1.441.681,1.561a2.244,2.244,0,0,0,1.281,1.081,14.436,14.436,0,0,1,2.6.6c.641.28,2.7-.359,3.843-.319s1.922-.8,1.842-1.363.843-1.681.841-2.642c0-1.032-1.2-1.8-1.521-2.482s.04-1.882-1.161-2.593a6.908,6.908,0,0,0-1.882-.61A4.454,4.454,0,0,0,596.251,520.671Z" transform="translate(-591.994 -520.576)" fill="#3a384d"/>
            <path id="Path_1796" data-name="Path 1796" d="M656.408,606.721c-.312.461-.542.48-.881,0a4.385,4.385,0,0,1-.8-1.69v-4.4a.8.8,0,0,1,.8-.8h.881a.8.8,0,0,1,.8.8v4.4A4.447,4.447,0,0,1,656.408,606.721Z" transform="translate(-650.469 -594.612)" fill="#f09959"/>
            <path id="Path_1797" data-name="Path 1797" d="M656.408,599.835h-.881a.8.8,0,0,0-.8.8v3.922a2.4,2.4,0,0,0,2.482-1.016v-2.905A.8.8,0,0,0,656.408,599.835Z" transform="translate(-650.469 -594.612)" fill="#e38540"/>
            <ellipse id="Ellipse_150" data-name="Ellipse 150" cx="2.662" cy="3.628" rx="2.662" ry="3.628" transform="translate(2.836 1.64)" fill="#f09959"/>
            <path id="Path_1798" data-name="Path 1798" d="M633.372,536.4a4.558,4.558,0,0,1-4.164,2.562s.06-3.763,2.032-3.963,3.133.591,3.533,1.9a3.223,3.223,0,0,1,0,2.167,3.456,3.456,0,0,1-.961-1.3A9.347,9.347,0,0,1,633.372,536.4Z" transform="translate(-626.633 -534.017)" fill="#3a384d"/>
            <ellipse id="Ellipse_151" data-name="Ellipse 151" cx="0.701" cy="1.051" rx="0.701" ry="1.051" transform="translate(1.392 4.863) rotate(-25.405)" fill="#f09959"/>
            <path id="Path_1799" data-name="Path 1799" d="M705.96,589.8c-.249.524-.168,1.084.182,1.25s.835-.125,1.084-.649.168-1.084-.182-1.25S706.209,589.279,705.96,589.8Z" transform="translate(-698.192 -584.592)" fill="#f09959"/>
            <path id="Path_1800" data-name="Path 1800" d="M660.374,630.368a1.153,1.153,0,0,1-2,0Z" transform="translate(-653.875 -623.133)" fill="#fff"/>
          </g>
          <path id="Path_1801" data-name="Path 1801" d="M615.265,786.314h-6.723a.782.782,0,0,1,0-1.564h6.723a.782.782,0,0,1,0,1.564Z" transform="translate(-600.278 -764.628)" fill="#01aac9"/>
          <path id="Path_1802" data-name="Path 1802" d="M599.046,822.766h-9.185a.782.782,0,0,1,0-1.564h9.185a.782.782,0,0,1,0,1.564Z" transform="translate(-582.828 -798.678)" fill="#01aac9"/>
          <path id="Path_1803" data-name="Path 1803" d="M517.014,963.164H494.671a.454.454,0,1,1,0-.907h22.343a.454.454,0,1,1,0,.907Z" transform="translate(-494.217 -930.438)" fill="#01aac9"/>
          <path id="Path_1804" data-name="Path 1804" d="M517.014,995.16H494.671a.454.454,0,1,1,0-.907h22.343a.454.454,0,0,1,0,.907Z" transform="translate(-494.217 -960.326)" fill="#01aac9"/>
          <path id="Path_1805" data-name="Path 1805" d="M517.014,1027.156H494.671a.454.454,0,1,1,0-.907h22.343a.454.454,0,1,1,0,.907Z" transform="translate(-494.217 -990.214)" fill="#01aac9"/>
          <g id="Group_1605" data-name="Group 1605" transform="translate(2.769)">
            <path id="Path_1806" data-name="Path 1806" d="M553.138,495.839H537.045a.811.811,0,0,1-.81-.81V480.2a.811.811,0,0,1,.81-.81h16.093a.811.811,0,0,1,.81.81v14.832A.811.811,0,0,1,553.138,495.839Zm-16.093-15.793a.153.153,0,0,0-.151.151v14.832a.153.153,0,0,0,.151.151h16.093a.153.153,0,0,0,.151-.151V480.2a.153.153,0,0,0-.151-.151Z" transform="translate(-536.235 -479.387)" fill="#99bbeb"/>
          </g>
        </g>
      </g>
      <g id="Group_1613" data-name="Group 1613" transform="translate(307.435 147.058)">
        <rect id="Rectangle_538" data-name="Rectangle 538" width="28.647" height="46.955" fill="#99bbeb"/>
        <rect id="Rectangle_539" data-name="Rectangle 539" width="26.205" height="44.208" transform="translate(1.5 0.957)" fill="#fff"/>
        <g id="Group_1612" data-name="Group 1612" transform="translate(3.019 2.754)">
          <g id="Group_1609" data-name="Group 1609" transform="translate(6.32 2.996)">
            <path id="Path_1811" data-name="Path 1811" d="M1578.225,596.877c0,2.1,1.266,5.5,4.254,5.388s3.648-3.344,3.763-4.256S1578.225,596.877,1578.225,596.877Z" transform="translate(-1576.98 -592.132)" fill="#7a4e34"/>
            <path id="Path_1812" data-name="Path 1812" d="M1559.335,681.432c.986-2.122,2.656-2.8,5.4-2.8,3.264,0,4.959,1.182,5.439,2.9C1564.326,681.615,1559.335,681.432,1559.335,681.432Z" transform="translate(-1559.335 -668.498)" fill="#d54a41"/>
            <path id="Path_1813" data-name="Path 1813" d="M1625.621,606.721c-.312.461-.542.48-.881,0a4.384,4.384,0,0,1-.8-1.69v-4.4a.8.8,0,0,1,.8-.8h.881a.8.8,0,0,1,.8.8v4.4A4.447,4.447,0,0,1,1625.621,606.721Z" transform="translate(-1619.683 -594.895)" fill="#f09959"/>
            <path id="Path_1814" data-name="Path 1814" d="M1625.621,599.835h-.881a.8.8,0,0,0-.8.8v3.922a2.4,2.4,0,0,0,2.482-1.016v-2.905A.8.8,0,0,0,1625.621,599.835Z" transform="translate(-1619.683 -594.895)" fill="#e38540"/>
            <ellipse id="Ellipse_152" data-name="Ellipse 152" cx="2.662" cy="3.628" rx="2.662" ry="3.628" transform="translate(2.836 1.357)" fill="#f09959"/>
            <path id="Path_1815" data-name="Path 1815" d="M1583.814,527.088c-.316,1.116-1.01,1.1-1.976,1.469a2.62,2.62,0,0,0-1.745,1.449c-.4.91.183,3.564.183,3.564a5.69,5.69,0,0,1-2.165-4.712c.283-2.881,1.982-4,3.58-4a2.563,2.563,0,0,1,2.206.974,2.4,2.4,0,0,1,1.657.957c1.082,1.282.749,4.4,0,5.512s-1.249,1.465-1.232,1.415a11.009,11.009,0,0,0,.333-4.2A10.123,10.123,0,0,0,1583.814,527.088Z" transform="translate(-1576.852 -524.86)" fill="#7a4e34"/>
            <path id="Path_1816" data-name="Path 1816" d="M1629.587,630.368a1.153,1.153,0,0,1-2,0Z" transform="translate(-1623.088 -623.416)" fill="#fff"/>
          </g>
          <path id="Path_1817" data-name="Path 1817" d="M1584.479,786.314h-6.723a.782.782,0,1,1,0-1.564h6.723a.782.782,0,0,1,0,1.564Z" transform="translate(-1569.492 -764.628)" fill="#01aac9"/>
          <path id="Path_1818" data-name="Path 1818" d="M1568.259,822.766h-9.185a.782.782,0,0,1,0-1.564h9.185a.782.782,0,0,1,0,1.564Z" transform="translate(-1552.041 -798.678)" fill="#01aac9"/>
          <path id="Path_1819" data-name="Path 1819" d="M1486.228,963.164h-22.343a.454.454,0,0,1,0-.907h22.343a.454.454,0,0,1,0,.907Z" transform="translate(-1463.431 -930.438)" fill="#01aac9"/>
          <path id="Path_1820" data-name="Path 1820" d="M1486.228,995.16h-22.343a.454.454,0,0,1,0-.907h22.343a.454.454,0,0,1,0,.907Z" transform="translate(-1463.431 -960.326)" fill="#01aac9"/>
          <path id="Path_1821" data-name="Path 1821" d="M1486.228,1027.156h-22.343a.454.454,0,0,1,0-.907h22.343a.454.454,0,0,1,0,.907Z" transform="translate(-1463.431 -990.214)" fill="#01aac9"/>
          <g id="Group_1610" data-name="Group 1610" transform="translate(2.769)">
            <path id="Path_1822" data-name="Path 1822" d="M1522.352,495.839h-16.093a.811.811,0,0,1-.81-.81V480.2a.811.811,0,0,1,.81-.81h16.093a.811.811,0,0,1,.81.81v14.832A.811.811,0,0,1,1522.352,495.839Zm-16.093-15.793a.153.153,0,0,0-.151.151v14.832a.153.153,0,0,0,.151.151h16.093a.153.153,0,0,0,.151-.151V480.2a.153.153,0,0,0-.151-.151Z" transform="translate(-1505.449 -479.387)" fill="#99bbeb"/>
          </g>
        </g>
      </g>
      <path id="Path_1827" data-name="Path 1827" d="M825.6,486.552h-45.21l3.2-46.31h43.642Z" transform="translate(-514.947 -293.009)" fill="#99bbeb" opacity="0.2"/>
      <g id="Group_1618" data-name="Group 1618" transform="translate(270.195 138.469)">
        <rect id="Rectangle_540" data-name="Rectangle 540" width="39.128" height="64.133" fill="#01aac9"/>
        <rect id="Rectangle_541" data-name="Rectangle 541" width="35.792" height="60.382" transform="translate(2.049 1.307)" fill="#fff"/>
        <g id="Group_1617" data-name="Group 1617" transform="translate(4.123 3.882)">
          <g id="Group_1614" data-name="Group 1614" transform="translate(8.179 2.79)">
            <path id="Path_1828" data-name="Path 1828" d="M1094.2,415.815c-.025-.075-.651-3.672-.727-5.07s2.248-1.6,2.248-1.6,1.9-1.024,3.272-.5a5.539,5.539,0,0,1,2.933,2.506c.624,1.1-.549,4.524-.549,4.524Z" transform="translate(-1089.896 -408.497)" fill="#2e2d3d"/>
            <path id="Path_1829" data-name="Path 1829" d="M1039.167,619.075c-.009-.059.16-1.475.167-1.532.316-2.981,3.99-3.819,7.657-3.819,4.308,0,7.23.788,7.7,3.886.014.091.262,1.51.25,1.605C1046.953,619.324,1039.167,619.075,1039.167,619.075Z" transform="translate(-1039.167 -600.201)" fill="#d5e1e8"/>
            <path id="Path_1830" data-name="Path 1830" d="M1129.407,515.506c-.427.63-.74.656-1.2,0-.368-.522-1.6-1.712-1.6-2.313l.5-6a1.1,1.1,0,0,1,1.094-1.094h1.2a1.1,1.1,0,0,1,1.094,1.094l.234,6C1130.735,513.794,1129.79,514.941,1129.407,515.506Z" transform="translate(-1120.844 -499.669)" fill="#f09959"/>
            <path id="Path_1831" data-name="Path 1831" d="M1130.352,506.1h-1.2a1.1,1.1,0,0,0-1.094,1.094l-.438,5.321a4.256,4.256,0,0,0,3.981-1.407l-.153-3.914A1.1,1.1,0,0,0,1130.352,506.1Z" transform="translate(-1121.789 -499.669)" fill="#e38540"/>
            <path id="Path_1832" data-name="Path 1832" d="M1097.339,618.727l1.928,3.565s1.032-.849,1.132-.683a15.245,15.245,0,0,1-.183,2.268,19.769,19.769,0,0,0,2.4-.069c.1-.1-.466-2.283-.233-2.283s.934.633.934.633l2.153-3.431-.473-.115-3.528,1.9-3.774-1.857Z" transform="translate(-1093.506 -604.767)" fill="#bdccd4"/>
            <path id="Path_1833" data-name="Path 1833" d="M1130.81,637.837l1.432.961-.444,2.551,1.932-.108-.482-2.32,1.187-1.084-.558-.526h-2.509Z" transform="translate(-1124.771 -622.234)" fill="#d54a41"/>
            <path id="Path_1834" data-name="Path 1834" d="M1103.01,591.487l-1.771,1.686s1.8,3.21,1.9,3.21,1.531-1.77,1.531-1.77l.917-.016,1.448,1.519,1.683-2.977-1.716-1.819a19.539,19.539,0,0,1-1.732,2.9c-.267.067-.268.1-.484-.067S1103.01,591.487,1103.01,591.487Z" transform="translate(-1097.148 -579.273)" fill="#d5e1e8"/>
            <ellipse id="Ellipse_153" data-name="Ellipse 153" cx="3.636" cy="4.955" rx="3.636" ry="4.955" transform="translate(4.325 1.538)" fill="#f09959"/>
            <path id="Path_1835" data-name="Path 1835" d="M1083.157,492.4c.34.716.229,1.48-.249,1.707s-1.14-.17-1.48-.886-.229-1.48.249-1.707S1082.817,491.683,1083.157,492.4Z" transform="translate(-1078.46 -485.983)" fill="#f09959"/>
            <path id="Path_1836" data-name="Path 1836" d="M1204.245,492.4c-.34.716-.229,1.48.249,1.707s1.14-.17,1.48-.886.229-1.48-.249-1.707S1204.585,491.683,1204.245,492.4Z" transform="translate(-1193.183 -485.983)" fill="#f09959"/>
            <path id="Path_1837" data-name="Path 1837" d="M1138.736,537.875s-.722,1.17-1.613,1.17-1.613-1.17-1.613-1.17Z" transform="translate(-1129.161 -529.35)" fill="#fff"/>
            <path id="Path_1838" data-name="Path 1838" d="M1106.049,427c1.5-1.049,2.173-.874,3.3.849a3.365,3.365,0,0,0,2.473,1.754l.175-1.787s-1.674-3.239-3.922-2.814a5.932,5.932,0,0,0-3.526,2.448s-.109,3.792.2,3.921.35-1.224.574-1.5-.225-1.574.075-2.173S1106.049,427,1106.049,427Z" transform="translate(-1100.22 -423.881)" fill="#2e2d3d"/>
            <path id="Path_1839" data-name="Path 1839" d="M1200.773,485.439c.523.573.325,2.847.6,2.822s.375-2.173.3-2.4S1200.773,485.439,1200.773,485.439Z" transform="translate(-1190.124 -480.369)" fill="#2e2d3d"/>
          </g>
          <path id="Path_1840" data-name="Path 1840" d="M1030.83,783.545h-16.7a1.068,1.068,0,0,1,0-2.136h16.7a1.068,1.068,0,0,1,0,2.136Z" transform="translate(-1006.6 -754.046)" fill="#01aac9"/>
          <path id="Path_1841" data-name="Path 1841" d="M1058.217,833.333h-12.546a1.068,1.068,0,0,1,0-2.136h12.546a1.068,1.068,0,0,1,0,2.136Z" transform="translate(-1036.065 -800.554)" fill="#01aac9"/>
          <path id="Path_1842" data-name="Path 1842" d="M946.174,1025.1H915.656a.62.62,0,0,1,0-1.239h30.518a.62.62,0,0,1,0,1.239Z" transform="translate(-915.037 -980.517)" fill="#01aac9"/>
          <path id="Path_1843" data-name="Path 1843" d="M946.174,1068.8H915.656a.62.62,0,0,1,0-1.239h30.518a.62.62,0,1,1,0,1.239Z" transform="translate(-915.037 -1021.34)" fill="#01aac9"/>
          <path id="Path_1844" data-name="Path 1844" d="M946.174,1112.5H915.656a.62.62,0,0,1,0-1.239h30.518a.62.62,0,1,1,0,1.239Z" transform="translate(-915.037 -1062.161)" fill="#01aac9"/>
          <g id="Group_1615" data-name="Group 1615" transform="translate(3.902)">
            <path id="Path_1845" data-name="Path 1845" d="M997.223,388.39H975.242a.987.987,0,0,1-.986-.986V367.146a.987.987,0,0,1,.986-.986h21.981a.987.987,0,0,1,.986.986V387.4A.987.987,0,0,1,997.223,388.39Zm-21.981-21.571a.327.327,0,0,0-.327.327V387.4a.327.327,0,0,0,.327.327h21.981a.327.327,0,0,0,.327-.327V367.146a.327.327,0,0,0-.327-.327Z" transform="translate(-974.256 -366.16)" fill="#99bbeb"/>
          </g>
        </g>
      </g>
      <rect id="Rectangle_542" data-name="Rectangle 542" width="51.302" height="1.912" rx="0.956" transform="translate(323.415 198.673)" fill="#2e5b9a"/>
      <g id="Group_1623" data-name="Group 1623" transform="translate(341.674 165.965)">
        <path id="Path_1851" data-name="Path 1851" d="M2498.992,781.733a4.547,4.547,0,0,1-2.811,5.389c-1.83.519-3.136-1.111-3.817-3.509s.252-4.764,2.082-5.283S2498.312,779.335,2498.992,781.733Z" transform="translate(-2455.575 -774.69)" fill="#f09959"/>
        <path id="Path_1852" data-name="Path 1852" d="M2410.322,1536.709s4.691,7.286,5.325,7.6,2.217.4,1.624,1.584-.832,5.86-1.386,6.1-5.306.792-4.594,0,1.151-.4,1.511-1.821.865-4.118.192-4.673-4.792-5.544-4.792-5.544Z" transform="translate(-2377.167 -1483.19)" fill="#f09959"/>
        <path id="Path_1853" data-name="Path 1853" d="M1946.765,1584.192s-5.7,9.4-6.758,10.243-4.541,2.112-1.69,2.323,4.224-.95,6.019-1.478,4.013-.845,3.168-2.217-.494-4.37,1.327-6.271S1946.765,1584.192,1946.765,1584.192Z" transform="translate(-1937.219 -1527.544)" fill="#f09959"/>
        <path id="Path_1854" data-name="Path 1854" d="M2076.845,1253.363s-14.116-.369-19.713,4.224c-3.274,4.963-11.193,19.607-11.808,21.221a7.935,7.935,0,0,0,3.854,1.079c3.115-3.715,7.233-6.926,8.87-9.839,2.018-3.59,2.64-5.385,5.913-5.7s10.666-1.373,12.883-1.373S2076.845,1253.363,2076.845,1253.363Z" transform="translate(-2038.2 -1218.508)" fill="#01aac9"/>
        <path id="Path_1855" data-name="Path 1855" d="M2624.782,1461.46h-.74l-5.306-22.138h1.628Z" transform="translate(-2573.828 -1392.22)" fill="#2e5b9a"/>
        <path id="Path_1856" data-name="Path 1856" d="M2374.111,1450.366h.74l6.089-22.92h-1.628Z" transform="translate(-2345.323 -1381.126)" fill="#2e5b9a"/>
        <path id="Path_1857" data-name="Path 1857" d="M2252.28,1238.789l-8.207,1.417s-10.906.1-15.891,1.029c-4.536.845-5.2,6,0,13.094,2.956,4.031,5.455,7.247,10.566,10.872,1.3-.955,1.8-1.316,2.157-3.612-.37-.507-1.327-3.682-1.625-4.3-2.827-5.91-6.6-8.058-6.653-8.64.634-1.03,16.782,5.366,19.993,1.6C2255.687,1246.657,2252.28,1238.789,2252.28,1238.789Z" transform="translate(-2205.594 -1204.901)" fill="#01aac9"/>
        <path id="Path_1858" data-name="Path 1858" d="M2502.449,955.5a8.587,8.587,0,0,0-6.422,1.6,12.912,12.912,0,0,0-3.71,9.847c.158,6.336-.98,6.742.207,8.485,4.955,2.046,13.429,10.837,11.433,1.412-1.445-6.824,3.169-11.91-.553-19.48C2503.1,956.75,2502.723,956.152,2502.449,955.5Z" transform="translate(-2455.422 -940.195)" fill="#f37168"/>
        <path id="Path_1859" data-name="Path 1859" d="M2492.32,991.77c-.1,3.3-.563,4.276-.206,5.312,2.02.206,5.714,1.014,6.638,2.307,1.056,1.478,2.112,1.689,1.619.6s-1.8-2.64.211-7.955,2.957-8.905.986-12.6Z" transform="translate(-2455.426 -962.632)" fill="#d54a41"/>
        <path id="Path_1860" data-name="Path 1860" d="M2559.863,861.98a25.783,25.783,0,0,1-1.658-6.691l-3.484,1.03s1.98,4.435.079,6.019a18.119,18.119,0,0,0-1.358,1.241A8.587,8.587,0,0,1,2559.863,861.98Z" transform="translate(-2512.835 -846.672)" fill="#f09959"/>
        <path id="Path_1861" data-name="Path 1861" d="M2576.519,858.771l-.736-.653-2.842.84-.006.016a11.6,11.6,0,0,1,.888,3.471,10.015,10.015,0,0,0,2.835-2.815C2576.6,859.3,2576.554,859.015,2576.519,858.771Z" transform="translate(-2531.044 -849.314)" fill="#e38540"/>
        <path id="Path_1862" data-name="Path 1862" d="M2313.621,970.452c-3.589,1.255-3.191,5.036-6.494,10.612-1.709,2.886-3.3,2.843-3.3,2.843a76.468,76.468,0,0,1-8.858-.561c-3.037-.371-3.229.533-1.117,1.288,4.259,1.523,8.679,3.162,12.243,2.766s9.659-9.489,9.974-11.856C2316.506,972.271,2315.429,969.82,2313.621,970.452Z" transform="translate(-2269.043 -954.153)" fill="#f09959"/>
        <g id="Group_1619" data-name="Group 1619" transform="translate(30.113 24.11)">
          <path id="Path_1863" data-name="Path 1863" d="M2406.816,1114.32c-.223,0-.451,0-.686-.009a34.143,34.143,0,0,1-6.516-.8c-1.868-.38-2.9-.589-4.094-.017a.923.923,0,0,1-.8-1.665c1.755-.839,3.224-.54,5.258-.127a32.5,32.5,0,0,0,6.194.766c3.092.077,4.977-.382,5.932-1.441.851-.944,1.1-2.53.784-4.992-.108-.842-.217-1.543-.312-2.161a14.959,14.959,0,0,1-.227-4.677,54.823,54.823,0,0,1,2.021-8.129.923.923,0,0,1,1.769.525c-2.364,7.961-2.244,8.736-1.74,12,.1.629.208,1.342.319,2.208.39,3.035-.005,5.089-1.244,6.463C2412.2,1113.676,2410.132,1114.32,2406.816,1114.32Z" transform="translate(-2394.199 -1090.406)" fill="#2e5b9a"/>
        </g>
        <path id="Path_1864" data-name="Path 1864" d="M1947.151,1704.4c-3.784,1.85-5.82,2.911-7.033,2.81-.286-.024-.524-.053-.723-.084-1.349.8-3.5,1.74-1.08,1.919,2.851.211,4.224-.95,6.019-1.478s4.013-.845,3.168-2.218A2.893,2.893,0,0,1,1947.151,1704.4Z" transform="translate(-1937.219 -1639.831)" fill="#d54a41"/>
        <path id="Path_1865" data-name="Path 1865" d="M2458.812,1654.431c-.092,3-.5,5.964-2.336,6.525a3.08,3.08,0,0,1-1.32.118c-.289.356-.64.36-1.112.885-.713.792,4.039.238,4.593,0s.792-4.91,1.386-6.1C2460.511,1654.885,2459.529,1654.657,2458.812,1654.431Z" transform="translate(-2419.92 -1593.155)" fill="#d54a41"/>
        <g id="Group_1620" data-name="Group 1620" transform="translate(6.518 20.627)">
          <path id="Path_1866" data-name="Path 1866" d="M2053.93,1049.841h-12.02a.923.923,0,0,1-.837-.534l-4.857-10.454a.922.922,0,0,1,1.673-.777l4.609,9.92h11.432a.923.923,0,0,1,0,1.845Z" transform="translate(-2036.13 -1037.542)" fill="#01aac9"/>
        </g>
        <path id="Path_1867" data-name="Path 1867" d="M2192.915,1150.806c-2.429-.035-4.837-1.483-6.034-1.272s-5.1,2.922-4.611,3.027,3.591-1.5,3.7-1.524a5.21,5.21,0,0,0,2.428,1.529c1.655.417.012-1.24,5.14.309C2196.868,1153.882,2192.915,1150.806,2192.915,1150.806Z" transform="translate(-2166.082 -1121.507)" fill="#f09959"/>
        <path id="Path_1868" data-name="Path 1868" d="M2528.925,913.192l.357,2.875a14.179,14.179,0,0,0-4.707,1.067,22.2,22.2,0,0,0-3.872,3.422l1.886-3.246.271-2.077Z" transform="translate(-2482.255 -900.759)" fill="#f2e5de"/>
        <path id="Path_1869" data-name="Path 1869" d="M2365.65,965.794c-2.334-.437-3.415,1.654-4.928,5.069a49.041,49.041,0,0,1-4.611,8.1c-.513.535-8.659,0-8.659,0a9.426,9.426,0,0,0,0,2.64c.247.282,1.655.246,1.655.246s.563.45,1.091.806a25.323,25.323,0,0,0,7.075.919c2.077-.106,3.978-.282,4.259-.6s5.949-9.046,6.3-12.179S2366.841,966.018,2365.65,965.794Z" transform="translate(-2320.317 -949.841)" fill="#f2e5de"/>
        <path id="Path_1870" data-name="Path 1870" d="M2467.374,726.1c-4.415.211-3.722,6.853-3.722,6.853a8.585,8.585,0,0,0,3.549-.042,13.246,13.246,0,0,1-.106-2.534,16.591,16.591,0,0,0,.634,2.376c.508.233,1.083.026,2.059-.21a4.927,4.927,0,0,0,6.364,3.413c1.267-.634.57-7.11-.1-8.413-1.01-1.955-2.689-3.7-5.593-2.781A21.577,21.577,0,0,0,2467.374,726.1Z" transform="translate(-2428.925 -724.512)" fill="#303c60"/>
        <path id="Path_1871" data-name="Path 1871" d="M2637.22,861.639l1.805,2.636s-2,5,3.817,7.263c4.557,1.774,4.02,4.9,1.961,8.041s1.232,5.887,1.232,5.887.5-3.481,4.929-4.138c6.037-.9,7.746-9,3.237-13.053-3.731-3.353-4.866-.576-7.392-3.586s-7.293-.977-7.293-.977l-1.748-2.548Z" transform="translate(-2591.094 -852.159)" fill="#303c60"/>
        <g id="Group_1621" data-name="Group 1621" transform="translate(48.262 10.405)">
          <path id="Path_1872" data-name="Path 1872" d="M2686.559,896.284a.161.161,0,0,1-.141-.238c1.518-2.774.279-6.135-.344-7.045-.066-.1-.129-.194-.195-.3-.612-.956-1.374-2.144-5.438-2.876a6.467,6.467,0,0,1-2.611-1.374c-1.733-1.272-3.7-2.715-7.966-.75a.161.161,0,0,1-.134-.292c4.44-2.044,6.486-.542,8.291.783a6.235,6.235,0,0,0,2.478,1.317c4.2.757,5.006,2.011,5.652,3.019.065.1.126.2.189.29.653.954,1.951,4.475.36,7.381A.16.16,0,0,1,2686.559,896.284Z" transform="translate(-2669.636 -882.409)" fill="#303c60"/>
        </g>
        <g id="Group_1622" data-name="Group 1622" transform="translate(40.445 5.902)">
          <path id="Path_1873" data-name="Path 1873" d="M2555.722,820.351a6.354,6.354,0,0,1-.937-.075c-1.545-.231-3.617-1.109-3.779-6.039a.16.16,0,1,1,.321-.01,7.746,7.746,0,0,0,1.2,4.468,3.367,3.367,0,0,0,2.308,1.263c1.429.214,2.377-.05,2.816-.785a.16.16,0,1,1,.275.165A2.355,2.355,0,0,1,2555.722,820.351Z" transform="translate(-2551.006 -814.072)" fill="#303c60"/>
        </g>
      </g>
      <path id="Path_1874" data-name="Path 1874" d="M1711.333,1275.25h1.186l4.615-35.273h-2.61Z" transform="translate(-1384.543 -1040.046)" fill="#2e5b9a"/>
      <path id="Path_1875" data-name="Path 1875" d="M2239.955,1275.25h-1.186l-4.615-35.273h2.61Z" transform="translate(-1872.913 -1040.046)" fill="#2e5b9a"/>
      <g id="Group_1624" data-name="Group 1624" transform="translate(399.224 197.213)">
        <path id="Path_1876" data-name="Path 1876" d="M2997.778,1323.431c2.052,1.874,1.16,3.748-.357,7.227s-1.785,16.329-1.785,16.329l1.249-.178s-.178-13.206,1.517-16.775,2.409-5.354,3.926-4.194S2997.778,1323.431,2997.778,1323.431Z" transform="translate(-2983.442 -1315.214)" fill="#74b570"/>
        <path id="Path_1877" data-name="Path 1877" d="M3009.456,1204.524c.25-1.111,1.729-2.312,3.709-3.331-.294,1.638-1.238,4.316-.262,4.865,1.317.741.128-3,.637-5.053a24.465,24.465,0,0,1,6.153-2.019l-.008.023c-1.16,2.945-2.677,4.1-2.052,4.551.47.335,2-3.066,4.021-4.809a5.442,5.442,0,0,1,3.56.726c1.174.929,1.961,1.753.781,4.582a5.3,5.3,0,0,1-2.562.929c-2.677.268-3.926.357-2.052,1.249.917.437,2.456-.025,3.7-.306-.4.745-.9,1.589-1.506,2.55a9.526,9.526,0,0,1-1.254,1.6,3.959,3.959,0,0,1-2.013,0c-1.25-.535-4.461-2.231-5.264-1.517-.786.7,5.949,1.141,5.482,2.917-3.264,1.881-7,.986-7.661-.741C3011.98,1208.412,3008.706,1207.866,3009.456,1204.524Z" transform="translate(-2996.247 -1198.733)" fill="#9cd499"/>
        <path id="Path_1878" data-name="Path 1878" d="M2970.272,1462.967c-3.569-2.677-7.228-.179-9.1,2.677s-.535,9.28-.535,9.28.714,0,.714-.268-1.963-7.585,2.677-10.886c2.9-2.065,5-1.071,5.265-.089s-1.16,2.766-1.16,2.766Z" transform="translate(-2950.314 -1444.489)" fill="#74b570"/>
        <path id="Path_1879" data-name="Path 1879" d="M2986.618,1395.649c3.569,0,4.729,5.532,3.747,8.745s-2.32,9.191-2.32,9.191l-.892-.892s3.391-8.388,2.588-12.135-2.766-4.372-3.123-4.372S2986.618,1395.649,2986.618,1395.649Z" transform="translate(-2974.869 -1382.673)" fill="#9cd499"/>
        <path id="Path_1880" data-name="Path 1880" d="M3021.6,1517.541a2.587,2.587,0,0,1,.94-.79,7.137,7.137,0,0,1-.186.765c-.447,1.464-.969,3.5-1.4,5.286l-.194-1.124c-.022-.128-.04-.268-.052-.415A34.6,34.6,0,0,0,3021.6,1517.541Z" transform="translate(-3006.856 -1495.795)" fill="#74b570"/>
        <path id="Path_1881" data-name="Path 1881" d="M3022.945,1457.821c6.782-2.855,3.209-6.774,9.187-4.186a1.04,1.04,0,1,1-.446,1.428c-1.785-.268-1.16,1.16,1.785,1.517a6.6,6.6,0,0,1,1.38.291c1.4,2.694,2.035,6.24-.933,7.472a6.727,6.727,0,0,1-2.113.434c-.917-.728.223-4.941-1.189-4.36-1.356.558.425,3.612.181,4.381a19.549,19.549,0,0,1-4.236-.594,2.108,2.108,0,0,1-1.12-1.289c-.446-1.874,2.5-3.034,2.588-4.64.082-1.477-1.079,3.248-4.156,3.944C3021.089,1460.919,3019.775,1459.155,3022.945,1457.821Z" transform="translate(-3007.227 -1436.049)" fill="#9cd499"/>
        <path id="Path_1882" data-name="Path 1882" d="M2821.457,1360.825c.714-1.517-1.16-1.874-1.071-.714.079,1.028.088,3.526-.967,4.207a16.541,16.541,0,0,1-6.161-2.046.758.758,0,0,1,.079-.465c.8-1.606,5.979-2.945,4.373-3.48-1.279-.427-3.521,2.09-5.327,3.358a3.842,3.842,0,0,1-1.812-2.9c0-1.483,1.8-3.16,4.131-3.963a9.752,9.752,0,0,1,3.543,1.541c2.247,1.273,1.727-.785-.4-2.007a6.4,6.4,0,0,1,5.011,2.751,3.126,3.126,0,0,0,.719,2.038c2.311,3.377-.356,5.348-3.543,5.22A20.962,20.962,0,0,1,2821.457,1360.825Z" transform="translate(-2810.571 -1344.101)" fill="#9cd499"/>
        <path id="Path_1883" data-name="Path 1883" d="M3098.873,1476.538a30.3,30.3,0,0,0,6.063,4c2.38,1.071,1.9,4.561,1.9,4.561s.357-3.014-1.626-4.045-3.292-2.261-4.8-2.5a21.835,21.835,0,0,1-2.34-.476s.476-.952.2-1.309S3098.873,1476.538,3098.873,1476.538Z" transform="translate(-3079.129 -1458.211)" fill="#74b570"/>
        <path id="Path_1884" data-name="Path 1884" d="M3059.125,1236.565a27.985,27.985,0,0,0-11.938,6.782c-.872.991-.872,1.269-.872,1.269l.674,1.269.317-.159s-.516-1.071.833-2.459a24.41,24.41,0,0,1,7.1-5.116C3057.182,1237.318,3059.125,1236.565,3059.125,1236.565Z" transform="translate(-3030.781 -1234.072)" fill="#74b570"/>
        <path id="Rectangle_543" data-name="Rectangle 543" d="M4.361,0h0A4.361,4.361,0,0,1,8.721,4.361V8.746a0,0,0,0,1,0,0H0a0,0,0,0,1,0,0V4.361A4.361,4.361,0,0,1,4.361,0Z" transform="translate(16.299 37.836) rotate(180)" fill="#069bb7"/>
        <rect id="Rectangle_544" data-name="Rectangle 544" width="8.721" height="0.614" transform="translate(7.578 30.092)" fill="#fff"/>
        <rect id="Rectangle_545" data-name="Rectangle 545" width="8.721" height="0.361" transform="translate(7.578 31.212)" fill="#fff"/>
      </g>
    </g>
  </g>
</svg>
