<svg xmlns="http://www.w3.org/2000/svg" xmlns:xlink="http://www.w3.org/1999/xlink" width="223.936" height="149.25" viewBox="0 0 223.936 149.25"><defs><style>.a{fill:#92b5f9;}.b{fill:#bed1f9;}.c{fill:#f1f2f2;}.d{fill:#7c9af2;}.e{fill:#eae9f3;}.f{fill:#4951ec;}.g{clip-path:url(#a);}.h{fill:#dde8fe;}.i{clip-path:url(#b);}.j{fill:#b59800;}.k{fill:#e1c42b;}.l{fill:#ef7f7f;}.m{fill:#fb9390;}.n{fill:#0b0754;}.o{opacity:0.53;}.o,.t,.u{mix-blend-mode:multiply;isolation:isolate;}.p{fill:#0070c0;}.q{fill:#fa7167;}.r{fill:#fff;}.s{opacity:0.44;}.u{opacity:0.57;}</style><clipPath id="a"><path class="a" d="M560.623,806.572l-1.985-64.023a3.169,3.169,0,0,1,3.273-3.053H663.266a3.169,3.169,0,0,1,3.273,3.053l-2.977,64.023a3.168,3.168,0,0,1-3.273,3.053H563.9A3.168,3.168,0,0,1,560.623,806.572Z" transform="translate(-558.638 -739.496)"/></clipPath><clipPath id="b"><path class="b" d="M1017.319,854.233s.189,22.185-.417,27.044l1.537,28.442h30.049s1.379-31.209,1.379-33.589.1-21.834.1-21.834l-8.368-2.988-11.851-.149Z" transform="translate(-1016.902 -851.159)"/></clipPath></defs><g transform="translate(-118.472 -392.449)"><g transform="translate(118.472 392.449)"><path class="c" d="M163.361,539.629s-14.753-12.285-34.3-53.065-12.109-88.8,23.025-93.413S214.5,408.193,214.5,408.193s39.187-11.827,70.466-3.739,28.2,47.722,28.2,47.722,19.725,11.005,27.774,36.011S321.3,539.523,321.3,539.523Z" transform="translate(-118.472 -392.449)"/></g><g transform="translate(144.761 538.597)"><path class="d" d="M1.551,0H192.067a1.551,1.551,0,0,1,1.551,1.551v0A1.551,1.551,0,0,1,192.067,3.1H1.551A1.551,1.551,0,0,1,0,1.551v0A1.551,1.551,0,0,1,1.551,0Z" transform="translate(0 0)"/></g><g transform="translate(180.504 434.388)"><path class="e" d="M625.01,780.949H520.682a3.168,3.168,0,0,1-3.273-3.053l-1.985-71.424a3.169,3.169,0,0,1,3.273-3.053H627.987a3.169,3.169,0,0,1,3.273,3.053L628.283,777.9A3.168,3.168,0,0,1,625.01,780.949Z" transform="translate(-515.425 -703.419)"/></g><g transform="translate(183.601 435.111)"><path class="f" d="M652.414,709.7a2.9,2.9,0,0,1,.55,1.694l-2.977,71.424a3.169,3.169,0,0,1-3.273,3.053H542.387a3.411,3.411,0,0,1-2-.637,3.337,3.337,0,0,0,2.723,1.359H647.435a3.168,3.168,0,0,0,3.273-3.053l2.977-71.424A2.981,2.981,0,0,0,652.414,709.7Z" transform="translate(-540.385 -709.697)"/></g><g transform="translate(185.034 435.836)"><path class="d" d="M562.088,791.109,560.1,727.086a3.169,3.169,0,0,1,3.273-3.053H664.732A3.169,3.169,0,0,1,668,727.086l-2.977,64.023a3.168,3.168,0,0,1-3.273,3.053H565.36A3.169,3.169,0,0,1,562.088,791.109Z" transform="translate(-560.103 -724.033)"/></g><g transform="translate(184.813 437.86)"><g transform="translate(0 0)"><path class="a" d="M560.623,806.572l-1.985-64.023a3.169,3.169,0,0,1,3.273-3.053H663.266a3.169,3.169,0,0,1,3.273,3.053l-2.977,64.023a3.168,3.168,0,0,1-3.273,3.053H563.9A3.168,3.168,0,0,1,560.623,806.572Z" transform="translate(-558.638 -739.496)"/><g class="g"><path class="a" d="M1584.71,1427.944l3.7-.24v.24Z" transform="translate(-1480.511 -1357.815)"/><path class="a" d="M1495.771,1422.751l12.734-.828v.587l-3.7.24Z" transform="translate(-1400.605 -1352.623)"/><path class="a" d="M1406.832,1417.559l21.766-1.414v.587l-12.734.827Z" transform="translate(-1320.697 -1347.43)"/><path class="a" d="M1317.894,1412.367l30.8-2v.587l-21.766,1.414Z" transform="translate(-1240.79 -1342.238)"/><path class="a" d="M1228.954,1407.174l39.83-2.588v.587l-30.8,2Z" transform="translate(-1160.883 -1337.045)"/><path class="a" d="M1140.016,1401.982l48.862-3.175v.587l-39.83,2.588Z" transform="translate(-1080.976 -1331.853)"/><path class="a" d="M1051.077,1396.787l57.894-3.762v.587l-48.862,3.175Z" transform="translate(-1001.069 -1326.659)"/><path class="a" d="M962.138,1391.6l66.925-4.349v.587L971.17,1391.6Z" transform="translate(-921.162 -1321.466)"/><path class="a" d="M873.2,1386.4l75.957-4.936v.587l-66.925,4.349Z" transform="translate(-841.255 -1316.274)"/><path class="a" d="M784.26,1381.21l84.989-5.523v.587l-75.957,4.936Z" transform="translate(-761.348 -1311.082)"/><path class="a" d="M695.321,1376.018l94.021-6.11v.587l-84.989,5.523Z" transform="translate(-681.441 -1305.889)"/><path class="a" d="M606.382,1370.826l103.053-6.7v.587l-94.021,6.11Z" transform="translate(-601.533 -1300.697)"/><path class="a" d="M576.827,1365.633l-.025-.392,106.057-6.892v.587l-103.053,6.7Z" transform="translate(-574.957 -1295.504)"/><path class="a" d="M576.465,1360.049l-.038-.584,106.095-6.894v.587Z" transform="translate(-574.621 -1290.312)"/><path class="a" d="M576.092,1354.272l-.038-.584,106.133-6.9v.587Z" transform="translate(-574.285 -1285.12)"/><path class="a" d="M575.718,1348.5l-.038-.584,106.171-6.9v.587Z" transform="translate(-573.949 -1279.927)"/><path class="a" d="M575.344,1342.719l-.038-.584,106.208-6.9v.587Z" transform="translate(-573.613 -1274.735)"/><path class="a" d="M574.97,1336.942l-.038-.584,106.247-6.9v.587Z" transform="translate(-573.277 -1269.542)"/><path class="a" d="M574.6,1331.163l-.038-.584,106.285-6.907v.587Z" transform="translate(-572.941 -1264.348)"/><path class="a" d="M574.222,1325.386l-.038-.584,106.322-6.909v.587Z" transform="translate(-572.605 -1259.156)"/><path class="a" d="M573.848,1319.609l-.038-.584,106.36-6.912v.587Z" transform="translate(-572.269 -1253.963)"/><path class="a" d="M573.474,1313.833l-.038-.584,106.4-6.914v.587Z" transform="translate(-571.933 -1248.772)"/><path class="a" d="M573.1,1308.056l-.038-.584,106.436-6.917v.587Z" transform="translate(-571.597 -1243.579)"/><path class="a" d="M572.725,1302.279l-.038-.584,106.474-6.919v.587Z" transform="translate(-571.261 -1238.386)"/><path class="a" d="M572.351,1296.5l-.038-.584L678.826,1289v.587Z" transform="translate(-570.925 -1233.194)"/><path class="a" d="M571.978,1290.725l-.038-.584,106.55-6.924v.587Z" transform="translate(-570.589 -1228.001)"/><path class="a" d="M571.6,1284.948l-.038-.584,106.588-6.926v.587Z" transform="translate(-570.253 -1222.809)"/><path class="a" d="M571.229,1279.171l-.038-.585,106.626-6.929v.587Z" transform="translate(-569.917 -1217.617)"/><path class="a" d="M570.855,1273.394l-.038-.584,106.664-6.931v.587Z" transform="translate(-569.581 -1212.423)"/><path class="a" d="M570.481,1267.616l-.038-.584,106.7-6.934v.587Z" transform="translate(-569.245 -1207.23)"/><path class="a" d="M570.108,1261.839l-.038-.585,106.74-6.936v.587Z" transform="translate(-568.909 -1202.038)"/><path class="a" d="M569.734,1256.062l-.038-.584,106.778-6.939v.587Z" transform="translate(-568.573 -1196.845)"/><path class="a" d="M569.36,1250.285l-.038-.584,106.816-6.941v.587Z" transform="translate(-568.237 -1191.653)"/><path class="a" d="M568.986,1244.509l-.038-.585L675.8,1236.98v.587Z" transform="translate(-567.901 -1186.46)"/><path class="a" d="M568.612,1238.732l-.038-.584,106.892-6.946v.587Z" transform="translate(-567.565 -1181.268)"/><path class="a" d="M568.238,1232.955l-.038-.584,106.93-6.949v.587Z" transform="translate(-567.229 -1176.076)"/><path class="a" d="M567.864,1227.178l-.038-.584,106.968-6.951v.587Z" transform="translate(-566.893 -1170.883)"/><path class="a" d="M567.49,1221.4l-.038-.585,107.006-6.953v.587Z" transform="translate(-566.557 -1165.691)"/><path class="a" d="M567.116,1215.623l-.038-.585,107.044-6.956v.587Z" transform="translate(-566.221 -1160.497)"/><path class="a" d="M566.742,1209.846l-.038-.584,107.082-6.959v.587Z" transform="translate(-565.885 -1155.304)"/><path class="a" d="M566.368,1204.069l-.038-.584,107.12-6.961v.587Z" transform="translate(-565.549 -1150.112)"/><path class="a" d="M565.994,1198.292l-.038-.584,107.158-6.963v.587Z" transform="translate(-565.213 -1144.919)"/><path class="a" d="M565.62,1192.515l-.038-.584,107.2-6.966v.587Z" transform="translate(-564.877 -1139.727)"/><path class="a" d="M565.246,1186.738l-.038-.584,107.234-6.968v.587Z" transform="translate(-564.541 -1134.535)"/><path class="a" d="M564.872,1180.962l-.038-.585,107.272-6.971v.587Z" transform="translate(-564.205 -1129.342)"/><path class="a" d="M564.5,1175.185l-.038-.584,107.31-6.973v.587Z" transform="translate(-563.869 -1124.15)"/><path class="a" d="M564.124,1169.408l-.038-.584,107.348-6.976v.587Z" transform="translate(-563.533 -1118.957)"/><path class="a" d="M563.75,1163.631l-.038-.584,107.386-6.978v.587Z" transform="translate(-563.197 -1113.765)"/><path class="a" d="M563.376,1157.854l-.038-.584,107.424-6.981v.587Z" transform="translate(-562.861 -1108.573)"/><path class="a" d="M563,1152.076l-.038-.585,107.462-6.983v.587Z" transform="translate(-562.525 -1103.378)"/><path class="a" d="M562.628,1146.3l-.038-.584,107.5-6.986v.587Z" transform="translate(-562.189 -1098.186)"/><path class="a" d="M562.254,1140.522l-.038-.584,107.538-6.988v.587Z" transform="translate(-561.853 -1092.994)"/><path class="a" d="M561.88,1134.745l-.038-.585,107.576-6.99v.587Z" transform="translate(-561.516 -1087.801)"/><path class="a" d="M561.506,1128.968l-.038-.584,107.614-6.993v.587Z" transform="translate(-561.18 -1082.609)"/><path class="a" d="M561.132,1123.191l-.038-.584,107.652-7v.587Z" transform="translate(-560.844 -1077.417)"/><path class="a" d="M560.758,1117.414l-.038-.584,107.69-7v.587Z" transform="translate(-560.508 -1072.224)"/><path class="a" d="M560.384,1111.638l-.038-.584,107.728-7v.587Z" transform="translate(-560.173 -1067.032)"/><path class="a" d="M560.01,1105.861l-.038-.584,107.766-7v.587Z" transform="translate(-559.837 -1061.839)"/><path class="a" d="M559.636,1100.084l-.038-.584,107.8-7.005v.587Z" transform="translate(-559.501 -1056.647)"/><path class="a" d="M559.262,1094.307l-.038-.584,107.842-7.008v.587Z" transform="translate(-559.165 -1051.454)"/><path class="a" d="M558.888,1088.529l-.038-.585,107.88-7.01v.587Z" transform="translate(-558.829 -1046.26)"/><path class="a" d="M558.66,1082.751l-.021-.331v-.254l107.9-7.012v.587Z" transform="translate(-558.638 -1041.068)"/><path class="a" d="M558.638,1076.388l107.9-7.012v.587l-107.9,7.012Z" transform="translate(-558.638 -1035.876)"/><path class="a" d="M558.638,1070.607l107.9-7.012v.587l-107.9,7.012Z" transform="translate(-558.638 -1030.683)"/><path class="a" d="M558.638,1064.828l107.9-7.012v.587l-107.9,7.012Z" transform="translate(-558.638 -1025.491)"/><path class="a" d="M558.638,1059.049l107.9-7.012v.587l-107.9,7.012Z" transform="translate(-558.638 -1020.298)"/><path class="a" d="M558.638,1053.269l107.9-7.012v.587l-107.9,7.012Z" transform="translate(-558.638 -1015.106)"/><path class="a" d="M558.638,1047.49l107.9-7.012v.587l-107.9,7.012Z" transform="translate(-558.638 -1009.913)"/><path class="a" d="M558.638,1041.711l107.9-7.012v.587l-107.9,7.011Z" transform="translate(-558.638 -1004.721)"/><path class="a" d="M558.638,1035.931l107.9-7.012v.587l-107.9,7.012Z" transform="translate(-558.638 -999.528)"/><path class="a" d="M558.638,1030.151l107.9-7.012v.587l-107.9,7.011Z" transform="translate(-558.638 -994.335)"/><path class="a" d="M558.638,1024.372l107.9-7.012v.587l-107.9,7.012Z" transform="translate(-558.638 -989.143)"/><path class="a" d="M558.638,1018.592l107.9-7.012v.587l-107.9,7.012Z" transform="translate(-558.638 -983.95)"/><path class="a" d="M558.638,1012.813l107.9-7.012v.587l-107.9,7.012Z" transform="translate(-558.638 -978.757)"/><path class="a" d="M558.638,1007.034l107.9-7.012v.587l-107.9,7.012Z" transform="translate(-558.638 -973.565)"/><path class="a" d="M558.638,1001.254l107.9-7.012v.587l-107.9,7.012Z" transform="translate(-558.638 -968.372)"/><path class="a" d="M558.638,995.475l107.9-7.012v.587l-107.9,7.012Z" transform="translate(-558.638 -963.18)"/><path class="a" d="M558.638,989.695l107.9-7.012v.587l-107.9,7.012Z" transform="translate(-558.638 -957.987)"/><path class="a" d="M558.638,983.916l107.9-7.012v.587l-107.9,7.012Z" transform="translate(-558.638 -952.795)"/><path class="a" d="M558.638,978.136l107.9-7.012v.587l-107.9,7.012Z" transform="translate(-558.638 -947.602)"/><path class="a" d="M558.638,972.356l107.9-7.012v.587l-107.9,7.012Z" transform="translate(-558.638 -942.41)"/><path class="a" d="M558.638,966.577l107.9-7.012v.587l-107.9,7.012Z" transform="translate(-558.638 -937.217)"/><path class="a" d="M558.638,960.8l107.9-7.012v.587l-107.9,7.012Z" transform="translate(-558.638 -932.024)"/><path class="a" d="M558.638,955.018l107.9-7.012v.587l-107.9,7.012Z" transform="translate(-558.638 -926.832)"/><path class="a" d="M558.638,949.239l107.9-7.012v.587l-107.9,7.012Z" transform="translate(-558.638 -921.64)"/><path class="a" d="M558.638,943.459l107.9-7.012v.587l-107.9,7.012Z" transform="translate(-558.638 -916.447)"/><path class="a" d="M558.638,937.68l107.9-7.012v.587l-107.9,7.012Z" transform="translate(-558.638 -911.254)"/><path class="a" d="M558.638,931.9l107.9-7.012v.587l-107.9,7.012Z" transform="translate(-558.638 -906.061)"/><path class="a" d="M558.638,926.121l107.9-7.012v.587l-107.9,7.012Z" transform="translate(-558.638 -900.869)"/><path class="a" d="M558.638,920.341l107.9-7.012v.587l-107.9,7.012Z" transform="translate(-558.638 -895.677)"/><path class="a" d="M558.638,914.562l107.9-7.012v.587l-107.9,7.012Z" transform="translate(-558.638 -890.484)"/><path class="a" d="M558.638,908.782l107.9-7.012v.587l-107.9,7.012Z" transform="translate(-558.638 -885.291)"/><path class="a" d="M558.638,903l107.9-7.012v.587l-107.9,7.012Z" transform="translate(-558.638 -880.099)"/><path class="a" d="M558.638,897.223l107.9-7.012v.587l-107.9,7.012Z" transform="translate(-558.638 -874.906)"/><path class="a" d="M558.638,891.444l107.9-7.012v.587l-107.9,7.012Z" transform="translate(-558.638 -869.714)"/><path class="a" d="M558.638,885.664l107.9-7.012v.587l-107.9,7.012Z" transform="translate(-558.638 -864.521)"/><path class="a" d="M558.638,879.885l107.9-7.012v.587l-107.9,7.012Z" transform="translate(-558.638 -859.329)"/><path class="a" d="M558.638,874.106l107.9-7.012v.587l-107.9,7.012Z" transform="translate(-558.638 -854.136)"/><path class="a" d="M558.638,868.326l107.9-7.012v.587l-107.9,7.012Z" transform="translate(-558.638 -848.943)"/><path class="a" d="M558.638,862.546l107.9-7.012v.587l-107.9,7.012Z" transform="translate(-558.638 -843.751)"/><path class="a" d="M558.638,856.767l107.9-7.012v.587l-107.9,7.012Z" transform="translate(-558.638 -838.558)"/><path class="a" d="M558.638,850.987l107.9-7.012v.587l-107.9,7.012Z" transform="translate(-558.638 -833.366)"/><path class="a" d="M558.638,845.208l107.9-7.012v.587l-107.9,7.012Z" transform="translate(-558.638 -828.173)"/><path class="a" d="M558.638,839.428l107.9-7.012V833l-107.9,7.012Z" transform="translate(-558.638 -822.98)"/><path class="a" d="M558.638,833.649l107.9-7.012v.587l-107.9,7.012Z" transform="translate(-558.638 -817.788)"/><path class="a" d="M558.638,827.87l107.9-7.012v.587l-107.9,7.012Z" transform="translate(-558.638 -812.596)"/><path class="a" d="M558.638,822.09l107.9-7.012v.587l-107.9,7.012Z" transform="translate(-558.638 -807.403)"/><path class="a" d="M558.638,816.31l107.9-7.012v.587l-107.9,7.012Z" transform="translate(-558.638 -802.21)"/><path class="a" d="M558.638,810.531l107.9-7.012v.587l-107.9,7.012Z" transform="translate(-558.638 -797.018)"/><path class="a" d="M558.638,804.751l107.9-7.012v.587l-107.9,7.012Z" transform="translate(-558.638 -791.825)"/><path class="a" d="M558.638,798.972l107.9-7.012v.587l-107.9,7.012Z" transform="translate(-558.638 -786.633)"/><path class="a" d="M558.638,793.193l107.9-7.012v.587l-107.9,7.012Z" transform="translate(-558.638 -781.44)"/><path class="a" d="M558.638,787.413l107.9-7.012v.587L558.638,788Z" transform="translate(-558.638 -776.247)"/><path class="a" d="M558.638,781.634l107.9-7.012v.587l-107.9,7.012Z" transform="translate(-558.638 -771.055)"/><path class="a" d="M558.638,775.854l107.9-7.012v.587l-107.9,7.012Z" transform="translate(-558.638 -765.862)"/><path class="a" d="M558.638,770.075l107.9-7.012v.587l-107.9,7.012Z" transform="translate(-558.638 -760.67)"/><path class="a" d="M558.638,764.3l107.9-7.012v.587l-107.9,7.012Z" transform="translate(-558.638 -755.477)"/><path class="a" d="M558.638,758.516l107.9-7.012v.587l-107.9,7.012Z" transform="translate(-558.638 -750.284)"/><path class="a" d="M558.638,752.736l107.9-7.012v.587l-107.9,7.012Z" transform="translate(-558.638 -745.092)"/><path class="a" d="M558.638,746.957l107.9-7.012v.587l-107.9,7.012Z" transform="translate(-558.638 -739.899)"/><path class="a" d="M558.638,745.966l99.572-6.47h8.329v.046l-107.9,7.012Z" transform="translate(-558.638 -739.496)"/><path class="a" d="M558.638,745.379l90.54-5.883h9.032l-99.572,6.47Z" transform="translate(-558.638 -739.496)"/><path class="a" d="M558.638,744.792l81.508-5.3h9.032l-90.54,5.883Z" transform="translate(-558.638 -739.496)"/><path class="a" d="M558.638,744.205l72.477-4.71h9.032l-81.508,5.3Z" transform="translate(-558.638 -739.496)"/><path class="a" d="M631.115,739.5l-72.477,4.71V739.5Z" transform="translate(-558.638 -739.496)"/></g></g></g><g transform="translate(188.458 441.581)"><g transform="translate(0 0)"><path class="h" d="M694.186,839.975H692.36a.1.1,0,0,1,0-.2H694l.026-.553a.1.1,0,0,1,.1-.094.1.1,0,0,1,.094.1Zm-4.206,0H687.6a.1.1,0,0,1,0-.2h2.38a.1.1,0,0,1,0,.2Zm-4.76,0h-2.38a.1.1,0,0,1,0-.2h2.38a.1.1,0,0,1,0,.2Zm-4.76,0h-2.38a.1.1,0,0,1,0-.2h2.38a.1.1,0,0,1,0,.2Zm-4.76,0h-2.38a.1.1,0,0,1,0-.2h2.38a.1.1,0,0,1,0,.2Zm-4.76,0h-2.38a.1.1,0,0,1,0-.2h2.38a.1.1,0,0,1,0,.2Zm-4.76,0H663.8a.1.1,0,0,1,0-.2h2.38a.1.1,0,0,1,0,.2Zm-4.76,0h-2.38a.1.1,0,0,1,0-.2h2.38a.1.1,0,0,1,0,.2Zm-4.76,0h-2.38a.1.1,0,1,1,0-.2h2.38a.1.1,0,0,1,0,.2Zm-4.76,0h-2.38a.1.1,0,0,1,0-.2h2.38a.1.1,0,0,1,0,.2Zm-4.76,0h-2.38a.1.1,0,0,1,0-.2h2.38a.1.1,0,0,1,0,.2Zm-4.76,0H640a.1.1,0,0,1,0-.2h2.38a.1.1,0,0,1,0,.2Zm-4.76,0h-2.38a.1.1,0,0,1,0-.2h2.38a.1.1,0,0,1,0,.2Zm-4.76,0h-2.38a.1.1,0,0,1,0-.2h2.38a.1.1,0,0,1,0,.2Zm-4.76,0h-2.38a.1.1,0,0,1,0-.2h2.38a.1.1,0,0,1,0,.2Zm-4.76,0h-2.38a.1.1,0,0,1,0-.2h2.38a.1.1,0,0,1,0,.2Zm-4.76,0H616.2a.1.1,0,0,1,0-.2h2.38a.1.1,0,0,1,0,.2Zm-4.76,0h-2.38a.1.1,0,0,1,0-.2h2.38a.1.1,0,0,1,0,.2Zm-4.76,0h-2.38a.1.1,0,0,1,0-.2h2.38a.1.1,0,0,1,0,.2Zm-4.76,0h-2.38a.1.1,0,0,1,0-.2h2.38a.1.1,0,0,1,0,.2Zm-4.76,0h-.611l-.077-2.475a.1.1,0,0,1,.1-.1.1.1,0,0,1,.1.1l.071,2.283h.419a.1.1,0,0,1,0,.2Zm94.7-3.025h0a.1.1,0,0,1-.094-.1l.11-2.378a.1.1,0,0,1,.2.009l-.11,2.378A.1.1,0,0,1,694.232,836.95Zm-95.359-1.732a.1.1,0,0,1-.1-.1l-.074-2.379a.1.1,0,0,1,.2-.006l.074,2.379a.1.1,0,0,1-.1.1Zm95.58-3.023h0a.1.1,0,0,1-.094-.1l.11-2.378a.1.1,0,0,1,.1-.094.1.1,0,0,1,.094.1l-.11,2.378A.1.1,0,0,1,694.453,832.2Zm-95.727-1.735a.1.1,0,0,1-.1-.1l-.074-2.379a.1.1,0,0,1,.1-.1.1.1,0,0,1,.1.1l.074,2.379a.1.1,0,0,1-.1.1Zm95.948-3.02h0a.1.1,0,0,1-.094-.1l.111-2.377a.1.1,0,1,1,.2.009l-.111,2.377A.1.1,0,0,1,694.674,827.44Zm-96.1-1.738a.1.1,0,0,1-.1-.1l-.074-2.379a.1.1,0,0,1,.1-.1.1.1,0,0,1,.1.1l.074,2.379a.1.1,0,0,1-.1.1Zm96.317-3.016h0a.1.1,0,0,1-.094-.1l.111-2.378a.1.1,0,0,1,.1-.094.1.1,0,0,1,.094.1l-.111,2.378A.1.1,0,0,1,694.9,822.685Zm-96.464-1.741a.1.1,0,0,1-.1-.1l-.074-2.379a.1.1,0,0,1,.1-.1.1.1,0,0,1,.1.1l.074,2.379a.1.1,0,0,1-.1.1Zm96.686-3.014h0a.1.1,0,0,1-.094-.1l.111-2.377a.1.1,0,0,1,.1-.094.1.1,0,0,1,.094.1l-.11,2.377A.1.1,0,0,1,695.117,817.93Zm-96.833-1.744a.1.1,0,0,1-.1-.1l-.074-2.379a.1.1,0,0,1,.1-.1.1.1,0,0,1,.1.1l.074,2.379a.1.1,0,0,1-.1.1Zm97.054-3.011h0a.1.1,0,0,1-.094-.1l.11-2.377a.1.1,0,0,1,.2.009l-.11,2.378A.1.1,0,0,1,695.338,813.175Zm-97.2-1.747a.1.1,0,0,1-.1-.1l-.073-2.379a.1.1,0,0,1,.1-.1.1.1,0,0,1,.1.1l.074,2.379a.1.1,0,0,1-.1.1Zm97.423-3.008h0a.1.1,0,0,1-.094-.1l.111-2.377a.1.1,0,0,1,.1-.094.1.1,0,0,1,.094.1l-.111,2.378A.1.1,0,0,1,695.559,808.42Zm-97.57-1.75a.1.1,0,0,1-.1-.1l-.074-2.379a.1.1,0,0,1,.2-.006l.074,2.379a.1.1,0,0,1-.1.1Zm97.791-3.005h0a.1.1,0,0,1-.094-.1l.111-2.377a.1.1,0,0,1,.1-.094.1.1,0,0,1,.094.1l-.111,2.378A.1.1,0,0,1,695.78,803.665Zm-97.939-1.753a.1.1,0,0,1-.1-.1l-.074-2.379a.1.1,0,0,1,.1-.1.1.1,0,0,1,.1.1l.074,2.379a.1.1,0,0,1-.1.1Zm98.16-3h0a.1.1,0,0,1-.094-.1l.111-2.378a.1.1,0,1,1,.2.009l-.11,2.378A.1.1,0,0,1,696,798.91Zm-98.308-1.755a.1.1,0,0,1-.1-.1l-.074-2.379a.1.1,0,0,1,.1-.1.1.1,0,0,1,.1.1l.074,2.379a.1.1,0,0,1-.1.1Zm98.529-3h0a.1.1,0,0,1-.094-.1l.11-2.378a.1.1,0,1,1,.2.009l-.11,2.378A.1.1,0,0,1,696.222,794.155ZM597.546,792.4a.1.1,0,0,1-.1-.1l-.074-2.379a.1.1,0,0,1,.2-.006l.074,2.379a.1.1,0,0,1-.1.1Zm98.9-3h0a.1.1,0,0,1-.094-.1l.11-2.378a.1.1,0,1,1,.2.009l-.111,2.378A.1.1,0,0,1,696.443,789.4ZM597.4,787.639a.1.1,0,0,1-.1-.1l-.074-2.379a.1.1,0,0,1,.1-.1.1.1,0,0,1,.1.1l.074,2.379a.1.1,0,0,1-.1.1Zm99.266-2.994h0a.1.1,0,0,1-.094-.1l.111-2.378a.1.1,0,0,1,.1-.094.1.1,0,0,1,.094.1l-.111,2.377A.1.1,0,0,1,696.664,784.645Zm-99.413-1.764a.1.1,0,0,1-.1-.1l-.074-2.379a.1.1,0,0,1,.1-.1.1.1,0,0,1,.1.1l.074,2.379a.1.1,0,0,1-.1.1Zm99.635-2.991h0a.1.1,0,0,1-.094-.1l.093-2.005h-.165a.1.1,0,1,1,0-.2h.372l-.1,2.213A.1.1,0,0,1,696.886,779.889ZM597.1,778.123a.1.1,0,0,1-.1-.1l-.014-.445h2.14a.1.1,0,1,1,0,.2H597.2l.007.24a.1.1,0,0,1-.1.1Zm97.231-.342h-2.38a.1.1,0,1,1,0-.2h2.38a.1.1,0,1,1,0,.2Zm-4.76,0h-2.38a.1.1,0,1,1,0-.2h2.38a.1.1,0,1,1,0,.2Zm-4.76,0h-2.38a.1.1,0,1,1,0-.2h2.38a.1.1,0,1,1,0,.2Zm-4.76,0h-2.38a.1.1,0,1,1,0-.2h2.38a.1.1,0,0,1,0,.2Zm-4.76,0h-2.38a.1.1,0,1,1,0-.2h2.38a.1.1,0,1,1,0,.2Zm-4.76,0h-2.38a.1.1,0,1,1,0-.2h2.38a.1.1,0,0,1,0,.2Zm-4.76,0h-2.38a.1.1,0,1,1,0-.2h2.38a.1.1,0,1,1,0,.2Zm-4.76,0h-2.38a.1.1,0,0,1,0-.2h2.38a.1.1,0,0,1,0,.2Zm-4.76,0h-2.38a.1.1,0,1,1,0-.2h2.38a.1.1,0,1,1,0,.2Zm-4.76,0h-2.38a.1.1,0,1,1,0-.2h2.38a.1.1,0,0,1,0,.2Zm-4.76,0h-2.38a.1.1,0,1,1,0-.2h2.38a.1.1,0,1,1,0,.2Zm-4.76,0h-2.38a.1.1,0,1,1,0-.2h2.38a.1.1,0,1,1,0,.2Zm-4.76,0h-2.38a.1.1,0,1,1,0-.2h2.38a.1.1,0,1,1,0,.2Zm-4.76,0h-2.38a.1.1,0,1,1,0-.2h2.38a.1.1,0,1,1,0,.2Zm-4.76,0h-2.38a.1.1,0,1,1,0-.2h2.38a.1.1,0,1,1,0,.2Zm-4.76,0h-2.38a.1.1,0,1,1,0-.2h2.38a.1.1,0,1,1,0,.2Zm-4.76,0h-2.38a.1.1,0,1,1,0-.2h2.38a.1.1,0,0,1,0,.2Zm-4.76,0h-2.38a.1.1,0,1,1,0-.2h2.38a.1.1,0,0,1,0,.2Zm-4.76,0h-2.38a.1.1,0,1,1,0-.2h2.38a.1.1,0,1,1,0,.2Zm-4.76,0h-2.38a.1.1,0,1,1,0-.2h2.38a.1.1,0,1,1,0,.2Z" transform="translate(-596.991 -777.582)"/></g></g><g transform="translate(232.278 450.34)"><g transform="translate(0 0)"><path class="b" d="M1017.319,854.233s.189,22.185-.417,27.044l1.537,28.442h30.049s1.379-31.209,1.379-33.589.1-21.834.1-21.834l-8.368-2.988-11.851-.149Z" transform="translate(-1016.902 -851.159)"/><g class="i"><path class="b" d="M1016.9,1421.48l30.462.644H1016.9Z" transform="translate(-1016.902 -1363.564)"/><path class="b" d="M1016.9,1408.869l32.535.687-.026,1.237h-2.046l-30.462-.644Z" transform="translate(-1016.902 -1352.233)"/><path class="b" d="M1016.9,1396.256l32.562.688-.027,1.28-32.535-.687Z" transform="translate(-1016.902 -1340.901)"/><path class="b" d="M1016.9,1383.645l32.589.688-.027,1.28-32.562-.688Z" transform="translate(-1016.902 -1329.57)"/><path class="b" d="M1016.9,1371.033l32.616.689-.027,1.28-32.589-.688Z" transform="translate(-1016.902 -1318.24)"/><path class="b" d="M1016.9,1358.42l32.643.69-.027,1.28-32.616-.689Z" transform="translate(-1016.902 -1306.907)"/><path class="b" d="M1016.9,1345.809l32.67.69-.027,1.28-32.643-.69Z" transform="translate(-1016.902 -1295.576)"/><path class="b" d="M1016.9,1333.2l32.7.691-.027,1.28-32.67-.69Z" transform="translate(-1016.902 -1284.244)"/><path class="b" d="M1016.9,1320.585l32.724.691-.027,1.28-32.7-.691Z" transform="translate(-1016.902 -1272.914)"/><path class="b" d="M1016.9,1307.971l32.751.692-.027,1.28-32.724-.691Z" transform="translate(-1016.902 -1261.581)"/><path class="b" d="M1016.9,1295.359l32.778.692-.027,1.28-32.751-.692Z" transform="translate(-1016.902 -1250.25)"/><path class="b" d="M1016.9,1282.748l32.805.693-.027,1.28-32.778-.692Z" transform="translate(-1016.902 -1238.92)"/><path class="b" d="M1016.9,1270.135l32.832.694-.027,1.28-32.805-.693Z" transform="translate(-1016.902 -1227.587)"/><path class="b" d="M1016.9,1257.523l32.859.694-.027,1.28-32.832-.694Z" transform="translate(-1016.902 -1216.257)"/><path class="b" d="M1016.9,1244.91l32.886.695-.027,1.28-32.859-.694Z" transform="translate(-1016.902 -1204.924)"/><path class="b" d="M1016.9,1232.3l32.913.7-.027,1.28-32.886-.695Z" transform="translate(-1016.902 -1193.594)"/><path class="b" d="M1016.9,1219.686l32.94.7-.027,1.28-32.913-.7Z" transform="translate(-1016.902 -1182.261)"/><path class="b" d="M1016.9,1207.074l32.967.7-.027,1.28-32.94-.7Z" transform="translate(-1016.902 -1170.931)"/><path class="b" d="M1016.9,1194.463l32.994.7-.027,1.28-32.967-.7Z" transform="translate(-1016.902 -1159.6)"/><path class="b" d="M1016.9,1181.85l33.021.7-.027,1.28-32.994-.7Z" transform="translate(-1016.902 -1148.268)"/><path class="b" d="M1016.9,1169.238l33.048.7-.027,1.28-33.021-.7Z" transform="translate(-1016.902 -1136.937)"/><path class="b" d="M1016.9,1156.625l33.061.7v.667l-.013.614-33.048-.7Z" transform="translate(-1016.902 -1125.605)"/><path class="b" d="M1016.9,1144.014l33.061.7v1.281l-33.061-.7Z" transform="translate(-1016.902 -1114.274)"/><path class="b" d="M1016.9,1131.4l33.061.7v1.281l-33.061-.7Z" transform="translate(-1016.902 -1102.942)"/><path class="b" d="M1016.9,1118.789l33.061.7v1.281l-33.061-.7Z" transform="translate(-1016.902 -1091.611)"/><path class="b" d="M1016.9,1106.178l33.061.7v1.281l-33.061-.7Z" transform="translate(-1016.902 -1080.28)"/><path class="b" d="M1016.9,1093.564l33.061.7v1.281l-33.061-.7Z" transform="translate(-1016.902 -1068.948)"/><path class="b" d="M1016.9,1080.953l33.061.7v1.281l-33.061-.7Z" transform="translate(-1016.902 -1057.617)"/><path class="b" d="M1016.9,1068.34l33.061.7v1.281l-33.061-.7Z" transform="translate(-1016.902 -1046.285)"/><path class="b" d="M1016.9,1055.729l33.061.7v1.281l-33.061-.7Z" transform="translate(-1016.902 -1034.954)"/><path class="b" d="M1016.9,1043.116l33.061.7v1.281l-33.061-.7Z" transform="translate(-1016.902 -1023.623)"/><path class="b" d="M1016.9,1030.5l33.061.7v1.281l-33.061-.7Z" transform="translate(-1016.902 -1012.291)"/><path class="b" d="M1016.9,1017.893l33.061.7v1.281l-33.061-.7Z" transform="translate(-1016.902 -1000.961)"/><path class="b" d="M1016.9,1005.279l33.061.7v1.281l-33.061-.7Z" transform="translate(-1016.902 -989.628)"/><path class="b" d="M1016.9,992.668l33.061.7v1.281l-33.061-.7Z" transform="translate(-1016.902 -978.297)"/><path class="b" d="M1016.9,980.174l0-.118,33.059.7v1.281l-33.061-.7Z" transform="translate(-1016.902 -966.967)"/><path class="b" d="M1016.927,968.73l.027-1.28,33.032.7v1.281Z" transform="translate(-1016.924 -955.64)"/><path class="b" d="M1017.193,956.123l.027-1.28,33,.7v1.281Z" transform="translate(-1017.164 -944.314)"/><path class="b" d="M1017.459,943.517l.027-1.28,32.978.7v1.281Z" transform="translate(-1017.403 -932.987)"/><path class="b" d="M1017.726,930.91l.027-1.28,32.951.7v1.281Z" transform="translate(-1017.642 -921.661)"/><path class="b" d="M1017.992,918.3l.027-1.28,32.924.7V919Z" transform="translate(-1017.882 -910.335)"/><path class="b" d="M1018.258,905.7l.027-1.28,32.9.695v1.281Z" transform="translate(-1018.12 -899.008)"/><path class="b" d="M1018.525,893.09l.027-1.28,32.87.694v1.281Z" transform="translate(-1018.36 -887.682)"/><path class="b" d="M1018.791,880.484l.027-1.28,32.842.694v1.281Z" transform="translate(-1018.599 -876.356)"/><path class="b" d="M1019.058,867.877l.027-1.28,32.816.693v1.281Z" transform="translate(-1018.839 -865.029)"/><path class="b" d="M1019.324,852.726l.033-1.568h32.782v2.261Z" transform="translate(-1019.078 -851.159)"/></g></g></g><g transform="translate(238.781 447.321)"><g transform="translate(0 0)"><path class="a" d="M1086.013,853.356l-5.931,1.66s2.375,11.856,3.791,13.273-.241,2.479.95,3.669,7.785,10.132,7.785,10.132Z" transform="translate(-1080.082 -853.356)"/></g><g transform="translate(12.526 0.388)"><path class="a" d="M1209.475,857.181l-6.049,28.346s6.432-11.367,6.982-11.917,0-2.876,0-3.967,3.421-10.575,3.421-10.575S1210.706,857.181,1209.475,857.181Z" transform="translate(-1203.426 -857.181)"/></g></g><g transform="translate(238.876 447.077)"><g transform="translate(0 0)"><path class="h" d="M1087.214,851.159l-6.347.645s2.295,11.674,3.712,13.091-.241,2.479.949,3.669,7.785,11.553,7.785,11.553Z" transform="translate(-1080.867 -851.159)"/></g><g transform="translate(12.446 0.149)"><path class="h" d="M1209.178,852.623l-5.752,28.809s6.432-12.788,6.982-13.339,0-2.876,0-3.967,3.48-10.116,3.48-10.116A22.43,22.43,0,0,0,1209.178,852.623Z" transform="translate(-1203.426 -852.623)"/></g></g><g transform="translate(250.149 481.118)"><path class="a" d="M1195.125,1165.917l.843-29.6-.174,29.6Z" transform="translate(-1195.125 -1136.314)"/></g><g transform="translate(229.186 519.275)"><rect class="j" width="22.611" height="2.38" transform="translate(0 0)"/></g><g transform="translate(230.494 521.655)"><path class="j" d="M1036.24,1501.31H1017.5l-.6-10.992h19.933Z" transform="translate(-1016.902 -1490.318)"/></g><g transform="translate(230.494 521.655)"><path class="k" d="M1036.835,1490.318H1016.9l.6,10.992h2.465a12.848,12.848,0,0,1,1.651-5c1.671-2.642,9.92-3.681,15.119-4.077Z" transform="translate(-1016.902 -1490.318)"/></g><g transform="translate(216.417 532.647)"><path class="k" d="M922.857,1604.509H871.883a5.951,5.951,0,0,1,5.95-5.95h39.073a5.951,5.951,0,0,1,5.95,5.95Z" transform="translate(-871.883 -1598.559)"/></g><g transform="translate(195.689 443.971)"><path class="l" d="M749.842,835.821l-1.732-6.2-7.611,1.952s1.085,3.377,1.843,3.841l3.086,1.888h0l6.8,13.5,4.158-5.137Z" transform="translate(-740.499 -829.621)"/></g><g transform="translate(245.163 433.629)"><path class="m" d="M1144.8,734.6a36.3,36.3,0,0,1,0,5.851,7.575,7.575,0,0,1-1.438,3.223l6.1,28.958,5.752-28.809a4.838,4.838,0,0,1-1.834-3.372,86.1,86.1,0,0,1-.4-8.925Z" transform="translate(-1143.367 -731.53)"/></g><g transform="translate(245.882 405.379)"><g transform="translate(1.944 20.629)"><path class="m" d="M1156.516,722.91s-.033,14.016-.033,17.3,4.051,7.254,6.158,6.46S1167,736.083,1167,736.083l-.042-5.5Z" transform="translate(-1156.483 -722.91)"/></g><g transform="translate(2.118 21.498)"><path class="l" d="M1168.5,743.442v-5.175l-5.028-3.32a3.084,3.084,0,0,1-.288-.151,3.869,3.869,0,0,1-.56-.409l-4.422-2.92s0,.137-.005.383l.005.04s.369,4.857,2.344,7.882C1162.131,742.206,1165.715,743.985,1168.5,743.442Z" transform="translate(-1158.192 -731.467)"/></g><g transform="translate(2.123 4.819)"><path class="m" d="M1160.667,568.1s-2.844,7.141-2.37,12.666,8.138,12.751,11.535,10.541,2.291-8.5,2.291-9.945,1.292-8.075.172-10.456S1162.8,565.8,1160.667,568.1Z" transform="translate(-1158.244 -567.229)"/></g><g transform="translate(1.065 0.842)"><path class="n" d="M1160.233,529.255c-4.662-2.04-10.429-1.445-11.852,1.7s.321,16.661.321,16.661.548,4.505,2.523,7.31,7.032,4.675,9.8,2.635,1.9-8.59,1.9-8.59-.4,1.535-1.5,1.535-1.317-.833-1.817-.935c-1.822-.372-2.607.17-4.188.935a1.679,1.679,0,0,1-1.55-.2,4.671,4.671,0,0,1-2.192-4.536l.424-4.619a12.578,12.578,0,0,0,3.714-3.57c.869,3.4,7.536,2.627,8.533,1.02S1164.895,531.3,1160.233,529.255Z" transform="translate(-1147.823 -528.066)"/></g><g class="o" transform="translate(1.05 5.242)"><path class="l" d="M1162.808,574.646c-.587-1.247-3.164-2.586-5.791-3.25a6.2,6.2,0,0,0-.231,1.368l-3.656.545-5.446,3.774a82.69,82.69,0,0,1,9.135-3.238,1.577,1.577,0,0,0,.049.344,5.786,5.786,0,0,0,6.352,4.951A10.61,10.61,0,0,0,1162.808,574.646Z" transform="translate(-1147.683 -571.396)"/></g><g transform="translate(0.964 3.914)"><path class="a" d="M1158.293,558.313a36.207,36.207,0,0,0-11.409,2.932,26.1,26.1,0,0,0,.038,4.084c4.721-2.654,10.289-4.544,11.371-4.409A3.57,3.57,0,0,0,1158.293,558.313Z" transform="translate(-1146.836 -558.313)"/></g><g transform="translate(0 11.036)"><path class="m" d="M1141.122,630.692s-.948-2.777-2.95-2.153.053,7.027,1.475,6.517S1141.438,632,1141.122,630.692Z" transform="translate(-1137.339 -628.447)"/></g><g transform="translate(9.507 0)"><g transform="translate(0)"><ellipse class="d" cx="5.572" cy="5.958" rx="5.572" ry="5.958" transform="translate(0 1.885) rotate(-9.738)"/></g><g transform="translate(1.247 0.842)"><path class="b" d="M1253.975,533.1a5.428,5.428,0,1,1-6.332-4.958A5.7,5.7,0,0,1,1253.975,533.1Z" transform="translate(-1243.231 -528.066)"/></g><g transform="translate(1.247 0.889)"><path class="e" d="M1246.426,533.653a6.161,6.161,0,0,1,1.377-5.124l-.16.025a5.986,5.986,0,0,0,2.015,11.744,5.049,5.049,0,0,0,2.94-1.661A5.721,5.721,0,0,1,1246.426,533.653Z" transform="translate(-1243.231 -528.529)"/></g><g transform="translate(5.909 5.638)"><path class="a" d="M1290.739,576.044a.806.806,0,1,1-.94-.736A.846.846,0,0,1,1290.739,576.044Z" transform="translate(-1289.144 -575.297)"/></g></g></g><g transform="translate(246.363 453.563)"><path class="p" d="M1160.564,932.809l4.478-22.426a30.871,30.871,0,0,1-9.322-.576Z" transform="translate(-1155.719 -909.807)"/></g><g transform="translate(246.363 453.563)"><path class="p" d="M1165.041,910.383l-.1.01c-1.121,4.582-3.682,14.739-4.556,15.613-.839.839-3.4-10.353-4.665-16.2h-.006l4.845,23Z" transform="translate(-1155.719 -909.807)"/></g><g transform="translate(195.19 437.915)"><path class="m" d="M748.694,788.059c-.068-.083-5.7-5.445-6.814-5.109-1.853.483,2.266,3.557,2.712,4.134a6.206,6.206,0,0,1,.594.993c-.146.042-.282.08-.405.109-1.061.255-3.891.784-4.294,1.442,0,0-.076,3.708.9,3.728s1.959-.336,3-.23a2.376,2.376,0,0,0,1.467-.474c.065-.043.127-.087.185-.13a.757.757,0,0,0-.033.762c.5,1.015,3.954-.735,4.1-1.383A7.274,7.274,0,0,0,748.694,788.059Zm-.791,3.353a4.463,4.463,0,0,0-1.388.625,8.926,8.926,0,0,1-.685-2.844h0a2.1,2.1,0,0,1,2.045-.3h0a.487.487,0,0,1,.143.251C748.182,789.814,748.53,791.26,747.9,791.411Z" transform="translate(-740.485 -782.934)"/></g><g transform="translate(205.72 450.905)"><path class="h" d="M817.2,890.505s8.033,20.627,11.107,22.214,9.173-4.245,9.173-4.245,1.806-27.044.417-27.044-3.3,6.244-4.941,10.328c-1.671,4.155-1.7,8.784-3.946,4.748-2.293-4.124-5.359-10.42-5.359-10.42A30.8,30.8,0,0,1,817.2,890.505Z" transform="translate(-817.195 -881.431)"/></g><g transform="translate(135.734 403.009)"><path class="k" d="M679.95,665.852a.372.372,0,0,1-.306-.584l14.13-20.476a.372.372,0,0,1,.613.423l-14.131,20.476A.372.372,0,0,1,679.95,665.852Z" transform="translate(-639.86 -629.582)"/><path class="k" d="M441.207,879.333a.373.373,0,0,1-.272-.627l23.453-25.074a.372.372,0,1,1,.544.509l-23.453,25.074A.371.371,0,0,1,441.207,879.333Z" transform="translate(-425.361 -817.253)"/><path class="k" d="M505.261,734.632a.371.371,0,0,1-.217-.07L486.18,721.041a.372.372,0,1,1,.434-.605l18.864,13.521a.372.372,0,0,1-.217.675Z" transform="translate(-465.962 -697.626)"/><path class="k" d="M642.583,820.121a4.189,4.189,0,1,1-4.189-4.189A4.189,4.189,0,0,1,642.583,820.121Z" transform="translate(-599.094 -783.487)"/><path class="h" d="M654.5,831.527a2.669,2.669,0,1,1-2.669-2.669A2.669,2.669,0,0,1,654.5,831.527Z" transform="translate(-612.536 -795.101)"/><path class="k" d="M308.918,632.981a1.93,1.93,0,0,1,.2.859v15.017a1.939,1.939,0,0,1-1.939,1.939H289.32a1.93,1.93,0,0,1-.859-.2,1.939,1.939,0,0,0,1.738,1.08h17.86A1.939,1.939,0,0,0,310,649.736V634.719A1.938,1.938,0,0,0,308.918,632.981Z" transform="translate(-288.461 -619.115)"/><path class="k" d="M308.918,999.315a1.93,1.93,0,0,1,.2.859v15.017a1.939,1.939,0,0,1-1.939,1.939H289.32a1.93,1.93,0,0,1-.859-.2,1.938,1.938,0,0,0,1.738,1.08h17.86A1.939,1.939,0,0,0,310,1016.07v-15.017A1.938,1.938,0,0,0,308.918,999.315Z" transform="translate(-288.461 -948.247)"/><path class="k" d="M692.755,496.44a1.738,1.738,0,0,0-.229.859v15.017a2.089,2.089,0,0,0,2.212,1.939h20.378a2.46,2.46,0,0,0,.98-.2,2.258,2.258,0,0,1-1.983,1.08H693.735a2.089,2.089,0,0,1-2.212-1.939V498.178A1.933,1.933,0,0,1,692.755,496.44Z" transform="translate(-650.592 -496.44)"/><path class="d" d="M352.621,681.11a.641.641,0,1,1-.641-.641A.641.641,0,0,1,352.621,681.11Z" transform="translate(-344.954 -661.781)"/><path class="d" d="M427.668,665.471a.4.4,0,1,1-.4-.4A.4.4,0,0,1,427.668,665.471Z" transform="translate(-412.807 -647.944)"/><path class="d" d="M446.711,665.471a.4.4,0,1,1-.4-.4A.4.4,0,0,1,446.711,665.471Z" transform="translate(-429.916 -647.944)"/><path class="q" d="M369.991,1049.716a1.331,1.331,0,1,0,1.331-1.331A1.33,1.33,0,0,0,369.991,1049.716Z" transform="translate(-361.712 -992.334)"/><rect class="d" width="1.928" height="1.855" transform="translate(13.564 60.993) rotate(180)"/><rect class="d" width="1.358" height="0.521" transform="translate(13.279 61.623) rotate(180)"/><rect class="d" width="2.859" height="0.683" transform="translate(14.03 53.612) rotate(180)"/><path class="d" d="M350.747,1061.721c-.006.064-.009.128-.009.194a2.034,2.034,0,0,0,1.6,1.985,1.754,1.754,0,0,0-.634.819,2.342,2.342,0,0,0,.154,1.823,3.775,3.775,0,0,0,1.518,1.574l-.24.847C349.81,1068.017,348.395,1064.323,350.747,1061.721Z" transform="translate(-343.375 -1004.316)"/><rect class="d" width="2.787" height="1.87" transform="translate(11.004 65.641) rotate(180)"/><path class="d" d="M0,0H10.345a0,0,0,0,1,0,0V0a1,1,0,0,1-1,1H1A1,1,0,0,1,0,0V0A0,0,0,0,1,0,0Z" transform="translate(16.236 66.639) rotate(180)"/><rect class="r" width="5.322" height="0.935" transform="translate(15.277 63.202) rotate(180)"/></g><g transform="translate(270.264 451.464)"><path class="h" d="M1337.628,882.049a111.593,111.593,0,0,0-.1,21.834c.175,2.2,3.279.627,6.551,3.091,5.453,4.106,9.255,9.647,10.224,11.849,2.211-1,2.2-10.953.987-14.907C1353.977,901.287,1337.628,882.049,1337.628,882.049Z" transform="translate(-1337.081 -882.049)"/></g><g transform="translate(266.052 463.392)"><path class="p" d="M1315.946,993.842l-21.1-2.551-13.214,25.176h17.109Z" transform="translate(-1281.637 -991.292)"/></g><g class="s" transform="translate(279.544 463.392)"><path class="p" d="M1412.321,1016.468l17.2-22.626-21.1-2.551-.377.718c3.3.863,9.679,2.887,10.626,5.817,1.012,3.129-6.353,14.1-9.543,18.641Z" transform="translate(-1408.049 -991.291)"/></g><g transform="translate(264.989 462.164)"><path class="f" d="M1285.159,980.012l-13.446,25.872,1.008.45,13.214-25.176,21.1,2.551-1.285-1.007Z" transform="translate(-1271.713 -980.012)"/></g><g transform="translate(272.562 480.654)"><path class="m" d="M1360.323,1149.452c.384-.306,3.6,1.689,5.441,2.882l.011-.075c-1.736-1.288-4.776-2.825-4.08-3.267.356-.227,7.986,2.847,7.987,2.848.8.364.84.4,1.669.765-.2-.478-2.193-3.729-.846-3.569l4.457,5.827a3.029,3.029,0,0,1,.542,2.637c-.231.8-1.349,2.929-3.17,3.358-1.754.413-6.508-2.272-7.253-2.968-.8-.688-6.251-5.453-5.38-6.781,0,0,4.545,4.437,5.027,3.887.028-.127-4.494-3.13-4.848-4.3-.254-.84,3.7,1.72,5.433,3C1363.76,1152.422,1360.059,1149.663,1360.323,1149.452Z" transform="translate(-1359.607 -1148.98)"/></g><g transform="translate(142.913 494.991)"><g transform="translate(0)"><path class="k" d="M12.533,0h0A12.533,12.533,0,0,1,25.066,12.533V34.09A12.533,12.533,0,0,1,12.533,46.623h0A12.533,12.533,0,0,1,0,34.09V12.533A12.533,12.533,0,0,1,12.533,0Z"/></g><g transform="translate(18.817 0)"><path class="k" d="M545.163,1227.758h-.712a5.537,5.537,0,0,1,5.537,5.537v35.549a5.537,5.537,0,0,1-5.537,5.537h.712a5.537,5.537,0,0,0,5.537-5.537V1233.3A5.537,5.537,0,0,0,545.163,1227.758Z" transform="translate(-544.451 -1227.758)"/></g><g transform="translate(0.712 0.711)"><rect class="b" width="45.2" height="23.643" rx="11.821" transform="translate(23.643) rotate(90)"/></g><g transform="translate(10.119 2.671)"><path class="d" d="M463.771,1254.579H459.06a.26.26,0,1,1,0-.52h4.711a.26.26,0,1,1,0,.52Z" transform="translate(-458.8 -1254.059)"/></g><g transform="translate(9.616 4.35)"><path class="d" d="M459.8,1271.166H454.13a.285.285,0,1,1,0-.57H459.8a.285.285,0,1,1,0,.57Z" transform="translate(-453.845 -1270.596)"/></g><g transform="translate(7.545 4.244)"><path class="d" d="M434.23,1269.94a.391.391,0,1,1-.391-.391A.391.391,0,0,1,434.23,1269.94Z" transform="translate(-433.447 -1269.549)"/></g><g transform="translate(10.398 40.736)"><circle class="a" cx="2.135" cy="2.135" r="2.135"/></g><g transform="translate(10.047 40.736)"><circle class="h" cx="2.135" cy="2.135" r="2.135"/></g><g transform="translate(2.03 8.472)"><path class="d" d="M10.46,0h0A10.461,10.461,0,0,1,20.921,10.461V20.577a10.46,10.46,0,0,1-10.46,10.46h0A10.46,10.46,0,0,1,0,20.577V10.46A10.46,10.46,0,0,1,10.46,0Z"/></g><g transform="translate(2.504 9.028)"><path class="r" d="M6.128,0H23.8a6.129,6.129,0,0,1,6.129,6.129v7.714A6.129,6.129,0,0,1,23.8,19.972H6.129A6.129,6.129,0,0,1,0,13.843V6.128A6.128,6.128,0,0,1,6.128,0Z" transform="translate(19.972 0) rotate(90)"/></g><g transform="translate(2.504 9.028)"><path class="h" d="M403.21,1316.658H384.388a.631.631,0,0,0-.575.674v4.332h19.972v-4.332A.631.631,0,0,0,403.21,1316.658Z" transform="translate(-383.813 -1316.658)"/></g><g transform="translate(7.169 14.955)"><rect class="d" width="11.354" height="0.763"/></g><g transform="translate(4.493 14.61)"><path class="d" d="M403.4,1372.357l1.073.726v-1.452Z" transform="translate(-403.397 -1371.631)"/></g><g transform="translate(19.341 14.61)"><path class="d" d="M550.686,1372.357l-1.073.726v-1.452Z" transform="translate(-549.613 -1371.631)"/></g><g transform="translate(3.121 10.307)"><path class="k" d="M1.168,0H5.612A1.168,1.168,0,0,1,6.78,1.168v0A1.168,1.168,0,0,1,5.612,2.336H1.168A1.168,1.168,0,0,1,0,1.168v0A1.168,1.168,0,0,1,1.168,0Z"/></g><g transform="translate(19.339 10.307)"><path class="d" d="M1.075,0h0A1.075,1.075,0,0,1,2.151,1.075v.186A1.075,1.075,0,0,1,1.075,2.336h0A1.075,1.075,0,0,1,0,1.261V1.075A1.075,1.075,0,0,1,1.075,0Z"/></g><g transform="translate(20.242 10.69)"><rect class="r" width="0.344" height="1.516"/></g><g transform="translate(19.768 11.246)"><rect class="r" width="0.403" height="1.293" transform="translate(0 0.403) rotate(-90)"/></g><g transform="translate(3.501 18.801)"><rect class="h" width="2.209" height="19.101"/></g><g transform="translate(6.151 18.801)"><rect class="h" width="2.209" height="19.101"/></g><g transform="translate(8.823 18.801)"><rect class="h" width="2.209" height="19.101"/></g><g transform="translate(11.494 18.801)"><rect class="h" width="2.209" height="19.101"/></g><g transform="translate(14.165 18.801)"><rect class="h" width="2.209" height="19.101"/></g><g transform="translate(16.837 18.801)"><rect class="h" width="2.209" height="19.101"/></g><g transform="translate(19.508 18.801)"><rect class="h" width="2.209" height="19.101"/></g><g transform="translate(3.501 16.61)"><rect class="d" width="2.209" height="1.451"/></g><g transform="translate(6.151 16.61)"><rect class="d" width="2.209" height="1.451"/></g><g transform="translate(8.823 16.61)"><rect class="d" width="2.209" height="1.451"/></g><g transform="translate(11.494 16.61)"><rect class="d" width="2.209" height="1.451"/></g><g transform="translate(14.165 16.61)"><rect class="d" width="2.209" height="1.451"/></g><g transform="translate(16.837 16.61)"><rect class="q" width="2.209" height="1.451"/></g><g transform="translate(19.508 16.61)"><rect class="q" width="2.209" height="1.451"/></g><g transform="translate(3.121 21.002)"><rect class="r" width="18.82" height="0.474"/></g><g transform="translate(3.121 23.852)"><rect class="r" width="18.82" height="0.474"/></g><g transform="translate(3.121 26.703)"><rect class="r" width="18.82" height="0.474"/></g><g transform="translate(3.121 29.553)"><rect class="r" width="18.82" height="0.474"/></g><g transform="translate(3.121 32.404)"><rect class="r" width="18.82" height="0.474"/></g><g transform="translate(3.08 35.254)"><rect class="r" width="18.821" height="0.474"/></g><g transform="translate(10.426 22.15)"><path class="q" d="M463.635,1448.23l-1.812-.781,2.271,2.78,1.939-4.351Z" transform="translate(-461.823 -1445.879)"/></g></g><g transform="translate(313.688 452.838)"><g transform="translate(3.46 0.014)"><path class="n" d="M1707.491,812.857c-.424.089-4.247.132-4.247,2.912s.055,3.886-.663,5.1-.919,6.359,2.1,4.9c.806-.391.25,2.509.25,2.509s5.172,2.322,6.609,1.714,3.648.774,3.648.774,2.2-3.519,0-5.718-1.935-2.021-1.935-4.508-.442-1.769-1.492-3.261S1710.089,812.312,1707.491,812.857Z" transform="translate(-1702.133 -812.799)"/></g><g transform="translate(2.062 51.741)"><path class="m" d="M1690,1325.6s1.963,20.424.975,22.957-2.6,6.887-2.6,6.887h1.816l3.711-4.93s-.089-.227.22-1.216,2.533-11.615,1.73-16.62c-.228-1.42-.51-8.26-1.209-9.418C1692.872,1320.333,1690,1324.12,1690,1325.6Z" transform="translate(-1688.368 -1322.178)"/></g><g transform="translate(0.931 79.111)"><path class="n" d="M1684.028,1591.7s.458-.188.865.77-.743,5.7-.743,5.7l-.936.029s.637-3.521.421-3.521-1.257,3.583-1.784,3.727-3.988.371-4.527-.168,1.4-1.643,1.4-1.643,1.74.232,1.967,0S1684.028,1591.7,1684.028,1591.7Z" transform="translate(-1677.229 -1591.689)"/></g><g transform="translate(9.138 51.741)"><path class="m" d="M1759.681,1325.6s1.963,20.424.975,22.957-2.6,6.887-2.6,6.887h1.816l3.711-4.93s-.089-.227.22-1.216,2.533-11.615,1.73-16.62c-.228-1.42-.51-8.26-1.209-9.418C1762.556,1320.333,1759.681,1324.12,1759.681,1325.6Z" transform="translate(-1758.053 -1322.178)"/></g><g transform="translate(10.88 56.386)"><path class="l" d="M1780.5,1368.826c-.977-.172-3.011-.528-5.295-.913.092,1.01.23,2.571.378,4.406a18.838,18.838,0,0,0,5.221.152C1780.717,1371.48,1780.619,1370.14,1780.5,1368.826Z" transform="translate(-1775.202 -1367.912)"/></g><g transform="translate(3.697 55.239)"><path class="l" d="M1709.748,1357.451c-1.874-.31-3.767-.611-5.276-.828.041.434.245,2.6.476,5.446a15.372,15.372,0,0,0,1.983.413,10.152,10.152,0,0,0,3.254-.058C1710.072,1361.118,1709.937,1359.151,1709.748,1357.451Z" transform="translate(-1704.472 -1356.623)"/></g><g transform="translate(1.798 29.479)"><path class="p" d="M1701.951,1132.885v-12.2c0-3.213-1.236-11.658-3.213-15.859s-10.133,0-10.133,0a33.086,33.086,0,0,0-2.356,10.017l-.474,18.386A39.37,39.37,0,0,0,1701.951,1132.885Z" transform="translate(-1685.775 -1102.954)"/></g><g transform="translate(2.04 12.282)"><path class="b" d="M1689.273,934.919a13.464,13.464,0,0,0-1.066,6.364c.458,4.631,2.475,10.513,2.031,12.364-.741,3.089,10.387,3.553,10.907-.351.185-1.389-.176-4.863.151-8.007.519-4.992,1.706-9.906,1.486-10.041C1697.91,932.259,1689.73,934.105,1689.273,934.919Z" transform="translate(-1688.156 -933.605)"/></g><g class="t" transform="translate(8.197 12.414)"><path class="a" d="M1749.054,937.17a5.079,5.079,0,0,0,1.416,3.9c1.487,1.487,3.742,2.481,5.768,1.784.544-3.517,1.177-6.331,1.011-6.433a11.713,11.713,0,0,0-4.689-1.509l-3.78.245Z" transform="translate(-1748.78 -934.909)"/></g><g class="u" transform="translate(3.777 27.749)"><path class="a" d="M1705.256,1086.892a18.593,18.593,0,0,1,.4,2.691,8.042,8.042,0,0,1,2.084-.121c1.269.15,6.243.433,8.792.407.046-.606.027-1.48.006-2.5l-9.813-1.455Z" transform="translate(-1705.256 -1085.914)"/></g><g transform="translate(6.003 13.923)"><path class="b" d="M1737.845,949.771s1.061-.062,2.034,5.035-.655,11.353-1.741,11.909-10.956-.7-10.956-.7l.324-3.568s7.61-.408,8.444-1.242c.2-.205-.01-1.194.166-2.276C1736.657,955.61,1737.845,949.771,1737.845,949.771Z" transform="translate(-1727.183 -949.771)"/></g><g class="t" transform="translate(15.402 13.923)"><path class="a" d="M1822.647,953.059c-.849-3.334-1.65-3.288-1.65-3.288s-.7,3.417-1.264,6.511a4.162,4.162,0,0,0,1.037-.443A4.584,4.584,0,0,0,1822.647,953.059Z" transform="translate(-1819.733 -949.771)"/></g><g transform="translate(15.179 23.086)"><path class="m" d="M1817.541,1041.784a9.224,9.224,0,0,0,1.528-1.033c.432-.433,1.267-.989,1.267-.649a1.613,1.613,0,0,1-.4.788s1.5-.835,1.668-.665a4.188,4.188,0,0,1,0,2.379c-.247,1.143-3.612,1.651-3.612,1.651Z" transform="translate(-1817.541 -1039.997)"/></g><g transform="translate(8.007 79.111)"><path class="n" d="M1753.713,1591.7s.458-.188.865.77-.743,5.7-.743,5.7l-.936.029s.637-3.521.421-3.521-1.257,3.583-1.784,3.727-3.988.371-4.527-.168,1.4-1.643,1.4-1.643,1.74.232,1.967,0S1753.713,1591.7,1753.713,1591.7Z" transform="translate(-1746.914 -1591.689)"/></g><g transform="translate(0 13.595)"><path class="a" d="M1669.481,963.21c3.507.958,11.306-.927,14.458-1.575l-.741-4.078s-9.246,1.573-10.37.924c-.556-.321-1.767-3.242-2.027-6.115a20.554,20.554,0,0,1,.423-5.826s-3.154,2.838-3.154,10.067C1668.068,962.123,1667.938,962.788,1669.481,963.21Z" transform="translate(-1668.065 -946.54)"/></g><g transform="translate(1.373 21.316)"><path class="m" d="M1683.362,1023.483s.77.8,1.372,1.4a14.061,14.061,0,0,1,1.485,2.146s-1.251.166-1.684.166-1.761-.927-2.255-.927-.278-.711.309-.525,1.174.309,1.174.309-1.313-1.066-1.915-1.668-.029-.953.463-.461a5.3,5.3,0,0,0,1.05.8s-1.73-1.792-1.421-2.1S1683.362,1023.483,1683.362,1023.483Z" transform="translate(-1681.589 -1022.572)"/></g><g transform="translate(6.159 6.096)"><path class="l" d="M1730,873.872l-.423,5.032s-1.695,5.973-.334,6.471,3.321-6.24,3.321-6.24v-6.441Z" transform="translate(-1728.718 -872.693)"/></g><g transform="translate(5.118 1.277)"><path class="m" d="M1721.256,825.353s-1.4-.84-2.257,2.062-.738,5.045.7,5.444,3.673-1.122,4.628-3.009S1722.465,825.183,1721.256,825.353Z" transform="translate(-1718.46 -825.24)"/></g><g transform="translate(6.448 0)"><path class="n" d="M1742.576,826.277a5.131,5.131,0,0,0-.951-1.349c-2.2-2.2-1.935-2.021-1.935-4.508s-.442-1.769-1.492-3.261-1.668-4.98-4.266-4.436c-.033.007-2.848.59-2.3,1.663,0,0,.482-.317,1.4.815,1.017,1.254.438,1.35,1.433,1.792s.61,2.156.61,3.289-.334,4.547-1.246,6.025.818,4.32,2.868,5.175C1742.7,833.982,1743.685,828.5,1742.576,826.277Z" transform="translate(-1731.563 -812.666)"/></g></g></g></svg>