<svg xmlns="http://www.w3.org/2000/svg" width="26" height="31.167" viewBox="0 0 26 31.167">
  <g id="bell" transform="translate(-1.5 0.5)">
    <g id="Group_18" data-name="Group 18" transform="translate(12.167 0)">
      <path id="Path_37" data-name="Path 37" d="M14.083,4.877a.584.584,0,0,1-.583-.583V2.333a1.167,1.167,0,0,0-2.333,0v1.96a.583.583,0,1,1-1.167,0V2.333a2.333,2.333,0,1,1,4.667,0v1.96A.583.583,0,0,1,14.083,4.877Z" transform="translate(-10 0)" fill="#494e56" stroke="#494e56" stroke-width="1"/>
    </g>
    <g id="Group_19" data-name="Group 19" transform="translate(10.417 25.333)">
      <path id="Path_38" data-name="Path 38" d="M12.583,24.667A4.088,4.088,0,0,1,8.5,20.583a.583.583,0,0,1,1.167,0,2.917,2.917,0,1,0,5.833,0,.583.583,0,0,1,1.167,0A4.088,4.088,0,0,1,12.583,24.667Z" transform="translate(-8.5 -19.833)" fill="#494e56" stroke="#494e56" stroke-width="1"/>
    </g>
    <g id="Group_20" data-name="Group 20" transform="translate(2 3.5)">
      <path id="Path_39" data-name="Path 39" d="M25.125,26H3.875A1.9,1.9,0,0,1,2,24.083a1.932,1.932,0,0,1,.656-1.457,8.965,8.965,0,0,0,3.094-6.8V11.944A8.859,8.859,0,0,1,14.5,3a8.859,8.859,0,0,1,8.75,8.944v3.882a8.955,8.955,0,0,0,3.084,6.791A1.94,1.94,0,0,1,27,24.083,1.9,1.9,0,0,1,25.125,26ZM14.5,4.278A7.592,7.592,0,0,0,7,11.944v3.882a10.245,10.245,0,0,1-3.526,7.768.647.647,0,0,0-.224.489.632.632,0,0,0,.625.639h21.25a.632.632,0,0,0,.625-.639.646.646,0,0,0-.219-.486A10.253,10.253,0,0,1,22,15.826V11.944a7.592,7.592,0,0,0-7.5-7.667Z" transform="translate(-2 -3)" fill="#494e56" stroke="#494e56" stroke-width="1"/>
    </g>
  </g>
</svg>
