<svg id="airline-r" xmlns="http://www.w3.org/2000/svg" width="23.472" height="23.524" viewBox="0 0 23.472 23.524">
  <g id="Group_287" data-name="Group 287" transform="translate(0)">
    <path id="Path_591" data-name="Path 591" d="M22.776.938A3.214,3.214,0,0,0,20.484,0,3.5,3.5,0,0,0,18,1.044l-3.37,3.6L3.039,1.176.777,3.439a1.268,1.268,0,0,0,0,1.794l.072.072L9.543,10.09,6.479,13.414a4.728,4.728,0,0,0-.6.737L2.086,13.17.574,14.682a1.135,1.135,0,0,0,0,1.6l.081.081,4.322,2.192.229.229L7.4,23.111l.081.081a1.134,1.134,0,0,0,1.6,0L10.6,21.681l-1-3.867a4.731,4.731,0,0,0,.7-.578l3.339-3.078,4.772,8.671.049.09.072.072a1.268,1.268,0,0,0,1.794,0l2.263-2.262L19.1,9.061,22.67,5.718a3.514,3.514,0,0,0,1.043-2.392A3.212,3.212,0,0,0,22.776.938ZM21.671,4.684,17.464,8.619l3.5,11.7-1.48,1.48-5.471-9.942-4.7,4.332-.021.02a3.2,3.2,0,0,1-.849.613l-.525.259L9,21.245l-.618.618-1.994-3.93-.554-.554L1.9,15.387l.618-.618,4.1,1.062L6.88,15.3a3.2,3.2,0,0,1,.627-.876l4.338-4.7L1.969,4.281,3.449,2.8l11.62,3.478,3.953-4.226a2.072,2.072,0,0,1,1.462-.615,1.766,1.766,0,0,1,1.791,1.847A2.068,2.068,0,0,1,21.671,4.684Z" transform="translate(-0.243)"/>
  </g>
</svg>
