<svg width="23" height="23" viewBox="0 0 23 23" fill="none" xmlns="http://www.w3.org/2000/svg">
<path fill-rule="evenodd" clip-rule="evenodd" d="M6.056 16.883C6.11826 16.3129 6.37749 15.7824 6.789 15.383L4.168 13.722C4.003 13.65 4.006 13.549 4.102 13.43L4.657 12.956C4.70375 12.9242 4.75671 12.9027 4.81239 12.8929C4.86806 12.883 4.92519 12.8851 4.98 12.899L8.215 13.446L10.909 10.528L4.619 6.273C4.46 6.179 4.446 6.073 4.61 5.951L5.518 5.227L13.718 7.527L16.14 4.941C16.4172 4.63683 16.7605 4.40031 17.1435 4.24966C17.5264 4.099 17.9389 4.03822 18.349 4.072C18.4829 4.08478 18.6092 4.14029 18.7091 4.23032C18.809 4.32036 18.8774 4.44015 18.904 4.572C18.9627 4.99402 18.9162 5.424 18.7686 5.82371C18.621 6.22341 18.3769 6.58043 18.058 6.863L15.468 9.285L17.768 17.485L17.044 18.393C16.921 18.556 16.816 18.542 16.722 18.384L12.47 12.092L9.552 14.785L10.099 18.019C10.1133 18.0738 10.1155 18.131 10.1057 18.1867C10.0959 18.2424 10.0741 18.2954 10.042 18.342L9.568 18.897C9.45 18.997 9.348 18.997 9.276 18.831L7.619 16.211C7.21742 16.6246 6.68335 16.884 6.11 16.944C6.065 16.944 6.055 16.927 6.055 16.883H6.056Z" fill="white"/>
</svg>
