<svg xmlns="http://www.w3.org/2000/svg" width="25.876" height="21.5" viewBox="0 0 25.876 21.5">
  <g id="car-service" transform="translate(0.25 -40.275)">
    <path id="Path_587" data-name="Path 587" d="M56.724,194.4H75.209a.4.4,0,1,0,0-.81H56.724a.4.4,0,1,0,0,.81Z" transform="translate(-53.278 -144.798)" stroke="#000" stroke-width="0.5"/>
    <path id="Path_588" data-name="Path 588" d="M25.023,50.681l-1.047-1.648-.392-1.575h.847a.4.4,0,0,0,0-.81H23.383L22.326,42.4a2.571,2.571,0,0,0-2.4-1.879H5.454A2.571,2.571,0,0,0,3.05,42.4L1.993,46.647H.945a.4.4,0,0,0,0,.81h.847L1.4,49.032.353,50.681A2.58,2.58,0,0,0,0,51.894v5.866a.4.4,0,0,0,.4.4H.54V61.12a.4.4,0,0,0,.4.4H5.205a.4.4,0,0,0,.4-.4V59.379a.4.4,0,0,0-.81,0v1.336H1.35V58.164H24.026v2.551H20.576V59.379a.4.4,0,0,0-.81,0V61.12a.4.4,0,0,0,.4.4h4.261a.4.4,0,0,0,.4-.4V58.164h.135a.4.4,0,0,0,.4-.4V51.894A2.58,2.58,0,0,0,25.023,50.681ZM.81,51.894a1.8,1.8,0,0,1,.226-.779l1.082-1.7a.406.406,0,0,0,.051-.119L3.836,42.6a1.779,1.779,0,0,1,1.618-1.265H19.922A1.779,1.779,0,0,1,21.541,42.6l1.666,6.692a.406.406,0,0,0,.051.119l1.082,1.7a1.8,1.8,0,0,1,.226.779v5.461H18.533l-.978-2.447a.4.4,0,0,0-.376-.255H8.2a.4.4,0,0,0-.376.255l-.978,2.447H.81V51.894Zm16.851,5.461H7.715l.756-1.892h8.434l.756,1.892Z" stroke="#000" stroke-width="0.5"/>
    <path id="Path_589" data-name="Path 589" d="M30.4,237.965h1.524a2.189,2.189,0,0,0,0-4.378H30.7a.4.4,0,0,0,0,.81h1.225a1.379,1.379,0,1,1,0,2.759H30.4a.4.4,0,0,0,0,.81Z" transform="translate(-28.38 -182.638)" stroke="#000" stroke-width="0.5"/>
    <path id="Path_590" data-name="Path 590" d="M363.733,235.776a2.192,2.192,0,0,0,2.189,2.189h1.524a.4.4,0,0,0,0-.81h-1.524a1.379,1.379,0,1,1,0-2.759h1.225a.4.4,0,0,0,0-.81h-1.225A2.192,2.192,0,0,0,363.733,235.776Z" transform="translate(-344.094 -182.638)" stroke="#000" stroke-width="0.5"/>
  </g>
</svg>
