<svg xmlns="http://www.w3.org/2000/svg" xmlns:xlink="http://www.w3.org/1999/xlink" width="19" height="17" viewBox="0 0 19 17">
  <defs>
    <clipPath id="clip-path">
      <rect id="Rectangle_151" data-name="Rectangle 151" width="19" height="17" transform="translate(-0.24)" fill="#fff" stroke="#707070" stroke-width="1"/>
    </clipPath>
  </defs>
  <g id="comment-icon" transform="translate(0.24)" clip-path="url(#clip-path)">
    <g id="comments_icon" transform="translate(0 0.052)">
      <path id="Path_528" data-name="Path 528" d="M13.714,13.1h7.492a.375.375,0,1,0,0-.75H13.714a.375.375,0,0,0,0,.75Z" transform="translate(-8.417 -9.241)"/>
      <path id="Path_529" data-name="Path 529" d="M23.38,16.671H16.359a.375.375,0,0,0,0,.75H23.38a.375.375,0,0,0,0-.75Z" transform="translate(-9.503 -11.015)"/>
      <path id="Path_530" data-name="Path 530" d="M20.294,20.99h-6.58a.375.375,0,0,0,0,.749h6.58a.375.375,0,1,0,0-.749Z" transform="translate(-8.417 -12.789)"/>
      <path id="Path_531" data-name="Path 531" d="M21.215,7.074H7.614A2.538,2.538,0,0,0,4.986,9.5v7.479a2.538,2.538,0,0,0,2.628,2.43h8.021l5.788,4.057V19.406a2.52,2.52,0,0,0,2.421-2.423V9.5A2.538,2.538,0,0,0,21.215,7.074Zm1.5,9.91a1.417,1.417,0,0,1-1.5,1.306H20.3v3.02l-4.309-3.02H7.614a1.417,1.417,0,0,1-1.5-1.306V9.5A1.417,1.417,0,0,1,7.614,8.2h13.6a1.417,1.417,0,0,1,1.5,1.306Z" transform="translate(-4.986 -7.074)"/>
    </g>
  </g>
</svg>
