<svg xmlns="http://www.w3.org/2000/svg" width="155" height="334.991" viewBox="0 0 155 334.991">
  <path id="XMLID_462_" d="M180,151.5V62.571a45.072,45.072,0,0,1,30,42.42,15,15,0,0,0,30,0A75.127,75.127,0,0,0,180,31.5V15a15,15,0,0,0-30,0V31.5a75.008,75.008,0,0,0,0,146.982v88.929a45.071,45.071,0,0,1-30-42.42,15,15,0,0,0-30,0,75.127,75.127,0,0,0,60,73.491v16.509a15,15,0,0,0,30,0V298.482A75.007,75.007,0,0,0,180,151.5Zm-60-46.51a45.071,45.071,0,0,1,30-42.42v84.84A45.071,45.071,0,0,1,120,104.991Zm60,162.42v-84.84a44.991,44.991,0,0,1,0,84.84Z" transform="translate(-87.496 2.5)" stroke="#fff" stroke-width="5"/>
</svg>
