<svg xmlns="http://www.w3.org/2000/svg" width="23.201" height="23.2" viewBox="0 0 23.201 23.2">
  <g id="emergency-contact" transform="translate(0.519 0.5)">
    <g id="hospital_call_phone_medical_doctor_care_healthcare_help_emergency_service" data-name="hospital, call, phone, medical, doctor, care, healthcare, help, emergency, service" transform="translate(-0.019)">
      <path id="Path_576" data-name="Path 576" d="M10.511,54.546a6.672,6.672,0,0,0,9.436,0,1.383,1.383,0,0,0,0-1.953l-2.361-2.363a2.529,2.529,0,0,0-2.845-.5c-1.228.569-3.259.679-5.969-2.029s-2.6-4.739-2.029-5.966a2.529,2.529,0,0,0-.5-2.845L3.886,36.532a1.381,1.381,0,0,0-1.953,0,6.677,6.677,0,0,0,0,9.436ZM2.317,36.916a.839.839,0,0,1,1.186,0l2.363,2.363a1.986,1.986,0,0,1,.386,2.234C5.61,42.9,5.46,45.161,8.389,48.089c1.925,1.922,3.562,2.52,4.852,2.52a4.073,4.073,0,0,0,1.726-.382,1.987,1.987,0,0,1,2.234.386l2.363,2.363a.84.84,0,0,1,0,1.186,6.13,6.13,0,0,1-8.669,0L2.317,45.585a6.137,6.137,0,0,1,0-8.669Z" transform="translate(0.019 -34.3)" stroke="#75dc00" stroke-width="1"/>
      <path id="Path_577" data-name="Path 577" d="M262.891,2.526h-2.255V.271A.271.271,0,0,0,260.365,0H256.6a.271.271,0,0,0-.271.271V2.526h-2.255a.271.271,0,0,0-.271.271V6.566a.271.271,0,0,0,.271.271h2.255V9.091a.271.271,0,0,0,.271.271h3.768a.271.271,0,0,0,.271-.271V6.837h2.255a.271.271,0,0,0,.271-.271V2.8A.271.271,0,0,0,262.891,2.526Zm-.271,3.769h-2.255a.271.271,0,0,0-.271.271V8.82h-3.226V6.566a.271.271,0,0,0-.271-.271h-2.255V3.068H256.6a.271.271,0,0,0,.271-.271V.542h3.226V2.8a.271.271,0,0,0,.271.271h2.255Z" transform="translate(-240.96)" stroke="#75dc00" stroke-width="1"/>
    </g>
  </g>
</svg>
