<svg xmlns="http://www.w3.org/2000/svg" width="15.285" height="13.5" viewBox="0 0 15.285 13.5">
  <g id="help-support" transform="translate(-2081.3 -1391.702)">
    <g id="communication-svgrepo-com" transform="translate(2081.3 1363.102)">
      <g id="Group_308" data-name="Group 308" transform="translate(0 28.6)">
        <path id="Path_598" data-name="Path 598" d="M0,35.352C0,39.072,3.43,42.1,7.644,42.1a8.39,8.39,0,0,0,3.942-.968,4.448,4.448,0,0,0,2.1.493,5.146,5.146,0,0,0,.727-.05.581.581,0,0,0,.234-1.064,2.543,2.543,0,0,1-.915-1.086,6.268,6.268,0,0,0,1.551-4.077c0-3.721-3.43-6.748-7.644-6.748S0,31.631,0,35.352Zm.765,0c0-3.3,3.087-5.984,6.88-5.984s6.88,2.684,6.88,5.984a5.462,5.462,0,0,1-1.514,3.743.385.385,0,0,0-.078.393,3.4,3.4,0,0,0,.915,1.373,3.694,3.694,0,0,1-2.06-.493.365.365,0,0,0-.2-.053.378.378,0,0,0-.19.05,7.607,7.607,0,0,1-3.755.974C3.852,41.335.765,38.651.765,35.352Z" transform="translate(0 -28.6)" fill="#b8b8b8"/>
        <circle id="Ellipse_63" data-name="Ellipse 63" cx="0.49" cy="0.49" r="0.49" transform="translate(7.157 6.261)" fill="#b8b8b8"/>
        <circle id="Ellipse_64" data-name="Ellipse 64" cx="0.49" cy="0.49" r="0.49" transform="translate(9.267 6.261)" fill="#b8b8b8"/>
        <circle id="Ellipse_65" data-name="Ellipse 65" cx="0.49" cy="0.49" r="0.49" transform="translate(5.047 6.261)" fill="#b8b8b8"/>
      </g>
    </g>
  </g>
</svg>
