<svg xmlns="http://www.w3.org/2000/svg" width="29.871" height="27.54" viewBox="0 0 29.871 27.54">
  <g id="hotel-r" transform="translate(0 -19.973)">
    <g id="Group_289" data-name="Group 289" transform="translate(0 19.973)">
      <g id="Group_288" data-name="Group 288" transform="translate(0 0)">
        <path id="Path_592" data-name="Path 592" d="M29.276,27.463h-6.6V20.568a.6.6,0,0,0-.6-.6H7.786a.6.6,0,0,0-.6.6v6.895H.6a.6.6,0,0,0-.6.6v18.86a.6.6,0,0,0,.6.6H29.276a.6.6,0,0,0,.6-.6V28.058A.6.6,0,0,0,29.276,27.463ZM7.191,46.323h-6V28.653h6Zm9.943,0h-1.6V44.7a.6.6,0,0,0-1.19,0v1.624h-1.6v-4.48h4.4Zm4.355,0H18.324V41.248a.6.6,0,0,0-.6-.6H12.141a.6.6,0,0,0-.6.6v5.075H8.381V21.163H21.489Zm7.191,0h-6V28.653h6Z" transform="translate(0 -19.973)"/>
      </g>
    </g>
    <g id="Group_291" data-name="Group 291" transform="translate(9.602 28.327)">
      <g id="Group_290" data-name="Group 290" transform="translate(0 0)">
        <path id="Path_593" data-name="Path 593" d="M168.57,163.169h-3.4a.6.6,0,0,0-.6.6v3.4a.6.6,0,0,0,.6.6h3.4a.6.6,0,0,0,.6-.6v-3.4A.6.6,0,0,0,168.57,163.169Zm-.6,3.4h-2.206v-2.206h2.206Z" transform="translate(-164.578 -163.169)"/>
      </g>
    </g>
    <g id="Group_293" data-name="Group 293" transform="translate(15.682 28.327)">
      <g id="Group_292" data-name="Group 292" transform="translate(0 0)">
        <path id="Path_594" data-name="Path 594" d="M272.8,163.169h-3.4a.6.6,0,0,0-.6.6v3.4a.6.6,0,0,0,.6.6h3.4a.6.6,0,0,0,.6-.6v-3.4A.6.6,0,0,0,272.8,163.169Zm-.6,3.4H270v-2.206H272.2Z" transform="translate(-268.806 -163.169)"/>
      </g>
    </g>
    <g id="Group_295" data-name="Group 295" transform="translate(23.431 29.485)">
      <g id="Group_294" data-name="Group 294">
        <path id="Path_595" data-name="Path 595" d="M405.489,183.019h-3.276a.6.6,0,0,0-.6.6v3.276a.6.6,0,0,0,.6.6h3.276a.6.6,0,0,0,.6-.6v-3.276A.6.6,0,0,0,405.489,183.019Zm-.6,3.276h-2.086v-2.086h2.086Z" transform="translate(-401.618 -183.019)"/>
      </g>
    </g>
    <g id="Group_297" data-name="Group 297" transform="translate(23.431 35.286)">
      <g id="Group_296" data-name="Group 296" transform="translate(0 0)">
        <path id="Path_596" data-name="Path 596" d="M405.489,282.441h-3.276a.6.6,0,0,0-.6.6v3.276a.6.6,0,0,0,.6.6h3.276a.6.6,0,0,0,.6-.6v-3.276A.6.6,0,0,0,405.489,282.441Zm-.6,3.276h-2.086v-2.086h2.086Z" transform="translate(-401.618 -282.441)"/>
      </g>
    </g>
    <g id="Group_299" data-name="Group 299" transform="translate(23.431 41.093)">
      <g id="Group_298" data-name="Group 298">
        <path id="Path_597" data-name="Path 597" d="M405.489,381.982h-3.276a.6.6,0,0,0-.6.6v3.276a.6.6,0,0,0,.6.6h3.276a.6.6,0,0,0,.6-.6v-3.276A.6.6,0,0,0,405.489,381.982Zm-.6,3.276h-2.086v-2.086h2.086Z" transform="translate(-401.618 -381.982)"/>
      </g>
    </g>
    <g id="Group_301" data-name="Group 301" transform="translate(1.952 29.485)">
      <g id="Group_300" data-name="Group 300">
        <path id="Path_598" data-name="Path 598" d="M37.326,183.019H34.05a.6.6,0,0,0-.6.6v3.276a.6.6,0,0,0,.6.6h3.276a.6.6,0,0,0,.6-.6v-3.276A.6.6,0,0,0,37.326,183.019Zm-.6,3.276H34.645v-2.086h2.086Z" transform="translate(-33.455 -183.019)"/>
      </g>
    </g>
    <g id="Group_303" data-name="Group 303" transform="translate(1.952 35.286)">
      <g id="Group_302" data-name="Group 302" transform="translate(0 0)">
        <path id="Path_599" data-name="Path 599" d="M37.326,282.441H34.05a.6.6,0,0,0-.6.6v3.276a.6.6,0,0,0,.6.6h3.276a.6.6,0,0,0,.6-.6v-3.276A.6.6,0,0,0,37.326,282.441Zm-.6,3.276H34.645v-2.086h2.086Z" transform="translate(-33.455 -282.441)"/>
      </g>
    </g>
    <g id="Group_305" data-name="Group 305" transform="translate(1.952 41.093)">
      <g id="Group_304" data-name="Group 304">
        <path id="Path_600" data-name="Path 600" d="M37.326,381.982H34.05a.6.6,0,0,0-.6.6v3.276a.6.6,0,0,0,.6.6h3.276a.6.6,0,0,0,.6-.6v-3.276A.6.6,0,0,0,37.326,381.982Zm-.6,3.276H34.645v-2.086h2.086Z" transform="translate(-33.455 -381.982)"/>
      </g>
    </g>
    <g id="Group_307" data-name="Group 307" transform="translate(9.602 34.353)">
      <g id="Group_306" data-name="Group 306">
        <path id="Path_601" data-name="Path 601" d="M168.57,266.458h-3.4a.6.6,0,0,0-.6.6v3.4a.6.6,0,0,0,.6.6h3.4a.6.6,0,0,0,.6-.6v-3.4A.6.6,0,0,0,168.57,266.458Zm-.6,3.4h-2.206v-2.206h2.206Z" transform="translate(-164.578 -266.458)"/>
      </g>
    </g>
    <g id="Group_309" data-name="Group 309" transform="translate(15.682 34.353)">
      <g id="Group_308" data-name="Group 308">
        <path id="Path_602" data-name="Path 602" d="M272.8,266.458h-3.4a.6.6,0,0,0-.6.6v3.4a.6.6,0,0,0,.6.6h3.4a.6.6,0,0,0,.6-.6v-3.4A.6.6,0,0,0,272.8,266.458Zm-.6,3.4H270v-2.206H272.2Z" transform="translate(-268.806 -266.458)"/>
      </g>
    </g>
    <g id="Group_311" data-name="Group 311" transform="translate(14.34 42.406)">
      <g id="Group_310" data-name="Group 310">
        <path id="Path_603" data-name="Path 603" d="M246.4,404.49a.6.6,0,0,0-.6.6v.055a.6.6,0,0,0,1.19,0v-.055A.6.6,0,0,0,246.4,404.49Z" transform="translate(-245.801 -404.49)"/>
      </g>
    </g>
    <g id="Group_313" data-name="Group 313" transform="translate(13.456 22.615)">
      <g id="Group_312" data-name="Group 312">
        <path id="Path_604" data-name="Path 604" d="M233.25,65.266c-.235,0-.47.084-.47.283v1.476h-1.2V65.549c0-.2-.235-.283-.47-.283s-.47.084-.47.283v3.831c0,.193.235.289.47.289s.47-.1.47-.289V67.748h1.2v1.632c0,.193.235.289.47.289s.47-.1.47-.289V65.549C233.72,65.35,233.485,65.266,233.25,65.266Z" transform="translate(-230.642 -65.266)"/>
      </g>
    </g>
  </g>
</svg>
