<svg xmlns="http://www.w3.org/2000/svg" width="19.299" height="19.334" viewBox="0 0 19.299 19.334">
  <path id="phone" d="M19.41,14.977v2.609a1.74,1.74,0,0,1-1.9,1.74,17.212,17.212,0,0,1-7.506-2.67,16.96,16.96,0,0,1-5.219-5.219A17.212,17.212,0,0,1,2.119,3.9,1.74,1.74,0,0,1,3.85,2H6.459A1.74,1.74,0,0,1,8.2,3.5,11.168,11.168,0,0,0,8.807,5.94a1.74,1.74,0,0,1-.391,1.835l-1.1,1.1A13.916,13.916,0,0,0,12.53,14.1l1.1-1.1A1.74,1.74,0,0,1,15.47,12.6a11.168,11.168,0,0,0,2.444.609,1.74,1.74,0,0,1,1.5,1.766Z" transform="translate(-1.111 -1)" fill="none" stroke="#75dc00" stroke-linecap="round" stroke-linejoin="round" stroke-width="2"/>
</svg>
