<svg xmlns="http://www.w3.org/2000/svg" width="22.308" height="22.9" viewBox="0 0 22.308 22.9">
  <g id="C_-_38_x2C__hand_x2C__dollar_x2C__money_x2C__currency_x2C__charity" transform="translate(-1.458 -3.364)">
    <g id="Group_106" data-name="Group 106" transform="translate(1.458 3.364)">
      <path id="Path_487" data-name="Path 487" d="M16.521,5.875a.489.489,0,0,0-.241.179.462.462,0,0,0-.089.275.442.442,0,0,0,.081.255.56.56,0,0,0,.249.19Z" transform="translate(-7.592 -3.885)" fill="#b8b8b8"/>
      <path id="Path_488" data-name="Path 488" d="M17.527,8.575a.455.455,0,0,0-.1-.3.657.657,0,0,0-.338-.193V9.1a.561.561,0,0,0,.318-.186A.5.5,0,0,0,17.527,8.575Z" transform="translate(-8.022 -4.344)" fill="#b8b8b8"/>
      <path id="Path_489" data-name="Path 489" d="M25.789,18.758a2.887,2.887,0,1,0-2.9-2.887A2.9,2.9,0,0,0,25.789,18.758Zm-.929-3.191a1.1,1.1,0,0,1-.237-.715,1.012,1.012,0,0,1,.268-.714A1.073,1.073,0,0,1,25.6,13.8v-.255h.378V13.8a1.126,1.126,0,0,1,.661.282,1.085,1.085,0,0,1,.313.622l-.66.085a.533.533,0,0,0-.314-.415v1.013a1.685,1.685,0,0,1,.853.436,1.027,1.027,0,0,1,.227.689,1.149,1.149,0,0,1-.286.791,1.288,1.288,0,0,1-.8.4v.484H25.6v-.479a1.205,1.205,0,0,1-.728-.332,1.366,1.366,0,0,1-.359-.785l.677-.08a.851.851,0,0,0,.156.357.712.712,0,0,0,.254.217V16.006A1.418,1.418,0,0,1,24.86,15.567Z" transform="translate(-11.982 -7.039)" fill="#b8b8b8"/>
      <path id="Path_490" data-name="Path 490" d="M16.082,9.9a2.887,2.887,0,1,0-2.9-2.887A2.9,2.9,0,0,0,16.082,9.9Zm-.929-3.191A1.1,1.1,0,0,1,14.916,6a1.011,1.011,0,0,1,.268-.715,1.074,1.074,0,0,1,.712-.333V4.693h.378v.255a1.124,1.124,0,0,1,.661.282,1.09,1.09,0,0,1,.313.622l-.66.085a.532.532,0,0,0-.314-.415V6.536a1.685,1.685,0,0,1,.853.436,1.028,1.028,0,0,1,.227.689,1.146,1.146,0,0,1-.286.791,1.291,1.291,0,0,1-.795.4v.484H15.9V8.858a1.207,1.207,0,0,1-.728-.332,1.366,1.366,0,0,1-.359-.785l.677-.08a.861.861,0,0,0,.156.357.719.719,0,0,0,.254.217V7.15A1.419,1.419,0,0,1,15.153,6.711Z" transform="translate(-6.805 -3.523)" fill="#b8b8b8"/>
      <path id="Path_491" data-name="Path 491" d="M27.234,17.43a.455.455,0,0,0-.1-.3.654.654,0,0,0-.338-.193v1.017a.563.563,0,0,0,.318-.186A.5.5,0,0,0,27.234,17.43Z" transform="translate(-12.544 -8.128)" fill="#b8b8b8"/>
      <path id="Path_492" data-name="Path 492" d="M26.228,14.731a.488.488,0,0,0-.241.179.461.461,0,0,0-.089.275.442.442,0,0,0,.081.255.562.562,0,0,0,.249.19Z" transform="translate(-12.104 -7.346)" fill="#b8b8b8"/>
      <path id="Path_493" data-name="Path 493" d="M29.77,24.029a2.528,2.528,0,0,0-.342.022,14.062,14.062,0,0,0-5.587,2.462,2.389,2.389,0,0,1-2.092.742,16.7,16.7,0,0,1-4.014-.661l-.12-.032a.3.3,0,0,1,.152-.586l.122.032c4.115,1.081,5.19.567,5.462.151.012-.028.026-.057.04-.088a.857.857,0,0,0,.121-.444c-.255-1.615-4.634-2.341-7.662-2.341a10.151,10.151,0,0,0-1.787.124,19.026,19.026,0,0,0-4.721,2.012h0a27.3,27.3,0,0,1,2.336,3.61l0,0,.089.16,0,.006.083.152,0,.005.074.136.018.033.065.121.021.04.048.092.029.056.042.082.026.05.046.09.027.053.027.055.039.079.022.046.016.033a8.375,8.375,0,0,1,2.858-.579,7.339,7.339,0,0,1,2.86.676,7.693,7.693,0,0,0,3.052.7c.178,0,.363-.007.549-.021A19.212,19.212,0,0,0,27.6,28.552c2.838-1.678,4.089-2.992,4.052-3.5C31.594,24.3,30.495,24.029,29.77,24.029Z" transform="translate(-9.341 -12.334)" fill="#b8b8b8"/>
      <path id="Path_494" data-name="Path 494" d="M12.721,16.82a.3.3,0,0,0,.3-.3v-3.19a.3.3,0,0,0-.605,0v3.19A.3.3,0,0,0,12.721,16.82Z" transform="translate(-5.861 -6.915)" fill="#b8b8b8"/>
      <path id="Path_495" data-name="Path 495" d="M14.845,14.132V18.6a.3.3,0,1,0,.605,0V14.132a.3.3,0,1,0-.605,0Z" transform="translate(-6.995 -7.306)" fill="#b8b8b8"/>
      <path id="Path_496" data-name="Path 496" d="M24.045,7.159a.3.3,0,0,0,.3-.3V3.667a.3.3,0,0,0-.605,0v3.19A.3.3,0,0,0,24.045,7.159Z" transform="translate(-11.155 -3.364)" fill="#b8b8b8"/>
      <path id="Path_497" data-name="Path 497" d="M26.471,9.24a.3.3,0,0,0,.3-.3V4.472a.3.3,0,1,0-.605,0V8.937A.3.3,0,0,0,26.471,9.24Z" transform="translate(-12.29 -3.531)" fill="#b8b8b8"/>
      <path id="Path_498" data-name="Path 498" d="M19.468,35.09H5.619c.148-.119.317-.254.5-.4.5-.394,1.114-.884,1.613-1.322.783-.688.889-.915.9-.954a2.323,2.323,0,0,0-.118-1.128c-.082-.3-.213-.7-.373-1.155A28.124,28.124,0,0,0,6.42,26.052L6.4,26.027c-.243-.36-.392-.52-.482-.52a.154.154,0,0,0-.093.042A9.042,9.042,0,0,0,4.24,27.532c-.012.039-.017.055.109.265a2.13,2.13,0,0,1,.318.806,16.823,16.823,0,0,1-.011,3.686A13.024,13.024,0,0,0,4.663,35.6c.007.033.016.071.1.071a.346.346,0,0,0,.107-.021.149.149,0,0,0,.1.047h14.5c.108,0,.2-.135.2-.3S19.576,35.09,19.468,35.09ZM6.523,31.023c.227-.04.432.212.458.562s-.138.666-.365.706-.432-.212-.458-.562S6.3,31.063,6.523,31.023Z" transform="translate(-2.035 -12.795)" fill="#b8b8b8"/>
    </g>
  </g>
</svg>
