<svg xmlns="http://www.w3.org/2000/svg" width="21.085" height="18.365" viewBox="0 0 21.085 18.365">
  <g id="studie" transform="translate(-9.75 -78.236)">
    <g id="Group_21" data-name="Group 21" transform="translate(10 78.651)">
      <path id="Path_7" data-name="Path 7" d="M18.217-432.3a2.329,2.329,0,0,0-1.551,1.217,2.443,2.443,0,0,0-.242,1.217v.415l-2.626.012-2.63.012-.262.125a1.671,1.671,0,0,0-.782.782l-.125.261v7.935l.133.27a1.993,1.993,0,0,0,.31.447l.177.177.012,1.809.012,1.809.125.262a1.671,1.671,0,0,0,.782.782l.262.125H28.772l.262-.125a1.671,1.671,0,0,0,.782-.782l.125-.262.012-1.813.012-1.809.177-.177a1.843,1.843,0,0,0,.31-.443l.133-.27v-7.935l-.125-.262a1.671,1.671,0,0,0-.782-.782l-.262-.125-2.626-.012-2.63-.012v-.431a2.3,2.3,0,0,0-.677-1.8,2.434,2.434,0,0,0-1.128-.616C22.088-432.365,18.511-432.361,18.217-432.3Zm4.379.765a1.548,1.548,0,0,1,.769.79,1.452,1.452,0,0,1,.141.782l.016.516H17.061l.016-.516a1.452,1.452,0,0,1,.141-.782,2.091,2.091,0,0,1,.29-.447,1.9,1.9,0,0,1,.794-.467c.089-.02.995-.036,2.075-.032l1.913.008Zm6.82,2.828a.807.807,0,0,1,.459.467c.081.177.085.242.085,3.948s0,3.77-.085,3.948a.808.808,0,0,1-.459.467l-.2.1h-7.15v-.548a3.839,3.839,0,0,0-.048-.717,1.2,1.2,0,0,0-.62-.62,11.886,11.886,0,0,0-2.208,0,.97.97,0,0,0-.367.254c-.266.262-.3.4-.3,1.084v.548H11.37l-.2-.1a.807.807,0,0,1-.459-.467c-.081-.177-.085-.242-.085-3.948s0-3.77.085-3.948a.808.808,0,0,1,.459-.467l.2-.1H29.214Zm-8.1,7.738.1.1v2.828l-.1.1-.1.1H19.361l-.1-.1-.1-.1v-2.828l.1-.1.1-.1h1.861Zm-2.8,2.381a3.837,3.837,0,0,0,.048.717,1.2,1.2,0,0,0,.62.62,11.891,11.891,0,0,0,2.208,0,1.2,1.2,0,0,0,.62-.62,3.837,3.837,0,0,0,.048-.717v-.548l3.625-.008,3.625-.012v1.571c0,1.494,0,1.579-.085,1.752a.808.808,0,0,1-.459.467l-.2.1H12.014l-.2-.1a.807.807,0,0,1-.459-.467c-.081-.173-.085-.258-.085-1.752v-1.571l3.625.012,3.625.008v.548Z" transform="translate(-10 432.349)" fill="#b8b8b8" stroke="#b8b8b8" stroke-width="0.5"/>
    </g>
  </g>
</svg>
