<svg xmlns="http://www.w3.org/2000/svg" width="29.153" height="23.467" viewBox="0 0 29.153 23.467">
  <g id="travel-svgrepo-com_1_" data-name="travel-svgrepo-com (1)" transform="translate(0 -29.258)">
    <g id="Group_336" data-name="Group 336" transform="translate(0 29.258)">
      <g id="Group_335" data-name="Group 335">
        <path id="Path_603" data-name="Path 603" d="M76.608,84.164l-.332-1.242a18.611,18.611,0,0,0-2.122.707l.479,1.193A17.367,17.367,0,0,1,76.608,84.164Z" transform="translate(-66.948 -77.707)" fill="#b8b8b8"/>
        <path id="Path_604" data-name="Path 604" d="M36.38,101.173l-.618-1.127a18.74,18.74,0,0,0-1.893,1.193l.749,1.044A17.483,17.483,0,0,1,36.38,101.173Z" transform="translate(-30.577 -93.167)" fill="#b8b8b8"/>
        <path id="Path_605" data-name="Path 605" d="M0,128.459l.977.835a17.3,17.3,0,0,1,1.447-1.5l-.869-.947A18.541,18.541,0,0,0,0,128.459Z" transform="translate(0 -117.365)" fill="#b8b8b8"/>
        <path id="Path_606" data-name="Path 606" d="M276.671,138.1l-.946.869a17.436,17.436,0,0,1,1.315,1.616l1.044-.749A18.657,18.657,0,0,0,276.671,138.1Z" transform="translate(-248.931 -127.521)" fill="#b8b8b8"/>
        <path id="Path_607" data-name="Path 607" d="M243.18,109.3a17.291,17.291,0,0,1,1.663,1.254l.835-.977a18.455,18.455,0,0,0-1.788-1.348Z" transform="translate(-219.549 -100.556)" fill="#b8b8b8"/>
        <path id="Path_608" data-name="Path 608" d="M207.4,88.535a18.581,18.581,0,0,0-2.059-.877l-.431,1.211a17.218,17.218,0,0,1,1.916.816Z" transform="translate(-184.997 -81.983)" fill="#b8b8b8"/>
        <path id="Path_609" data-name="Path 609" d="M104.877,36.677h.874l.728-1.1,1.4.01L107,38.626V38.7a.7.7,0,0,0,.7.7h1.266l2.01-3.727,1.553.051a1.435,1.435,0,0,0,1.458-1.406,1.37,1.37,0,0,0-.437-1,1.488,1.488,0,0,0-1.036-.4h0l-1.55.052-2-3.7h-1.269a.7.7,0,0,0-.7.7v.072l.876,3.019-1.408.012-.716-1.082h-.873a.651.651,0,0,0-.65.65v3.4A.65.65,0,0,0,104.877,36.677Zm.361-3.641h0l.687,1.039,3.292-.028-1.1-3.777h.237l2.007,3.722,2.16-.072a.472.472,0,0,1,.326.125.369.369,0,0,1,.12.269.419.419,0,0,1-.43.4l-2.163-.072-2.021,3.747h-.237l1.1-3.8-3.288-.023-.7,1.059Z" transform="translate(-94.099 -29.258)" fill="#b8b8b8"/>
        <path id="Path_610" data-name="Path 610" d="M41.117,153.934a11.523,11.523,0,0,0-2.557-.289A11.469,11.469,0,0,0,27.1,165.024h1.285a10.231,10.231,0,0,1,.132-1.537,5.828,5.828,0,0,1,1.707.678c-.011.083-.024.167-.037.251-.029.187-.06.395-.073.608h1.29c.014-.146.036-.3.054-.412.024-.155.047-.309.062-.458.08-.807-.835-1.453-2.717-1.92a10.112,10.112,0,0,1,7.3-7.007,3.971,3.971,0,0,0-.41,1.406c-.031.284-.072.54-.108.765-.144.91-.293,1.85.937,2.4a4.6,4.6,0,0,0,1.56.4,3.573,3.573,0,0,1,.531.082,3.812,3.812,0,0,1,.018.923,1.888,1.888,0,0,0,.047.739,6.7,6.7,0,0,0,1.487,3.084h1.934a5.15,5.15,0,0,1-2.168-3.38l-.026-.212c0-.05.006-.1.009-.152.041-.669.118-1.915-.835-2.206a4.343,4.343,0,0,0-.862-.156,3.318,3.318,0,0,1-1.171-.295c-.33-.147-.33-.147-.191-1.023.038-.24.081-.512.115-.825a3.086,3.086,0,0,1,.808-1.813c.256-.019.514-.031.775-.031a10.243,10.243,0,0,1,2.271.257,10.188,10.188,0,0,1,7.919,9.619c-.107.07-.24.144-.383.218h1.669a11.463,11.463,0,0,0-8.919-11.09Z" transform="translate(-24.47 -141.557)" fill="#b8b8b8"/>
      </g>
    </g>
  </g>
</svg>
