<svg xmlns="http://www.w3.org/2000/svg" width="31" height="31" viewBox="0 0 31 31">
  <g id="dashboard-active" transform="translate(0 0)">
    <path id="Path_59" data-name="Path 59" d="M12.59,10.889H2.382A2.385,2.385,0,0,1,0,8.507V2.382A2.384,2.384,0,0,1,2.382,0H12.59a2.385,2.385,0,0,1,2.382,2.382V8.507A2.385,2.385,0,0,1,12.59,10.889ZM2.382,2.042a.34.34,0,0,0-.34.34V8.507a.341.341,0,0,0,.34.34H12.59a.341.341,0,0,0,.34-.34V2.382a.341.341,0,0,0-.34-.34Zm0,0" fill="#e1c42b"/>
    <path id="Path_60" data-name="Path 60" d="M12.59,232.388H2.382A2.384,2.384,0,0,1,0,230.006V215.714a2.385,2.385,0,0,1,2.382-2.382H12.59a2.385,2.385,0,0,1,2.382,2.382v14.292A2.385,2.385,0,0,1,12.59,232.388ZM2.382,215.374a.341.341,0,0,0-.34.34v14.292a.34.34,0,0,0,.34.34H12.59a.341.341,0,0,0,.34-.34V215.714a.341.341,0,0,0-.34-.34Zm0,0" transform="translate(0 -201.388)" fill="#e1c42b"/>
    <path id="Path_61" data-name="Path 61" d="M289.923,352.221H279.714a2.385,2.385,0,0,1-2.382-2.382v-6.125a2.385,2.385,0,0,1,2.382-2.382h10.208a2.385,2.385,0,0,1,2.382,2.382v6.125A2.384,2.384,0,0,1,289.923,352.221Zm-10.208-8.847a.341.341,0,0,0-.34.34v6.125a.341.341,0,0,0,.34.34h10.208a.34.34,0,0,0,.34-.34v-6.125a.341.341,0,0,0-.34-.34Zm0,0" transform="translate(-261.304 -321.221)" fill="#e1c42b"/>
    <path id="Path_62" data-name="Path 62" d="M289.923,19.056H279.714a2.385,2.385,0,0,1-2.382-2.382V2.382A2.385,2.385,0,0,1,279.714,0h10.208A2.384,2.384,0,0,1,292.3,2.382V16.674A2.385,2.385,0,0,1,289.923,19.056ZM279.714,2.042a.341.341,0,0,0-.34.34V16.674a.341.341,0,0,0,.34.34h10.208a.341.341,0,0,0,.34-.34V2.382a.34.34,0,0,0-.34-.34Zm0,0" transform="translate(-261.304)" fill="#e1c42b"/>
  </g>
</svg>
