<svg xmlns="http://www.w3.org/2000/svg" width="30.001" height="30.001" viewBox="0 0 30.001 30.001">
  <g id="help" transform="translate(0)">
    <g id="Group_143" data-name="Group 143" transform="translate(0 0)">
      <g id="Group_142" data-name="Group 142" transform="translate(0 0)">
        <path id="Path_158" data-name="Path 158" d="M27.454,17.964a1.172,1.172,0,0,0-2.173.878l1.38,3.414-4.1-1.807a1.172,1.172,0,0,0-.933-.006,11.3,11.3,0,0,1-4.461.9c-6.274,0-10.489-4.912-10.489-9.5,0-5.239,4.705-9.5,10.489-9.5s10.489,4.262,10.489,9.5a9.557,9.557,0,0,1-.1,1.343,1.172,1.172,0,1,0,2.318.346A11.826,11.826,0,0,0,30,11.844a11.327,11.327,0,0,0-3.8-8.411A13.318,13.318,0,0,0,17.169,0,13.319,13.319,0,0,0,8.132,3.433a11.39,11.39,0,0,0-3.75,7.4A9.474,9.474,0,0,0,0,18.723a9.092,9.092,0,0,0,1.8,5.433L.086,28.39A1.172,1.172,0,0,0,1.645,29.9L6.58,27.726a11.153,11.153,0,0,0,3.909.7c.029,0,.058,0,.087,0a11.092,11.092,0,0,0,5.514-1.495,10.088,10.088,0,0,0,3.545-3.452,13.485,13.485,0,0,0,2.434-.677l6.287,2.772a1.172,1.172,0,0,0,1.559-1.512ZM10.489,26.075l-.047,0a8.789,8.789,0,0,1-3.424-.7,1.171,1.171,0,0,0-.933.006l-2.744,1.21.885-2.19a1.172,1.172,0,0,0-.195-1.2,6.84,6.84,0,0,1-1.687-4.48A6.972,6.972,0,0,1,4.51,13.73a11.83,11.83,0,0,0,3.467,6.335A13.1,13.1,0,0,0,16.5,23.673,8.613,8.613,0,0,1,10.489,26.075Z" transform="translate(0 0)" fill="#fff"/>
        <circle id="Ellipse_23" data-name="Ellipse 23" cx="1" cy="1" r="1" transform="translate(16 11)" fill="#fff"/>
        <circle id="Ellipse_24" data-name="Ellipse 24" cx="1" cy="1" r="1" transform="translate(21 11)" fill="#fff"/>
        <ellipse id="Ellipse_25" data-name="Ellipse 25" cx="1.5" cy="1" rx="1.5" ry="1" transform="translate(11 11)" fill="#fff"/>
      </g>
    </g>
  </g>
</svg>
