<svg xmlns="http://www.w3.org/2000/svg" width="31.03" height="30.883" viewBox="0 0 31.03 30.883">
  <g id="stipend" transform="translate(-0.201 0.25)">
    <path id="Path_98" data-name="Path 98" d="M219.736,331.205a.593.593,0,1,0-.838,0A.593.593,0,0,0,219.736,331.205Zm0,0" transform="translate(-205.295 -310.632)" fill="#fff" stroke="#fff" stroke-width="0.5"/>
    <path id="Path_99" data-name="Path 99" d="M188.449,6.515A6.515,6.515,0,1,0,194.964,0,6.523,6.523,0,0,0,188.449,6.515Zm11.845,0a5.331,5.331,0,1,1-5.331-5.33A5.337,5.337,0,0,1,200.294,6.515Zm0,0" transform="translate(-176.813)" fill="#fff" stroke="#fff" stroke-width="0.5"/>
    <path id="Path_100" data-name="Path 100" d="M7.323,229.9a.592.592,0,0,0,.836,0l2.871-2.829a1.79,1.79,0,0,0,.422-1.838l.618-.6a1.766,1.766,0,0,1,1.233-.5h7.874a5.3,5.3,0,0,0,3.718-1.51c.041-.04-.313.377,5.372-6.417a2.369,2.369,0,0,0-3.605-3.075l-3.495,3.592a2.38,2.38,0,0,0-1.841-.882h-6.6a7.641,7.641,0,0,0-2.966-.592,7.327,7.327,0,0,0-6.679,3.787,1.769,1.769,0,0,0-1.584.491L.674,222.362a.592.592,0,0,0,0,.835Zm4.431-13.455a6.465,6.465,0,0,1,2.607.543.591.591,0,0,0,.237.05h6.726a1.185,1.185,0,1,1,0,2.369H16.492a.592.592,0,1,0,0,1.184h4.832a2.365,2.365,0,0,0,2.348-2.679c3.381-3.475,3.858-3.964,3.878-3.988a1.185,1.185,0,1,1,1.809,1.531L24.047,221.8a4.124,4.124,0,0,1-2.871,1.155H13.3a2.945,2.945,0,0,0-2.056.83l-.5.486-4.64-4.64a6.115,6.115,0,0,1,5.65-3.192Zm-7.424,3.93a.591.591,0,0,1,.733-.083c.1.062-.192-.206,5.13,5.109a.593.593,0,0,1,0,.835l-2.448,2.412-5.82-5.864Zm0,0" transform="translate(0 -199.74)" fill="#fff" stroke="#fff" stroke-width="0.5"/>
    <path id="Path_101" data-name="Path 101" d="M267.009,40.581v.694a1.777,1.777,0,0,0,.592,3.452.592.592,0,1,1,0,1.184,1.071,1.071,0,0,1-.769-.448.592.592,0,1,0-.907.762,2.456,2.456,0,0,0,1.083.771v.691a.592.592,0,0,0,1.184,0v-.694a1.777,1.777,0,0,0-.592-3.452.592.592,0,0,1,0-1.185.951.951,0,0,1,.641.31.592.592,0,0,0,.824-.851,2.288,2.288,0,0,0-.872-.545v-.69a.592.592,0,1,0-1.184,0Zm0,0" transform="translate(-249.569 -37.619)" fill="#fff" stroke="#fff" stroke-width="0.5"/>
  </g>
</svg>
