<?xml version="1.0" encoding="utf-8"?>
<!-- Svg Vector Icons : http://www.onlinewebfonts.com/icon -->
<!DOCTYPE svg PUBLIC "-//W3C//DTD SVG 1.1//EN" "http://www.w3.org/Graphics/SVG/1.1/DTD/svg11.dtd">
<svg version="1.1" xmlns="http://www.w3.org/2000/svg" xmlns:xlink="http://www.w3.org/1999/xlink" x="0px" y="0px" viewBox="0 0 1000 1000" enable-background="new 0 0 1000 1000" xml:space="preserve">
<metadata> Svg Vector Icons : http://www.onlinewebfonts.com/icon </metadata>
<g><g transform="translate(0.000000,511.000000) scale(0.100000,-0.100000)"><path d="M4012.3,4302.3c-295.3-55.6-602.2-295.3-738.4-579.2c-88.2-186-115.1-318.4-115.1-579.2v-197.5l-1250.4-5.8l-1252.3-5.8l-124.7-59.5c-159.2-74.8-297.3-212.9-372.1-372.1L100,2378.8v-1889v-1889l63.3-128.5c34.5-70.9,101.6-166.8,147.7-212.9l84.4-84.4l5.8-861.1l5.8-861.1l59.5-124.7c74.8-159.2,212.9-297.3,372.1-372.1l124.7-59.5h4037h4037l124.7,59.5c159.2,74.8,297.3,212.9,372.1,372.1l59.4,124.7l5.7,863l5.8,861.1l84.4,84.4c47.9,46,113.2,140,147.7,211l63.3,128.5v1889v1889l-59.4,124.7c-74.8,159.2-212.9,297.3-372.1,372.1l-124.7,59.5l-1250.4,5.8l-1252.3,5.8v205.2c0,381.7-94,632.9-322.2,859.2c-134.2,136.2-356.7,257-537,293.4C5855.3,4331.1,4152.3,4329.2,4012.3,4302.3z M6097,3937.9c174.5-86.3,283.8-199.4,366.3-375.9c55.6-118.9,61.4-147.7,67.1-372.1l7.7-245.5H5000H3461.9l7.7,245.5c5.7,224.4,11.5,253.2,67.1,372.1c32.6,71,95.9,166.8,138.1,212.9c84.4,92.1,258.9,193.7,377.8,222.5c42.2,9.6,473.7,17.3,987.7,15.3l911-3.8L6097,3937.9z M9343.8,2591.6c115.1-53.7,166.8-107.4,218.6-222.5c38.4-84.4,40.3-115.1,40.3-1879.5c0-1764.4-1.9-1795.1-40.3-1879.5c-51.8-115.1-103.6-168.8-218.6-222.5l-95.9-46H7546.8h-1703v260.8c0,149.6-9.6,295.3-23,341.4c-30.7,105.5-189.9,264.7-295.3,295.3c-109.3,32.6-941.7,32.6-1051,0c-49.9-15.3-115.1-59.4-174.5-120.8c-126.6-124.6-143.8-189.8-143.8-515.9v-260.8H2455.1h-1703l-95.9,46c-115.1,53.7-166.9,107.4-218.6,222.5c-38.4,84.4-40.3,115.1-40.3,1879.5c0,1764.4,1.9,1795.1,40.3,1879.5c51.8,115.1,103.6,168.8,218.6,222.5l95.9,46H5000h4247.9L9343.8,2591.6z M5489-1092.5l47.9-46v-673.2v-673.1l-47.9-46l-46-47.9h-443h-443l-46,47.9l-47.9,46v673.1v673.2l47.9,46l46,47.9h443h443L5489-1092.5z M4156.2-2225.9c0-149.6,9.6-295.4,23-341.4c30.7-105.5,189.9-264.7,295.3-295.4c109.3-32.6,941.7-32.6,1051,0c105.5,30.7,264.6,189.9,295.3,295.4c13.4,46,23,191.8,23,341.4v260.8l1726,3.8l1726,5.8v-747.9c0-711.5-1.9-751.8-40.3-834.2c-51.8-115.1-103.6-168.8-218.6-222.5l-95.9-46H5000H1058.9l-95.9,46c-115.1,53.7-166.9,107.4-218.6,222.5c-38.4,82.5-40.3,122.7-40.3,834.2v747.9l1726-5.8l1726-3.8V-2225.9z"/></g></g>
</svg>