<svg xmlns="http://www.w3.org/2000/svg" width="29.007" height="30.09" viewBox="0 0 29.007 30.09">
  <g id="study" transform="translate(-7.804)">
    <g id="Group_52" data-name="Group 52" transform="translate(7.804)">
      <g id="Group_51" data-name="Group 51" transform="translate(0)">
        <path id="Path_64" data-name="Path 64" d="M34.238,3.264q-.092,0-.185,0h-2.32V1.269A1.409,1.409,0,0,0,30.174,0H28.035a1.249,1.249,0,0,0-1.378,1.269V3.263h-8.7V1.269A1.249,1.249,0,0,0,16.579,0H14.44a1.409,1.409,0,0,0-1.559,1.269V3.263h-2.32A2.683,2.683,0,0,0,7.8,5.87q0,.092,0,.185V27.009a2.95,2.95,0,0,0,2.755,3.081H34.053a2.95,2.95,0,0,0,2.755-3.081V6.054A2.683,2.683,0,0,0,34.238,3.264Zm-6.2-1.814h2.248V5.438H28.035Zm-13.595,0h2.066V5.438H14.44ZM35.358,27.009a1.506,1.506,0,0,1-1.305,1.631H10.561a1.506,1.506,0,0,1-1.305-1.631V11.6h26.1V27.009Zm0-20.954v4.1H9.256v-4.1a1.232,1.232,0,0,1,1.305-1.341h2.32v.8A1.492,1.492,0,0,0,14.44,6.888h2.139a1.341,1.341,0,0,0,1.378-1.3q0-.037,0-.073v-.8h8.7v.8a1.341,1.341,0,0,0,1.3,1.378h2.212A1.492,1.492,0,0,0,31.733,5.51v-.8h2.32a1.233,1.233,0,0,1,1.305,1.341Z" transform="translate(-7.804 0)" fill="#fff"/>
        <path id="Path_65" data-name="Path 65" d="M120.582,202.491l-.674,3.746a.749.749,0,0,0,1.086.787l3.372-1.761,3.372,1.761.337.075a.712.712,0,0,0,.45-.15.749.749,0,0,0,.3-.712l-.674-3.746,2.735-2.622a.824.824,0,0,0,.187-.787.787.787,0,0,0-.6-.487l-3.746-.562-1.686-3.409a.749.749,0,0,0-1.349,0l-1.686,3.409-3.746.562a.787.787,0,0,0-.6.487.824.824,0,0,0,.187.787Zm2.06-3.034a.674.674,0,0,0,.524-.412l1.2-2.4,1.2,2.4a.674.674,0,0,0,.524.412l2.66.375-1.911,1.836a.787.787,0,0,0-.225.674l.45,2.66-2.36-1.274-.337-.075-.337.075L121.668,205l.45-2.66a.787.787,0,0,0-.225-.674l-1.911-1.836Z" transform="translate(-110.215 -181.279)" fill="#fff"/>
      </g>
    </g>
  </g>
</svg>
